<?xml version="1.0" encoding="utf-8"?>
<!-- Generator: Adobe Illustrator 21.1.0, SVG Export Plug-In . SVG Version: 6.00 Build 0)  -->
<svg version="1.1" id="Capa_1" xmlns="http://www.w3.org/2000/svg" xmlns:xlink="http://www.w3.org/1999/xlink" x="0px" y="0px"
	 viewBox="0 0 58 58" style="enable-background:new 0 0 58 58;" xml:space="preserve">
<style type="text/css">
	.st0{fill:#E7ECED;}
	.st1{fill:#AFB6BB;}
</style>
<path class="st0" d="M54.8,50H3.2C1.4,50,0,48.6,0,46.8V11.2C0,9.4,1.4,8,3.2,8h51.6c1.8,0,3.2,1.4,3.2,3.2v35.6
	C58,48.6,56.6,50,54.8,50z"/>
<g>
	<path class="st1" d="M8.2,22H37c0.6,0,1-0.4,1-1s-0.4-1-1-1H8.2c-0.6,0-1,0.4-1,1S7.6,22,8.2,22z"/>
	<path class="st1" d="M41,22h1c0.6,0,1-0.4,1-1s-0.4-1-1-1h-1c-0.6,0-1,0.4-1,1S40.4,22,41,22z"/>
	<path class="st1" d="M28,37h-1c-0.6,0-1,0.4-1,1s0.4,1,1,1h1c0.6,0,1-0.4,1-1S28.6,37,28,37z"/>
	<path class="st1" d="M34,37h-2c-0.6,0-1,0.4-1,1s0.4,1,1,1h2c0.6,0,1-0.4,1-1S34.6,37,34,37z"/>
	<path class="st1" d="M39,37h-1c-0.6,0-1,0.4-1,1s0.4,1,1,1h1c0.6,0,1-0.4,1-1S39.6,37,39,37z"/>
	<path class="st1" d="M45,37h-2c-0.6,0-1,0.4-1,1s0.4,1,1,1h2c0.6,0,1-0.4,1-1S45.6,37,45,37z"/>
	<path class="st1" d="M48.3,37.3C48.1,37.5,48,37.7,48,38s0.1,0.5,0.3,0.7c0.2,0.2,0.5,0.3,0.7,0.3s0.5-0.1,0.7-0.3
		c0.2-0.2,0.3-0.5,0.3-0.7s-0.1-0.5-0.3-0.7C49.3,36.9,48.7,36.9,48.3,37.3z"/>
	<path class="st1" d="M8.2,28H49c0.6,0,1-0.4,1-1s-0.4-1-1-1H8.2c-0.6,0-1,0.4-1,1S7.6,28,8.2,28z"/>
	<path class="st1" d="M49,32H8.5c-0.6,0-1,0.4-1,1s0.4,1,1,1H49c0.6,0,1-0.4,1-1S49.6,32,49,32z"/>
</g>
</svg>
