<?xml version="1.0" encoding="utf-8"?>
<!-- Generator: Adobe Illustrator 21.1.0, SVG Export Plug-In . SVG Version: 6.00 Build 0)  -->
<svg version="1.1" id="Capa_1" xmlns="http://www.w3.org/2000/svg" xmlns:xlink="http://www.w3.org/1999/xlink" x="0px" y="0px"
	 viewBox="0 0 58 58" style="enable-background:new 0 0 58 58;" xml:space="preserve">
<style type="text/css">
	.st0{fill:#E7ECED;}
	.st1{fill:#E74C3D;}
	.st2{fill:#F0C41B;}
	.st3{fill:#AFB6BB;}
</style>
<g id="XMLID_67_">
	<path id="XMLID_118_" class="st0" d="M54.8,50H3.2C1.4,50,0,48.6,0,46.8V11.2C0,9.4,1.4,8,3.2,8h51.6c1.8,0,3.2,1.4,3.2,3.2v35.6
		C58,48.6,56.6,50,54.8,50"/>
	<path id="XMLID_117_" class="st1" d="M46,20c0,3.3-2.7,6-6,6c-3.3,0-6-2.7-6-6s2.7-6,6-6C43.3,14,46,16.7,46,20"/>
	<path id="XMLID_116_" class="st2" d="M53,20c0,3.3-2.7,6-6,6s-6-2.7-6-6s2.7-6,6-6S53,16.7,53,20"/>
	<path id="XMLID_115_" class="st3" d="M14,15H5c-0.6,0-1,0.4-1,1s0.4,1,1,1h9c0.6,0,1-0.4,1-1S14.6,15,14,15"/>
	<path id="XMLID_114_" class="st3" d="M28,16c0-0.6-0.4-1-1-1h-9c-0.6,0-1,0.4-1,1s0.4,1,1,1h9C27.6,17,28,16.6,28,16"/>
	<path id="XMLID_113_" class="st3" d="M6,20H5c-0.6,0-1,0.4-1,1s0.4,1,1,1h1c0.6,0,1-0.4,1-1S6.6,20,6,20"/>
	<path id="XMLID_112_" class="st3" d="M12,20h-2c-0.6,0-1,0.4-1,1s0.4,1,1,1h2c0.6,0,1-0.4,1-1S12.6,20,12,20"/>
	<path id="XMLID_111_" class="st3" d="M17,20h-1c-0.6,0-1,0.4-1,1s0.4,1,1,1h1c0.6,0,1-0.4,1-1S17.6,20,17,20"/>
	<path id="XMLID_110_" class="st3" d="M23,20h-2c-0.6,0-1,0.4-1,1s0.4,1,1,1h2c0.6,0,1-0.4,1-1S23.6,20,23,20"/>
	<path id="XMLID_109_" class="st3" d="M26.3,20.3C26.1,20.5,26,20.7,26,21s0.1,0.5,0.3,0.7c0.2,0.2,0.4,0.3,0.7,0.3s0.5-0.1,0.7-0.3
		c0.2-0.2,0.3-0.4,0.3-0.7s-0.1-0.5-0.3-0.7C27.3,19.9,26.7,19.9,26.3,20.3"/>
	<rect id="XMLID_108_" x="5" y="37" class="st3" width="9" height="6"/>
	<rect id="XMLID_107_" x="18" y="37" class="st3" width="9" height="6"/>
	<rect id="XMLID_106_" x="31" y="37" class="st3" width="9" height="6"/>
	<rect id="XMLID_105_" x="44" y="37" class="st3" width="9" height="6"/>
</g>
</svg>
