<svg width="36" height="36" viewBox="0 0 36 36" fill="none" xmlns="http://www.w3.org/2000/svg">
<g filter="url(#filter0_d_234_1709)">
<path d="M3 18C3 9.71573 9.71601 3 18.0003 3C26.2845 3 33.0006 9.71573 33.0006 18C33.0006 26.2843 26.2845 33 18.0003 33C9.71601 33 3 26.2843 3 18Z" fill="white"/>
</g>
<path fill-rule="evenodd" clip-rule="evenodd" d="M12.8645 16.3205C12.9484 16.6461 13.2754 16.8141 13.6076 16.7036C16.3313 15.8655 19.0617 15.292 21.8789 14.8747C22.2018 14.8315 22.3785 14.4976 22.2598 14.1627C22.0096 13.4569 21.8832 13.105 21.6275 12.4033C21.519 12.1054 21.2255 11.91 20.925 11.9426C18.1717 12.2821 15.5118 12.7835 12.8459 13.5557C12.4988 13.6647 12.2856 14.0534 12.3732 14.3983C12.568 15.1661 12.6662 15.5504 12.8645 16.3205Z" fill="#2C2A29"/>
<path fill-rule="evenodd" clip-rule="evenodd" d="M23.9034 16.7063C23.7978 16.3909 23.5108 16.1801 23.2271 16.2172C18.9169 16.7667 14.7198 17.8323 10.7399 19.5934C10.4496 19.7307 10.2755 20.0959 10.3363 20.4176C10.4923 21.2408 10.5711 21.6527 10.7303 22.4773C10.7983 22.8299 11.1277 22.9923 11.4525 22.8339C15.4951 20.9823 19.7672 19.8034 24.1498 19.1005C24.4284 19.0549 24.5704 18.7356 24.4638 18.4068C24.243 17.7249 24.1309 17.3849 23.9034 16.7063Z" fill="#2C2A29"/>
<path fill-rule="evenodd" clip-rule="evenodd" d="M23.8914 21.3027C23.7846 20.966 23.4724 20.7464 23.1757 20.8074C20.4845 21.3913 17.8539 22.0951 15.2479 22.9905C14.9174 23.1119 14.7313 23.4605 14.8181 23.7813C15.0253 24.5455 15.1296 24.9281 15.3393 25.6947C15.4378 26.0548 15.8419 26.239 16.2142 26.0971C18.8192 25.1642 21.4504 24.3496 24.1391 23.6965C24.397 23.6338 24.5239 23.3314 24.428 23.0194C24.2164 22.3313 24.1091 21.9878 23.8914 21.3027Z" fill="#2C2A29"/>
<mask id="mask0_234_1709" style="mask-type:alpha" maskUnits="userSpaceOnUse" x="3" y="3" width="31" height="30">
<path d="M3 18C3 9.71573 9.71601 3 18.0003 3C26.2846 3 33.0006 9.71573 33.0006 18C33.0006 26.2843 26.2846 33 18.0003 33C9.71601 33 3 26.2843 3 18Z" fill="white"/>
</mask>
<g mask="url(#mask0_234_1709)">
<path fill-rule="evenodd" clip-rule="evenodd" d="M11.0628 -7.52864C10.9428 -7.53914 10.8186 -7.52139 10.6999 -7.47145C10.3104 -7.30751 10.1276 -6.8589 10.2915 -6.46939C10.8143 -5.22721 11.4598 -3.96576 12.21 -2.7201C12.9443 -1.50378 13.7597 -0.344721 14.6339 0.725539C15.5399 1.83512 16.5197 2.86154 17.5461 3.77621C18.6156 4.72909 19.7542 5.57926 20.9303 6.30311C21.2903 6.52466 21.7615 6.41244 21.983 6.05257C22.2045 5.6927 22.0923 5.22139 21.7324 4.99991C20.6326 4.32302 19.5666 3.52694 18.5642 2.63371C17.5979 1.77267 16.6744 0.804986 15.8192 -0.242398C14.9905 -1.25694 14.2171 -2.35637 13.5205 -3.51027C12.8085 -4.6926 12.1965 -5.88818 11.702 -7.06306C11.588 -7.33381 11.3364 -7.5047 11.0628 -7.52864Z" fill="#00C389"/>
<path fill-rule="evenodd" clip-rule="evenodd" d="M7.84617 -9.24298C7.66213 -9.28547 7.46289 -9.26719 7.28015 -9.17747C6.85853 -8.97026 6.68472 -8.46055 6.89184 -8.03892C7.21448 -7.3824 7.55537 -6.74613 7.81633 -6.26517L7.82096 -6.25666C8.18197 -5.60896 8.49081 -5.06633 8.8248 -4.52327C9.50856 -3.39401 10.2623 -2.27302 11.0621 -1.19628C12.6803 0.98929 14.5047 2.98927 16.4839 4.74696C18.514 6.5516 20.7327 8.11693 23.0779 9.39926C25.3966 10.6696 27.9069 11.6986 30.5384 12.4574C30.9902 12.5873 31.4612 12.3272 31.5914 11.8758C31.7216 11.4244 31.4612 10.953 31.0098 10.8228C28.4983 10.0987 26.1045 9.1176 23.8947 7.90697C21.6614 6.68582 19.5484 5.19489 17.6138 3.47528C15.7223 1.7953 13.9778 -0.117332 12.4285 -2.20963C11.6598 -3.24461 10.9362 -4.32075 10.277 -5.40936C9.95653 -5.9305 9.65864 -6.45397 9.30931 -7.08064C9.05632 -7.54708 8.72697 -8.16188 8.41878 -8.78914C8.30134 -9.02804 8.0868 -9.18743 7.84617 -9.24298Z" fill="#FDDA24"/>
<path fill-rule="evenodd" clip-rule="evenodd" d="M26.1243 7.69407C25.7177 7.60019 25.2828 7.78536 25.0771 8.17118C24.8312 8.63227 25.0057 9.20539 25.4668 9.45124C29.9829 11.8591 35.3809 13.239 41.5107 13.5526C42.0326 13.5793 42.4773 13.178 42.504 12.6561C42.5307 12.1342 42.1291 11.6897 41.6074 11.6628C35.7571 11.3635 30.6262 10.0576 26.3571 7.78145C26.2819 7.74133 26.2036 7.71237 26.1243 7.69407Z" fill="#9063CD"/>
</g>
<defs>
<filter id="filter0_d_234_1709" x="0.344907" y="0.676793" width="35.3107" height="35.3102" filterUnits="userSpaceOnUse" color-interpolation-filters="sRGB">
<feFlood flood-opacity="0" result="BackgroundImageFix"/>
<feColorMatrix in="SourceAlpha" type="matrix" values="0 0 0 0 0 0 0 0 0 0 0 0 0 0 0 0 0 0 127 0" result="hardAlpha"/>
<feOffset dy="0.331887"/>
<feGaussianBlur stdDeviation="1.32755"/>
<feColorMatrix type="matrix" values="0 0 0 0 0 0 0 0 0 0 0 0 0 0 0 0 0 0 0.1 0"/>
<feBlend mode="normal" in2="BackgroundImageFix" result="effect1_dropShadow_234_1709"/>
<feBlend mode="normal" in="SourceGraphic" in2="effect1_dropShadow_234_1709" result="shape"/>
</filter>
</defs>
</svg>
