<svg width="75" height="75" viewBox="0 0 75 75" fill="none" xmlns="http://www.w3.org/2000/svg">
<g filter="url(#filter0_d_268_1872)">
<path d="M4 36.9999C4 18.4984 18.999 3.5 37.5005 3.5C56.0019 3.5 71.001 18.4984 71.001 36.9999C71.001 55.5013 56.0019 70.4997 37.5005 70.4997C18.999 70.4997 4 55.5013 4 36.9999Z" fill="white"/>
</g>
<path fill-rule="evenodd" clip-rule="evenodd" d="M26.03 33.249C26.2173 33.9762 26.9476 34.3512 27.6896 34.1047C33.7725 32.2328 39.8703 30.9519 46.1621 30.02C46.8832 29.9235 47.2778 29.1778 47.0126 28.4298C46.454 26.8537 46.1717 26.0677 45.6007 24.5007C45.3583 23.8354 44.7027 23.399 44.0317 23.4718C37.8827 24.2299 31.9422 25.3496 25.9885 27.0743C25.2133 27.3177 24.7372 28.1859 24.9327 28.956C25.3678 30.6707 25.5872 31.529 26.03 33.249Z" fill="#2C2A29"/>
<path fill-rule="evenodd" clip-rule="evenodd" d="M50.6834 34.1104C50.4475 33.406 49.8066 32.9353 49.173 33.0183C39.5469 34.2453 30.1735 36.6251 21.285 40.5582C20.6367 40.8648 20.2478 41.6805 20.3837 42.3991C20.7321 44.2374 20.908 45.1573 21.2636 46.999C21.4155 47.7865 22.151 48.1491 22.8765 47.7954C31.905 43.6602 41.446 41.0274 51.2338 39.4575C51.8558 39.3555 52.173 38.6426 51.935 37.9082C51.4419 36.3853 51.1915 35.6259 50.6834 34.1104Z" fill="#2C2A29"/>
<path fill-rule="evenodd" clip-rule="evenodd" d="M50.6569 44.3758C50.4184 43.6239 49.721 43.1334 49.0585 43.2697C43.0481 44.5737 37.173 46.1455 31.3532 48.1453C30.6151 48.4163 30.1994 49.195 30.3933 49.9113C30.856 51.618 31.0889 52.4726 31.5572 54.1845C31.7772 54.9887 32.6798 55.4001 33.5112 55.0834C39.329 52.9998 45.2053 51.1805 51.2101 49.7219C51.786 49.582 52.0694 48.9065 51.8554 48.2098C51.3826 46.6729 51.1431 45.9059 50.6569 44.3758Z" fill="#2C2A29"/>
<mask id="mask0_268_1872" style="mask-type:alpha" maskUnits="userSpaceOnUse" x="4" y="3" width="68" height="68">
<path d="M4 36.9999C4 18.4984 18.999 3.5 37.5005 3.5C56.0019 3.5 71.001 18.4984 71.001 36.9999C71.001 55.5013 56.0019 70.4997 37.5005 70.4997C18.999 70.4997 4 55.5013 4 36.9999Z" fill="white"/>
</mask>
<g mask="url(#mask0_268_1872)">
<path fill-rule="evenodd" clip-rule="evenodd" d="M22.0075 -20.014C21.7395 -20.0375 21.4622 -19.9979 21.197 -19.8863C20.3271 -19.5202 19.9188 -18.5183 20.285 -17.6484C21.4526 -14.8742 22.8942 -12.057 24.5696 -9.27501C26.2095 -6.55857 28.0305 -3.97003 29.983 -1.57979C32.0063 0.898271 34.1946 3.19061 36.4868 5.23335C38.8753 7.36143 41.4182 9.26014 44.0449 10.8767C44.8488 11.3715 45.9012 11.1209 46.3959 10.3172C46.8906 9.5135 46.6401 8.46091 45.8363 7.96627C43.38 6.45454 40.9994 4.67665 38.7605 2.68178C36.6025 0.758796 34.54 -1.40236 32.6301 -3.7415C30.7793 -6.0073 29.0521 -8.46269 27.4964 -11.0397C25.9062 -13.6802 24.5394 -16.3504 23.435 -18.9742C23.1804 -19.5789 22.6186 -19.9606 22.0075 -20.014Z" fill="#00C389"/>
<path fill-rule="evenodd" clip-rule="evenodd" d="M14.8234 -23.8426C14.4124 -23.9375 13.9674 -23.8967 13.5593 -23.6963C12.6176 -23.2336 12.2295 -22.0952 12.692 -21.1536C13.4126 -19.6874 14.1739 -18.2664 14.7567 -17.1922L14.7671 -17.1732C15.5733 -15.7267 16.263 -14.5148 17.009 -13.302C18.536 -10.78 20.2193 -8.27644 22.0055 -5.87175C25.6196 -0.990654 29.6941 3.47595 34.1142 7.40145C38.6482 11.4318 43.6031 14.9277 48.8408 17.7915C54.0192 20.6286 59.6255 22.9267 65.5025 24.6214C66.5115 24.9115 67.5635 24.3305 67.8542 23.3224C68.1449 22.3144 67.5633 21.2614 66.5553 20.9708C60.9463 19.3535 55.6001 17.1625 50.6649 14.4588C45.6772 11.7316 40.9583 8.40182 36.6377 4.56137C32.4132 0.809437 28.5172 -3.4621 25.0573 -8.13488C23.3404 -10.4463 21.7244 -12.8497 20.2522 -15.2809C19.5365 -16.4448 18.8712 -17.6139 18.091 -19.0134C17.526 -20.0551 16.7905 -21.4282 16.1022 -22.8291C15.8399 -23.3626 15.3608 -23.7186 14.8234 -23.8426Z" fill="#FDDA24"/>
<path fill-rule="evenodd" clip-rule="evenodd" d="M55.6437 13.9833C54.7355 13.7737 53.7643 14.1872 53.3049 15.0489C52.7558 16.0786 53.1455 17.3586 54.1753 17.9077C64.2612 23.2853 76.3168 26.367 90.0066 27.0674C91.1721 27.127 92.1653 26.2306 92.2249 25.0651C92.2845 23.8996 91.3876 22.9069 90.2224 22.8468C77.1569 22.1784 65.6979 19.2619 56.1636 14.1785C55.9956 14.0889 55.8208 14.0242 55.6437 13.9833Z" fill="#9063CD"/>
</g>
<defs>
<filter id="filter0_d_268_1872" x="0.579029" y="0.50665" width="73.8429" height="73.8417" filterUnits="userSpaceOnUse" color-interpolation-filters="sRGB">
<feFlood flood-opacity="0" result="BackgroundImageFix"/>
<feColorMatrix in="SourceAlpha" type="matrix" values="0 0 0 0 0 0 0 0 0 0 0 0 0 0 0 0 0 0 127 0" result="hardAlpha"/>
<feOffset dy="0.427621"/>
<feGaussianBlur stdDeviation="1.71049"/>
<feColorMatrix type="matrix" values="0 0 0 0 0 0 0 0 0 0 0 0 0 0 0 0 0 0 0.1 0"/>
<feBlend mode="normal" in2="BackgroundImageFix" result="effect1_dropShadow_268_1872"/>
<feBlend mode="normal" in="SourceGraphic" in2="effect1_dropShadow_268_1872" result="shape"/>
</filter>
</defs>
</svg>
