<svg xmlns="http://www.w3.org/2000/svg" viewBox="0 0 29.58 21.51"><defs><style>.cls-1{fill:#377cac;}</style></defs><title>efectivo</title><g id="Capa_2" data-name="Capa 2"><g id="Capa_1-2" data-name="Capa 1"><path class="cls-1" d="M28.6,4.17,2.55,0V2.21L1,2.09V4.17H0V21.51H29.58V4.17h-1Zm-25-3L17.24,3.38,3.57,2.29ZM2,3.19l.51,0h0L6,3.51l8.26.66H2Zm26.52,17.3H1V5.19H28.56Z"/><path class="cls-1" d="M3.31,9.27A1.78,1.78,0,1,0,1.53,7.48,1.79,1.79,0,0,0,3.31,9.27Zm0-2.55a.76.76,0,1,1-.76.76A.77.77,0,0,1,3.31,6.72Z"/><path class="cls-1" d="M24.48,7.48A1.78,1.78,0,1,0,26.26,5.7,1.79,1.79,0,0,0,24.48,7.48Zm2.55,0a.76.76,0,1,1-.76-.76A.77.77,0,0,1,27,7.48Z"/><path class="cls-1" d="M3.31,16.41A1.78,1.78,0,1,0,5.1,18.19,1.79,1.79,0,0,0,3.31,16.41Zm0,2.55a.76.76,0,1,1,.76-.76A.77.77,0,0,1,3.31,19Z"/><path class="cls-1" d="M26.26,16.41A1.78,1.78,0,1,0,28,18.19,1.79,1.79,0,0,0,26.26,16.41Zm0,2.55a.76.76,0,1,1,.76-.76A.77.77,0,0,1,26.26,19Z"/><path class="cls-1" d="M16.09,19.85l.19,0,.56-.14.25-.08.32-.12.27-.11.3-.14.41-.22.06,0H24l0-.55c0-.07,0-.14,0-.21a2.3,2.3,0,0,1,2.29-2.29h.21L27,16V9.72l-.56.05h-.21A2.3,2.3,0,0,1,24,7.48c0-.07,0-.14,0-.21l0-.55H18.45a7.07,7.07,0,0,0-7.32,0H5.55l.05.56c0,.07,0,.14,0,.21A2.3,2.3,0,0,1,3.31,9.78H3.11l-.56-.05V16l.56-.05h.21a2.3,2.3,0,0,1,2.29,2.29c0,.07,0,.14,0,.21L5.55,19h5.57l.25.14.08,0,.51.24.12.05c.19.08.39.15.59.22h0c.21.06.42.12.63.16l.15,0,.5.08.18,0c.22,0,.43,0,.65,0s.43,0,.64,0l.2,0Zm-2.71-1.07-.1,0-.49-.15-.22-.08-.34-.15-.17-.08,1.35-.67a.85.85,0,0,0,.47-.76V16l-.31-.13a2.29,2.29,0,0,1-1.3-1.65L12.2,14l-.27-.08a.38.38,0,0,1-.27-.36v-.44a.38.38,0,0,1,.21-.33l.24-.13,0-.27a4.07,4.07,0,0,1,.27-1.12c.06-.14.11-.25.15-.34a1.4,1.4,0,0,0,.18-.74,3.26,3.26,0,0,0,1.76.32h.21c1.62,0,2.41.58,2.57,1.89l0,.27.24.13a.38.38,0,0,1,.21.33v.44a.38.38,0,0,1-.27.36l-.27.08-.07.27a2.29,2.29,0,0,1-1.3,1.65l-.31.13v.85a.85.85,0,0,0,.46.76l1.42.72-.06,0c-.18.08-.36.16-.54.22l-.07,0A6.25,6.25,0,0,1,13.38,18.79Zm6.4-11H23A3.32,3.32,0,0,0,26,10.79v4.1A3.32,3.32,0,0,0,23,17.94H19.78l0,0,.25-.27.24-.26.08-.11a7.07,7.07,0,0,0,1.51-3.66v0a7.16,7.16,0,0,0,0-.73c0-.25,0-.49,0-.73v0A7.07,7.07,0,0,0,20.37,8.4l-.08-.11L20.05,8l-.25-.27Zm-1.72-.06a6.21,6.21,0,0,1,1.14.93l.13.15c.11.12.21.25.31.37l.15.2c.09.13.18.27.26.41l.11.18a6,6,0,0,1,.28.59l.09.23c.05.14.1.29.14.43l.07.25c0,.16.07.31.09.47s0,.15,0,.23a6.25,6.25,0,0,1,0,.71,6.12,6.12,0,0,1,0,.71c0,.08,0,.15,0,.23s-.05.32-.09.47l-.07.25c0,.15-.09.29-.14.43s-.05.16-.09.23a6.11,6.11,0,0,1-.28.59l-.11.18c-.08.14-.17.27-.26.41l-.15.2c-.1.13-.2.25-.31.37l-.13.15a6.19,6.19,0,0,1-.8.68,2,2,0,0,0-.27-.17l-1.58-.81v-.09a3.27,3.27,0,0,0,1.5-1.93,1.39,1.39,0,0,0,.72-1.22v-.44A1.39,1.39,0,0,0,18.25,12c-.21-1.22-1-2.56-3.55-2.56h-.29A2.19,2.19,0,0,1,13,9.15a1.72,1.72,0,0,1-.39-.34.6.6,0,0,0-1.07.44c0,.17,0,.36.09.58.08.41.08.41,0,.65s-.1.22-.17.38A5,5,0,0,0,11.15,12a1.39,1.39,0,0,0-.51,1.07v.44a1.39,1.39,0,0,0,.72,1.22,3.27,3.27,0,0,0,1.5,1.93v.09l-1.64.81-.15.1a6.2,6.2,0,0,1-.69-.61l-.13-.15c-.11-.12-.21-.25-.31-.37l-.15-.2c-.09-.13-.18-.27-.26-.41l-.11-.18a6,6,0,0,1-.28-.59L9,14.93c-.05-.14-.1-.29-.14-.43l-.07-.25c0-.16-.07-.31-.09-.47s0-.15,0-.23a6.58,6.58,0,0,1,0-.71,6.12,6.12,0,0,1,0-.71c0-.08,0-.15,0-.23s.05-.32.09-.47l.07-.25c0-.15.09-.29.14-.43s.05-.16.09-.23a6.11,6.11,0,0,1,.28-.59l.11-.18c.08-.14.17-.27.26-.41l.15-.2c.1-.13.2-.25.31-.37l.13-.15a6.21,6.21,0,0,1,1.14-.93,6.07,6.07,0,0,1,6.54,0ZM6.62,17.94a3.32,3.32,0,0,0-3.05-3.05v-4.1A3.32,3.32,0,0,0,6.62,7.74H9.8l0,0L9.53,8l-.24.26-.08.11a7.07,7.07,0,0,0-1.51,3.66v0a7.17,7.17,0,0,0,0,.73c0,.24,0,.49,0,.73v0a7.07,7.07,0,0,0,1.51,3.66l.08.11.24.26.25.27,0,0H6.62Z"/></g></g></svg>