<svg width="193" height="49" viewBox="0 0 193 49" fill="none" xmlns="http://www.w3.org/2000/svg">
<g clip-path="url(#clip0_309_1081)">
<path d="M64.766 31.0183L67.977 29.3165C69.422 32.1422 71.6376 33.5229 74.6238 33.5229C77.5459 33.5229 79.5367 32.5917 79.5367 30.3761C79.5367 28.289 78.0275 27.3257 74.078 26.1376C69.422 24.7569 65.6651 23.5046 65.6651 18.9128C65.6651 14.8027 69.0046 12.1055 73.9174 12.1055C78.6697 12.1055 81.4633 14.4495 82.9403 17.3073L79.9862 19.3624C78.5413 16.9541 76.5183 15.8303 73.8853 15.8303C71.2202 15.8303 69.6789 16.7936 69.6789 18.5596C69.6789 20.8073 71.4128 21.5459 75.3303 22.7339C79.8899 24.0825 83.5183 25.5596 83.5183 30.1192C83.5183 34.0688 80.1789 37.1514 74.4312 37.1514C69.6789 37.1514 66.2752 34.6789 64.766 31.0183Z" fill="#474C55"/>
<path d="M85.3807 32.5276C85.3807 28.7707 88.5596 26.2661 96.6514 25.367V24.8532C96.6514 23.1193 95.7523 22.3808 93.8257 22.3808C91.4174 22.3808 89.4587 23.5688 88.0138 24.7248L86.0551 22.2202C87.9174 20.5184 90.8073 19.0734 94.4037 19.0734C99.0275 19.0734 100.633 21.289 100.633 25.3349V32.4633C100.633 34.5505 100.761 35.8349 101.115 36.7019H97.0688C96.844 35.9954 96.6835 35.4496 96.6835 34.4863C94.9174 36.2844 92.8624 36.9587 90.2936 36.9587C87.4679 36.9587 85.3807 35.3854 85.3807 32.5276ZM96.6514 31.8532V28.0321C91.867 28.6743 89.3303 29.8624 89.3303 31.7569C89.3303 33.1376 90.2615 33.8441 91.7385 33.8441C93.7936 33.8441 95.3991 33.0734 96.6514 31.8532Z" fill="#474C55"/>
<path d="M106.156 36.7018V22.5734H103.17V19.3624H106.156V17.5963C106.156 14.7064 107.376 12.4587 111.743 12.4587C112.482 12.4587 113.83 12.5872 114.119 12.6193V15.734C113.862 15.6697 113.22 15.6055 112.739 15.6055C111.294 15.6055 110.138 15.9908 110.138 17.8532V19.3945H113.927V22.6055H110.138V36.734L106.156 36.7018Z" fill="#474C55"/>
<path d="M115.372 28.0321C115.372 21.4495 120.028 19.0413 123.592 19.0413C127.477 19.0413 131.17 21.3532 131.17 28.4174V29.3486H119.353C119.514 32.4954 121.44 33.844 123.977 33.844C126.225 33.844 127.541 33.1055 128.826 31.8211L130.945 33.9083C129.147 35.8991 126.771 37.0551 123.688 37.0551C119.385 37.0551 115.372 34.422 115.372 28.0321ZM127.509 26.3624C127.284 23.7294 125.968 22.3165 123.56 22.3165C121.601 22.3165 119.803 23.4404 119.417 26.3624H127.509Z" fill="#474C55"/>
<path d="M134.766 36.7018V12.555H137.656V25.0137L148.541 12.555H152.009L143.725 21.7385L153.133 36.7018H149.858L141.83 23.922L137.656 28.5458V36.7018H134.766Z" fill="#878A8F"/>
<path d="M153.968 28.0642C153.968 21.8027 158.142 19.1055 161.739 19.1055C165.817 19.1055 168.899 21.9633 168.899 28.1927V28.7706H156.761C156.858 32.656 159.106 34.7431 161.931 34.7431C164.404 34.7431 165.817 33.7477 167.101 31.9495L168.739 33.3945C167.133 35.6743 164.95 37.055 161.739 37.055C157.661 37.055 153.968 34.0688 153.968 28.0642ZM166.234 26.6193C166.009 23.5688 164.532 21.4816 161.706 21.4816C159.395 21.4816 157.211 23.0872 156.826 26.6193H166.234Z" fill="#878A8F"/>
<path d="M170.183 42.8991L170.826 40.6514C171.307 40.7798 172.174 40.9404 173.362 40.9404C175.128 40.9404 175.963 40.2018 176.638 38.5L177.28 36.7982L170.633 19.4908H173.587L178.628 33.4266H178.693L183.734 19.4908H186.56L179.206 38.6605C178.018 41.6789 176.702 43.3165 173.362 43.3165C171.853 43.3165 170.922 43.1238 170.183 42.8991Z" fill="#878A8F"/>
<path d="M187.555 21.9312C187.555 20.4541 188.679 19.3303 190.156 19.3303C191.601 19.3303 192.693 20.4541 192.693 21.8991C192.693 23.3761 191.569 24.5 190.092 24.5C188.647 24.5 187.555 23.3761 187.555 21.9312ZM192.147 21.9312C192.147 20.7431 191.28 19.8119 190.092 19.8119C188.936 19.8119 188.069 20.711 188.069 21.8991C188.069 23.0871 188.936 23.9862 190.124 23.9862C191.28 23.9862 192.147 23.1193 192.147 21.9312ZM189.096 20.4541H190.188C190.862 20.4541 191.28 20.7431 191.28 21.3853C191.28 21.8348 191.087 22.0596 190.766 22.1881L191.312 23.2477H190.606L190.092 22.2523H189.771V23.2477H189.096V20.4541ZM190.124 21.7706C190.413 21.7706 190.606 21.6743 190.606 21.4174C190.606 21.1605 190.445 21.0642 190.124 21.0642H189.771V21.7706H190.124Z" fill="#878A8F"/>
<path d="M48.9679 49H24.5H0.0321045V24.5321V0.0641937H24.5H48.9679V24.3715V49Z" fill="white"/>
<path d="M31.1468 34.8073L29.9587 33.3303V34.8073H26.4587V32.6881C26.0092 32.8165 25.4954 32.9128 24.9174 32.9128H24.3716V34.7752H19.2339L18.367 33.555L17.5321 34.7752H9.08716V26.4266H16.3761H17.5321L18.3991 27.6468L19.2661 26.4266H48.9679V0H0.0321101V19.3303L1.66972 15.5092H5.00917L5.97248 17.6605V15.5092H10.0505L10.6606 17.3394L11.2706 15.5092H29.2523V16.344C29.9587 15.7661 30.8257 15.5092 31.8211 15.5092H37.2798L38.2431 17.6605V15.5092H41.4541L42.5138 17.211V15.5092H46.1743V23.8578H42.7706L41.7431 22.2202V23.8578H36.7661L36.2844 22.6055H35.1284L34.6468 23.8578H31.7248C30.922 23.8578 29.9908 23.6972 29.2523 23.0872V23.8578H24.3394L23.1514 22.3807V23.8578H4.43119L3.94954 22.6055H2.79358L2.31193 23.8578H0V48.9358H48.9679V34.2936C48.4541 34.6147 47.8119 34.8073 47.1055 34.8073H31.1468Z" fill="#0079C2"/>
<path d="M48.9679 27.7752V27.7431H46.0138C44.7615 27.7431 44.0229 28.5137 44.0229 29.5412C44.0229 30.633 44.7294 31.2431 45.8211 31.2431H47.1376C47.4587 31.2431 47.7156 31.4357 47.7156 31.7568C47.7156 32.0779 47.4908 32.2706 47.1376 32.2706H44.1835V33.4908H47.1055C48.0688 33.4908 48.711 33.0412 48.9679 32.3348C49.0321 32.1422 49.0963 31.9174 49.0963 31.6605C49.0963 31.4036 49.0642 31.1467 48.9679 30.9541C48.711 30.344 48.133 29.9908 47.2982 29.9908H45.9496C45.6285 29.9908 45.4037 29.766 45.4037 29.477C45.4037 29.1559 45.6285 28.9633 45.9496 28.9633H48.422L48.9679 27.7752ZM40.1055 29.5091C40.1055 29.188 40.3303 28.9954 40.6514 28.9954H43.1239L43.6697 27.7752H40.6835C39.4312 27.7752 38.6927 28.5458 38.6927 29.5733C38.6927 30.6651 39.3991 31.2752 40.4908 31.2752H41.8073C42.1284 31.2752 42.3853 31.4678 42.3853 31.7889C42.3853 32.11 42.1606 32.3027 41.8073 32.3027H38.8532V33.5229H41.7752C43.0275 33.5229 43.7661 32.7522 43.7661 31.6926C43.7661 30.633 43.0918 30.0229 41.9679 30.0229H40.6193C40.3303 30.0229 40.1055 29.8302 40.1055 29.5091ZM33.4908 33.5229H38.1147V32.3027H34.8716V31.2431H38.0184V30.055H34.8716V29.0275H38.1147V27.8073H33.4908V33.5229ZM33.1697 33.5229L31.2431 31.4036C32.2064 31.211 32.8165 30.5045 32.8165 29.5733C32.8165 28.4816 32.0459 27.7431 30.8257 27.7431H27.6789V33.5229H29.0596V31.4678H29.7018L31.4037 33.5229H33.1697ZM30.6973 30.2477H29.0918V28.9633H30.6973C31.1789 28.9633 31.4358 29.2522 31.4358 29.6055C31.4037 29.9908 31.1789 30.2477 30.6973 30.2477ZM26.9404 29.6697C26.9404 28.5137 26.1697 27.7431 24.9495 27.7431H21.7707V33.5229H23.1514V31.6284H24.8853C26.1697 31.6284 26.9404 30.7935 26.9404 29.6697ZM25.5275 29.7018C25.5275 30.0871 25.2706 30.4082 24.789 30.4082H23.1193V28.9954H24.789C25.3028 28.9954 25.5275 29.2844 25.5275 29.7018ZM21.5138 33.5229L19.2018 30.6009L21.5138 27.7431H19.8119L18.3991 29.5733L16.9862 27.7431H15.2523L17.5642 30.633L15.2523 33.5229H16.9541L18.367 31.6605L19.7798 33.5229H21.5138ZM10.4037 33.5229H15.0275V32.3027H11.7844V31.2431H14.9312V30.055H11.7844V29.0275H15.0275V27.8073H10.4037V33.5229Z" fill="#0D79BF"/>
<path d="M44.8578 22.6376V16.8578H43.5092V19.9082L43.5413 20.6147H43.5092L43.1238 19.9725L41.1009 16.8578H39.3991V22.6376H40.7477V19.4266L40.7156 18.7523H40.7477L41.133 19.3945L43.2523 22.6376H44.8578ZM37.5367 22.6376H39.1101L36.6376 16.8578H34.8073L32.3349 22.6376H33.8119L34.2936 21.4174H37.0229L37.5367 22.6376ZM36.5734 20.2936H34.7431L35.289 18.9449L35.6422 18.0459H35.6743L36.0275 18.9449L36.5734 20.2936ZM31.7569 18.1101H33.266V16.8578H31.6605C29.8624 16.8578 28.8991 18.0459 28.8991 19.6835V19.7798C28.8991 21.5138 29.8945 22.6055 31.5642 22.6055H31.6605L32.2385 21.3853H31.8211C30.8899 21.3853 30.3119 20.8073 30.3119 19.7798V19.6835C30.2798 18.7844 30.7615 18.1101 31.7569 18.1101ZM26.6835 22.6376H28.0642V19.7477V16.8578H26.6835V19.7477V22.6376ZM26.3303 22.6376L24.4037 20.5183C25.367 20.3257 25.9771 19.6193 25.9771 18.6881C25.9771 17.5963 25.2064 16.8578 23.9862 16.8578H20.8394V22.6376H22.2202V20.5826H22.8624L24.5642 22.6376H26.3303ZM23.8578 19.3624H22.2523V18.078H23.8578C24.3394 18.078 24.5963 18.367 24.5963 18.7202C24.5642 19.0734 24.3394 19.3624 23.8578 19.3624ZM15.2844 22.6376H19.9083V21.4174H16.6972V20.3578H19.844V19.1697H16.6972V18.1422H19.9083V16.922H15.2844V22.6376ZM12.8761 22.6376H14.2248V16.8578H11.9771L10.8532 20.1972L10.6605 20.8394H10.6284L10.4358 20.1972L9.31192 16.8578H7.06421V22.6376H8.41284V18.8486L8.38073 17.9816H8.41284L8.70183 18.8486L10.0183 22.6376H11.2706L12.5872 18.8486L12.8761 17.9816H12.9083L12.8761 18.8486V22.6376ZM5.23394 22.6376H6.80733L4.33486 16.8578H2.50458L0.0321045 22.6376H1.50917L1.99082 21.4174H4.72018L5.23394 22.6376ZM4.30275 20.2936H2.47247L3.01834 18.9449L3.37155 18.0459H3.40366L3.75688 18.9449L4.30275 20.2936Z" fill="#0D79BF"/>
</g>
<defs>
<clipPath id="clip0_309_1081">
<rect width="192.693" height="49" fill="white"/>
</clipPath>
</defs>
</svg>
