<svg width="40" height="18" viewBox="0 0 40 18" fill="none" xmlns="http://www.w3.org/2000/svg">
<path d="M21.3651 9.28098C21.3651 8.85036 21.3511 8.50473 21.3372 8.18743H21.902L21.93 8.76253H21.944C22.2012 8.35458 22.6067 8.11094 23.1715 8.11094C24.0076 8.11094 24.634 8.79653 24.634 9.81642C24.634 11.0233 23.8762 11.6182 23.0625 11.6182C22.6067 11.6182 22.2068 11.4256 21.9999 11.0913H21.9859V12.9129H21.3651V9.28098ZM21.9859 10.1762C21.9859 10.2669 21.9999 10.349 22.0139 10.4255C22.1285 10.8476 22.506 11.1394 22.9562 11.1394C23.6189 11.1394 24.0048 10.6125 24.0048 9.84475C24.0048 9.17332 23.6413 8.59822 22.9758 8.59822C22.548 8.59822 22.1481 8.89568 22.025 9.35463C22.0027 9.43113 21.9831 9.52178 21.9831 9.60394V10.1762H21.9859Z" fill="#202020"/>
<path d="M25.425 6.62019H26.0542V11.5411H25.425V6.62019Z" fill="#202020"/>
<path d="M29.0197 11.5389L28.9694 11.1168H28.947C28.7541 11.3802 28.3822 11.6154 27.89 11.6154C27.1909 11.6154 26.833 11.1366 26.833 10.6522C26.833 9.84191 27.574 9.39713 28.9107 9.40563V9.33764C28.9107 9.06 28.8324 8.56139 28.1249 8.56139C27.8033 8.56139 27.4678 8.65771 27.2245 8.81069L27.0819 8.40841C27.3671 8.22709 27.781 8.11094 28.2172 8.11094C29.2742 8.11094 29.5314 8.81069 29.5314 9.48212V10.7371C29.5314 11.0289 29.5454 11.3122 29.5874 11.5417H29.0197V11.5389ZM28.9274 9.82775C28.2423 9.81358 27.465 9.93257 27.465 10.5842C27.465 10.978 27.7362 11.1649 28.0578 11.1649C28.508 11.1649 28.7932 10.8873 28.8939 10.604C28.9163 10.5417 28.9302 10.4737 28.9302 10.4113V9.82775H28.9274Z" fill="#202020"/>
<path d="M31.2772 7.22057V8.18379H32.1776V8.64841H31.2772V10.4559C31.2772 10.8723 31.3974 11.1075 31.747 11.1075C31.912 11.1075 32.0322 11.0876 32.1105 11.065L32.1385 11.5211C32.0182 11.5692 31.8253 11.6032 31.582 11.6032C31.2884 11.6032 31.0535 11.5126 30.9053 11.3483C30.7263 11.167 30.662 10.8695 30.662 10.4757V8.64557H30.1279V8.18096H30.662V7.37638L31.2772 7.22057Z" fill="#202020"/>
<path d="M34.7985 11.5389L34.7482 11.1168H34.7258C34.5329 11.3802 34.161 11.6154 33.6688 11.6154C32.9697 11.6154 32.6118 11.1366 32.6118 10.6522C32.6118 9.84191 33.3528 9.39713 34.6895 9.40563V9.33764C34.6895 9.06 34.6112 8.56139 33.9037 8.56139C33.5821 8.56139 33.2466 8.65771 33.0033 8.81069L32.8607 8.40841C33.1459 8.22709 33.5598 8.11094 33.996 8.11094C35.053 8.11094 35.3102 8.81069 35.3102 9.48212V10.7371C35.3102 11.0289 35.3242 11.3122 35.3662 11.5417H34.7985V11.5389ZM34.7034 9.82775C34.0184 9.81358 33.241 9.93257 33.241 10.5842C33.241 10.978 33.5122 11.1649 33.8338 11.1649C34.284 11.1649 34.5692 10.8873 34.6699 10.604C34.6923 10.5417 34.7062 10.4737 34.7062 10.4113V9.82775H34.7034Z" fill="#202020"/>
<path d="M10.1062 6.92463C8.85621 6.89064 7.24274 10.0438 6.81491 11.0892C6.57443 11.6728 7.31824 12.0921 7.55873 11.5085C7.9558 10.5367 9.31201 7.82837 10.109 7.8312C10.9031 7.83687 12.2146 10.5594 12.6033 11.5368C12.8353 12.1232 13.5848 11.7124 13.3499 11.126C12.9332 10.075 11.3533 6.9048 10.1062 6.92463ZM6.75899 9.20805C6.75619 9.17122 6.7478 9.13722 6.74221 9.10039C6.70026 8.87092 6.62476 8.66128 6.5241 8.4743C6.5213 8.47146 6.5185 8.4658 6.51571 8.46296C6.48774 8.4148 6.45978 8.36947 6.42902 8.32415C6.40945 8.29298 6.38708 8.26465 6.3675 8.23632C6.35352 8.21649 6.33954 8.19949 6.32556 8.17966C6.2948 8.14283 6.26684 8.106 6.23608 8.07201C6.20252 8.03518 6.17176 8.00118 6.13821 7.96719C6.12982 7.95869 6.12422 7.95302 6.11584 7.94452C4.80158 6.68383 1.93537 6.81131 1.11605 7.14844C0.562386 7.37508 0.752534 8.04084 1.35933 7.78021C2.34642 7.53657 3.29717 7.54223 4.27028 7.78021C5.06443 7.97285 5.89773 8.64994 5.89773 9.3752C5.8418 11.1798 3.38106 11.2535 2.38278 11.0183V8.77176C2.38278 8.23632 1.67252 8.23066 1.67252 8.7661V11.024C1.67252 11.4773 1.913 11.6416 2.23178 11.7124C2.98398 11.8796 6.13541 12.0581 6.69747 9.88231C6.70865 9.83981 6.71704 9.80015 6.72543 9.76049C6.73382 9.72366 6.74221 9.68683 6.7478 9.64717C6.77017 9.49985 6.77297 9.36103 6.76178 9.22788C6.75899 9.22221 6.75899 9.21372 6.75899 9.20805ZM19.9855 7.41191C19.9855 6.78582 19.1746 6.78865 19.1746 7.40058V11.3498C19.1746 11.9419 19.9855 11.9646 19.9855 11.3725V7.41191ZM17.9554 7.18527C17.6002 8.16266 16.3894 10.8909 15.654 10.8994C14.9186 10.905 13.663 8.20233 13.2911 7.2306C13.0674 6.647 12.3823 7.07195 12.606 7.65272C13.0059 8.6981 14.5159 11.8456 15.6708 11.8059C16.8257 11.8229 18.2686 8.64711 18.6489 7.59323C18.8614 7.00679 18.1707 6.59884 17.9554 7.18527Z" fill="#FF1A25"/>
<path d="M38.7364 5.07182C38.1044 4.55338 37.0334 3.77713 36.7147 3.54766C36.7566 3.07454 36.8433 2.56177 36.9551 2.12548C37.0838 1.62687 37.1984 1.19625 36.9551 0.895951C36.793 0.691974 36.5077 0.598484 36.0575 0.598484H34.3826C34.0023 0.598484 33.7254 0.706139 33.5604 0.915783C33.4374 1.07443 33.3871 1.28408 33.4122 1.52205C31.6142 0.570154 30.0567 0.0063832 29.1926 0.000717163H29.1898C28.2643 0.0063832 26.5361 0.655145 24.5675 1.73736C24.2879 1.89034 22.5878 2.8649 21.7657 3.47967C21.7517 3.48816 20.3983 4.44006 19.6517 5.04916C19.2909 5.34379 19.0281 5.61576 18.8351 5.8679H18.8379C18.81 5.9019 18.7876 5.94439 18.7876 5.99255C18.7876 6.10304 18.8799 6.1937 18.9945 6.1937C19.0588 6.1937 19.112 6.16254 19.1511 6.12004L19.1539 6.12287C19.1539 6.12287 19.2126 6.04355 19.2518 5.99255C19.4252 5.78574 19.6433 5.57043 19.9117 5.35229C20.6499 4.75169 21.9894 3.81113 22.0089 3.79696C22.8199 3.1907 24.4948 2.2303 24.7689 2.08015C26.6788 1.0291 28.3314 0.400173 29.1926 0.394507C30.0539 0.400173 31.7065 1.0291 33.6164 2.08015C33.6863 2.11982 33.773 2.11415 33.8373 2.06599C33.9016 2.02066 33.9324 1.94134 33.9128 1.86484C33.9016 1.81952 33.8876 1.77135 33.8736 1.72319C33.8652 1.6977 33.8569 1.6722 33.8513 1.64387C33.8149 1.52205 33.773 1.29541 33.8848 1.15092C33.9911 1.01777 34.2148 0.989441 34.3854 0.989441H36.0603C36.3623 0.989441 36.5609 1.04044 36.6364 1.13676C36.7566 1.28691 36.6615 1.6467 36.5637 2.02916C36.4378 2.51927 36.3428 3.10287 36.3036 3.62698C36.298 3.69498 36.3288 3.76013 36.3847 3.7998C36.3987 3.8083 37.7437 4.77152 38.4763 5.37212C39.3656 6.10021 39.7431 6.78013 39.5389 7.28441C39.3124 7.84535 38.3645 8.17965 37.1872 8.12298C37.0474 8.11732 36.9104 8.10882 36.7734 8.10315L36.5189 8.09182C36.463 8.08899 36.4071 8.10882 36.3679 8.14848C36.3288 8.18531 36.3064 8.23914 36.3064 8.29297C36.3232 8.91623 36.5133 10.1769 37.6067 11.6076C38.5882 12.7465 38.7308 14.061 38.0038 15.2197C37.1341 16.605 34.9558 17.7156 32.0476 17.081C32.0113 17.0725 31.9749 17.0753 31.9386 17.0867C31.1444 17.3445 29.8581 17.4578 29.1954 17.4578C28.5327 17.4578 27.2464 17.3416 26.455 17.0867C26.4355 17.081 26.4131 17.0753 26.3907 17.0753C26.3768 17.0753 26.36 17.0782 26.346 17.081C23.4378 17.7156 21.2567 16.6022 20.3871 15.2197C19.9145 14.4661 19.8138 13.6474 20.0711 12.8513C20.0711 12.8513 20.0823 12.8088 20.0795 12.7748C20.0795 12.772 20.0795 12.7663 20.0795 12.7635C20.0711 12.6813 20.0068 12.6162 19.9201 12.5992C19.8334 12.5822 19.7523 12.619 19.7076 12.6898L19.7048 12.6955C19.6824 12.7323 19.6628 12.8201 19.6628 12.8201C19.4084 13.6984 19.5286 14.6078 20.0431 15.4265C20.8037 16.6362 22.4703 17.6589 24.7102 17.6589C25.2387 17.6589 25.7979 17.6023 26.3823 17.4776C27.2632 17.7496 28.569 17.8544 29.1982 17.8544C29.8274 17.8544 31.1333 17.7524 32.0141 17.4776C35.09 18.1292 37.4109 16.9223 38.3505 15.4265C39.1614 14.1347 38.9992 12.6133 37.9255 11.3668C37.0167 10.1798 36.7762 9.12304 36.7231 8.49694L36.7538 8.49978C36.8908 8.50544 37.0279 8.51394 37.1677 8.51961C38.5407 8.58477 39.62 8.15981 39.9164 7.43173C40.1094 6.95295 40.0618 6.15687 38.7364 5.07182Z" fill="#FF1A25"/>
</svg>
