<svg width="61" height="30" viewBox="0 0 61 30" fill="none" xmlns="http://www.w3.org/2000/svg">
<g clip-path="url(#clip0_2930_49053)">
<path d="M30.1258 5.91069C31.5598 5.91069 32.7223 4.76975 32.7223 3.36233C32.7223 1.95491 31.5598 0.813965 30.1258 0.813965C28.6918 0.813965 27.5293 1.95491 27.5293 3.36233C27.5293 4.76975 28.6918 5.91069 30.1258 5.91069Z" fill="white"/>
<path d="M30.1256 29.1908C31.0774 29.1908 31.8489 28.4336 31.8489 27.4995C31.8489 26.5653 31.0774 25.8081 30.1256 25.8081C29.1739 25.8081 28.4023 26.5653 28.4023 27.4995C28.4023 28.4336 29.1739 29.1908 30.1256 29.1908Z" fill="white" fill-opacity="0.6"/>
<path d="M26.3418 5.6658C26.7282 4.38345 25.9823 3.03646 24.6757 2.6572C23.3692 2.27794 21.9967 3.01004 21.6103 4.29238C21.2239 5.57472 21.9698 6.92171 23.2764 7.30097C24.5829 7.68023 25.9554 6.94814 26.3418 5.6658Z" fill="white" fill-opacity="0.95"/>
<path d="M37.1147 27.256C37.8894 26.8002 38.141 25.8143 37.6767 25.0539C37.2123 24.2936 36.2078 24.0466 35.4331 24.5024C34.6583 24.9582 34.4067 25.944 34.8711 26.7044C35.3355 27.4648 36.34 27.7117 37.1147 27.256Z" fill="white" fill-opacity="0.5"/>
<path d="M20.866 11.2438C21.907 10.4899 22.1283 9.05059 21.3602 8.02888C20.5922 7.00716 19.1257 6.78998 18.0846 7.54379C17.0436 8.29761 16.8223 9.73696 17.5904 10.7587C18.3584 11.7804 19.825 11.9976 20.866 11.2438Z" fill="white" fill-opacity="0.9"/>
<path d="M42.1301 22.2065C42.5481 21.4719 42.2801 20.5438 41.5315 20.1335C40.783 19.7233 39.8373 19.9864 39.4194 20.721C39.0014 21.4557 39.2694 22.3838 40.018 22.794C40.7665 23.2042 41.7122 22.9412 42.1301 22.2065Z" fill="white" fill-opacity="0.4"/>
<path d="M20.0283 15.7717C20.2224 14.5797 19.3952 13.459 18.1807 13.2685C16.9662 13.0781 15.8243 13.89 15.6302 15.0819C15.4361 16.2739 16.2634 17.3946 17.4779 17.5851C18.6924 17.7756 19.8342 16.9637 20.0283 15.7717Z" fill="white" fill-opacity="0.85"/>
<path d="M43.0302 16.8288C43.8193 16.5 44.1876 15.6056 43.8526 14.8311C43.5176 14.0565 42.6063 13.6951 41.8171 14.0239C41.0279 14.3526 40.6597 15.247 40.9947 16.0216C41.3297 16.7961 42.241 17.1575 43.0302 16.8288Z" fill="white" fill-opacity="0.3"/>
<path d="M19.7013 23.5235C20.8606 23.4009 21.6992 22.3792 21.5743 21.2413C21.4494 20.1035 20.4084 19.2805 19.249 19.4031C18.0897 19.5256 17.2511 20.5474 17.376 21.6852C17.5009 22.8231 18.542 23.6461 19.7013 23.5235Z" fill="white" fill-opacity="0.8"/>
<path d="M41.666 10.546C42.3138 10.0623 42.4395 9.15482 41.9468 8.51899C41.454 7.88317 40.5293 7.7598 39.8815 8.24344C39.2337 8.72707 39.108 9.63458 39.6007 10.2704C40.0935 10.9062 41.0182 11.0296 41.666 10.546Z" fill="white" fill-opacity="0.2"/>
<path d="M24.3185 27.8241C25.4123 27.6392 26.1464 26.619 25.958 25.5454C25.7697 24.4718 24.7302 23.7514 23.6364 23.9363C22.5425 24.1211 21.8085 25.1413 21.9968 26.2149C22.1852 27.2885 23.2246 28.0089 24.3185 27.8241Z" fill="white" fill-opacity="0.7"/>
<path d="M37.5857 5.19418C37.7084 4.48303 37.2204 3.80895 36.4959 3.68858C35.7713 3.5682 35.0845 4.04712 34.9618 4.75826C34.8392 5.4694 35.3271 6.14348 36.0517 6.26386C36.7763 6.38423 37.4631 5.90532 37.5857 5.19418Z" fill="white" fill-opacity="0.1"/>
</g>
<defs>
<clipPath id="clip0_2930_49053">
<rect width="28.3721" height="28.3721" fill="white" transform="translate(15.6045 0.813965)"/>
</clipPath>
</defs>
</svg>
