<?xml version="1.0" encoding="utf-8"?>
<!-- Generator: Adobe Illustrator 16.0.0, SVG Export Plug-In . SVG Version: 6.00 Build 0)  -->
<!DOCTYPE svg PUBLIC "-//W3C//DTD SVG 1.1//EN" "http://www.w3.org/Graphics/SVG/1.1/DTD/svg11.dtd">
<svg version="1.1" id="Capa_1" xmlns="http://www.w3.org/2000/svg" xmlns:xlink="http://www.w3.org/1999/xlink" x="0px" y="0px"
	 width="120px" height="40px" viewBox="0 0 120 40" enable-background="new 0 0 120 40" xml:space="preserve">
<g>
	<g>
		<path fill-rule="evenodd" clip-rule="evenodd" fill="#5C5B5C" d="M17.259,23.943c-1.705,0.83-4.147,1.564-6.464,1.564
			c-1.835,0-3.278-0.568-4.108-1.662c-0.437-0.611-0.656-1.572-0.656-2.186c8.566,0.219,13.855-1.748,13.855-7.211
			c0-3.977-3.104-6.381-7.43-6.381C4.721,8.068,0,14.842,0,21.355c0,5.551,3.147,9.004,9.266,9.004c1.962,0,4.804-0.414,7.014-1.234
			L17.259,23.943L17.259,23.943z M13.986,14.493c0,1.923-2.447,2.623-7.342,2.579c0.437-2.01,2.098-4.414,5.026-4.414
			C13.112,12.657,13.986,13.4,13.986,14.493z"/>
		<path fill-rule="evenodd" clip-rule="evenodd" fill="#EE9027" d="M110.122,12.832c2.535,0,3.367,2.098,3.367,4.065
			c0,3.672-1.924,8.699-5.377,8.699c-2.186,0-3.408-1.662-3.408-4.154C104.659,18.12,106.495,12.832,110.122,12.832L110.122,12.832z
			 M110.953,8.068c-7.605,0-12.762,6.075-12.762,13.506c0,5.287,3.627,8.828,9.047,8.828c7.43,0,12.762-5.727,12.762-13.549
			C120,12.001,116.679,8.068,110.953,8.068z"/>
		<path fill-rule="evenodd" clip-rule="evenodd" fill="#EE9027" d="M95.951,24.459c-1.094,0.436-2.404,0.873-4.24,0.873
			c-2.36,0-4.196-1.486-4.196-4.415c0-4.021,2.754-7.823,7.255-7.823c1.27,0,1.945,0.141,2.688,0.446l0.946-5.005
			c-0.917-0.393-1.71-0.468-3.546-0.468c-8.129,0-13.941,5.944-13.941,13.549c0,5.551,3.715,8.742,9.003,8.742
			c2.027,0,3.712-0.24,5.046-0.689L95.951,24.459z"/>
		<path fill-rule="evenodd" clip-rule="evenodd" fill="#5C5B5C" d="M62.438,8.549l4.238,19.361c0.088,0.48,0.088,0.744-0.13,1.049
			c-0.787,1.443-2.011,2.711-3.453,3.715c-1.224,0.875-2.623,1.4-3.627,1.705l1.397,5.377c1.399-0.219,4.371-1.268,6.863-3.629
			c2.84-2.666,5.375-6.555,8.216-12.236l7.648-15.342h-6.644l-3.889,9.397c-0.919,2.316-1.399,3.714-1.88,4.982h-0.088
			c-0.175-1.354-0.393-2.884-0.7-5.069l-1.31-9.31H62.438z"/>
		<path fill-rule="evenodd" clip-rule="evenodd" fill="#5C5B5C" d="M30.25,5.489c0.525-0.131,1.355-0.219,2.536-0.219
			c2.447,0,4.501,0.918,4.501,3.759c0,2.929-2.491,5.376-6.293,5.376c-1.049,0-1.749-0.088-2.404-0.218L30.25,5.489L30.25,5.489z
			 M19.455,29.922h6.163l2.01-10.622c0.656,0.087,1.53,0.175,2.579,0.175c3.584,0,6.993-0.831,9.397-2.709
			c2.316-1.792,4.021-4.59,4.021-8.305c0-2.841-1.223-4.895-3.19-6.25c-2.142-1.53-5.201-1.967-7.823-1.967
			c-4.07,0-5.857,0.2-9.617,1.412l-0.806,4.11l1.873-0.201L19.455,29.922z"/>
		<path fill-rule="evenodd" clip-rule="evenodd" fill="#5C5B5C" d="M53.606,21.736c-0.077,0.395-0.199,0.787-0.356,1.137
			c-0.705,1.355-2.277,2.447-3.938,2.447c-1.487,0-2.459-0.83-2.12-2.535c0.511-2.578,3.386-3.409,6.873-3.365L53.606,21.736
			L53.606,21.736z M58.839,29.516c0.015-1.18,0.317-3.146,0.726-5.199l1.473-7.431c0.997-5.027-0.443-9.222-7.566-9.222
			c-2.969,0-5.499,0.61-7.264,1.269l-1.04,4.894c1.572-0.875,4.035-1.617,6.221-1.617c3.278,0,3.569,1.617,3.344,2.753l-0.06,0.306
			c-7.553-0.043-13.064,2.623-14.166,8.173c-0.676,3.408,1.278,6.557,5.605,6.557c2.535,0,4.902-0.918,6.64-2.623h0.131
			l-0.031,2.141H58.839z"/>
	</g>
</g>
</svg>
