<?xml version="1.0" encoding="utf-8"?>
<!-- Generator: Adobe Illustrator 27.2.0, SVG Export Plug-In . SVG Version: 6.00 Build 0)  -->
<svg version="1.1" id="Capa_1" xmlns="http://www.w3.org/2000/svg" xmlns:xlink="http://www.w3.org/1999/xlink" x="0px" y="0px"
	 viewBox="0 0 75 75" style="enable-background:new 0 0 75 75;" xml:space="preserve">
<style type="text/css">
	.st0{fill:#D92128;}
</style>
<g>
	<path class="st0" d="M36.44,44.52c-0.51,0.49-1.09,0.81-1.72,0.96l0.71,2.23c1.38-0.01,2.59-0.46,3.62-1.35
		c1.03-0.89,1.66-2.02,1.9-3.39l2.15-12.63h3.39l0.34-2.71h-3.31c0.48-2.12,1.37-3.18,2.67-3.18c0.52,0,1.14,0.16,1.87,0.48
		l0.67-2.64c-0.66-0.39-1.45-0.58-2.38-0.58c-3.29,0-5.39,1.97-6.31,5.91h-1.99l-0.44,2.71h2.03l-2.25,12.49
		C37.26,43.47,36.95,44.03,36.44,44.52 M55.93,20.28h-3.82l-2.76,4.48h2.91L55.93,20.28z M50.55,42.06l2.69-14.42h-5.21l-0.57,2.71
		h1.84l-2.18,11.71H50.55z M65.86,36.89l1.67-8.84c-1.08-0.45-2.83-0.67-5.26-0.67c-2.52,0-4.61,0.98-6.27,2.93
		c-1.66,1.95-2.48,4.3-2.48,7.03c0,1.57,0.43,2.8,1.29,3.68c0.86,0.88,2.07,1.32,3.63,1.32c1.71,0,3.15-0.57,4.29-1.71
		c0.31,0.96,0.77,1.44,1.4,1.44h2.1c-0.31-0.74-0.46-2.09-0.46-4.07C65.76,37.59,65.79,37.22,65.86,36.89 M61.84,37.79
		c-0.72,1.19-1.57,1.79-2.54,1.79c-1.53,0-2.29-0.78-2.29-2.33c0-1.88,0.45-3.53,1.35-4.97c0.9-1.44,2.1-2.16,3.61-2.16
		c0.57,0,1.17,0.09,1.8,0.27C63.2,34.13,62.56,36.6,61.84,37.79 M7.64,42.06h2.78l1.56-8.36c0.26-0.33,0.61-0.63,1.05-0.89
		c0.44-0.26,0.83-0.39,1.18-0.39c1.16,0,1.74,0.38,1.74,1.14c0,0.09-0.01,0.18-0.02,0.26l-1.55,8.24h2.8l1.56-8.4
		c0.22-0.31,0.55-0.59,0.99-0.85c0.44-0.26,0.86-0.39,1.23-0.39c1.07,0,1.6,0.51,1.6,1.52c0,0.26-0.02,0.51-0.07,0.74l-1.39,7.38
		h2.8l1.43-7.66c0.07-0.39,0.11-0.75,0.11-1.06c0-2.12-1.17-3.19-3.5-3.19c-1.4,0-2.57,0.42-3.49,1.26
		c-0.64-0.84-1.73-1.26-3.28-1.26c-1.32,0-2.42,0.34-3.3,1.03c-0.07-0.33-0.15-0.69-0.24-1.06l-2.67,0.47
		c0.2,0.68,0.31,1.39,0.31,2.11c0,0.42-0.02,0.72-0.05,0.92L7.64,42.06z M30.31,42.28c1.33,0,2.46-0.21,3.38-0.62l0.32-2.87
		c-0.34,0.31-0.81,0.6-1.41,0.85c-0.6,0.25-1.12,0.38-1.58,0.38c-0.86,0-1.53-0.22-2.01-0.65c-0.48-0.44-0.73-1.06-0.73-1.88
		c0-0.14,0.01-0.3,0.02-0.49c0.78,0.27,1.58,0.4,2.39,0.4c1.67,0,3.07-0.37,4.21-1.12c1.14-0.75,1.71-1.78,1.71-3.1
		c0-0.97-0.38-1.71-1.15-2.23c-0.76-0.52-1.76-0.78-2.99-0.78c-2.09,0-3.78,0.67-5.07,2c-1.29,1.34-1.94,3.01-1.94,5.02
		c0,1.59,0.45,2.84,1.34,3.74C27.7,41.82,28.86,42.28,30.31,42.28 M30.15,33.13c0.57-0.48,1.12-0.71,1.67-0.71
		c1.38,0,2.07,0.32,2.07,0.95c0,0.57-0.34,1-1.03,1.31c-0.68,0.3-1.52,0.45-2.51,0.45c-0.55,0-1.07-0.07-1.54-0.21
		C29.14,34.21,29.58,33.61,30.15,33.13 M10.03,44.31c6.5,6.38,16.42,10.73,27.55,10.73c11.13,0,21.05-4.35,27.55-10.73
		c-7.15,5.05-16.85,7.88-27.55,7.88C26.89,52.19,17.18,49.36,10.03,44.31"/>
</g>
<g>
	<polygon class="st0" points="-73.13,22.2 -74.61,22.2 -74.47,21.19 -70.36,21.19 -70.5,22.2 -71.98,22.2 -72.57,26.38 
		-73.72,26.38 	"/>
	<path class="st0" d="M-69.08,25.93h-0.01c-0.15,0.19-0.33,0.33-0.54,0.41c-0.22,0.08-0.44,0.12-0.66,0.12
		c-0.17,0-0.32-0.02-0.47-0.07c-0.15-0.05-0.27-0.12-0.38-0.21c-0.11-0.09-0.18-0.21-0.23-0.34c-0.05-0.14-0.06-0.3-0.04-0.48
		c0.04-0.31,0.16-0.55,0.35-0.71c0.19-0.17,0.41-0.29,0.67-0.37c0.26-0.08,0.53-0.13,0.81-0.14c0.28-0.01,0.54-0.02,0.77-0.02
		c0.02-0.2-0.02-0.35-0.15-0.46c-0.12-0.11-0.28-0.17-0.47-0.17c-0.18,0-0.35,0.04-0.51,0.11c-0.16,0.08-0.31,0.18-0.44,0.31
		l-0.5-0.6c0.23-0.19,0.49-0.33,0.78-0.43c0.29-0.1,0.58-0.14,0.87-0.14c0.32,0,0.58,0.04,0.78,0.12c0.2,0.08,0.35,0.2,0.45,0.36
		c0.1,0.16,0.16,0.35,0.18,0.58c0.02,0.23,0,0.49-0.04,0.79l-0.25,1.81h-1.01L-69.08,25.93z M-69.2,24.82c-0.08,0-0.19,0-0.31,0.01
		c-0.12,0.01-0.25,0.03-0.37,0.06c-0.12,0.03-0.23,0.09-0.32,0.15c-0.09,0.07-0.14,0.16-0.16,0.29c-0.01,0.07,0,0.13,0.02,0.17
		c0.02,0.05,0.06,0.09,0.1,0.12c0.04,0.03,0.1,0.06,0.16,0.07c0.06,0.01,0.12,0.02,0.18,0.02c0.11,0,0.21-0.01,0.32-0.04
		c0.11-0.03,0.2-0.07,0.29-0.12c0.09-0.05,0.16-0.12,0.22-0.21c0.06-0.08,0.1-0.18,0.11-0.29l0.03-0.23H-69.2z"/>
	<path class="st0" d="M-66.93,22.82h1.1l-0.08,0.57h0.01c0.15-0.22,0.31-0.38,0.49-0.49c0.18-0.11,0.39-0.16,0.63-0.16
		c0.06,0,0.13,0,0.19,0.01c0.06,0,0.12,0.01,0.18,0.03l-0.14,1c-0.08-0.02-0.16-0.04-0.23-0.06c-0.07-0.01-0.15-0.02-0.23-0.02
		c-0.21,0-0.38,0.03-0.51,0.09c-0.13,0.06-0.24,0.14-0.32,0.24c-0.08,0.11-0.14,0.23-0.18,0.38c-0.04,0.15-0.08,0.31-0.1,0.48
		l-0.21,1.49h-1.1L-66.93,22.82z"/>
	<path class="st0" d="M-63.37,26.64c-0.03,0.23-0.08,0.44-0.15,0.62c-0.07,0.18-0.16,0.34-0.28,0.47c-0.12,0.13-0.27,0.23-0.45,0.3
		c-0.18,0.07-0.39,0.11-0.64,0.11c-0.08,0-0.17,0-0.26-0.01c-0.09-0.01-0.17-0.02-0.25-0.05l0.2-0.97c0.08,0.04,0.17,0.07,0.27,0.07
		c0.09,0,0.17-0.02,0.23-0.07c0.06-0.05,0.11-0.11,0.14-0.18c0.03-0.07,0.06-0.15,0.08-0.23c0.02-0.08,0.03-0.16,0.04-0.23
		l0.52-3.63h1.1L-63.37,26.64z M-63.86,21.7c0.01-0.09,0.04-0.17,0.09-0.25c0.04-0.08,0.1-0.15,0.17-0.2
		c0.07-0.06,0.14-0.1,0.22-0.14c0.08-0.03,0.17-0.05,0.26-0.05c0.18,0,0.32,0.06,0.42,0.19c0.11,0.12,0.15,0.27,0.12,0.45
		c-0.01,0.09-0.04,0.17-0.08,0.25c-0.04,0.08-0.1,0.15-0.17,0.2c-0.07,0.06-0.14,0.1-0.22,0.14c-0.08,0.03-0.17,0.05-0.26,0.05
		c-0.09,0-0.17-0.02-0.24-0.05c-0.07-0.03-0.14-0.08-0.18-0.14c-0.05-0.06-0.08-0.12-0.11-0.2C-63.86,21.87-63.87,21.78-63.86,21.7"
		/>
	<path class="st0" d="M-59.06,25.76c-0.21,0.23-0.45,0.4-0.74,0.52c-0.29,0.12-0.58,0.18-0.86,0.18c-0.27,0-0.53-0.04-0.76-0.13
		c-0.23-0.09-0.42-0.21-0.58-0.38c-0.15-0.16-0.27-0.36-0.34-0.59c-0.07-0.23-0.09-0.49-0.05-0.77c0.04-0.28,0.13-0.54,0.26-0.77
		c0.13-0.23,0.3-0.43,0.5-0.59c0.2-0.16,0.43-0.29,0.68-0.38c0.25-0.09,0.52-0.13,0.79-0.13c0.25,0,0.48,0.04,0.68,0.13
		c0.2,0.09,0.36,0.21,0.48,0.38c0.12,0.16,0.21,0.36,0.25,0.59c0.05,0.23,0.05,0.49,0.01,0.77l-0.05,0.34h-2.56
		c0.01,0.21,0.09,0.38,0.22,0.5c0.13,0.12,0.3,0.19,0.52,0.19c0.18,0,0.34-0.04,0.47-0.12c0.13-0.08,0.26-0.18,0.37-0.31
		L-59.06,25.76z M-59.78,24.19c0.03-0.19-0.01-0.34-0.12-0.48c-0.11-0.13-0.26-0.2-0.46-0.2c-0.12,0-0.23,0.02-0.33,0.06
		c-0.1,0.04-0.18,0.09-0.26,0.15c-0.07,0.06-0.13,0.13-0.18,0.21c-0.05,0.08-0.08,0.16-0.1,0.25H-59.78z"/>
	<path class="st0" d="M-55.5,23.7h-0.97l-0.17,1.19c-0.01,0.1-0.02,0.19-0.02,0.27c0,0.08,0.01,0.15,0.04,0.21
		c0.03,0.06,0.07,0.1,0.14,0.14c0.07,0.03,0.16,0.05,0.28,0.05c0.06,0,0.14-0.01,0.23-0.02c0.1-0.01,0.17-0.04,0.22-0.08l-0.13,0.92
		c-0.13,0.04-0.26,0.07-0.39,0.09c-0.14,0.01-0.27,0.02-0.39,0.02c-0.19,0-0.36-0.02-0.51-0.06c-0.15-0.04-0.28-0.1-0.39-0.19
		c-0.11-0.09-0.18-0.2-0.23-0.33c-0.05-0.14-0.06-0.3-0.03-0.5l0.24-1.69h-0.71l0.12-0.88h0.71l0.15-1.05h1.1l-0.15,1.05h0.97
		L-55.5,23.7z"/>
	<path class="st0" d="M-53.01,25.93h-0.01c-0.15,0.19-0.33,0.33-0.54,0.41c-0.22,0.08-0.44,0.12-0.66,0.12
		c-0.17,0-0.32-0.02-0.47-0.07c-0.15-0.05-0.27-0.12-0.38-0.21c-0.11-0.09-0.18-0.21-0.23-0.34c-0.05-0.14-0.06-0.3-0.04-0.48
		c0.04-0.31,0.16-0.55,0.35-0.71c0.19-0.17,0.41-0.29,0.67-0.37c0.26-0.08,0.53-0.13,0.81-0.14c0.28-0.01,0.54-0.02,0.77-0.02
		c0.02-0.2-0.02-0.35-0.15-0.46c-0.12-0.11-0.28-0.17-0.47-0.17c-0.18,0-0.35,0.04-0.51,0.11c-0.16,0.08-0.31,0.18-0.44,0.31
		l-0.5-0.6c0.23-0.19,0.49-0.33,0.78-0.43c0.29-0.1,0.58-0.14,0.87-0.14c0.32,0,0.58,0.04,0.78,0.12c0.2,0.08,0.35,0.2,0.45,0.36
		c0.1,0.16,0.16,0.35,0.18,0.58c0.02,0.23,0,0.49-0.04,0.79l-0.25,1.81h-1.01L-53.01,25.93z M-53.13,24.82c-0.08,0-0.19,0-0.31,0.01
		c-0.12,0.01-0.25,0.03-0.37,0.06c-0.12,0.03-0.23,0.09-0.32,0.15c-0.09,0.07-0.14,0.16-0.16,0.29c-0.01,0.07,0,0.13,0.02,0.17
		c0.02,0.05,0.06,0.09,0.1,0.12c0.04,0.03,0.1,0.06,0.16,0.07c0.06,0.01,0.12,0.02,0.18,0.02c0.11,0,0.21-0.01,0.32-0.04
		c0.11-0.03,0.2-0.07,0.29-0.12c0.09-0.05,0.16-0.12,0.22-0.21c0.06-0.08,0.1-0.18,0.11-0.29l0.03-0.23H-53.13z"/>
	<path class="st0" d="M-47.35,44.52c-0.51,0.49-1.09,0.81-1.72,0.96l0.71,2.23c1.38-0.01,2.59-0.46,3.62-1.35
		c1.03-0.89,1.66-2.02,1.9-3.39l2.15-12.63h3.39l0.34-2.71h-3.31c0.48-2.12,1.37-3.18,2.67-3.18c0.52,0,1.14,0.16,1.87,0.48
		l0.67-2.64c-0.66-0.39-1.45-0.58-2.38-0.58c-3.29,0-5.39,1.97-6.31,5.91h-1.99l-0.44,2.71h2.03l-2.25,12.49
		C-46.52,43.47-46.84,44.03-47.35,44.52 M-27.85,20.28h-3.82l-2.76,4.48h2.91L-27.85,20.28z M-33.24,42.06l2.69-14.42h-5.21
		l-0.57,2.71h1.84l-2.18,11.71H-33.24z M-17.93,36.89l1.67-8.84c-1.08-0.45-2.83-0.67-5.26-0.67c-2.52,0-4.61,0.98-6.27,2.93
		c-1.66,1.95-2.48,4.3-2.48,7.03c0,1.57,0.43,2.8,1.29,3.68c0.86,0.88,2.07,1.32,3.63,1.32c1.71,0,3.15-0.57,4.29-1.71
		c0.31,0.96,0.77,1.44,1.4,1.44h2.1c-0.31-0.74-0.46-2.09-0.46-4.07C-18.02,37.59-17.99,37.22-17.93,36.89 M-21.95,37.79
		c-0.72,1.19-1.57,1.79-2.54,1.79c-1.53,0-2.29-0.78-2.29-2.33c0-1.88,0.45-3.53,1.35-4.97c0.9-1.44,2.1-2.16,3.61-2.16
		c0.57,0,1.17,0.09,1.8,0.27C-20.58,34.13-21.23,36.6-21.95,37.79 M-76.15,42.06h2.78l1.56-8.36c0.26-0.33,0.61-0.63,1.05-0.89
		c0.44-0.26,0.83-0.39,1.18-0.39c1.16,0,1.74,0.38,1.74,1.14c0,0.09-0.01,0.18-0.02,0.26l-1.55,8.24h2.8l1.56-8.4
		c0.22-0.31,0.55-0.59,0.99-0.85c0.44-0.26,0.86-0.39,1.23-0.39c1.07,0,1.6,0.51,1.6,1.52c0,0.26-0.02,0.51-0.07,0.74l-1.39,7.38
		h2.8l1.43-7.66c0.07-0.39,0.11-0.75,0.11-1.06c0-2.12-1.17-3.19-3.5-3.19c-1.4,0-2.57,0.42-3.49,1.26
		c-0.64-0.84-1.73-1.26-3.28-1.26c-1.32,0-2.42,0.34-3.3,1.03c-0.07-0.33-0.15-0.69-0.24-1.06l-2.67,0.47
		c0.2,0.68,0.31,1.39,0.31,2.11c0,0.42-0.02,0.72-0.05,0.92L-76.15,42.06z M-53.48,42.28c1.33,0,2.46-0.21,3.38-0.62l0.32-2.87
		c-0.34,0.31-0.81,0.6-1.41,0.85c-0.6,0.25-1.12,0.38-1.58,0.38c-0.86,0-1.53-0.22-2.01-0.65c-0.48-0.44-0.73-1.06-0.73-1.88
		c0-0.14,0.01-0.3,0.02-0.49c0.78,0.27,1.58,0.4,2.39,0.4c1.67,0,3.07-0.37,4.21-1.12c1.14-0.75,1.71-1.78,1.71-3.1
		c0-0.97-0.38-1.71-1.15-2.23c-0.76-0.52-1.76-0.78-2.99-0.78c-2.09,0-3.78,0.67-5.07,2c-1.29,1.34-1.94,3.01-1.94,5.02
		c0,1.59,0.45,2.84,1.34,3.74C-56.09,41.82-54.92,42.28-53.48,42.28 M-53.63,33.13c0.57-0.48,1.12-0.71,1.67-0.71
		c1.38,0,2.07,0.32,2.07,0.95c0,0.57-0.34,1-1.03,1.31c-0.68,0.3-1.52,0.45-2.51,0.45c-0.55,0-1.07-0.07-1.54-0.21
		C-54.64,34.21-54.2,33.61-53.63,33.13 M-73.75,44.31c6.5,6.38,16.42,10.73,27.55,10.73c11.13,0,21.05-4.35,27.55-10.73
		c-7.15,5.05-16.85,7.88-27.55,7.88C-56.9,52.19-66.61,49.36-73.75,44.31"/>
</g>
</svg>
