<svg width="33" height="12" viewBox="0 0 33 12" fill="none" xmlns="http://www.w3.org/2000/svg">
<g clip-path="url(#clip0_2906_32484)">
<mask id="mask0_2906_32484" style="mask-type:luminance" maskUnits="userSpaceOnUse" x="0" y="0" width="33" height="11">
<path d="M32.7831 0.812553H0V10.977H32.7831V0.812553Z" fill="white"/>
</mask>
<g mask="url(#mask0_2906_32484)">
<path d="M1.67038 0.812553H0.289397C0.129568 0.812553 0 0.942251 0 1.10224V2.27623C0 2.43623 0.129568 2.56592 0.289397 2.56592H1.67038C1.83021 2.56592 1.95978 2.43623 1.95978 2.27623V1.10224C1.95978 0.942251 1.83021 0.812553 1.67038 0.812553Z" fill="#DA0081"/>
<path d="M10.0834 0.812553H8.89539C8.73293 0.812553 8.60599 0.944691 8.60599 1.10224V5.85412C8.60599 5.95067 8.47905 5.98626 8.43337 5.89986L5.67139 0.939609C5.62572 0.858293 5.54448 0.812553 5.44799 0.812553H3.473C3.31053 0.812553 3.18359 0.944691 3.18359 1.10224V8.69509C3.18359 8.85772 3.31561 8.98478 3.473 8.98478H4.66104C4.82351 8.98478 4.95045 8.85264 4.95045 8.69509V3.8009C4.95045 3.70434 5.07739 3.66876 5.12306 3.75516L7.9612 8.86279C8.00688 8.94412 8.08811 8.98986 8.1846 8.98986H10.0733C10.2358 8.98986 10.3627 8.85772 10.3627 8.70017V1.10224C10.3627 0.939609 10.2307 0.812553 10.0733 0.812553H10.0834Z" fill="#200020"/>
<path d="M17.2264 6.02248C17.2264 3.88287 15.8353 2.82068 14.3071 2.82068C12.3219 2.82068 11.1897 4.19797 11.1897 6.05807C11.1897 8.17227 12.6113 9.17855 14.2614 9.17855C15.9114 9.17855 16.8761 8.32474 17.135 7.21679C17.1706 7.0745 17.0894 6.94744 16.8761 6.94744H15.9419C15.8353 6.94744 15.7439 7.00336 15.6982 7.11009C15.4647 7.62337 15.089 7.89273 14.368 7.89273C13.5506 7.89273 13.0023 7.37945 12.921 6.33758H16.9371C17.1097 6.33758 17.2264 6.21051 17.2264 6.02248ZM12.987 5.21441C13.1596 4.447 13.6064 4.10649 14.2817 4.10649C14.8859 4.10649 15.4037 4.45715 15.4748 5.21441H12.987Z" fill="#200020"/>
<path d="M32.4938 2.97313H31.3006C31.1408 2.97313 31.0112 3.10282 31.0112 3.26282V8.70079C31.0112 8.86079 31.1408 8.99048 31.3006 8.99048H32.4938C32.6536 8.99048 32.7831 8.86079 32.7831 8.70079V3.26282C32.7831 3.10282 32.6536 2.97313 32.4938 2.97313Z" fill="#200020"/>
<path d="M23.6343 2.97314H22.4462C22.2838 2.97314 22.1569 3.10528 22.1569 3.26282V3.55759C21.8014 3.14085 21.2176 2.85117 20.4509 2.85117C18.7349 2.85117 17.826 4.40633 17.826 6.05296C17.826 7.49123 18.5724 9.1023 20.4154 9.1023C21.0754 9.1023 21.7761 8.7872 22.1569 8.33997V10.6778C22.1569 10.8404 22.2888 10.9675 22.4462 10.9675H23.6343C23.7968 10.9675 23.9237 10.8353 23.9237 10.6778V3.26791C23.9237 3.10528 23.7917 2.97822 23.6343 2.97822V2.97314ZM20.9282 7.82158C20.1463 7.82158 19.598 7.24728 19.598 6.0123C19.598 4.77732 20.1463 4.13187 20.9282 4.13187C21.7101 4.13187 22.2584 4.72651 22.2584 6.0123C22.2584 7.29812 21.7101 7.82158 20.9282 7.82158Z" fill="#200020"/>
<path d="M29.9604 2.97313H28.7723C28.6099 2.97313 28.483 3.10527 28.483 3.26282V6.33756C28.483 7.32859 28.0413 7.61828 27.4777 7.61828C26.9141 7.61828 26.4724 7.32859 26.4724 6.33756V3.26282C26.4724 3.10018 26.3404 2.97313 26.183 2.97313H24.995C24.8325 2.97313 24.7056 3.10527 24.7056 3.26282V6.46463C24.7056 8.37046 25.7566 9.13787 27.4828 9.13787C29.209 9.13787 30.26 8.36536 30.26 6.46463V3.26282C30.26 3.10018 30.128 2.97313 29.9706 2.97313H29.9604Z" fill="#200020"/>
</g>
</g>
<defs>
<clipPath id="clip0_2906_32484">
<rect width="32.7831" height="10.4023" fill="white" transform="translate(0 0.726402)"/>
</clipPath>
</defs>
</svg>
