<svg width="151" height="46" viewBox="0 0 151 46" fill="none" xmlns="http://www.w3.org/2000/svg">
<path d="M24.9764 27.2254C24.9288 27.4566 24.8813 27.6901 24.8338 27.9213C23.6434 28.1195 22.4482 28.2516 21.253 28.3247C22.5218 27.9826 23.7645 27.6217 24.9764 27.2254Z" fill="#FF6720"/>
<path d="M51.6009 4.49605C48.1935 13.8614 41.1791 22.3161 31.7126 26.0316C31.7126 26.0316 32.0928 24.175 32.0951 24.175C39.7796 19.8014 45.0237 11.9694 47.1432 3.5666C47.8917 3.16085 49.9352 2.00256 49.9352 2.00256C49.9352 2.00256 51.014 3.59255 51.6009 4.49605Z" fill="#FF6720"/>
<path d="M35.4772 7.71378C35.5462 7.37408 35.6531 7.16176 36.0404 7.13346C37.6989 7.00371 39.3551 6.73714 41.0089 6.75129C43.0524 6.76545 44.4044 8.19738 44.6705 10.3677C45.7231 8.18558 46.55 5.9044 47.1417 3.56661C47.1132 3.54538 47.0847 3.52651 47.0562 3.50763C45.4237 2.40125 43.5585 2.10401 41.6433 2.02381C37.7298 1.85396 33.9399 2.60885 30.1951 3.63502C29.9955 3.69164 29.765 3.99359 29.7175 4.2177C29.3872 5.81712 23.5348 34.2858 23.5348 34.2858H27.914C29.1472 34.2858 30.2046 33.3422 30.4541 32.1297C30.4565 32.1344 35.1921 9.11268 35.4772 7.71378Z" fill="#1C0E49"/>
<path d="M50.3136 7.62402C46.8255 15.1705 40.9683 21.8018 33.3647 25.3262C45.6802 28.8199 53.7852 16.7865 50.3136 7.62402Z" fill="#1C0E49"/>
<path d="M22.0084 13.6279C13.0646 5.04809 -2.18309 14.8404 0.261951 26.5081C1.78268 33.7669 9.69521 35.3781 16.0989 33.6654C20.1621 32.5803 19.6774 28.6666 19.6774 28.6666C14.5805 29.8367 4.88116 28.7846 5.67717 24.9182C9.59779 26.0104 15.5738 26.2699 19.7677 24.1302C25.2399 21.3372 24.3061 16.1898 22.0084 13.6279ZM18.2588 18.5181C16.8925 21.3183 9.08455 21.2947 6.27358 20.4761C8.03667 16.5035 12.6725 14.1303 16.9234 15.8501C18.2065 16.3714 18.7768 17.4471 18.2588 18.5181Z" fill="#1C0E49"/>
<path d="M77.7214 12.1699C73.9339 10.9362 69.3907 10.37 66.0641 10.37C57.2605 10.37 51.7194 18.2373 51.9784 25.1398C52.0782 27.789 52.974 33.8022 61.0362 34.4934C63.2745 34.6845 65.4107 34.399 67.2807 33.0261C67.2949 33.0143 67.4256 32.8987 67.3947 33.0638C67.3282 33.4483 67.1785 34.2929 67.1785 34.2929C67.1785 34.2929 71.3819 34.2929 73.3755 34.2929C73.7509 34.2929 73.8032 34.0357 73.8578 33.7739C75.2906 26.8148 76.733 19.8698 78.1491 12.9059C78.2394 12.4672 78.1515 12.3068 77.7214 12.1699ZM70.89 16.3171C70.1344 19.9052 69.4026 23.498 68.6398 27.0884C68.5733 27.3974 68.4117 27.6782 68.1741 27.8881C66.3635 29.4875 64.2535 30.0136 61.8964 29.4757C57.3769 28.4448 58.1183 22.0826 59.7008 19.0135C61.1431 16.2204 64.4032 14.6422 67.7226 15.0692C71.0445 15.4938 70.9756 15.8995 70.89 16.3171Z" fill="#1C0E49"/>
<path d="M150.299 18.7658C149.835 13.274 145.468 10.37 140.226 10.37C129.234 10.37 125.603 19.4876 125.938 25.824C126.259 31.9079 131.679 34.7411 137.14 34.2339C142.213 33.9343 146.024 31.6342 148.381 27.1285C149.745 24.5171 150.629 21.7641 150.299 18.7658ZM135.139 29.0841C130.301 28.0957 131.941 21.7429 132.95 19.8698C135.388 15.3452 138.71 15.1376 140.599 15.4348C143.094 15.8241 144.51 17.5933 144.37 20.5822C144.159 25.1068 140.768 30.233 135.139 29.0841Z" fill="#1C0E49"/>
<path d="M76.7947 44.5358L77.6145 40.5443C77.7381 40.0772 78.1824 39.7446 78.6695 39.7305C81.1264 39.662 81.9676 39.2374 83.196 37.9117C84.1346 36.7274 84.8451 35.7767 85.634 34.6821C85.7385 34.5382 85.748 34.2811 85.71 34.0924C84.3794 27.3857 81.0219 10.37 81.0219 10.37C81.0219 10.37 87.1428 10.3158 87.5277 12.755C88.2667 17.4259 90.0156 26.8691 90.0987 27.2418C90.3149 26.8714 96.0391 17.1145 98.717 12.4365C100.031 10.1412 105.037 10.37 106.691 10.37C101.756 18.5582 92.1707 34.4368 90.6761 36.9043C86.7935 43.3067 83.3766 44.5853 79.7982 44.5405C78.824 44.5287 76.7947 44.5358 76.7947 44.5358Z" fill="#1C0E49"/>
<path d="M122.146 27.6947C121.799 29.3767 121.169 32.4364 121.148 32.5449C121.112 32.7242 121.036 32.9223 120.796 33.012C117.491 34.2386 113.963 34.8166 110.752 33.6866C100.364 30.0349 103.154 13.4627 114.003 10.8253C119.33 9.53023 124.643 11.4057 124.902 11.4859C125.204 11.5802 125.392 11.8822 125.33 12.1888C125.142 13.1112 124.546 16.0317 124.52 16.1379C121.514 15.173 118.356 14.4747 115.286 15.5457C109.184 17.6783 107.858 28.0722 113.927 29.2894C116.835 29.8745 119.497 28.8506 122.146 27.6947Z" fill="#1C0E49"/>
</svg>
