<svg width="115" height="32" viewBox="0 0 115 32" fill="none" xmlns="http://www.w3.org/2000/svg">
<path d="M18.964 18.8677C18.9279 19.0344 18.8918 19.2028 18.8558 19.3695C17.9519 19.5125 17.0444 19.6077 16.137 19.6605C17.1004 19.4138 18.0439 19.1535 18.964 18.8677Z" fill="#FF6720"/>
<path d="M39.1793 2.47596C36.5922 9.22994 31.2665 15.3272 24.0789 18.0067C24.0789 18.0067 24.3675 16.6678 24.3693 16.6678C30.2038 13.5137 34.1855 7.86553 35.7948 1.80567C36.3631 1.51305 37.9146 0.677734 37.9146 0.677734C37.9146 0.677734 38.7337 1.82438 39.1793 2.47596Z" fill="#FF6720"/>
<path d="M26.9369 4.79646C26.9892 4.55148 27.0704 4.39837 27.3644 4.37796C28.6237 4.28439 29.8812 4.09214 31.1368 4.10235C32.6884 4.11256 33.7149 5.14522 33.917 6.71037C34.7162 5.13671 35.344 3.4916 35.7933 1.80566C35.7716 1.79035 35.75 1.77674 35.7283 1.76313C34.4889 0.96524 33.0726 0.750882 31.6185 0.693039C28.6472 0.570549 25.7696 1.11495 22.9263 1.855C22.7748 1.89583 22.5998 2.11359 22.5637 2.27521C22.3129 3.42866 17.8694 23.9594 17.8694 23.9594H21.1944C22.1307 23.9594 22.9335 23.2789 23.123 22.4044C23.1248 22.4078 26.7204 5.80531 26.9369 4.79646Z" fill="white"/>
<path d="M38.2015 4.73193C35.5531 10.1742 31.1059 14.9565 25.3328 17.4981C34.6835 20.0177 40.8373 11.3396 38.2015 4.73193Z" fill="white"/>
<path d="M16.7101 9.06152C9.91946 2.87406 -1.65754 9.93596 0.19889 18.3504C1.35352 23.5851 7.36123 24.7471 12.2233 23.512C15.3083 22.7294 14.9403 19.907 14.9403 19.907C11.0705 20.7508 3.70609 19.9921 4.31047 17.2037C7.28726 17.9914 11.8246 18.1785 15.0089 16.6355C19.1637 14.6212 18.4547 10.9091 16.7101 9.06152ZM13.8633 12.5882C12.8259 14.6076 6.89757 14.5906 4.7633 14.0003C6.10195 11.1353 9.62178 9.42389 12.8493 10.6641C13.8236 11.0401 14.2566 11.8159 13.8633 12.5882Z" fill="white"/>
<path d="M59.0114 8.00997C56.1356 7.12021 52.6861 6.71191 50.1604 6.71191C43.4761 6.71191 39.2689 12.3856 39.4656 17.3635C39.5414 19.274 40.2215 23.6105 46.3429 24.1089C48.0424 24.2467 49.6642 24.0409 51.0841 23.0508C51.0949 23.0422 51.1941 22.9589 51.1707 23.078C51.1202 23.3553 51.0065 23.9643 51.0065 23.9643C51.0065 23.9643 54.198 23.9643 55.7116 23.9643C55.9967 23.9643 56.0364 23.7789 56.0779 23.59C57.1658 18.5714 58.2609 13.5629 59.3361 8.54076C59.4047 8.22433 59.3379 8.10864 59.0114 8.00997ZM53.8245 11.0008C53.2508 13.5884 52.6952 16.1794 52.116 18.7687C52.0655 18.9916 51.9428 19.194 51.7624 19.3454C50.3877 20.4989 48.7856 20.8783 46.996 20.4904C43.5645 19.7469 44.1274 15.1586 45.329 12.9453C46.4241 10.931 48.8993 9.79288 51.4197 10.1008C53.9418 10.407 53.8895 10.6997 53.8245 11.0008Z" fill="white"/>
<path d="M114.117 12.7667C113.765 8.80616 110.449 6.71191 106.469 6.71191C98.1232 6.71191 95.3665 13.2873 95.6209 17.8568C95.8645 22.2444 99.9797 24.2876 104.126 23.9218C107.977 23.7057 110.871 22.047 112.661 18.7976C113.696 16.9143 114.368 14.929 114.117 12.7667ZM102.606 20.208C98.9333 19.4951 100.178 14.9137 100.945 13.5629C102.796 10.2999 105.318 10.1501 106.752 10.3645C108.647 10.6452 109.722 11.9212 109.615 14.0766C109.455 17.3396 106.88 21.0365 102.606 20.208Z" fill="white"/>
<path d="M58.3081 31.3513L58.9305 28.4728C59.0243 28.136 59.3617 27.8961 59.7315 27.8859C61.597 27.8366 62.2357 27.5303 63.1684 26.5742C63.881 25.7202 64.4204 25.0346 65.0194 24.2452C65.0988 24.1414 65.106 23.956 65.0771 23.8199C64.0668 18.9832 61.5176 6.71208 61.5176 6.71208C61.5176 6.71208 66.165 6.67295 66.4573 8.43205C67.0184 11.8005 68.3462 18.6107 68.4093 18.8794C68.5735 18.6124 72.9196 11.576 74.9529 8.20238C75.9505 6.54706 79.7518 6.71208 81.0075 6.71208C77.2603 12.6171 69.9825 24.0683 68.8477 25.8478C65.8998 30.465 63.3055 31.3871 60.5885 31.3547C59.8488 31.3462 58.3081 31.3513 58.3081 31.3513Z" fill="white"/>
<path d="M92.7408 19.2059C92.4774 20.4189 91.9993 22.6254 91.9831 22.7037C91.956 22.833 91.8983 22.9759 91.7161 23.0405C89.2066 23.9252 86.5275 24.342 84.0901 23.5271C76.2025 20.8936 78.3205 8.94225 86.5581 7.04025C90.6029 6.10626 94.637 7.45876 94.8336 7.5166C95.0627 7.58465 95.2052 7.80241 95.1583 8.02357C95.0158 8.68876 94.563 10.7949 94.5431 10.8715C92.2609 10.1757 89.8633 9.67209 87.5323 10.4445C82.8994 11.9824 81.8927 19.4781 86.5004 20.356C88.7086 20.7779 90.7292 20.0395 92.7408 19.2059Z" fill="white"/>
</svg>
 