<svg width="90" height="90" viewBox="0 0 90 90" fill="none" xmlns="http://www.w3.org/2000/svg">
<circle cx="45" cy="45" r="44.5" fill="white" stroke="#BDBDBD"/>
<path d="M45.8601 45.0133C45.8601 44.4093 45.8405 43.9246 45.8209 43.4795H46.6131L46.6523 44.2862H46.6719C47.0328 43.714 47.6015 43.3723 48.3937 43.3723C49.5664 43.3723 50.4449 44.3339 50.4449 45.7643C50.4449 47.4571 49.3821 48.2915 48.2408 48.2915C47.6015 48.2915 47.0406 48.0213 46.7504 47.5524H46.7308V50.1074H45.8601V45.0133ZM46.7308 46.269C46.7308 46.3961 46.7504 46.5114 46.77 46.6186C46.9308 47.2107 47.4603 47.62 48.0917 47.62C49.0212 47.62 49.5625 46.8809 49.5625 45.8041C49.5625 44.8623 49.0526 44.0557 48.1192 44.0557C47.5191 44.0557 46.9583 44.4729 46.7857 45.1166C46.7543 45.2239 46.7269 45.3511 46.7269 45.4663V46.269H46.7308Z" fill="#202020"/>
<path d="M51.5549 41.2822H52.4373V48.1842H51.5549V41.2822Z" fill="#202020"/>
<path d="M56.5986 48.1802L56.528 47.5882H56.4966C56.226 47.9577 55.7044 48.2875 55.0141 48.2875C54.0336 48.2875 53.5316 47.616 53.5316 46.9365C53.5316 45.8001 54.5709 45.1762 56.4456 45.1882V45.0928C56.4456 44.7034 56.3358 44.004 55.3435 44.004C54.8925 44.004 54.4219 44.1391 54.0806 44.3537L53.8806 43.7895C54.2807 43.5352 54.8611 43.3723 55.473 43.3723C56.9555 43.3723 57.3163 44.3537 57.3163 45.2954V47.0557C57.3163 47.465 57.3359 47.8624 57.3948 48.1842H56.5986V48.1802ZM56.4692 45.7802C55.5083 45.7604 54.4179 45.9272 54.4179 46.8412C54.4179 47.3935 54.7984 47.6557 55.2494 47.6557C55.8809 47.6557 56.2809 47.2663 56.4221 46.869C56.4535 46.7816 56.4731 46.6862 56.4731 46.5988V45.7802H56.4692Z" fill="#202020"/>
<path d="M59.7637 42.1285V43.4795H61.0266V44.1311H59.7637V46.6663C59.7637 47.2504 59.9323 47.5802 60.4226 47.5802C60.654 47.5802 60.8226 47.5524 60.9325 47.5206L60.9717 48.1603C60.803 48.2279 60.5324 48.2755 60.1912 48.2755C59.7794 48.2755 59.4499 48.1484 59.2421 47.9179C58.991 47.6636 58.9008 47.2464 58.9008 46.6941V44.1272H58.1517V43.4755H58.9008V42.347L59.7637 42.1285Z" fill="#202020"/>
<path d="M64.7016 48.1802L64.631 47.5882H64.5996C64.329 47.9577 63.8074 48.2875 63.1171 48.2875C62.1366 48.2875 61.6346 47.616 61.6346 46.9365C61.6346 45.8001 62.6739 45.1762 64.5487 45.1882V45.0928C64.5487 44.7034 64.4388 44.004 63.4466 44.004C62.9955 44.004 62.5249 44.1391 62.1837 44.3537L61.9836 43.7895C62.3837 43.5352 62.9642 43.3723 63.576 43.3723C65.0585 43.3723 65.4193 44.3537 65.4193 45.2954V47.0557C65.4193 47.465 65.439 47.8624 65.4978 48.1842H64.7016V48.1802ZM64.5683 45.7802C63.6074 45.7604 62.517 45.9272 62.517 46.8412C62.517 47.3935 62.8975 47.6557 63.3485 47.6557C63.98 47.6557 64.38 47.2663 64.5212 46.869C64.5526 46.7816 64.5722 46.6862 64.5722 46.5988V45.7802H64.5683Z" fill="#202020"/>
<path d="M30.07 41.7113C28.3169 41.6636 26.0539 46.0862 25.4538 47.5524C25.1165 48.371 26.1598 48.959 26.4971 48.1405C27.054 46.7776 28.9562 42.9789 30.074 42.9828C31.1878 42.9908 33.0273 46.8094 33.5724 48.1802C33.8979 49.0028 34.9491 48.4266 34.6196 47.6041C34.0352 46.1299 31.8193 41.6835 30.07 41.7113ZM25.3754 44.914C25.3714 44.8623 25.3597 44.8146 25.3518 44.763C25.293 44.4411 25.1871 44.1471 25.0459 43.8848C25.042 43.8809 25.0381 43.8729 25.0341 43.8689C24.9949 43.8014 24.9557 43.7378 24.9126 43.6742C24.8851 43.6305 24.8537 43.5908 24.8263 43.5511C24.8067 43.5232 24.7871 43.4994 24.7674 43.4716C24.7243 43.4199 24.6851 43.3683 24.6419 43.3206C24.5949 43.2689 24.5517 43.2213 24.5047 43.1736C24.4929 43.1616 24.4851 43.1537 24.4733 43.1418C22.6299 41.3736 18.6098 41.5524 17.4607 42.0252C16.6841 42.3431 16.9508 43.2769 17.8019 42.9113C19.1864 42.5696 20.5199 42.5775 21.8847 42.9113C22.9986 43.1815 24.1674 44.1312 24.1674 45.1484C24.0889 47.6796 20.6375 47.7829 19.2374 47.4531V44.3021C19.2374 43.5511 18.2412 43.5431 18.2412 44.2941V47.461C18.2412 48.0968 18.5785 48.3273 19.0256 48.4266C20.0806 48.661 24.5007 48.9114 25.2891 45.8597C25.3048 45.8001 25.3165 45.7445 25.3283 45.6888C25.3401 45.6372 25.3518 45.5855 25.3597 45.5299C25.391 45.3233 25.395 45.1286 25.3793 44.9418C25.3754 44.9338 25.3754 44.9219 25.3754 44.914ZM43.9266 42.3948C43.9266 41.5166 42.7892 41.5206 42.7892 42.3789V47.918C42.7892 48.7485 43.9266 48.7802 43.9266 47.9498V42.3948ZM41.0792 42.0769C40.5811 43.4477 38.8829 47.2743 37.8514 47.2862C36.8199 47.2941 35.0589 43.5034 34.5372 42.1404C34.2235 41.3219 33.2626 41.9179 33.5763 42.7325C34.1372 44.1987 36.2551 48.6134 37.8749 48.5577C39.4947 48.5816 41.5185 44.1272 42.0519 42.6491C42.3499 41.8265 41.3812 41.2543 41.0792 42.0769Z" fill="#FF1A25"/>
<path d="M70.2279 39.1126C69.3415 38.3855 67.8393 37.2967 67.3922 36.9749C67.4511 36.3113 67.5726 35.5921 67.7295 34.9802C67.9099 34.2808 68.0707 33.6768 67.7295 33.2556C67.502 32.9695 67.102 32.8384 66.4706 32.8384H64.1213C63.5879 32.8384 63.1996 32.9894 62.9682 33.2835C62.7956 33.506 62.725 33.8 62.7603 34.1338C60.2384 32.7987 58.0539 32.0079 56.842 32H56.838C55.5398 32.0079 53.116 32.9179 50.3549 34.4358C49.9627 34.6504 47.5781 36.0173 46.425 36.8795C46.4054 36.8914 44.5071 38.2265 43.46 39.0809C42.954 39.4941 42.5853 39.8756 42.3147 40.2292H42.3186C42.2794 40.2769 42.248 40.3365 42.248 40.404C42.248 40.559 42.3775 40.6862 42.5383 40.6862C42.6285 40.6862 42.703 40.6425 42.7579 40.5829L42.7618 40.5868C42.7618 40.5868 42.8442 40.4756 42.8991 40.404C43.1423 40.114 43.4482 39.812 43.8247 39.506C44.8601 38.6636 46.7388 37.3444 46.7662 37.3245C47.9036 36.4742 50.2529 35.1272 50.6373 34.9166C53.316 33.4424 55.634 32.5603 56.842 32.5523C58.0499 32.5603 60.3679 33.4424 63.0466 34.9166C63.1447 34.9722 63.2662 34.9643 63.3565 34.8967C63.4467 34.8331 63.4898 34.7219 63.4623 34.6146C63.4467 34.551 63.4271 34.4835 63.4074 34.4159C63.3957 34.3802 63.3839 34.3444 63.3761 34.3047C63.3251 34.1338 63.2662 33.8159 63.4231 33.6133C63.5722 33.4265 63.8859 33.3868 64.1252 33.3868H66.4745C66.8981 33.3868 67.1765 33.4583 67.2824 33.5934C67.4511 33.804 67.3177 34.3086 67.1804 34.8451C67.004 35.5325 66.8706 36.351 66.8157 37.0861C66.8078 37.1815 66.851 37.2729 66.9294 37.3285C66.949 37.3404 68.8355 38.6914 69.8631 39.5338C71.1103 40.555 71.6398 41.5087 71.3535 42.216C71.0358 43.0027 69.7062 43.4716 68.0551 43.3921C67.859 43.3842 67.6668 43.3723 67.4746 43.3643L67.1177 43.3484C67.0392 43.3445 66.9608 43.3723 66.9059 43.4279C66.851 43.4796 66.8196 43.5551 66.8196 43.6306C66.8431 44.5047 67.1098 46.273 68.6434 48.2796C70.02 49.877 70.22 51.7207 69.2003 53.3459C67.9805 55.2889 64.9253 56.8466 60.8464 55.9565C60.7954 55.9446 60.7444 55.9485 60.6934 55.9644C59.5795 56.326 57.7754 56.485 56.8459 56.485C55.9163 56.485 54.1122 56.322 53.0023 55.9644C52.9748 55.9565 52.9434 55.9485 52.9121 55.9485C52.8925 55.9485 52.8689 55.9525 52.8493 55.9565C48.7704 56.8466 45.7112 55.285 44.4915 53.3459C43.8286 52.2889 43.6874 51.1406 44.0483 50.024C44.0483 50.024 44.0639 49.9644 44.06 49.9167C44.06 49.9127 44.06 49.9048 44.06 49.9008C44.0483 49.7856 43.9581 49.6942 43.8365 49.6703C43.7149 49.6465 43.6012 49.6982 43.5384 49.7975L43.5345 49.8054C43.5031 49.8571 43.4756 49.9803 43.4756 49.9803C43.1187 51.2121 43.2874 52.4876 44.009 53.6359C45.0758 55.3326 47.4134 56.7671 50.5549 56.7671C51.2962 56.7671 52.0806 56.6876 52.9003 56.5128C54.1357 56.8942 55.9673 57.0413 56.8498 57.0413C57.7323 57.0413 59.5638 56.8982 60.7993 56.5128C65.1135 57.4267 68.3688 55.734 69.6866 53.6359C70.824 51.824 70.5965 49.6902 69.0905 47.9418C67.8158 46.2769 67.4785 44.7948 67.404 43.9167L67.4471 43.9206C67.6393 43.9286 67.8315 43.9405 68.0276 43.9484C69.9533 44.0398 71.4672 43.4438 71.883 42.4226C72.1536 41.7511 72.0869 40.6345 70.2279 39.1126Z" fill="#FF1A25"/>
</svg>
