<?xml version="1.0" encoding="utf-8"?>
<!-- Generator: Adobe Illustrator 16.0.0, SVG Export Plug-In . SVG Version: 6.00 Build 0)  -->
<!DOCTYPE svg PUBLIC "-//W3C//DTD SVG 1.1//EN" "http://www.w3.org/Graphics/SVG/1.1/DTD/svg11.dtd">
<svg version="1.1" id="Capa_1" xmlns="http://www.w3.org/2000/svg" xmlns:xlink="http://www.w3.org/1999/xlink" x="0px" y="0px"
	 width="102px" height="40px" viewBox="0 0 102 40" enable-background="new 0 0 102 40" xml:space="preserve">
<g>
	<g>
		<defs>
			<path id="SVGID_1_" d="M50.147,24.166l1.512-8.268c0.378-2.067,2.306-3.722,4.374-3.714l4.728,0.02
				c2.031,0.009,3.429,1.677,3.051,3.743L62.3,24.215c-0.378,2.067-2.343,3.722-4.374,3.713l-4.728-0.019
				C51.13,27.9,49.77,26.232,50.147,24.166 M56.411,10.118c-3.214-0.013-6.254,2.56-6.82,5.772l-3.893,21.555
				c-0.113,0.554,0.292,1.035,0.845,1.037c0.554,0.003,1.11-0.476,1.224-1.028l1.587-8.858c0.847,0.853,2.101,1.375,3.504,1.381
				l4.728,0.02c3.177,0.013,6.216-2.561,6.783-5.771l1.512-8.268c0.265-1.551-0.062-2.992-0.943-4.104
				c-0.883-1.074-2.209-1.708-3.761-1.714L56.411,10.118z"/>
		</defs>
		<clipPath id="SVGID_2_">
			<use xlink:href="#SVGID_1_"  overflow="visible"/>
		</clipPath>
		
			<radialGradient id="SVGID_3_" cx="-342.5239" cy="327.5215" r="0.4382" gradientTransform="matrix(28.1346 0.1152 0.1152 -28.1346 9654.8594 9278.4531)" gradientUnits="userSpaceOnUse">
			<stop  offset="0" style="stop-color:#2B5CA9"/>
			<stop  offset="0.0037" style="stop-color:#2B5CA9"/>
			<stop  offset="1" style="stop-color:#2B5BA7"/>
		</radialGradient>
		<polygon clip-path="url(#SVGID_2_)" fill="url(#SVGID_3_)" points="45.699,10.074 66.162,10.158 66.046,38.562 45.583,38.478 		
			"/>
	</g>
	<g>
		<defs>
			<path id="SVGID_4_" d="M73.771,10.189c-2.955-0.012-5.809,2.377-6.339,5.331c-0.528,2.952,1.457,5.361,4.411,5.373l5.171,0.021
				c1.995,0.008,3.317,1.639,2.978,3.595c-0.341,1.994-2.269,3.574-4.263,3.566l-9.345-0.038c-0.554-0.002-1.072,0.438-1.186,0.991
				c-0.076,0.555,0.291,0.999,0.845,1.001l9.346,0.038c3.065,0.013,5.994-2.486,6.561-5.55c0.265-1.478-0.025-2.882-0.908-3.92
				c-0.882-1.074-2.172-1.634-3.649-1.64l-5.171-0.021c-1.884-0.008-3.171-1.564-2.83-3.409c0.34-1.883,2.156-3.39,4.039-3.382
				l8.681,0.035c0.555,0.003,1.036-0.439,1.149-0.992c0.075-0.554-0.255-0.962-0.809-0.964L73.771,10.189z"/>
		</defs>
		<clipPath id="SVGID_5_">
			<use xlink:href="#SVGID_4_"  overflow="visible"/>
		</clipPath>
		
			<radialGradient id="SVGID_6_" cx="-343.1689" cy="327.4268" r="0.4377" gradientTransform="matrix(21.648 0.0886 0.0886 -21.648 7474.1406 7138.6406)" gradientUnits="userSpaceOnUse">
			<stop  offset="0" style="stop-color:#2B5CA9"/>
			<stop  offset="0.0037" style="stop-color:#2B5CA9"/>
			<stop  offset="1" style="stop-color:#2B5BA7"/>
		</radialGradient>
		<polygon clip-path="url(#SVGID_5_)" fill="url(#SVGID_6_)" points="65.202,10.154 83.338,10.228 83.257,30.1 65.121,30.025 		"/>
	</g>
	<g>
		<defs>
			<path id="SVGID_7_" d="M86.935,16.042c0.379-2.104,2.417-3.831,4.559-3.822l4.802,0.02c2.143,0.009,3.577,1.75,3.197,3.854
				l-0.604,3.248L86.331,19.29L86.935,16.042z M91.834,10.263c-3.214-0.013-6.29,2.561-6.856,5.771l-1.512,8.23
				c-0.567,3.211,1.602,5.843,4.815,5.856l9.345,0.001c0.518,0.002,1.036-0.402,1.111-0.956c0.114-0.554-0.254-0.998-0.771-1
				l-9.346-0.038c-2.143-0.009-3.575-1.751-3.197-3.855l0.566-2.989l13.519,0.055c0.554,0.002,1.072-0.438,1.148-0.992l0.793-4.244
				c0.568-3.211-1.601-5.806-4.814-5.819L91.834,10.263z"/>
		</defs>
		<clipPath id="SVGID_8_">
			<use xlink:href="#SVGID_7_"  overflow="visible"/>
		</clipPath>
		
			<radialGradient id="SVGID_9_" cx="-344.249" cy="327.4238" r="0.438" gradientTransform="matrix(21.7107 0.0889 0.0889 -21.7107 7537.2656 7159.4219)" gradientUnits="userSpaceOnUse">
			<stop  offset="0" style="stop-color:#2B5CA9"/>
			<stop  offset="0.0037" style="stop-color:#2B5CA9"/>
			<stop  offset="1" style="stop-color:#2B5BA7"/>
		</radialGradient>
		<polygon clip-path="url(#SVGID_8_)" fill="url(#SVGID_9_)" points="82.969,10.227 102.029,10.305 101.947,30.176 82.888,30.099 		
			"/>
	</g>
	<polygon fill="#FCB813" points="26.116,14.537 32.96,14.565 36.365,18.96 21.585,18.898 21.58,20.213 40.566,20.291 38.135,25.099 
		33.386,25.079 33.38,26.393 38.875,26.415 42.068,20.297 47.302,20.318 47.573,19.005 38.321,18.967 33.698,13.255 25.927,13.223 	
		"/>
	<path fill="#FCB813" d="M22.517,19.817c-0.004,1.102-0.9,1.99-2.001,1.985c-1.102-0.005-1.991-0.9-1.986-2.002
		c0.004-1.101,0.901-1.989,2.002-1.985C21.633,17.82,22.521,18.717,22.517,19.817"/>
	<path fill="#FCB813" d="M26.48,13.926c-0.004,1.101-0.901,1.989-2.002,1.985c-1.101-0.005-1.99-0.901-1.986-2.002
		c0.004-1.102,0.901-1.99,2.002-1.985C25.596,11.928,26.484,12.824,26.48,13.926"/>
	<path fill="#FCB813" d="M26.131,1.826c-0.003,0.88-0.721,1.592-1.602,1.588s-1.593-0.721-1.589-1.602
		c0.003-0.881,0.721-1.592,1.602-1.589C25.423,0.228,26.135,0.945,26.131,1.826"/>
	<path fill="#FCB813" d="M26.032,26.021c-0.003,0.881-0.721,1.593-1.602,1.589s-1.593-0.721-1.589-1.602
		c0.003-0.881,0.721-1.592,1.602-1.588C25.324,24.424,26.036,25.142,26.032,26.021"/>
	<path fill="#FCB813" d="M25.983,37.839c-0.003,0.881-0.721,1.592-1.602,1.588c-0.881-0.003-1.593-0.721-1.589-1.602
		c0.003-0.881,0.721-1.592,1.602-1.589C25.276,36.24,25.987,36.958,25.983,37.839"/>
	<path fill="#FCB813" d="M30.444,7.752c-0.005,1.101-0.901,1.99-2.002,1.985c-1.102-0.004-1.99-0.9-1.986-2.002
		c0.004-1.101,0.9-1.99,2.002-1.985C29.56,5.754,30.449,6.651,30.444,7.752"/>
	<path fill="#FCB813" d="M29.948,31.665c-0.004,0.88-0.721,1.592-1.602,1.588c-0.881-0.003-1.592-0.721-1.589-1.601
		c0.003-0.881,0.721-1.593,1.602-1.589C29.239,30.067,29.951,30.784,29.948,31.665"/>
	<path fill="#FCB813" d="M34.407,1.86c-0.004,1.101-0.9,1.99-2.002,1.985c-1.101-0.004-1.99-0.901-1.986-2.001
		c0.004-1.102,0.901-1.99,2.002-1.986C33.523-0.138,34.412,0.759,34.407,1.86"/>
	<path fill="#FCB813" d="M34.308,26.056c-0.004,1.101-0.9,1.989-2.001,1.985c-1.102-0.005-1.991-0.9-1.986-2.002
		c0.005-1.101,0.901-1.99,2.002-1.985C33.424,24.059,34.312,24.955,34.308,26.056"/>
	<path fill="#FCB813" d="M34.26,37.872c-0.005,1.102-0.9,1.99-2.002,1.985c-1.102-0.004-1.99-0.9-1.985-2.001
		c0.004-1.102,0.9-1.991,2.002-1.986C33.375,35.875,34.264,36.771,34.26,37.872"/>
	<path fill="#FCB813" d="M38.322,7.784c-0.005,1.101-0.901,1.99-2.002,1.985c-1.102-0.004-1.991-0.9-1.986-2.002
		c0.005-1.101,0.901-1.99,2.002-1.985C37.438,5.787,38.327,6.683,38.322,7.784"/>
	<path fill="#FCB813" d="M38.224,31.699c-0.004,1.101-0.901,1.989-2.002,1.984c-1.102-0.004-1.99-0.9-1.986-2.001
		c0.004-1.102,0.901-1.99,2.002-1.985C37.339,29.701,38.229,30.598,38.224,31.699"/>
	<path fill="#FCB813" d="M18.204,13.892c-0.004,0.881-0.721,1.593-1.602,1.589c-0.881-0.004-1.592-0.722-1.589-1.602
		c0.003-0.881,0.721-1.593,1.602-1.589C17.496,12.294,18.207,13.011,18.204,13.892"/>
	<path fill="#FCB813" d="M17.854,1.792c-0.003,0.661-0.541,1.194-1.201,1.191c-0.661-0.003-1.195-0.541-1.192-1.201
		c0.002-0.661,0.541-1.194,1.202-1.191C17.323,0.594,17.856,1.131,17.854,1.792"/>
	<path fill="#FCB813" d="M17.708,37.523c-0.003,0.66-0.541,1.193-1.201,1.19c-0.661-0.002-1.194-0.54-1.191-1.2
		c0.002-0.661,0.541-1.194,1.201-1.191C17.177,36.324,17.71,36.862,17.708,37.523"/>
	<path fill="#FCB813" d="M18.154,25.989c-0.003,0.881-0.721,1.593-1.601,1.589c-0.881-0.004-1.593-0.721-1.589-1.602
		c0.004-0.881,0.721-1.592,1.602-1.589C17.446,24.392,18.158,25.108,18.154,25.989"/>
	<path fill="#FCB813" d="M22.167,7.718c-0.003,0.881-0.721,1.592-1.601,1.589c-0.881-0.003-1.592-0.721-1.589-1.602
		c0.004-0.881,0.721-1.592,1.602-1.588C21.46,6.12,22.171,6.837,22.167,7.718"/>
	<path fill="#FCB813" d="M9.927,13.857c-0.002,0.661-0.541,1.194-1.201,1.191c-0.661-0.003-1.194-0.54-1.192-1.201
		c0.003-0.661,0.541-1.193,1.202-1.191C9.396,12.659,9.93,13.196,9.927,13.857"/>
	<path fill="#FCB813" d="M13.891,7.684c-0.002,0.661-0.541,1.194-1.201,1.191c-0.661-0.003-1.194-0.54-1.191-1.201
		c0.002-0.661,0.54-1.194,1.201-1.191C13.36,6.486,13.894,7.023,13.891,7.684"/>
	<path fill="#FCB813" d="M9.877,25.955c-0.003,0.661-0.541,1.194-1.201,1.191c-0.661-0.003-1.195-0.54-1.192-1.201
		c0.002-0.66,0.541-1.193,1.202-1.19C9.347,24.757,9.88,25.295,9.877,25.955"/>
	<path fill="#FCB813" d="M13.554,31.598c-0.002,0.528-0.433,0.955-0.961,0.953c-0.529-0.003-0.955-0.433-0.953-0.961
		c0.002-0.528,0.432-0.955,0.96-0.953C13.129,30.639,13.556,31.069,13.554,31.598"/>
	<path fill="#FCB813" d="M21.671,31.631c-0.002,0.661-0.54,1.194-1.201,1.191c-0.661-0.003-1.194-0.54-1.192-1.201
		c0.003-0.661,0.541-1.194,1.202-1.191C21.141,30.433,21.674,30.97,21.671,31.631"/>
	<path fill="#FCB813" d="M14.241,19.783c-0.004,0.882-0.721,1.593-1.602,1.59c-0.881-0.004-1.592-0.722-1.588-1.603
		s0.721-1.592,1.602-1.588C13.533,18.186,14.244,18.903,14.241,19.783"/>
	<path fill="#FCB813" d="M3.46,13.831c-0.001,0.353-0.288,0.638-0.641,0.636c-0.352-0.002-0.636-0.288-0.635-0.641
		s0.289-0.637,0.641-0.636C3.178,13.192,3.462,13.479,3.46,13.831"/>
	<path fill="#FCB813" d="M3.411,25.929c-0.002,0.353-0.288,0.638-0.641,0.636c-0.352-0.001-0.636-0.288-0.635-0.641
		s0.288-0.637,0.64-0.636C3.128,25.29,3.413,25.576,3.411,25.929"/>
	<path fill="#FCB813" d="M7.425,7.658C7.423,8.01,7.136,8.294,6.784,8.293C6.432,8.292,6.147,8.005,6.149,7.652
		s0.288-0.637,0.64-0.635C7.142,7.019,7.426,7.305,7.425,7.658"/>
	<path fill="#FCB813" d="M7.934,19.758c-0.003,0.661-0.541,1.194-1.201,1.191c-0.661-0.003-1.194-0.54-1.191-1.201
		c0.003-0.66,0.54-1.193,1.201-1.191C7.402,18.56,7.937,19.098,7.934,19.758"/>
	<path fill="#FCB813" d="M1.466,19.731c-0.001,0.353-0.288,0.637-0.641,0.636c-0.352-0.002-0.636-0.288-0.635-0.642
		c0.001-0.353,0.288-0.637,0.64-0.635C1.184,19.092,1.468,19.379,1.466,19.731"/>
	<path fill="#FCB813" d="M7.327,31.572c-0.001,0.353-0.289,0.637-0.641,0.636c-0.352-0.002-0.636-0.288-0.635-0.641
		s0.288-0.638,0.64-0.636C7.043,30.933,7.328,31.22,7.327,31.572"/>
	<g>
		<defs>
			<path id="SVGID_10_" d="M51.87,6.814c0.08-0.417,0.478-0.752,0.895-0.751l1.61,0.006l-0.272,1.502l-1.61-0.007
				C52.075,7.563,51.796,7.224,51.87,6.814 M52.398,4.084c-0.101,0-0.201,0.079-0.216,0.186c-0.022,0.108,0.049,0.195,0.149,0.195
				l1.582,0.006c0.41,0.001,0.689,0.341,0.615,0.75l-0.088,0.468L52.83,5.683c-0.625-0.003-1.224,0.505-1.342,1.13
				c-0.11,0.626,0.312,1.138,0.938,1.141l1.805,0.007c0.107,0,0.202-0.085,0.217-0.194l0.464-2.543
				c0.11-0.625-0.305-1.13-0.931-1.132L52.398,4.084z"/>
		</defs>
		<clipPath id="SVGID_11_">
			<use xlink:href="#SVGID_10_"  overflow="visible"/>
		</clipPath>
		
			<radialGradient id="SVGID_12_" cx="-333.2358" cy="324.9023" r="0.4376" gradientTransform="matrix(4.184 0.0171 0.0171 -4.184 1441.9023 1371.1328)" gradientUnits="userSpaceOnUse">
			<stop  offset="0" style="stop-color:#2B5CA9"/>
			<stop  offset="0.0037" style="stop-color:#2B5CA9"/>
			<stop  offset="1" style="stop-color:#2B5BA7"/>
		</radialGradient>
		<polygon clip-path="url(#SVGID_11_)" fill="url(#SVGID_12_)" points="51.392,4.081 55.023,4.096 55.007,7.964 51.376,7.949 		"/>
	</g>
	<g>
		<defs>
			<path id="SVGID_13_" d="M56.592,4.109c-0.295-0.001-0.604,0.12-0.85,0.327c-0.253,0.215-0.42,0.501-0.471,0.796l-0.295,1.603
				c-0.052,0.294,0.013,0.583,0.191,0.798c0.165,0.209,0.438,0.333,0.731,0.334l1.733,0.014c0.107,0,0.209-0.085,0.23-0.193
				s-0.049-0.194-0.157-0.195L55.98,7.587c-0.417-0.002-0.696-0.341-0.623-0.75l0.295-1.603c0.073-0.41,0.471-0.746,0.888-0.744
				l1.726,0.007c0.107,0,0.209-0.085,0.23-0.193c0.016-0.108-0.057-0.188-0.164-0.188L56.592,4.109z"/>
		</defs>
		<clipPath id="SVGID_14_">
			<use xlink:href="#SVGID_13_"  overflow="visible"/>
		</clipPath>
		
			<radialGradient id="SVGID_15_" cx="-334.4155" cy="324.9238" r="0.4379" gradientTransform="matrix(4.2264 0.0173 0.0173 -4.2264 1464.4648 1385.0781)" gradientUnits="userSpaceOnUse">
			<stop  offset="0" style="stop-color:#2B5CA9"/>
			<stop  offset="0.0037" style="stop-color:#2B5CA9"/>
			<stop  offset="1" style="stop-color:#2B5BA7"/>
		</radialGradient>
		<polygon clip-path="url(#SVGID_14_)" fill="url(#SVGID_15_)" points="54.938,4.102 58.512,4.116 58.496,7.985 54.922,7.971 		"/>
	</g>
	<g>
		<defs>
			<path id="SVGID_16_" d="M59.115,2.652l-0.927,5.123c-0.015,0.107,0.063,0.202,0.171,0.203c0.108,0,0.217-0.093,0.231-0.201
				l0.464-2.537c0.073-0.402,0.448-0.724,0.852-0.722l0.92,0.003c0.396,0.002,0.668,0.327,0.594,0.729l-0.463,2.537
				c-0.016,0.108,0.063,0.202,0.172,0.203c0.114,0,0.216-0.093,0.23-0.201l0.463-2.536c0.111-0.625-0.304-1.13-0.923-1.132
				l-0.92-0.004c-0.273-0.001-0.547,0.099-0.771,0.263l0.31-1.724c0.021-0.108-0.058-0.202-0.165-0.202
				C59.246,2.451,59.137,2.544,59.115,2.652"/>
		</defs>
		<clipPath id="SVGID_17_">
			<use xlink:href="#SVGID_16_"  overflow="visible"/>
		</clipPath>
		
			<radialGradient id="SVGID_18_" cx="-337.2104" cy="325.1582" r="0.4381" gradientTransform="matrix(5.3455 0.0219 0.0219 -5.3455 1855.4492 1750.7188)" gradientUnits="userSpaceOnUse">
			<stop  offset="0" style="stop-color:#2B5CA9"/>
			<stop  offset="0.0037" style="stop-color:#2B5CA9"/>
			<stop  offset="1" style="stop-color:#2B5BA7"/>
		</radialGradient>
		<polygon clip-path="url(#SVGID_17_)" fill="url(#SVGID_18_)" points="58.195,2.447 61.941,2.462 61.919,7.992 58.173,7.977 		"/>
	</g>
</g>
</svg>
