<svg xmlns="http://www.w3.org/2000/svg" viewBox="0 0 280.97 51.94"><defs><style>.cls-1{fill:#20a1cb;}.cls-2{fill:#2f5f9f;}.cls-3{fill:#2e5e9f;}.cls-4{fill:#2d5e9f;}.cls-5{fill:#1fa0cb;}.cls-6{fill:#25a1cb;}.cls-7{fill:#2d5d9e;}.cls-8{fill:#fdfefe;}</style></defs><title>safetypay</title><g id="Capa_2" data-name="Capa 2"><g id="Capa_1-2" data-name="Capa 1"><path class="cls-1" d="M201.07,15.3c.64,0,.79-.46,1.07-.73a11.69,11.69,0,0,1,12.63-2.86,8.88,8.88,0,0,1,5.68,6c2.53,7.43-.92,17-7.62,21a12.74,12.74,0,0,1-9.51,1.76,8,8,0,0,1-5.54-3.87,3.25,3.25,0,0,0-.28-.39s-.08,0-.15,0c-.92,4.86-1.87,9.73-2.74,14.6-.16.88-.46,1.17-1.34,1.11a19.74,19.74,0,0,0-3.06,0c-1,.09-1.13-.37-1-1.22.84-4.28,1.64-8.57,2.45-12.85,1.62-8.53,3.25-17.06,4.83-25.59.19-1,.54-1.39,1.58-1.29a28.92,28.92,0,0,0,3.06,0c.54,0,.71.19.59.74C201.49,12.9,201.3,14.08,201.07,15.3Zm14.52,7.89c0-.45,0-.9,0-1.34-.47-4.69-4.11-7.1-8.61-5.73a8.31,8.31,0,0,0-3,1.59,13.62,13.62,0,0,0-4.91,12.41c.42,4.07,3.41,6.26,7.33,5.67a8.9,8.9,0,0,0,3.92-1.61C214.06,31.48,215.48,27.64,215.59,23.19Zm-14.47-7.58-.06-.08-.07.07.09.08Z"/><path class="cls-2" d="M84.81,26.72c-3.1,0-6.2,0-9.29,0-.8,0-1,.2-.95,1,.57,5.79,6.15,9.45,12.24,8a13.21,13.21,0,0,0,5.14-2.47c.59-.46.86-.36,1.17.26.44.87.93,1.72,1.43,2.56a.74.74,0,0,1-.19,1.14c-6.71,5.27-17.45,4.85-22.67-2.26s-3.18-17.87,4-22a13.91,13.91,0,0,1,11.69-1.21c4.78,1.58,7,5.3,7.78,10.06a15.61,15.61,0,0,1,.11,4c-.07.74-.33.94-1,.94C91.09,26.7,87.95,26.72,84.81,26.72Zm-2.69-4.12c2.24,0,4.47,0,6.71,0,.4,0,.91.19.92-.58a6.81,6.81,0,0,0-4.82-6.38,8.19,8.19,0,0,0-10.11,6.08c-.16.72,0,.91.71.9C77.73,22.57,79.93,22.59,82.12,22.59Z"/><path class="cls-3" d="M42.27,35.48c-3.9,5.25-9.1,6.69-14.16,4.12a8.3,8.3,0,0,1-.79-14.46c3.16-2,6.77-2.48,10.41-2.72,1.1-.07,2.2-.08,3.3-.05.65,0,.82-.21.84-.84a5.31,5.31,0,0,0-5.17-5.8,12.8,12.8,0,0,0-8.12,2.16c-.71.45-1,.35-1.37-.36A19.81,19.81,0,0,0,26,15.27c-.41-.64-.38-1,.32-1.46a17.89,17.89,0,0,1,13.62-2.34c4.34,1,7,4.22,7.32,8.83.29,3.86.07,7.74.11,11.61,0,2.65,0,5.3,0,7.95,0,.69-.2.94-.9.9-1.1-.05-2.2-.05-3.3,0-.72,0-.91-.24-.89-.92C42.3,38.47,42.27,37.1,42.27,35.48Zm-3-9Q34,26.57,31.39,28A4.32,4.32,0,0,0,32,36a6.38,6.38,0,0,0,6.72-1.35,9.56,9.56,0,0,0,2.93-5.25c.62-2.79.54-2.89-2.22-2.87Z"/><path class="cls-1" d="M240.35,35.83c-1,.81-1.71,1.83-2.73,2.58a10.7,10.7,0,0,1-8.76,2.12c-5.79-1.15-8.18-6.64-5.12-11.72a10.81,10.81,0,0,1,5.09-4.24,28.5,28.5,0,0,1,12.42-2.21c1.37,0,1.62-.5,1.65-1.67.09-3.47-1.27-5-4.76-5a15.16,15.16,0,0,0-7.8,2.16c-.71.39-1,.39-1.26-.46s-.57-1.79-.89-2.67a.75.75,0,0,1,.4-1.09c4.06-2.07,8.32-3.16,12.88-2.35,5.35,1,7.84,4.68,6.84,10.34-1.09,6.14-2.36,12.24-3.53,18.37-.12.61-.36.82-1,.8-1.14,0-2.28,0-3.43,0-.69,0-.82-.23-.71-.87a16.56,16.56,0,0,0,.65-4.07l.16,0-.06-.13Zm-.65-9.48a35.12,35.12,0,0,0-4.6.43c-2.14.4-4.24.92-5.8,2.58a4.17,4.17,0,0,0-1,4.41c.53,1.57,1.83,2.17,3.39,2.38A6.85,6.85,0,0,0,236.44,35a12.59,12.59,0,0,0,5.06-6.68C242.21,26.31,242.19,26.3,239.7,26.35Z"/><path class="cls-3" d="M129.87,33c.31-.14.37-.43.46-.7,2.26-6.9,5-13.62,7.42-20.45A1.08,1.08,0,0,1,139,11c1.34,0,2.69.06,4,0,1,0,.93.32.64,1.05q-5,12.49-9.93,25c-1.1,2.76-2.15,5.55-3.29,8.29-2.43,5.85-8.27,8.17-13.61,5.48-.88-.44-1.2-.87-.59-1.73a3.5,3.5,0,0,0,.26-.55c.34-.74.51-1.7,1.08-2.16s1.39.43,2.14.61a4.68,4.68,0,0,0,4.85-1.54c1.41-1.55,1.94-3.56,2.76-5.41.21-.47-.12-.87-.29-1.27q-5.58-13.17-11.17-26.33c-.6-1.41-.6-1.41.94-1.41h1.59c3.09,0,3.08,0,4.2,2.93Z"/><path class="cls-1" d="M262.42,34l9.5-17.22c.91-1.64,1.84-3.27,2.71-4.93A1.35,1.35,0,0,1,276,11c1.34.06,2.69.06,4,0,1,0,1.09.26.6,1.08q-5.89,9.87-11.74,19.78c-2.72,4.59-5.41,9.21-8.19,13.78-2,3.3-4.68,5.76-8.73,6.23a10,10,0,0,1-6-1.33c-.54-.29-.73-.6-.3-1.14.23-.28.4-.61.61-.92a7.9,7.9,0,0,1,1.32-1.9c.73-.58,1.35.37,2.08.49a6,6,0,0,0,5.63-2,30.73,30.73,0,0,0,3.33-5c.35-.56.06-1.12-.07-1.66Q255.7,25.7,252.73,13c-.46-2-.46-2,1.57-2,1.18,0,2.62-.47,3.46.2s.66,2.19.88,3.34C259.88,21,261.33,27.37,262.42,34Z"/><path class="cls-3" d="M10.82,11a14.4,14.4,0,0,1,8.43,2.38c.68.46,1,.88.42,1.66a14.42,14.42,0,0,0-1.27,2.37c-.32.74-.59.72-1.23.28A10.1,10.1,0,0,0,9.3,16a4.34,4.34,0,0,0-1.58.63,2.87,2.87,0,0,0-.32,4.76,13.85,13.85,0,0,0,3.89,2,27.13,27.13,0,0,1,6.55,3.23,7.43,7.43,0,0,1,.38,11.68A9.17,9.17,0,0,1,14,40.38a15.83,15.83,0,0,1-13.38-3c-.7-.53-.84-1-.24-1.66A18.91,18.91,0,0,0,2,33.4c.35-.57.62-.57,1.12-.15A12,12,0,0,0,9.51,36a6.58,6.58,0,0,0,3.81-.58c2.4-1.21,2.61-3.82.42-5.38A20.51,20.51,0,0,0,9.46,28a29.45,29.45,0,0,1-5.05-2.44A7.27,7.27,0,0,1,.74,18.3C1.06,15.18,2.9,13.21,5.68,12A12.55,12.55,0,0,1,10.82,11Z"/><path class="cls-3" d="M60.79,28.12c0,3.83,0,7.67,0,11.5,0,.93-.26,1.21-1.17,1.14a20.09,20.09,0,0,0-3.18,0c-1,.08-1.13-.31-1.13-1.19,0-7.3,0-14.6,0-21.9,0-2.23,0-2.29-2.23-2.22-1,0-1.45-.25-1.27-1.27a.82.82,0,0,0,0-.12c0-.94-.29-2.07.13-2.76s1.72-.22,2.62-.29c.58,0,.77-.25.78-.81a15.44,15.44,0,0,1,.17-1.83,9.89,9.89,0,0,1,12-8.11.64.64,0,0,1,.58.75c0,1.1,0,2.2,0,3.3,0,.56-.23.69-.74.65a8.17,8.17,0,0,0-2.67.19,5.06,5.06,0,0,0-3.93,5c0,.65.2.86.83.85,1.63,0,3.26,0,4.89,0,.72,0,1,.17,1,1a17.42,17.42,0,0,0,0,2.57c.06.79-.28,1-1,.94-1.51,0-3,0-4.53,0-.93,0-1.26.2-1.25,1.2C60.83,20.45,60.79,24.29,60.79,28.12Z"/><path class="cls-3" d="M102.24,24c0-2.53,0-5.06,0-7.58,0-.79-.21-1-1-1-2.71,0-2.72,0-2.7-2.74,0-1.94-.26-1.66,1.69-1.68,2.16,0,2.16,0,2.16-2.21,0-2.53,0-5.06,0-7.58,0-.77.16-1.12,1-1.06a29.3,29.3,0,0,0,3.3,0c.79,0,1.06.19,1,1-.05,2.89,0,5.79,0,8.68,0,.92.25,1.2,1.17,1.16,1.63-.07,3.26,0,4.89,0,.64,0,.81.21.83.84.14,3.6.15,3.59-3.46,3.61-1.09,0-2.5-.46-3.19.2s-.21,2.09-.22,3.17c0,3.51,0,7,0,10.52,0,4.47,2,6.52,6.49,6.52.77,0,.9.27.85.91s0,1.06,0,1.59c0,2.43,0,2.43-2.5,2.39-6.48-.11-10.22-3.86-10.29-10.34C102.22,28.28,102.24,26.16,102.24,24Z"/><path class="cls-4" d="M174.6,26a18.66,18.66,0,0,0-7.28-14.72,18,18,0,0,0-9.85-3.91c-.79-.07-1.15-.25-1.11-1.13.07-1.75,0-3.5,0-5.26,0-.51,0-.85.71-.81a26,26,0,0,1,24.64,25.59.85.85,0,0,1-.07.23Z"/><path class="cls-5" d="M174.6,26h7a21.32,21.32,0,0,1-2.08,10.31c-4.44,9.43-11.92,14.56-22.29,15.54-.73.07-.93-.15-.91-.84,0-1.79,0-3.59,0-5.38,0-.7.26-.87.91-.95,9.21-1,15.76-7.25,17.13-16.23C174.52,27.65,174.53,26.83,174.6,26Z"/><path class="cls-6" d="M163.76,26c-.36.73-1.1,1-1.69,1.51q-5.31,4.2-10.66,8.34c-.28.21-.51.53-1,.56q0-5.22,0-10.42Z"/><path class="cls-7" d="M163.76,26H150.43q0-5.17,0-10.33c.2-.13.33,0,.45.1l12.34,9.63C163.43,25.59,163.73,25.7,163.76,26Z"/><path class="cls-8" d="M201.13,15.61l0,.07-.09-.08.07-.07Z"/><path class="cls-8" d="M240.35,35.83l.08-.17.06.13-.16,0Z"/></g></g></svg>