<svg width="77" height="49" viewBox="0 0 77 49" fill="none" xmlns="http://www.w3.org/2000/svg">
<g clip-path="url(#clip0_309_1065)">
<path d="M27.0726 48.6501L30.9651 25.82H37.1756L33.2831 48.6501H27.0726Z" fill="#1A1F71"/>
<path d="M55.8508 26.3885C54.6262 25.9074 52.7018 25.4263 50.2963 25.4263C44.1296 25.4263 39.7997 28.5316 39.7997 32.9489C39.756 36.2291 42.905 38.066 45.2667 39.1594C47.6722 40.2966 48.5032 40.9963 48.5032 42.0023C48.5032 43.533 46.5788 44.2328 44.7856 44.2328C42.2927 44.2328 40.9806 43.8829 38.925 43.0519L38.0503 42.6583L37.1756 47.7754C38.6188 48.4314 41.3305 48.9563 44.1296 49C50.69 49 54.9323 45.9385 54.9761 41.215C55.0198 38.6346 53.3579 36.6227 49.7715 35.0045C47.5847 33.9548 46.2726 33.2551 46.2726 32.1617C46.2726 31.1995 47.4098 30.1935 49.8152 30.1935C51.8708 30.1498 53.3141 30.5872 54.4513 31.0683L55.0198 31.3307L55.8508 26.3885Z" fill="#1A1F71"/>
<path d="M71.8144 25.8637H67.0034C65.5164 25.8637 64.3793 26.2573 63.7232 27.7444L54.495 48.6501H61.0116C61.0116 48.6501 62.0613 45.851 62.3237 45.2387C63.0235 45.2387 69.3652 45.2387 70.2836 45.2387C70.4586 46.026 71.0272 48.6501 71.0272 48.6501H76.8003L71.8144 25.8637ZM64.1606 40.559C64.6854 39.2469 66.6536 34.1735 66.6536 34.1735C66.6098 34.2173 67.1784 32.8615 67.4845 31.9867L67.9219 33.9549C67.9219 33.9549 69.1028 39.4219 69.3652 40.559H64.1606Z" fill="#1A1F71"/>
<path d="M21.8679 25.82L15.7449 41.39L15.0889 38.241C13.9955 34.6109 10.4529 30.6309 6.51663 28.6628L12.0711 48.6501H18.6752L28.4721 25.82H21.8679Z" fill="#1A1F71"/>
<path d="M10.103 25.82H0.0874719L0 26.3011C7.82873 28.1817 12.9896 32.774 15.1326 38.241L12.9458 27.7444C12.5522 26.3011 11.4588 25.8637 10.103 25.82Z" fill="#1A1F71"/>
</g>
<path d="M5.40949 14.1452L9.01004 3.77994H10.7642L6.24039 16H4.98985L5.40949 14.1452ZM2.04394 3.77994L5.61092 14.1452L6.05574 16H4.8052L0.289823 3.77994H2.04394ZM15.2295 16.1679C14.5973 16.1679 14.0237 16.0615 13.509 15.8489C12.9998 15.6307 12.5606 15.3258 12.1913 14.9341C11.8276 14.5424 11.5478 14.078 11.352 13.5409C11.1562 13.0037 11.0582 12.4162 11.0582 11.7784V11.4259C11.0582 10.6873 11.1674 10.0299 11.3856 9.45354C11.6038 8.87163 11.9003 8.37925 12.2752 7.97639C12.6501 7.57353 13.0753 7.26859 13.5509 7.06156C14.0265 6.85454 14.5189 6.75103 15.0281 6.75103C15.6771 6.75103 16.2367 6.86293 16.7067 7.08674C17.1823 7.31055 17.5711 7.62389 17.8733 8.02675C18.1754 8.42401 18.3992 8.89401 18.5447 9.43675C18.6902 9.9739 18.7629 10.5614 18.7629 11.1993V11.8959H11.9815V10.6285H17.2102V10.511C17.1879 10.1082 17.1039 9.71652 16.9585 9.33604C16.8186 8.95556 16.5948 8.64223 16.287 8.39603C15.9793 8.14984 15.5596 8.02675 15.0281 8.02675C14.6756 8.02675 14.3511 8.10228 14.0545 8.25336C13.758 8.39883 13.5034 8.61705 13.2908 8.908C13.0781 9.19896 12.9131 9.55425 12.7956 9.9739C12.6781 10.3935 12.6193 10.8775 12.6193 11.4259V11.7784C12.6193 12.2092 12.6781 12.6149 12.7956 12.9953C12.9187 13.3702 13.0949 13.7003 13.3243 13.9857C13.5593 14.2711 13.8419 14.4949 14.172 14.6571C14.5077 14.8194 14.8882 14.9005 15.3134 14.9005C15.8618 14.9005 16.3262 14.7886 16.7067 14.5648C17.0871 14.341 17.4201 14.0417 17.7054 13.6668L18.6454 14.4137C18.4496 14.7103 18.2006 14.9929 17.8985 15.2614C17.5963 15.53 17.2242 15.7482 16.7822 15.9161C16.3458 16.0839 15.8282 16.1679 15.2295 16.1679ZM21.7847 8.34568V16H20.232V6.91888H21.7427L21.7847 8.34568ZM24.6215 6.86853L24.6131 8.31211C24.4844 8.28413 24.3613 8.26734 24.2438 8.26175C24.1319 8.25056 24.0032 8.24496 23.8578 8.24496C23.4997 8.24496 23.1835 8.30092 22.9094 8.41282C22.6352 8.52473 22.403 8.68139 22.2127 8.88282C22.0225 9.08425 21.8714 9.32485 21.7595 9.60461C21.6532 9.87878 21.5833 10.1809 21.5497 10.511L21.1133 10.7628C21.1133 10.2145 21.1664 9.69973 21.2727 9.21854C21.3846 8.73735 21.5553 8.31211 21.7847 7.94282C22.0141 7.56794 22.3051 7.27698 22.6576 7.06996C23.0157 6.85734 23.4409 6.75103 23.9333 6.75103C24.0452 6.75103 24.1739 6.76502 24.3194 6.79299C24.4648 6.81537 24.5656 6.84055 24.6215 6.86853ZM27.3999 6.91888V16H25.8388V6.91888H27.3999ZM25.7213 4.51012C25.7213 4.25834 25.7968 4.04572 25.9479 3.87226C26.1046 3.69881 26.334 3.61208 26.6361 3.61208C26.9327 3.61208 27.1593 3.69881 27.316 3.87226C27.4782 4.04572 27.5594 4.25834 27.5594 4.51012C27.5594 4.75072 27.4782 4.95774 27.316 5.1312C27.1593 5.29906 26.9327 5.38298 26.6361 5.38298C26.334 5.38298 26.1046 5.29906 25.9479 5.1312C25.7968 4.95774 25.7213 4.75072 25.7213 4.51012ZM31.6219 16H30.0692V6.12995C30.0692 5.44174 30.2035 4.85983 30.472 4.38423C30.7406 3.90863 31.1239 3.54774 31.6219 3.30155C32.1198 3.05535 32.7101 2.93226 33.3928 2.93226C33.7956 2.93226 34.1901 2.98262 34.5762 3.08333C34.9622 3.17845 35.3595 3.29875 35.7679 3.44423L35.5078 4.75352C35.2504 4.6528 34.951 4.55768 34.6097 4.46816C34.274 4.37304 33.9047 4.32548 33.5019 4.32548C32.836 4.32548 32.3548 4.47655 32.0583 4.7787C31.7673 5.07525 31.6219 5.52566 31.6219 6.12995V16ZM33.4767 6.91888V8.11068H28.634V6.91888H33.4767ZM36.5317 6.91888V16H34.979V6.91888H36.5317ZM42.5078 16.1679C41.8755 16.1679 41.302 16.0615 40.7872 15.8489C40.2781 15.6307 39.8388 15.3258 39.4695 14.9341C39.1059 14.5424 38.8261 14.078 38.6303 13.5409C38.4344 13.0037 38.3365 12.4162 38.3365 11.7784V11.4259C38.3365 10.6873 38.4456 10.0299 38.6638 9.45354C38.882 8.87163 39.1786 8.37925 39.5535 7.97639C39.9284 7.57353 40.3536 7.26859 40.8292 7.06156C41.3048 6.85454 41.7972 6.75103 42.3063 6.75103C42.9554 6.75103 43.5149 6.86293 43.9849 7.08674C44.4605 7.31055 44.8494 7.62389 45.1515 8.02675C45.4537 8.42401 45.6775 8.89401 45.823 9.43675C45.9684 9.9739 46.0412 10.5614 46.0412 11.1993V11.8959H39.2597V10.6285H44.4885V10.511C44.4661 10.1082 44.3822 9.71652 44.2367 9.33604C44.0968 8.95556 43.873 8.64223 43.5653 8.39603C43.2575 8.14984 42.8379 8.02675 42.3063 8.02675C41.9538 8.02675 41.6293 8.10228 41.3328 8.25336C41.0362 8.39883 40.7816 8.61705 40.569 8.908C40.3564 9.19896 40.1913 9.55425 40.0738 9.9739C39.9563 10.3935 39.8976 10.8775 39.8976 11.4259V11.7784C39.8976 12.2092 39.9563 12.6149 40.0738 12.9953C40.1969 13.3702 40.3732 13.7003 40.6026 13.9857C40.8376 14.2711 41.1201 14.4949 41.4503 14.6571C41.786 14.8194 42.1665 14.9005 42.5917 14.9005C43.14 14.9005 43.6044 14.7886 43.9849 14.5648C44.3654 14.341 44.6983 14.0417 44.9837 13.6668L45.9237 14.4137C45.7278 14.7103 45.4789 14.9929 45.1767 15.2614C44.8746 15.53 44.5025 15.7482 44.0605 15.9161C43.624 16.0839 43.1065 16.1679 42.5078 16.1679ZM53.2342 14.2375V3.10851H54.7953V16H53.3685L53.2342 14.2375ZM47.1242 11.5602V11.3839C47.1242 10.6901 47.2081 10.0606 47.376 9.4955C47.5494 8.92479 47.7928 8.4352 48.1062 8.02675C48.4251 7.61829 48.8028 7.30496 49.2392 7.08674C49.6812 6.86293 50.1736 6.75103 50.7164 6.75103C51.2871 6.75103 51.7851 6.85174 52.2103 7.05317C52.6411 7.24901 53.0048 7.53716 53.3014 7.91764C53.6035 8.29252 53.8413 8.74574 54.0148 9.27729C54.1882 9.80884 54.3085 10.4103 54.3757 11.0818V11.8539C54.3141 12.5197 54.1938 13.1184 54.0148 13.65C53.8413 14.1815 53.6035 14.6348 53.3014 15.0096C53.0048 15.3845 52.6411 15.6727 52.2103 15.8741C51.7795 16.0699 51.2759 16.1679 50.6996 16.1679C50.168 16.1679 49.6812 16.0532 49.2392 15.8237C48.8028 15.5943 48.4251 15.2726 48.1062 14.8586C47.7928 14.4445 47.5494 13.9577 47.376 13.3982C47.2081 12.8331 47.1242 12.2204 47.1242 11.5602ZM48.6853 11.3839V11.5602C48.6853 12.0134 48.73 12.4386 48.8196 12.8359C48.9147 13.2331 49.0602 13.5828 49.256 13.885C49.4518 14.1871 49.7008 14.4249 50.003 14.5984C50.3051 14.7662 50.666 14.8502 51.0857 14.8502C51.6004 14.8502 52.0229 14.7411 52.353 14.5229C52.6887 14.3046 52.9573 14.0165 53.1587 13.6584C53.3601 13.3003 53.5168 12.9114 53.6287 12.4918V10.4691C53.5616 10.1613 53.4636 9.86479 53.3349 9.57943C53.2119 9.28848 53.0496 9.0311 52.8482 8.80729C52.6523 8.57788 52.4089 8.39603 52.118 8.26175C51.8326 8.12746 51.4941 8.06032 51.1024 8.06032C50.6772 8.06032 50.3107 8.14984 50.003 8.32889C49.7008 8.50234 49.4518 8.74294 49.256 9.05068C49.0602 9.35283 48.9147 9.70533 48.8196 10.1082C48.73 10.5054 48.6853 10.9307 48.6853 11.3839ZM60.7801 3.10851H62.3412V14.2375L62.2069 16H60.7801V3.10851ZM68.4764 11.3839V11.5602C68.4764 12.2204 68.3981 12.8331 68.2414 13.3982C68.0847 13.9577 67.8553 14.4445 67.5532 14.8586C67.251 15.2726 66.8818 15.5943 66.4453 15.8237C66.0089 16.0532 65.5081 16.1679 64.943 16.1679C64.3667 16.1679 63.8603 16.0699 63.4239 15.8741C62.993 15.6727 62.6294 15.3845 62.3328 15.0096C62.0363 14.6348 61.7985 14.1815 61.6194 13.65C61.446 13.1184 61.3257 12.5197 61.2585 11.8539V11.0818C61.3257 10.4103 61.446 9.80884 61.6194 9.27729C61.7985 8.74574 62.0363 8.29252 62.3328 7.91764C62.6294 7.53716 62.993 7.24901 63.4239 7.05317C63.8547 6.85174 64.3555 6.75103 64.9262 6.75103C65.4969 6.75103 66.0033 6.86293 66.4453 7.08674C66.8874 7.30496 67.2566 7.61829 67.5532 8.02675C67.8553 8.4352 68.0847 8.92479 68.2414 9.4955C68.3981 10.0606 68.4764 10.6901 68.4764 11.3839ZM66.9153 11.5602V11.3839C66.9153 10.9307 66.8734 10.5054 66.7894 10.1082C66.7055 9.70533 66.5712 9.35283 66.3866 9.05068C66.2019 8.74294 65.9585 8.50234 65.6564 8.32889C65.3542 8.14984 64.9822 8.06032 64.5401 8.06032C64.1485 8.06032 63.8072 8.12746 63.5162 8.26175C63.2308 8.39603 62.9875 8.57788 62.786 8.80729C62.5846 9.0311 62.4195 9.28848 62.2908 9.57943C62.1677 9.86479 62.0754 10.1613 62.0139 10.4691V12.4918C62.1034 12.8834 62.2489 13.2611 62.4503 13.6248C62.6573 13.9829 62.9315 14.2767 63.2728 14.5061C63.6197 14.7355 64.0478 14.8502 64.5569 14.8502C64.9766 14.8502 65.3347 14.7662 65.6312 14.5984C65.9334 14.4249 66.1768 14.1871 66.3614 13.885C66.5516 13.5828 66.6915 13.2331 66.781 12.8359C66.8706 12.4386 66.9153 12.0134 66.9153 11.5602ZM72.5473 15.06L75.0736 6.91888H76.7353L73.0928 17.4016C73.0089 17.6254 72.897 17.866 72.7571 18.1234C72.6228 18.3864 72.4494 18.6354 72.2368 18.8704C72.0241 19.1054 71.7668 19.2956 71.4646 19.4411C71.1681 19.5922 70.8128 19.6677 70.3987 19.6677C70.2756 19.6677 70.1189 19.6509 69.9287 19.6173C69.7385 19.5838 69.6042 19.5558 69.5259 19.5334L69.5175 18.2745C69.5622 18.2801 69.6322 18.2857 69.7273 18.2913C69.828 18.3025 69.8979 18.308 69.9371 18.308C70.2896 18.308 70.589 18.2605 70.8351 18.1654C71.0813 18.0758 71.2884 17.922 71.4562 17.7038C71.6297 17.4911 71.7779 17.1974 71.901 16.8225L72.5473 15.06ZM70.6925 6.91888L73.0509 13.9689L73.4537 15.6055L72.3375 16.1763L68.9971 6.91888H70.6925Z" fill="#1A1F71"/>
<defs>
<clipPath id="clip0_309_1065">
<rect width="76.8441" height="23.5737" fill="white" transform="translate(0 25.4263)"/>
</clipPath>
</defs>
</svg>
