<svg width="51" height="51" viewBox="0 0 51 51" fill="none" xmlns="http://www.w3.org/2000/svg">
<path d="M50.4952 0.5H0.794922V50.5H50.4952V33.9982C50.6891 33.7155 50.7949 33.3445 50.7949 32.9028C50.7949 32.3905 50.6891 32.0724 50.4952 31.8074" fill="#2E77BC"/>
<rect x="48.168" y="0.5" width="2.6267" height="50" fill="#2E77BC"/>
<path d="M5.27306 22.1258L4.32101 19.7937L3.36897 22.1258M26.3415 21.2071C26.1475 21.3308 25.9183 21.3308 25.6539 21.3308H23.9614V20.0233H25.6891C25.936 20.0233 26.1828 20.041 26.3591 20.1293C26.5354 20.2177 26.6588 20.3944 26.6588 20.6417C26.6236 20.9067 26.5178 21.1011 26.3415 21.2071ZM38.4536 22.1258L37.4839 19.7937L36.5142 22.1258H38.4536ZM15.8866 24.67H14.4585V20.0763L12.431 24.67H11.1969L9.16939 20.0763V24.67H6.31326L5.78434 23.3626H2.87532L2.32877 24.67H0.812552L3.31608 18.8043H5.39647L7.75896 24.352V18.8043H10.0333L11.8669 22.7795L13.5417 18.8043H15.869L15.8866 24.67ZM21.5812 24.67H16.9268V18.8043H21.5989V20.0233H18.3196V21.0834H21.5107V22.2848H18.3196V23.4509H21.5812V24.67ZM28.175 20.3767C28.175 21.3131 27.558 21.7901 27.1877 21.9315C27.4874 22.0551 27.7519 22.2495 27.8753 22.4262C28.0693 22.7089 28.1045 22.9739 28.1045 23.5039V24.6523H26.6941V23.9103C26.6941 23.5569 26.7293 23.0445 26.4649 22.7619C26.2533 22.5498 25.9536 22.5145 25.4423 22.5145H23.9437V24.6523H22.5509V18.7866H25.7597C26.4649 18.7866 26.9938 18.8043 27.4522 19.0693C27.9106 19.352 28.175 19.723 28.175 20.3767ZM30.4141 24.67H28.986V18.8043H30.4141V24.67ZM46.9515 24.67H44.9769L42.3323 20.2707V24.67H39.4938L38.9472 23.3626H36.0382L35.5093 24.67H33.8697C33.1821 24.67 32.3358 24.511 31.8422 24.0163C31.3485 23.5216 31.1017 22.8502 31.1017 21.7725C31.1017 20.9067 31.2604 20.1117 31.8598 19.4756C32.3182 19.0163 33.0234 18.7866 33.9755 18.7866H35.333V20.041H34.0107C33.4994 20.041 33.2174 20.1117 32.9353 20.3944C32.6884 20.6417 32.5298 21.1011 32.5298 21.7195C32.5298 22.3555 32.6532 22.7972 32.9176 23.0975C33.1292 23.3272 33.5171 23.3979 33.8873 23.3979H34.522L36.4966 18.7866H38.5946L40.9571 24.3343V18.7866H43.0904L45.541 22.8679V18.7866H46.9691V24.67H46.9515ZM0.794922 25.8184H3.17503L3.72158 24.511H4.92045L5.44936 25.8184H10.1391V24.829L10.5622 25.8361H12.9952L13.4183 24.829V25.8361H25.0897V23.6983H25.3189C25.4776 23.6983 25.5305 23.7159 25.5305 23.9809V25.8361H31.5601V25.3414C32.0537 25.6064 32.8118 25.8361 33.7992 25.8361H36.3379L36.8845 24.5286H38.0834L38.6123 25.8361H43.5135V24.5993L44.254 25.8361H48.168V17.6382H44.2893V18.6099L43.7427 17.6382H39.7583V18.6099L39.2646 17.6382H33.8873C32.9882 17.6382 32.1948 17.7619 31.5601 18.1152V17.6382H27.8401V18.1152C27.4346 17.7619 26.8704 17.6382 26.2533 17.6382H12.7131L11.814 19.7583L10.8795 17.6382H6.59535V18.6099L6.13695 17.6382H2.48745L0.794922 21.5251V25.8184Z" fill="white"/>
<path d="M50.7949 30.129H48.2562C48.0093 30.129 47.833 30.1467 47.692 30.235C47.5509 30.3233 47.4804 30.4647 47.4804 30.659C47.4804 30.8887 47.6038 31.0301 47.7801 31.1007C47.9212 31.1537 48.0798 31.1714 48.3267 31.1714L49.0848 31.1891C49.8429 31.2067 50.3542 31.3481 50.6715 31.6661C50.7244 31.7191 50.7597 31.7544 50.7949 31.8074M50.7949 33.9983C50.46 34.4929 49.79 34.7403 48.8909 34.7403H46.1934V33.4859H48.8732C49.1377 33.4859 49.3316 33.4505 49.4374 33.3445C49.5432 33.2562 49.5961 33.1149 49.5961 32.9558C49.5961 32.7792 49.5255 32.6555 49.4198 32.5672C49.314 32.4788 49.1729 32.4435 48.9261 32.4435C47.6215 32.3905 45.9818 32.4788 45.9818 30.6237C45.9818 29.7756 46.5284 28.8746 47.9917 28.8746H50.7773V27.7085H48.1856C47.4099 27.7085 46.8457 27.9028 46.4402 28.1855V27.7085H42.6144C41.9973 27.7085 41.2921 27.8675 40.9395 28.1855V27.7085H34.1165V28.1855C33.57 27.7968 32.6532 27.7085 32.2301 27.7085H27.7167V28.1855C27.2935 27.7615 26.3239 27.7085 25.7421 27.7085H20.6997L19.5538 28.9629L18.4783 27.7085H10.9854V35.8887H18.3725L19.5538 34.6166L20.6821 35.8887H25.2308V33.9629H25.6715C26.271 33.9806 26.9938 33.9452 27.6109 33.6802V35.8887H31.3662V33.7509H31.5425C31.7717 33.7509 31.7893 33.7686 31.7893 33.9983V35.8887H43.2315C43.9543 35.8887 44.7124 35.6944 45.1356 35.3587V35.8887H48.7498C49.5079 35.8887 50.2308 35.7827 50.7949 35.5177V33.9983ZM45.2237 31.6484C45.4882 31.9311 45.6468 32.2845 45.6468 32.8852C45.6468 34.1396 44.8535 34.7403 43.4607 34.7403H40.7456V33.4859H43.4607C43.7251 33.4859 43.9191 33.4505 44.0248 33.3445C44.113 33.2562 44.1835 33.1149 44.1835 32.9558C44.1835 32.7792 44.113 32.6555 44.0072 32.5672C43.9014 32.4788 43.7604 32.4435 43.5136 32.4435C42.2089 32.3905 40.5693 32.4788 40.5693 30.6237C40.5693 29.7756 41.0982 28.8746 42.5615 28.8746H45.3648V30.129H42.8083C42.5615 30.129 42.3852 30.1467 42.2442 30.235C42.0855 30.3233 42.0326 30.4647 42.0326 30.659C42.0326 30.8887 42.156 31.0301 42.3323 31.1007C42.4734 31.1537 42.632 31.1714 42.8789 31.1714L43.637 31.1891C44.3951 31.2067 44.9064 31.3304 45.2237 31.6484ZM32.6179 31.2951C32.424 31.4011 32.1948 31.4187 31.9303 31.4187H30.2378V30.1113H31.9656C32.2124 30.1113 32.4593 30.1113 32.6356 30.2173C32.8119 30.3057 32.9177 30.5 32.9177 30.7474C32.9177 30.977 32.8119 31.1891 32.6179 31.2951ZM33.4642 32.0194C33.7815 32.1431 34.0284 32.3375 34.1518 32.5141C34.3457 32.7968 34.381 33.0619 34.381 33.5919V34.758H32.9705V34.0336C32.9705 33.6802 33.0058 33.1679 32.7413 32.8852C32.5298 32.6732 32.2301 32.6202 31.7188 32.6202H30.2202V34.758H28.8098V28.8922H32.0361C32.7413 28.8922 33.2526 28.9276 33.711 29.1749C34.1518 29.4399 34.4339 29.811 34.4339 30.4823C34.4515 31.4011 33.8344 31.8781 33.4642 32.0194ZM35.2272 28.8922H39.8817V30.1113H36.6024V31.1714H39.7935V32.3728H36.6024V33.5389H39.8817V34.758H35.2272V28.8922ZM25.8126 31.5954H24.0143V30.1113H25.8302C26.3415 30.1113 26.6765 30.3233 26.6765 30.8357C26.6765 31.3304 26.3415 31.5954 25.8126 31.5954ZM22.6038 34.2103L20.4529 31.8251L22.6038 29.5106V34.2103ZM17.0679 33.5212H13.6299V32.3551H16.6976V31.1537H13.6299V30.0937H17.1384L18.6722 31.8074L17.0679 33.5212ZM28.1751 30.818C28.1751 32.4435 26.9586 32.7792 25.7421 32.7792H23.9966V34.7403H21.2815L19.5538 32.7968L17.7731 34.7403H12.2371V28.8746H17.8612L19.589 30.8004L21.3697 28.8746H25.8302C26.9233 28.8922 28.1751 29.1926 28.1751 30.818Z" fill="white"/>
</svg>
