<svg width="81" height="80" viewBox="0 0 81 80" fill="none" xmlns="http://www.w3.org/2000/svg">
<path d="M57.7634 44.6054H52.0275C51.0974 44.6054 50.3223 43.831 50.3223 42.9016V39.0295C50.3223 38.1001 51.0974 37.3257 52.0275 37.3257H57.7634C58.6935 37.3257 59.4686 38.1001 59.4686 39.0295V42.9016C59.4686 43.831 58.6935 44.6054 57.7634 44.6054ZM51.8725 37.3257C50.9424 37.3257 50.3223 37.9452 50.3223 38.8746V42.7467C50.3223 43.6761 50.9424 44.2956 51.8725 44.2956H57.6083C58.5385 44.2956 59.1586 43.5212 59.1586 42.7467V38.8746C59.1586 37.9452 58.3835 37.3257 57.6083 37.3257H51.8725Z" fill="#2D2A26"/>
<g filter="url(#filter0_d_1865_15231)">
<path d="M15.7959 38.0977C15.7959 24.2911 26.9888 13.0986 40.7954 13.0986C54.602 13.0986 65.7949 24.2911 65.7949 38.0977C65.7949 51.9043 54.602 63.0967 40.7954 63.0967C26.9888 63.0967 15.7959 51.9043 15.7959 38.0977Z" fill="white"/>
</g>
<path fill-rule="evenodd" clip-rule="evenodd" d="M32.2384 35.2987C32.3781 35.8413 32.9231 36.1212 33.4768 35.9372C38.0161 34.5404 42.5666 33.5845 47.2618 32.8891C47.7999 32.817 48.0943 32.2606 47.8965 31.7024C47.4796 30.5262 47.2689 29.9397 46.8428 28.7703C46.6619 28.2738 46.1727 27.9481 45.672 28.0025C41.0834 28.5683 36.6503 29.4038 32.2074 30.6908C31.6289 30.8725 31.2736 31.5203 31.4195 32.095C31.7441 33.3747 31.9079 34.0152 32.2384 35.2987Z" fill="#2C2A29"/>
<path fill-rule="evenodd" clip-rule="evenodd" d="M50.6331 35.9426C50.457 35.4171 49.9787 35.0658 49.5059 35.1277C42.3225 36.0434 35.3277 37.8193 28.6947 40.7543C28.2109 40.9831 27.9207 41.5918 28.0221 42.1281C28.2821 43.4999 28.4134 44.1864 28.6787 45.5607C28.7921 46.1484 29.341 46.419 29.8823 46.155C36.6198 43.0692 43.7397 41.1044 51.0438 39.9329C51.508 39.8568 51.7447 39.3248 51.567 38.7767C51.1991 37.6403 51.0122 37.0736 50.6331 35.9426Z" fill="#2C2A29"/>
<path fill-rule="evenodd" clip-rule="evenodd" d="M50.6141 43.6032C50.436 43.042 49.9157 42.676 49.4213 42.7777C44.936 43.7509 40.5518 44.9237 36.2088 46.4161C35.658 46.6183 35.3478 47.1994 35.4925 47.7339C35.8377 49.0075 36.0115 49.6453 36.361 50.9228C36.5252 51.5229 37.1987 51.83 37.8192 51.5936C42.1607 50.0387 46.5459 48.6811 51.0269 47.5926C51.4566 47.4882 51.6681 46.9842 51.5084 46.4642C51.1556 45.3173 50.9768 44.745 50.6141 43.6032Z" fill="#2C2A29"/>
<mask id="mask0_1865_15231" style="mask-type:alpha" maskUnits="userSpaceOnUse" x="15" y="13" width="51" height="51">
<path d="M15.7959 38.0977C15.7959 24.2911 26.9888 13.0986 40.7954 13.0986C54.602 13.0986 65.7949 24.2911 65.7949 38.0977C65.7949 51.9043 54.602 63.0967 40.7954 63.0967C26.9888 63.0967 15.7959 51.9043 15.7959 38.0977Z" fill="#2C2A29"/>
</mask>
<g mask="url(#mask0_1865_15231)">
<path fill-rule="evenodd" clip-rule="evenodd" d="M29.2331 -4.44996C29.0331 -4.46745 28.8262 -4.43788 28.6283 -4.35465C27.9792 -4.08141 27.6744 -3.33376 27.9477 -2.68461C28.819 -0.614382 29.8948 1.48795 31.1451 3.56398C32.3688 5.5911 33.7278 7.52279 35.1848 9.30649C36.6947 11.1557 38.3276 12.8664 40.0382 14.3907C41.8206 15.9788 43.7182 17.3957 45.6784 18.6021C46.2783 18.9713 47.0637 18.7843 47.4328 18.1845C47.802 17.5848 47.615 16.7993 47.0152 16.4302C45.1822 15.3021 43.4057 13.9753 41.735 12.4867C40.1246 11.0516 38.5854 9.4389 37.1602 7.69332C35.779 6.00249 34.4901 4.17017 33.3292 2.24707C32.1425 0.276598 31.1225 -1.71596 30.2983 -3.67401C30.1084 -4.12525 29.6891 -4.41006 29.2331 -4.44996Z" fill="#00C389"/>
<path fill-rule="evenodd" clip-rule="evenodd" d="M23.8718 -7.30736C23.5651 -7.37816 23.2331 -7.34769 22.9285 -7.19816C22.2258 -6.85284 21.9362 -6.00335 22.2813 -5.30065C22.8191 -4.2065 23.3872 -3.14609 23.8221 -2.34453L23.8298 -2.33033C24.4315 -1.25087 24.9462 -0.34653 25.5028 0.558537C26.6424 2.44056 27.8985 4.30881 29.2315 6.1033C31.9285 9.74579 34.969 13.079 38.2675 16.0083C41.6509 19.0159 45.3486 21.6247 49.2571 23.7619C53.1215 25.879 57.3051 27.5939 61.6908 28.8586C62.4438 29.0751 63.2288 28.6415 63.4457 27.8892C63.6627 27.137 63.2287 26.3513 62.4764 26.1344C58.2908 24.9275 54.3012 23.2925 50.6184 21.2748C46.8963 19.2396 43.3749 16.7549 40.1506 13.8889C36.9982 11.0891 34.0907 7.90149 31.5088 4.41446C30.2276 2.68956 29.0217 0.89605 27.9231 -0.91823C27.389 -1.78676 26.8925 -2.65917 26.3103 -3.70358C25.8887 -4.48095 25.3398 -5.50558 24.8261 -6.55098C24.6304 -6.94913 24.2729 -7.21477 23.8718 -7.30736Z" fill="#FDDA24"/>
<path fill-rule="evenodd" clip-rule="evenodd" d="M54.3332 20.9194C53.6555 20.763 52.9307 21.0716 52.5879 21.7146C52.1781 22.4831 52.469 23.4382 53.2374 23.848C60.7639 27.8609 69.7603 30.1607 79.9763 30.6834C80.8461 30.7278 81.5872 30.0589 81.6317 29.1892C81.6761 28.3194 81.0069 27.5786 80.1374 27.5337C70.3873 27.035 61.8361 24.8585 54.7212 21.0651C54.5958 20.9982 54.4654 20.95 54.3332 20.9194Z" fill="#9063CD"/>
</g>
<defs>
<filter id="filter0_d_1865_15231" x="0.881501" y="0.0485352" width="79.8278" height="79.8268" filterUnits="userSpaceOnUse" color-interpolation-filters="sRGB">
<feFlood flood-opacity="0" result="BackgroundImageFix"/>
<feColorMatrix in="SourceAlpha" type="matrix" values="0 0 0 0 0 0 0 0 0 0 0 0 0 0 0 0 0 0 127 0" result="hardAlpha"/>
<feOffset dy="1.8643"/>
<feGaussianBlur stdDeviation="7.4572"/>
<feColorMatrix type="matrix" values="0 0 0 0 0 0 0 0 0 0 0 0 0 0 0 0 0 0 0.1 0"/>
<feBlend mode="normal" in2="BackgroundImageFix" result="effect1_dropShadow_1865_15231"/>
<feBlend mode="normal" in="SourceGraphic" in2="effect1_dropShadow_1865_15231" result="shape"/>
</filter>
</defs>
</svg>
