<svg width="51" height="51" viewBox="0 0 51 51" fill="none" xmlns="http://www.w3.org/2000/svg">
<rect x="0.794922" y="0.399902" width="50" height="50" rx="10" fill="white"/>
<path d="M32.5889 45.5984C31.7398 45.7198 30.8603 45.7501 29.9808 45.7501C18.7595 45.7501 9.63086 36.6214 9.63086 25.4002C9.63086 14.1789 18.7595 5.05029 29.9808 5.05029C30.8603 5.05029 31.7094 5.11095 32.5889 5.20193V10.6912C31.7398 10.5396 30.8603 10.4486 29.9808 10.4486C21.7619 10.479 15.0595 17.1814 15.0595 25.4002C15.0595 33.619 21.7619 40.3214 29.9808 40.3214C30.8603 40.3214 31.7398 40.2304 32.5889 40.1091V45.5984Z" fill="#60269E"/>
<path d="M31.1327 36.4699C25.1581 36.4699 20.3057 31.6175 20.3057 25.6429C20.3057 19.6684 25.1581 14.8159 31.1327 14.8159C37.1072 14.8159 41.9596 19.6684 41.9596 25.6429C41.9596 31.5871 37.1072 36.4699 31.1327 36.4699ZM31.1327 20.2143C28.1302 20.2143 25.704 22.6405 25.704 25.6126C25.704 28.5847 28.1302 31.0109 31.1023 31.0109C34.0744 31.0109 36.5007 28.5847 36.5007 25.6126C36.531 22.6405 34.1048 20.2143 31.1327 20.2143Z" fill="#98BF13"/>
</svg>
