<svg width="68" height="52" viewBox="0 0 68 52" fill="none" xmlns="http://www.w3.org/2000/svg">
<rect x="17.7939" y="0.69873" width="50" height="50" rx="10" fill="#F3CE13"/>
<g clip-path="url(#clip0_1906_18018)">
<mask id="mask0_1906_18018" style="mask-type:alpha" maskUnits="userSpaceOnUse" x="17" y="0" width="51" height="51">
<rect x="17.7939" y="0.69873" width="50" height="50" rx="10" fill="#F3CE13"/>
</mask>
<g mask="url(#mask0_1906_18018)">
<path d="M0 45.8172C0 45.8172 26.1649 36.7601 59.7097 51.1844H0V45.8172Z" fill="#10113A"/>
</g>
</g>
<g clip-path="url(#clip1_1906_18018)">
<path d="M25.665 19.8511C25.7097 19.8735 25.7544 19.9182 25.7768 19.9853C25.7991 20.03 25.7991 20.0971 25.7544 20.1642L24.927 21.327C24.8823 21.3718 24.8599 21.4165 24.8152 21.4165C24.7705 21.4165 24.7257 21.4165 24.6587 21.3718C24.5021 21.26 24.3232 21.1705 24.1443 21.1034C23.9431 21.0363 23.7418 21.014 23.5406 21.014C23.2722 21.014 23.0262 21.0587 22.8026 21.1705C22.579 21.26 22.3777 21.4165 22.2212 21.573C22.0646 21.7519 21.9305 21.9532 21.841 22.1768C21.7516 22.4004 21.7068 22.6688 21.7068 22.9148C21.7068 23.1608 21.7516 23.4291 21.841 23.6527C21.9305 23.8763 22.0646 24.0776 22.2212 24.2565C22.3777 24.4354 22.579 24.5696 22.8026 24.659C23.0262 24.7485 23.2722 24.8156 23.5406 24.8156C23.7642 24.8156 23.9654 24.7932 24.1443 24.7261C24.3456 24.659 24.5245 24.5696 24.681 24.4578C24.7481 24.413 24.7928 24.413 24.8152 24.413C24.8599 24.413 24.8823 24.4578 24.927 24.5025L25.7544 25.6877C25.7991 25.7548 25.7991 25.8219 25.7768 25.8666C25.7544 25.9113 25.7097 25.956 25.665 25.9784C25.3519 26.1797 25.0388 26.3362 24.681 26.448C24.3232 26.5598 23.9654 26.6045 23.5853 26.6045C23.2498 26.6045 22.9144 26.5598 22.6013 26.4704C22.2883 26.3809 21.9976 26.2691 21.7292 26.0902C21.4609 25.9337 21.2149 25.7324 20.9913 25.5088C20.7676 25.2852 20.5664 25.0392 20.4098 24.7708C20.2533 24.5025 20.1191 24.2341 20.0297 23.9211C19.9402 23.608 19.8955 23.2726 19.8955 22.9371C19.8955 22.6017 19.9402 22.2663 20.0297 21.9532C20.1191 21.6401 20.2309 21.3494 20.4098 21.0587C20.5887 20.768 20.7676 20.522 20.9913 20.2984C21.2149 20.0748 21.4609 19.8735 21.7292 19.717C21.9976 19.5604 22.2883 19.4263 22.6013 19.3368C22.9144 19.2474 23.2498 19.2026 23.5853 19.2026C23.9654 19.2026 24.3456 19.2474 24.681 19.3592C25.0388 19.4933 25.3519 19.6499 25.665 19.8511Z" fill="black"/>
<path d="M25.5752 22.9367C25.5752 22.6013 25.6199 22.2659 25.7094 21.9528C25.7988 21.6397 25.9106 21.349 26.0895 21.0583C26.2461 20.79 26.4473 20.5216 26.6709 20.298C26.8946 20.0744 27.1406 19.8731 27.4089 19.7166C27.6772 19.56 27.968 19.4259 28.3034 19.3364C28.6165 19.2693 28.9519 19.2246 29.2873 19.2246C29.6228 19.2246 29.9582 19.2693 30.2713 19.3588C30.5843 19.4482 30.875 19.5824 31.1658 19.7389C31.4341 19.8955 31.6801 20.0967 31.9261 20.3204C32.1497 20.544 32.351 20.79 32.5075 21.0807C32.664 21.3714 32.7982 21.6621 32.8876 21.9752C32.9771 22.2882 33.0218 22.6237 33.0218 22.9591C33.0218 23.2945 32.9771 23.63 32.8876 23.943C32.7982 24.2561 32.664 24.5468 32.5075 24.8152C32.351 25.0835 32.1497 25.3295 31.9261 25.5531C31.7024 25.7767 31.4565 25.978 31.1658 26.1345C30.8974 26.2911 30.6067 26.4252 30.2713 26.5147C29.9358 26.6041 29.6228 26.6489 29.2873 26.6489C28.9519 26.6489 28.6165 26.6041 28.3034 26.5147C27.9903 26.4252 27.6996 26.3134 27.4089 26.1345C27.1406 25.978 26.8946 25.7767 26.6709 25.5531C26.4473 25.3295 26.2461 25.0835 26.0895 24.8152C25.933 24.5468 25.7988 24.2561 25.7094 23.943C25.6199 23.63 25.5752 23.2722 25.5752 22.9367ZM27.4536 22.9367C27.4536 23.2051 27.4983 23.4511 27.5878 23.6971C27.6772 23.9207 27.8114 24.1219 27.968 24.3008C28.1245 24.4797 28.3258 24.6139 28.5494 24.7034C28.773 24.7928 29.019 24.8599 29.2873 24.8599C29.5557 24.8599 29.8017 24.8152 30.0253 24.7034C30.2489 24.6139 30.4502 24.4797 30.6067 24.3008C30.7632 24.1219 30.8974 23.9207 30.9869 23.6971C31.0763 23.4734 31.121 23.2051 31.121 22.9367C31.121 22.6684 31.0763 22.4224 30.9869 22.1988C30.8974 21.9752 30.7632 21.7515 30.6067 21.595C30.4502 21.4161 30.2489 21.2819 30.0253 21.1925C29.8017 21.103 29.5557 21.036 29.2873 21.036C29.019 21.036 28.773 21.0807 28.5494 21.1925C28.3258 21.2819 28.1245 21.4385 27.968 21.595C27.8114 21.7739 27.6772 21.9752 27.5878 22.1988C27.4983 22.4224 27.4536 22.6684 27.4536 22.9367Z" fill="black"/>
<path d="M39.7524 22.9367C39.7524 23.2722 39.7077 23.6076 39.6183 23.9207C39.5288 24.2338 39.417 24.5245 39.2381 24.7928C39.0816 25.0612 38.8803 25.3071 38.6567 25.5084C38.4331 25.732 38.1871 25.9109 37.9187 26.0675C37.6504 26.224 37.3597 26.3358 37.0466 26.4253C36.7335 26.5147 36.3981 26.5594 36.0627 26.5594H33.6699C33.6028 26.5594 33.5581 26.5371 33.5134 26.5147C33.4687 26.4923 33.4463 26.4253 33.4463 26.3582V19.56C33.4463 19.493 33.4687 19.4482 33.491 19.4035C33.5357 19.3588 33.5805 19.3364 33.6475 19.3364H36.0403C36.3757 19.3364 36.7112 19.3812 37.0242 19.4706C37.3373 19.56 37.628 19.6719 37.8964 19.8284C38.1647 19.9849 38.4107 20.1638 38.6343 20.3875C38.858 20.6111 39.0592 20.8347 39.2157 21.103C39.3723 21.3714 39.5065 21.6621 39.5959 21.9752C39.7077 22.2659 39.7524 22.6013 39.7524 22.9367ZM35.3247 21.0583V24.7704H35.7272C35.7943 24.7704 35.8838 24.7704 35.9509 24.7704C36.0179 24.7704 36.085 24.7704 36.1745 24.7481C36.4205 24.7257 36.6441 24.681 36.8453 24.5692C37.0466 24.4797 37.2479 24.3456 37.4044 24.189C37.5609 24.0325 37.6728 23.8312 37.7622 23.63C37.8516 23.4064 37.8964 23.1827 37.8964 22.9144C37.8964 22.646 37.8516 22.4001 37.7398 22.1764C37.628 21.9528 37.4939 21.7515 37.315 21.595C37.1361 21.4385 36.9348 21.3043 36.7112 21.2149C36.4876 21.1254 36.2192 21.0583 35.9509 21.0583H35.3247Z" fill="black"/>
<path d="M40.3564 19.56C40.3564 19.493 40.3788 19.4482 40.4012 19.4035C40.4459 19.3588 40.4906 19.3364 40.5577 19.3364H45.3656C45.4327 19.3364 45.4998 19.3588 45.5221 19.4035C45.5668 19.4482 45.5892 19.493 45.5892 19.5824V20.79C45.5892 20.8347 45.5668 20.9018 45.5221 20.9465C45.4774 20.9912 45.4327 21.0136 45.3432 21.0136H42.2125V22.2212H44.6276C44.6947 22.2212 44.7394 22.2435 44.7842 22.2659C44.8289 22.2882 44.8513 22.333 44.8513 22.4001V23.4287C44.8513 23.4734 44.8289 23.5182 44.8065 23.5629C44.7618 23.6076 44.7171 23.63 44.65 23.63H42.2349V24.8599H45.4774C45.6116 24.8599 45.701 24.927 45.701 25.0835V26.2911C45.701 26.3134 45.6787 26.3582 45.6563 26.3805C45.6339 26.47 45.5668 26.5147 45.455 26.5147H40.5801C40.513 26.5147 40.4683 26.4923 40.4235 26.47C40.3788 26.4253 40.3564 26.3805 40.3564 26.3134V19.56Z" fill="black"/>
<path d="M46.2607 19.5376C46.2607 19.4705 46.2831 19.4258 46.3055 19.3811C46.3502 19.3363 46.3949 19.314 46.462 19.314H48.0497C48.0944 19.314 48.1392 19.314 48.1839 19.3587C48.2286 19.3811 48.2733 19.4258 48.3181 19.4705C48.7206 20.1414 49.1231 20.7899 49.548 21.416C49.9505 22.0645 50.353 22.713 50.7779 23.3615V19.5152C50.8003 19.4481 50.8226 19.4034 50.845 19.3811C50.8897 19.3587 50.9344 19.3363 50.9792 19.3363H52.3656C52.4327 19.3363 52.4998 19.3587 52.5445 19.3811C52.5893 19.4258 52.6116 19.4705 52.6116 19.5376V26.3357C52.6116 26.4028 52.5893 26.4475 52.5445 26.4699C52.4998 26.4922 52.4551 26.5146 52.388 26.5146H50.845C50.8003 26.5146 50.7555 26.4922 50.7332 26.4699C50.7108 26.4475 50.6661 26.4028 50.6214 26.3581C50.1965 25.6425 49.7716 24.9492 49.3467 24.256C48.9218 23.5628 48.497 22.8696 48.0721 22.154V26.3133C48.0721 26.3804 48.0497 26.4475 48.0274 26.4699C48.005 26.5146 47.9379 26.5146 47.8485 26.5146H46.4844C46.4173 26.5146 46.3502 26.4922 46.3278 26.4475C46.2831 26.4028 46.2831 26.3581 46.2831 26.291V19.5376H46.2607Z" fill="black"/>
<path d="M54.4232 24.1893C54.4679 24.234 54.5574 24.3011 54.6244 24.3682C54.7139 24.4353 54.8033 24.5247 54.9152 24.5918C55.0717 24.7036 55.2506 24.7931 55.4071 24.8378C55.5637 24.9049 55.7426 24.9273 55.9215 24.9273C56.078 24.9273 56.2345 24.9049 56.3463 24.8825C56.4581 24.8378 56.5476 24.7931 56.6147 24.726C56.6818 24.6589 56.7265 24.5918 56.7489 24.5024C56.7712 24.4129 56.7936 24.3459 56.7936 24.2564C56.7936 24.167 56.7489 24.0775 56.6818 23.9881C56.6147 23.8986 56.5029 23.8315 56.4134 23.7868C56.3016 23.7197 56.1898 23.675 56.078 23.6303C55.9662 23.5855 55.8544 23.5408 55.7649 23.5184C55.3848 23.3843 55.0493 23.2277 54.7586 23.0712C54.4679 22.9147 54.2219 22.7358 54.043 22.5569C53.8418 22.3556 53.7076 22.1544 53.6181 21.9307C53.5287 21.7071 53.484 21.4388 53.484 21.1704C53.484 20.8797 53.5511 20.589 53.6629 20.343C53.7747 20.097 53.9536 19.8958 54.1772 19.7169C54.4008 19.538 54.6692 19.4038 54.9822 19.3143C55.2953 19.2249 55.6531 19.1802 56.0333 19.1802C56.324 19.1802 56.6147 19.2025 56.883 19.2696C57.1514 19.3367 57.4197 19.4485 57.6881 19.5827C57.7999 19.6498 57.9117 19.7169 58.0011 19.784C58.0906 19.851 58.18 19.9181 58.2695 19.9852C58.3366 20.0523 58.4037 20.1194 58.4484 20.1641C58.4931 20.2312 58.5155 20.2759 58.5155 20.3206C58.5155 20.3654 58.5155 20.4101 58.4931 20.4325C58.4707 20.4772 58.4484 20.4995 58.4037 20.5443L57.6657 21.327C57.621 21.3717 57.5539 21.4164 57.5092 21.4164C57.4644 21.4164 57.4197 21.394 57.375 21.3717C57.3303 21.3493 57.3079 21.3046 57.2408 21.2822L57.1961 21.2375C57.129 21.1928 57.0619 21.1257 56.9725 21.0586C56.883 20.9915 56.8159 20.9468 56.7265 20.9021C56.637 20.8573 56.5476 20.8126 56.4358 20.7903C56.3463 20.7679 56.2345 20.7455 56.1227 20.7455C56.0109 20.7455 55.9215 20.7455 55.832 20.7679C55.7426 20.7903 55.6531 20.8126 55.586 20.8573C55.5189 20.9021 55.4518 20.9468 55.4071 21.0139C55.3624 21.081 55.34 21.1481 55.34 21.2375C55.34 21.3269 55.3624 21.4164 55.4071 21.4611C55.4518 21.5282 55.5189 21.5953 55.6084 21.64C55.6978 21.7071 55.8096 21.7518 55.9438 21.7966C56.078 21.8413 56.2345 21.9084 56.4134 21.9531C56.7489 22.0649 57.0619 22.1767 57.3526 22.3109C57.6433 22.4451 57.8893 22.5792 58.0906 22.7581C58.2918 22.937 58.4707 23.1383 58.5826 23.3619C58.6944 23.6079 58.7615 23.8762 58.7615 24.2117C58.7615 24.5695 58.6944 24.8825 58.5378 25.1733C58.4037 25.464 58.2024 25.7099 57.9341 25.9112C57.6881 26.1125 57.375 26.269 57.0396 26.3808C56.7041 26.4926 56.324 26.5374 55.9438 26.5374C55.5637 26.5374 55.2059 26.4703 54.8481 26.3361C54.4903 26.2019 54.1548 26.023 53.8418 25.7994C53.7076 25.7099 53.5958 25.6205 53.5063 25.531C53.4169 25.4416 53.3498 25.3745 53.3051 25.3074L53.2827 25.2851C53.2827 25.2851 53.2827 25.2851 53.2827 25.2627C53.2827 25.2627 53.2827 25.2627 53.2827 25.2403C53.2156 25.1509 53.1709 25.0838 53.1709 25.0391C53.1709 24.9944 53.2156 24.9273 53.2827 24.8602L54.1101 24.0551C54.1772 24.0104 54.2219 23.9881 54.2666 23.9881C54.289 23.9881 54.3337 23.9881 54.3561 24.0104C54.3561 24.1222 54.3785 24.167 54.4232 24.1893Z" fill="black"/>
<path d="M61.2883 19.5152C61.2883 19.4929 61.3107 19.4705 61.3107 19.4481C61.333 19.4258 61.3554 19.4034 61.3777 19.3811C61.4001 19.3587 61.4225 19.3363 61.4672 19.3363C61.4896 19.3363 61.5343 19.314 61.5566 19.314H62.7866C62.8313 19.314 62.8984 19.3363 62.9207 19.3587C62.9655 19.4034 62.9878 19.4258 63.0102 19.4481L63.122 19.7165L65.6713 26.2686C65.6937 26.3357 65.6937 26.3804 65.6489 26.4252C65.6042 26.4699 65.5595 26.4922 65.47 26.4922H64.0836C64.0165 26.4922 63.9494 26.4699 63.9047 26.4475C63.86 26.4252 63.8376 26.3804 63.8152 26.3133C63.7481 26.1568 63.6811 25.9779 63.6363 25.8214C63.5916 25.6648 63.5245 25.4859 63.4574 25.3294H60.8858C60.8187 25.4859 60.7516 25.6648 60.7069 25.8214C60.6622 25.9779 60.5727 26.1568 60.528 26.3133C60.4833 26.4252 60.3938 26.4922 60.282 26.4922H58.8508C58.7837 26.4922 58.739 26.4699 58.6943 26.4475C58.6496 26.4252 58.6496 26.3581 58.6719 26.3133L61.2883 19.5152ZM62.1604 21.5949C62.0933 21.7514 62.0263 21.9303 61.9815 22.1316C61.9144 22.3329 61.8474 22.5118 61.8026 22.713C61.7355 22.9143 61.6685 23.0932 61.6237 23.2944C61.579 23.4957 61.4896 23.6522 61.4448 23.8311H62.9207L62.1604 21.5949Z" fill="black"/>
<path d="M30.2501 29.9585C30.2725 29.9585 30.2725 29.9808 30.2725 29.9808C30.2725 29.9808 30.2948 30.0032 30.2948 30.0256C30.2948 30.0479 30.2948 30.0479 30.2948 30.0703L30.1383 30.3386C30.0936 30.361 30.0712 30.361 30.0712 30.361H30.0488C30.0488 30.361 30.0265 30.361 30.0265 30.3386C29.9594 30.2939 29.8923 30.2492 29.8029 30.2268C29.7358 30.2045 29.6463 30.1821 29.5569 30.1821C29.4451 30.1821 29.3556 30.2045 29.2662 30.2492C29.1767 30.2939 29.0873 30.3386 29.0202 30.4281C28.9531 30.5175 28.886 30.5846 28.8413 30.6741C28.7966 30.7635 28.7966 30.8753 28.7966 30.9871C28.7966 31.099 28.8189 31.1884 28.8413 31.3002C28.8636 31.412 28.9307 31.4791 28.9978 31.5462C29.0649 31.6133 29.1544 31.6804 29.2438 31.7251C29.3333 31.7698 29.4451 31.7922 29.5345 31.7922C29.624 31.7922 29.7134 31.7698 29.7805 31.7475C29.8699 31.7251 29.937 31.6804 30.0041 31.6357C30.0041 31.6357 30.0265 31.6357 30.0265 31.6133C30.0265 31.5909 30.0488 31.6133 30.0488 31.6133C30.0712 31.6133 30.0936 31.6357 30.1159 31.658L30.2725 31.9264C30.2725 31.9487 30.2725 31.9487 30.2725 31.9711C30.2725 31.9934 30.2725 31.9934 30.2501 32.0158L30.2277 32.0382C30.1159 32.1053 30.0265 32.15 29.8923 32.1947C29.7805 32.2394 29.6463 32.2394 29.5345 32.2394C29.4227 32.2394 29.3109 32.2171 29.1991 32.1947C29.0873 32.1723 28.9978 32.1276 28.9084 32.0605C28.8189 32.0158 28.7295 31.9487 28.6624 31.8593C28.5953 31.7922 28.5282 31.7027 28.4611 31.6133C28.4164 31.5238 28.3717 31.4344 28.327 31.3226C28.3046 31.2108 28.2822 31.099 28.2822 30.9871C28.2822 30.8753 28.3046 30.7635 28.327 30.6517C28.3493 30.5399 28.394 30.4505 28.4611 30.361C28.5058 30.2716 28.5729 30.1821 28.6624 30.115C28.7518 30.0479 28.8189 29.9808 28.9084 29.9138C28.9978 29.869 29.0873 29.8243 29.1991 29.7796C29.3109 29.7572 29.4227 29.7349 29.5345 29.7349C29.6687 29.7349 29.7805 29.7572 29.8923 29.7796C30.0265 29.8467 30.1383 29.8914 30.2501 29.9585Z" fill="#00559E"/>
<path d="M30.7188 29.8688C30.7188 29.8241 30.7411 29.8018 30.7858 29.8018H31.7698C31.8816 29.8018 31.971 29.8241 32.0828 29.8688C32.1947 29.9136 32.2617 29.9583 32.3288 30.0254C32.3959 30.0925 32.463 30.1819 32.4854 30.2714C32.5301 30.3608 32.5525 30.4726 32.5525 30.5621C32.5525 30.6292 32.5525 30.6962 32.5301 30.7857C32.5077 30.8528 32.4854 30.9199 32.4406 30.9646C32.3959 31.0093 32.3512 31.0764 32.3065 31.1211C32.2617 31.1659 32.1947 31.2106 32.1276 31.2329L32.5525 32.0603C32.5525 32.0603 32.5525 32.0827 32.5748 32.0827C32.5748 32.0827 32.5748 32.1051 32.5748 32.1274C32.5748 32.1498 32.5525 32.1722 32.5077 32.1722H32.1276C32.0828 32.1722 32.0605 32.1498 32.0605 32.1051L31.6803 31.3224C31.658 31.3224 31.6356 31.3224 31.6356 31.3224C31.6132 31.3224 31.5909 31.3224 31.5462 31.3224C31.5014 31.3224 31.4567 31.3224 31.412 31.3224C31.3449 31.3224 31.2778 31.3224 31.1884 31.3224V32.0827C31.1884 32.1274 31.166 32.1498 31.1213 32.1498H30.7858C30.7635 32.1498 30.7411 32.1498 30.7411 32.1274C30.7187 32.1274 30.7188 32.1051 30.7188 32.0827V29.8688ZM32.0828 30.5621C32.0828 30.5173 32.0828 30.4726 32.0605 30.4279C32.0381 30.3832 32.0158 30.3385 31.9934 30.3161C31.971 30.2714 31.9263 30.249 31.8816 30.2266C31.8369 30.2043 31.7921 30.1819 31.7474 30.1819C31.7027 30.1819 31.6803 30.1819 31.6356 30.1819C31.5909 30.1819 31.5685 30.1819 31.5238 30.1819H31.2107V30.9199H31.6356C31.658 30.9199 31.6803 30.9199 31.7027 30.9199C31.725 30.9199 31.7474 30.9199 31.7698 30.9199C31.8145 30.9199 31.8592 30.8975 31.9039 30.8751C31.9487 30.8528 31.9934 30.8304 32.0158 30.7857C32.0381 30.741 32.0605 30.7186 32.0828 30.6739C32.1052 30.6292 32.0828 30.6068 32.0828 30.5621Z" fill="#00559E"/>
<path d="M32.9785 29.8687C32.9785 29.824 33.0009 29.8016 33.0456 29.8016H34.611C34.6333 29.8016 34.6557 29.8016 34.678 29.824C34.7004 29.8463 34.7004 29.8687 34.7004 29.8911V30.1818C34.7004 30.2041 34.7004 30.2265 34.678 30.2265C34.6557 30.2489 34.6333 30.2489 34.611 30.2489H33.4705V30.7408H34.365C34.3873 30.7408 34.4097 30.7408 34.4097 30.7632C34.4321 30.7632 34.4321 30.7856 34.4321 30.8303V31.121C34.4321 31.1434 34.4321 31.1657 34.4097 31.1657C34.4097 31.1881 34.3873 31.1881 34.365 31.1881H33.4705V31.7695H34.6557C34.678 31.7695 34.7004 31.7695 34.7228 31.7919C34.7228 31.8142 34.7451 31.8142 34.7451 31.8589V32.1497C34.7451 32.1944 34.7228 32.2167 34.678 32.2167H33.0903C33.068 32.2167 33.0456 32.2167 33.0456 32.1944C33.0456 32.172 33.0232 32.172 33.0232 32.1497V29.8687H32.9785ZM33.8059 29.0637C33.8059 29.0413 33.8283 29.0189 33.8506 29.0189C33.873 29.0189 33.873 28.9966 33.8954 28.9966H34.1861C34.2084 28.9966 34.2084 28.9966 34.2308 29.0189V29.0413V29.0637V29.086L34.0743 29.4215C34.0519 29.4662 34.0295 29.4886 33.9848 29.4886H33.7388C33.7165 29.4886 33.7165 29.4886 33.6941 29.4662V29.4438V29.4215C33.6941 29.4215 33.6941 29.3991 33.6941 29.3767L33.8059 29.0637Z" fill="#00559E"/>
<path d="M37.1374 30.987C37.1374 31.0988 37.115 31.2106 37.0927 31.3C37.0703 31.4118 37.0256 31.5013 36.9809 31.5907C36.9361 31.6802 36.8691 31.7696 36.802 31.8367C36.7349 31.9038 36.6454 31.9709 36.556 32.0156C36.4665 32.0603 36.3771 32.1051 36.2653 32.1274C36.1535 32.1498 36.064 32.1722 35.9298 32.1722H35.1472C35.1248 32.1722 35.1024 32.1722 35.1024 32.1498C35.0801 32.1498 35.0801 32.1274 35.0801 32.1051V29.8688C35.0801 29.8241 35.1024 29.8018 35.1472 29.8018H35.9298C36.1087 29.8018 36.2653 29.8241 36.3995 29.8912C36.556 29.9583 36.6678 30.0477 36.7796 30.1372C36.8914 30.2266 36.9809 30.3832 37.048 30.5173C37.115 30.6739 37.1374 30.8304 37.1374 30.987ZM35.5497 30.2266V31.7473H35.7062C35.7957 31.7473 35.8628 31.7473 35.9522 31.7473C36.064 31.7473 36.1535 31.7249 36.2429 31.6802C36.3324 31.6355 36.4218 31.5907 36.4889 31.5236C36.556 31.4566 36.6007 31.3671 36.6454 31.2777C36.6902 31.1882 36.6902 31.0988 36.6902 30.987C36.6902 30.8751 36.6678 30.7633 36.6231 30.6739C36.5783 30.5844 36.5336 30.495 36.4665 30.4279C36.3994 30.3608 36.31 30.3161 36.2206 30.2714C36.1311 30.2266 36.0193 30.2266 35.9298 30.2266H35.5497Z" fill="#00559E"/>
<path d="M37.584 29.8688C37.584 29.8465 37.584 29.8241 37.6063 29.8241C37.6287 29.8018 37.6287 29.8018 37.6511 29.8018H37.9641C37.9865 29.8018 38.0089 29.8018 38.0089 29.8241C38.0312 29.8465 38.0312 29.8465 38.0312 29.8688V32.1274C38.0312 32.1722 38.0089 32.1945 37.9641 32.1945H37.6511C37.6063 32.1945 37.584 32.1722 37.584 32.1274V29.8688Z" fill="#00559E"/>
<path d="M38.4336 29.8688C38.4336 29.8465 38.4336 29.8241 38.456 29.8241C38.4783 29.8018 38.4783 29.8018 38.5007 29.8018H40.2002C40.2226 29.8018 40.2449 29.8018 40.2449 29.8241C40.2673 29.8465 40.2673 29.8465 40.2673 29.8688V30.1372C40.2673 30.1596 40.2673 30.1819 40.2449 30.2043C40.2226 30.2266 40.2226 30.2266 40.1778 30.2266H39.5741V32.1051C39.5741 32.1274 39.5741 32.1498 39.5517 32.1498C39.5293 32.1722 39.5293 32.1722 39.507 32.1722H39.1939C39.1715 32.1722 39.1492 32.1722 39.1492 32.1498C39.1492 32.1274 39.1268 32.1274 39.1268 32.1051V30.2266H38.5007C38.4783 30.2266 38.456 30.2266 38.456 30.2043C38.4336 30.1819 38.4336 30.1596 38.4336 30.1372V29.8688Z" fill="#00559E"/>
<path d="M40.5596 30.9871C40.5596 30.8753 40.5819 30.7635 40.6043 30.6517C40.6267 30.5399 40.6714 30.4505 40.7385 30.361C40.8056 30.2716 40.8503 30.1821 40.9397 30.115C41.0068 30.0479 41.0963 29.9808 41.1857 29.9138C41.2752 29.869 41.3646 29.8243 41.4764 29.7796C41.5882 29.7572 41.7 29.7349 41.8119 29.7349C41.9237 29.7349 42.0355 29.7572 42.1473 29.7796C42.2591 29.802 42.3485 29.8467 42.438 29.9138C42.5274 29.9585 42.6169 30.0256 42.684 30.115C42.7511 30.1821 42.8182 30.2716 42.8852 30.361C42.93 30.4505 42.9747 30.5399 43.0194 30.6517C43.0641 30.7635 43.0641 30.8753 43.0641 30.9871C43.0641 31.099 43.0418 31.2108 43.0194 31.3226C42.9971 31.4344 42.9523 31.5238 42.8852 31.6133C42.8405 31.7027 42.7734 31.7922 42.684 31.8593C42.6169 31.9264 42.5274 31.9934 42.438 32.0605C42.3485 32.1053 42.2591 32.15 42.1473 32.1947C42.0355 32.2394 41.9237 32.2394 41.8119 32.2394C41.7 32.2394 41.5882 32.2171 41.4764 32.1947C41.3646 32.1723 41.2752 32.1276 41.1857 32.0605C41.0963 32.0158 41.0068 31.9487 40.9397 31.8593C40.8726 31.7922 40.8056 31.7027 40.7385 31.6133C40.6937 31.5238 40.649 31.4344 40.6043 31.3226C40.5819 31.2108 40.5596 31.099 40.5596 30.9871ZM41.0292 30.9871C41.0292 31.099 41.0515 31.1884 41.0963 31.3002C41.141 31.3897 41.1857 31.4791 41.2528 31.5462C41.3199 31.6133 41.4093 31.6804 41.4988 31.7027C41.5882 31.7475 41.7 31.7698 41.8119 31.7698C41.9237 31.7698 42.0131 31.7475 42.1026 31.7027C42.192 31.658 42.2815 31.6133 42.3485 31.5462C42.4156 31.4791 42.4604 31.3897 42.5051 31.3002C42.5498 31.2108 42.5722 31.099 42.5722 30.9871C42.5722 30.8753 42.5498 30.7859 42.5051 30.6741C42.4604 30.5846 42.4156 30.4952 42.3485 30.4281C42.2815 30.361 42.192 30.2939 42.1026 30.2716C42.0131 30.2268 41.9013 30.2045 41.8119 30.2045C41.7 30.2045 41.6106 30.2268 41.4988 30.2716C41.4093 30.3163 41.3199 30.361 41.2528 30.4281C41.1857 30.4952 41.141 30.5846 41.0963 30.6741C41.0515 30.7859 41.0292 30.8753 41.0292 30.9871Z" fill="#00559E"/>
<path d="M44.4727 29.8688C44.4727 29.8465 44.4727 29.8241 44.495 29.8241C44.5174 29.8018 44.5174 29.8018 44.5397 29.8018H46.0827C46.1275 29.8018 46.1498 29.8241 46.1498 29.8688V30.1372C46.1498 30.1596 46.1498 30.1819 46.1275 30.1819C46.1051 30.2043 46.1051 30.2043 46.0827 30.2043H44.9423V30.8528C44.9646 30.8528 45.0093 30.8528 45.0541 30.8528C45.0988 30.8528 45.1435 30.8528 45.2106 30.8528C45.2553 30.8528 45.3224 30.8528 45.3895 30.8528C45.4566 30.8528 45.5013 30.8528 45.5684 30.8528C45.6131 30.8528 45.6802 30.8528 45.7249 30.8528C45.7697 30.8528 45.8144 30.8528 45.8368 30.8528C45.8591 30.8528 45.8815 30.8528 45.8815 30.8751C45.9038 30.8751 45.9038 30.8975 45.9038 30.9199V31.1882C45.9038 31.2106 45.9038 31.2329 45.8815 31.2329C45.8591 31.2553 45.8591 31.2553 45.8368 31.2553H44.9423V32.0827C44.9423 32.1274 44.9199 32.1498 44.8752 32.1498H44.5397C44.495 32.1498 44.4727 32.1274 44.4727 32.0827V29.8688Z" fill="#00559E"/>
<path d="M46.3506 32.1271C46.3506 32.1047 46.3729 32.0824 46.3729 32.06C46.3729 32.0377 46.3953 32.0153 46.3953 32.0153L47.2674 29.8462C47.2674 29.8238 47.2898 29.8238 47.2898 29.8014C47.3122 29.7791 47.3345 29.7791 47.3569 29.7791H47.6252C47.6476 29.7791 47.67 29.7791 47.67 29.8014C47.6923 29.8238 47.6923 29.8238 47.6923 29.8462L47.737 29.9803L48.5868 32.1047C48.5868 32.1047 48.5868 32.1047 48.5868 32.1271V32.1495C48.5868 32.1718 48.5644 32.1942 48.5197 32.1942H48.2067C48.1843 32.1942 48.1619 32.1942 48.1619 32.1718C48.1396 32.1718 48.1396 32.1495 48.1396 32.1271L48.1172 32.06C48.0948 32.0153 48.0725 31.9482 48.0501 31.9035C48.0278 31.8588 48.0054 31.7917 47.983 31.7469H46.9767C46.9544 31.814 46.932 31.9035 46.8873 31.9482C46.8649 32.0153 46.8426 32.0824 46.8202 32.1271C46.7978 32.1718 46.7755 32.1942 46.7307 32.1942H46.4177C46.3953 32.1942 46.3729 32.1942 46.3729 32.1718C46.3506 32.1718 46.3506 32.1495 46.3506 32.1271ZM47.4687 30.4052C47.4016 30.5617 47.3569 30.7183 47.2898 30.8748C47.2227 31.0314 47.178 31.1879 47.1109 31.3444H47.8041L47.4687 30.4052ZM47.4687 29.1306C47.4687 29.1082 47.4911 29.0858 47.5134 29.0858C47.5358 29.0858 47.5358 29.0635 47.5581 29.0635H47.8489C47.8712 29.0635 47.8712 29.0635 47.8936 29.0858C47.9159 29.1082 47.8936 29.1082 47.8936 29.1082V29.1306V29.1529L47.737 29.4884C47.7147 29.5331 47.6923 29.5554 47.6476 29.5554H47.4016C47.3792 29.5554 47.3792 29.5554 47.3569 29.5331V29.5107V29.4884C47.3569 29.4884 47.3569 29.466 47.3569 29.4436L47.4687 29.1306Z" fill="#00559E"/>
<path d="M50.7336 29.9586C50.756 29.9586 50.756 29.9809 50.756 29.9809C50.756 29.9809 50.7783 30.0033 50.7783 30.0257C50.7783 30.048 50.7783 30.048 50.7783 30.0704L50.6218 30.3387C50.5994 30.3611 50.5771 30.3835 50.5547 30.3835H50.5323C50.5323 30.3835 50.51 30.3835 50.51 30.3611C50.4429 30.3164 50.3758 30.2717 50.2864 30.2493C50.2193 30.2269 50.1298 30.2046 50.0404 30.2046C49.9286 30.2046 49.8391 30.2269 49.7497 30.2717C49.6602 30.3164 49.5708 30.3611 49.5037 30.4506C49.4366 30.54 49.3919 30.6071 49.3471 30.6965C49.3024 30.786 49.3024 30.8978 49.3024 31.0096C49.3024 31.1214 49.3248 31.2109 49.3471 31.3227C49.3695 31.4345 49.4366 31.5016 49.5037 31.5687C49.5708 31.6358 49.6602 31.7028 49.7497 31.7476C49.8391 31.7923 49.9509 31.8146 50.0404 31.8146C50.1298 31.8146 50.2193 31.7923 50.2864 31.7699C50.3758 31.7476 50.4429 31.7028 50.51 31.6581C50.51 31.6581 50.5323 31.6581 50.5323 31.6358C50.5323 31.6134 50.5547 31.6358 50.5547 31.6358C50.5771 31.6358 50.5994 31.6581 50.6218 31.6805L50.7783 31.9488C50.7783 31.9712 50.7783 31.9712 50.7783 31.9935C50.7783 32.0159 50.7783 32.0159 50.756 32.0383L50.7336 32.0606C50.6218 32.1277 50.5323 32.1724 50.3982 32.2172C50.2864 32.2619 50.1522 32.2619 50.0404 32.2619C49.9286 32.2619 49.8167 32.2395 49.7049 32.2172C49.5931 32.1948 49.5037 32.1501 49.4142 32.083C49.3248 32.0383 49.2353 31.9712 49.1682 31.8817C49.1012 31.8146 49.0341 31.7252 48.967 31.6358C48.9223 31.5463 48.8775 31.4569 48.8328 31.345C48.8104 31.2332 48.7881 31.1214 48.7881 31.0096C48.7881 30.8978 48.8104 30.786 48.8328 30.6742C48.8552 30.5624 48.8999 30.4729 48.967 30.3835C49.0117 30.294 49.0788 30.2046 49.1682 30.1375C49.2577 30.0704 49.3248 30.0033 49.4142 29.9362C49.5037 29.8915 49.5931 29.8468 49.7049 29.802C49.8167 29.7797 49.9286 29.7573 50.0404 29.7573C50.1745 29.7573 50.2864 29.7797 50.3982 29.802C50.5323 29.8468 50.6442 29.8915 50.7336 29.9586Z" fill="#00559E"/>
<path d="M51.2256 29.8688C51.2256 29.8465 51.2256 29.8241 51.2479 29.8241C51.2703 29.8018 51.2703 29.8018 51.2927 29.8018H51.6057C51.6281 29.8018 51.6505 29.8018 51.6505 29.8241C51.6728 29.8465 51.6728 29.8465 51.6728 29.8688V32.1274C51.6728 32.1722 51.6505 32.1945 51.6057 32.1945H51.2927C51.2479 32.1945 51.2256 32.1722 51.2256 32.1274V29.8688Z" fill="#00559E"/>
<path d="M52.2323 29.8688C52.2323 29.8465 52.2323 29.8241 52.2547 29.8241C52.277 29.8241 52.277 29.8018 52.2994 29.8018H52.6125C52.6348 29.8018 52.6572 29.8018 52.6572 29.8241C52.6796 29.8465 52.6796 29.8465 52.6796 29.8688V31.7473H53.6859C53.7082 31.7473 53.7306 31.7473 53.7306 31.7696C53.753 31.792 53.753 31.792 53.753 31.8144V32.1051C53.753 32.1274 53.753 32.1498 53.7306 32.1498C53.7082 32.1722 53.7082 32.1722 53.6859 32.1722H52.277C52.2323 32.1722 52.21 32.1498 52.21 32.1051V29.8688H52.2323Z" fill="#00559E"/>
</g>
<defs>
<clipPath id="clip0_1906_18018">
<rect width="59.7097" height="8.18493" fill="white" transform="translate(0 43)"/>
</clipPath>
<clipPath id="clip1_1906_18018">
<rect width="45.7979" height="13.0372" fill="white" transform="translate(19.8955 19.1802)"/>
</clipPath>
</defs>
</svg>
