<svg width="51" height="51" viewBox="0 0 51 51" fill="none" xmlns="http://www.w3.org/2000/svg">
<rect x="0.794922" y="0.292969" width="50" height="50" rx="10" fill="url(#paint0_linear_1876_15848)"/>
<path d="M6.03809 44.6846H6.10215C6.26562 44.6846 6.43856 44.6627 6.43856 44.4281V42.0677C6.43856 41.8327 6.26562 41.8106 6.10215 41.8106H6.03809V41.6753C6.21576 41.6753 6.48874 41.6931 6.71249 41.6931C6.9397 41.6931 7.21237 41.6753 7.42633 41.6753V41.8106H7.36227C7.19911 41.8106 7.02589 41.8327 7.02589 42.0677V44.4281C7.02589 44.6627 7.19911 44.6846 7.36227 44.6846H7.42633V44.8205C7.20795 44.8205 6.93434 44.8027 6.70743 44.8027C6.48435 44.8027 6.21576 44.8205 6.03809 44.8205V44.6846Z" fill="white"/>
<path d="M7.42632 44.84C7.20636 44.84 6.93373 44.8219 6.70712 44.8219C6.48463 44.8219 6.21705 44.84 6.03809 44.84H6.01855V44.8206V44.6854V44.6657H6.03809H6.10187C6.26688 44.662 6.41713 44.6488 6.41871 44.4286V42.0681C6.41713 41.8479 6.26691 41.8332 6.10187 41.8301H6.01855V41.8111V41.6558H6.03809C6.21705 41.6558 6.48972 41.6736 6.71217 41.6736C6.93875 41.6736 7.21113 41.6558 7.42632 41.6558H7.44655V41.6764V41.8301H7.42632H7.36258C7.19753 41.8332 7.04633 41.8479 7.04542 42.0681V44.4286C7.04633 44.6488 7.1975 44.662 7.36258 44.6657H7.44652V44.6854V44.84H7.42632ZM7.40676 44.8016V44.7053H7.36261C7.20008 44.7053 7.00663 44.6775 7.00566 44.4286V42.0681C7.0066 41.8191 7.20005 41.791 7.36261 41.791H7.40676V41.6954C7.19658 41.6954 6.93307 41.7129 6.71217 41.7129C6.496 41.7129 6.23438 41.6967 6.05829 41.6954V41.791H6.10184C6.26404 41.791 6.45812 41.8191 6.45812 42.0681V44.4286C6.45812 44.6776 6.26404 44.7053 6.10184 44.7053H6.05829V44.8016C6.23438 44.7997 6.49154 44.7834 6.70712 44.7834C6.92865 44.7834 7.19216 44.8003 7.40676 44.8016Z" fill="white"/>
<path d="M6.03809 44.6846H6.10215C6.26562 44.6846 6.43856 44.6627 6.43856 44.4281V42.0677C6.43856 41.8327 6.26562 41.8106 6.10215 41.8106H6.03809V41.6753C6.21576 41.6753 6.48874 41.6931 6.71249 41.6931C6.9397 41.6931 7.21237 41.6753 7.42633 41.6753V41.8106H7.36227C7.19911 41.8106 7.02589 41.8327 7.02589 42.0677V44.4281C7.02589 44.6627 7.19911 44.6846 7.36227 44.6846H7.42633V44.8205C7.20795 44.8205 6.93434 44.8027 6.70743 44.8027C6.48435 44.8027 6.21576 44.8205 6.03809 44.8205V44.6846Z" fill="white"/>
<path d="M7.42632 44.84C7.20636 44.84 6.93373 44.8219 6.70712 44.8219C6.48463 44.8219 6.21705 44.84 6.03809 44.84H6.01855V44.8206V44.6854V44.6657H6.03809H6.10187C6.26688 44.662 6.41713 44.6488 6.41871 44.4286V42.0681C6.41713 41.8479 6.26691 41.8332 6.10187 41.8301H6.01855V41.8111V41.6558H6.03809C6.21705 41.6558 6.48972 41.6736 6.71217 41.6736C6.93875 41.6736 7.21113 41.6558 7.42632 41.6558H7.44655V41.6764V41.8301H7.42632H7.36258C7.19753 41.8332 7.04633 41.8479 7.04542 42.0681V44.4286C7.04633 44.6488 7.1975 44.662 7.36258 44.6657H7.44652V44.6854V44.84H7.42632ZM7.40676 44.8016V44.7053H7.36261C7.20008 44.7053 7.00663 44.6775 7.00566 44.4286V42.0681C7.0066 41.8191 7.20005 41.791 7.36261 41.791H7.40676V41.6954C7.19658 41.6954 6.93307 41.7129 6.71217 41.7129C6.496 41.7129 6.23438 41.6967 6.05829 41.6954V41.791H6.10184C6.26404 41.791 6.45812 41.8191 6.45812 42.0681V44.4286C6.45812 44.6776 6.26404 44.7053 6.10184 44.7053H6.05829V44.8016C6.23438 44.7997 6.49154 44.7834 6.70712 44.7834C6.92865 44.7834 7.19216 44.8003 7.40676 44.8016Z" fill="white"/>
<path d="M6.81635 35.0084C6.81635 34.2636 6.42405 34.3127 6.04788 34.3046V34.0894C6.37388 34.1053 6.70808 34.1053 7.03474 34.1053C7.38598 34.1053 7.86282 34.0894 8.48196 34.0894C10.6475 34.0894 11.8268 35.5214 11.8268 36.9877C11.8268 37.8077 11.3421 39.8692 8.38129 39.8692C7.95494 39.8692 7.56141 39.8529 7.16851 39.8529C6.79234 39.8529 6.42406 39.8611 6.04785 39.8692V39.6543C6.54934 39.6043 6.79234 39.5878 6.81632 39.0245V35.0084H6.81635ZM7.63623 38.8924C7.63623 39.53 8.09667 39.6043 8.50629 39.6043C10.3133 39.6043 10.9066 38.2545 10.9066 37.0205C10.9066 35.4726 9.90274 34.3549 8.28889 34.3549C7.94553 34.3549 7.78774 34.3792 7.63627 34.388L7.63623 38.8924Z" fill="white"/>
<path d="M12.1201 39.6556H12.2785C12.5124 39.6556 12.68 39.6556 12.68 39.3816V37.138C12.68 36.7741 12.5547 36.7234 12.2451 36.5588V36.426C12.638 36.3092 13.107 36.153 13.1398 36.128C13.1988 36.0949 13.2487 36.0862 13.2906 36.0862C13.332 36.0862 13.3493 36.1361 13.3493 36.2027V39.3816C13.3493 39.6556 13.5333 39.6556 13.7675 39.6556H13.9095V39.8708C13.6248 39.8708 13.332 39.8543 13.0315 39.8543C12.7305 39.8543 12.4291 39.8624 12.1201 39.8708V39.6556H12.1201ZM13.0148 34.8112C12.7971 34.8112 12.6052 34.6126 12.6052 34.3973C12.6052 34.1899 12.8059 33.999 13.0148 33.999C13.2316 33.999 13.4247 34.1737 13.4247 34.3973C13.4247 34.621 13.2401 34.8112 13.0148 34.8112Z" fill="white"/>
<path d="M14.7034 37.1866C14.7034 36.8805 14.6109 36.798 14.2187 36.6406V36.4835C14.5781 36.3676 14.9205 36.2598 15.3222 36.0855C15.3472 36.0855 15.3718 36.1023 15.3718 36.1683V36.7068C15.8493 36.3676 16.2592 36.0854 16.8203 36.0854C17.5304 36.0854 17.7812 36.599 17.7812 37.2447V39.3809C17.7812 39.6549 17.9652 39.6549 18.1997 39.6549H18.3502V39.8701C18.0567 39.8701 17.7642 39.8536 17.4638 39.8536C17.1623 39.8536 16.8609 39.8617 16.5602 39.8701V39.6549H16.7104C16.9452 39.6549 17.1116 39.6549 17.1116 39.3809V37.2369C17.1116 36.7642 16.8203 36.5328 16.3428 36.5328C16.0755 36.5328 15.6488 36.748 15.3717 36.9304V39.3808C15.3717 39.6548 15.5566 39.6548 15.7912 39.6548H15.9414V39.8701C15.6488 39.8701 15.3556 39.8535 15.0546 39.8535C14.7538 39.8535 14.4521 39.8617 14.1514 39.8701V39.6548H14.3022C14.5364 39.6548 14.7033 39.6548 14.7033 39.3808V37.1866H14.7034Z" fill="white"/>
<path d="M18.9868 37.5846C18.9694 37.6593 18.9694 37.7833 18.9868 38.0651C19.0361 38.8514 19.5476 39.4971 20.2156 39.4971C20.6761 39.4971 21.0365 39.2488 21.3454 38.9426L21.4622 39.0588C21.0772 39.5637 20.6006 39.9941 19.9152 39.9941C18.585 39.9941 18.3174 38.7186 18.3174 38.1891C18.3174 36.5659 19.4213 36.0854 20.0064 36.0854C20.6842 36.0854 21.4123 36.5075 21.4202 37.3853C21.4202 37.4356 21.4202 37.4847 21.4123 37.535L21.3366 37.5846H18.9868ZM20.4675 37.3194C20.6761 37.3194 20.7007 37.2117 20.7007 37.1126C20.7007 36.6902 20.4416 36.3507 19.973 36.3507C19.4633 36.3507 19.112 36.7227 19.0117 37.3194H20.4675Z" fill="white"/>
<path d="M21.6123 39.6549H21.8383C22.0717 39.6549 22.239 39.6549 22.239 39.3809V37.0545C22.239 36.798 21.9301 36.748 21.8042 36.6818V36.5581C22.4148 36.301 22.7496 36.0854 22.8257 36.0854C22.8752 36.0854 22.8998 36.1104 22.8998 36.1935V36.9386H22.9175C23.1261 36.6159 23.478 36.0854 23.9877 36.0854C24.1969 36.0854 24.4642 36.226 24.4642 36.5244C24.4642 36.748 24.3058 36.9473 24.0717 36.9473C23.8113 36.9473 23.8113 36.748 23.5191 36.748C23.3767 36.748 22.9087 36.9386 22.9087 37.4356V39.3809C22.9087 39.6549 23.0757 39.6549 23.3101 39.6549H23.7781V39.8701C23.318 39.8617 22.968 39.8536 22.6076 39.8536C22.265 39.8536 21.9134 39.8617 21.6123 39.8701V39.6549H21.6123Z" fill="white"/>
<path d="M24.8325 38.7186C24.9414 39.2653 25.2756 39.7292 25.8866 39.7292C26.3789 39.7292 26.5631 39.4312 26.5631 39.1413C26.5631 38.1641 24.7403 38.4787 24.7403 37.1457C24.7403 36.6818 25.1171 36.0854 26.0367 36.0854C26.3041 36.0854 26.6635 36.1604 26.9895 36.3263L27.0488 37.1701H26.856C26.7727 36.649 26.4802 36.3507 25.9443 36.3507C25.6098 36.3507 25.2923 36.5413 25.2923 36.8971C25.2923 37.8667 27.2325 37.5678 27.2325 38.8677C27.2325 39.414 26.7891 39.9941 25.7937 39.9941C25.4592 39.9941 25.0663 39.8782 24.7738 39.713L24.6816 38.7605L24.8325 38.7186Z" fill="white"/>
<path d="M34.784 35.5898H34.5754C34.4164 34.6214 33.7221 34.2318 32.7858 34.2318C31.8232 34.2318 30.4265 34.8691 30.4265 36.8563C30.4265 38.5301 31.6316 39.7303 32.9192 39.7303C33.747 39.7303 34.4334 39.1673 34.6006 38.2976L34.7925 38.347L34.6006 39.5559C34.2494 39.7718 33.3042 39.9952 32.7516 39.9952C30.795 39.9952 29.5576 38.7447 29.5576 36.8816C29.5576 35.184 31.0879 33.9663 32.727 33.9663C33.4043 33.9663 34.0566 34.1825 34.7007 34.4062L34.784 35.5898Z" fill="white"/>
<path d="M35.086 39.6547H35.2444C35.4789 39.6547 35.6468 39.6547 35.6468 39.3807V34.7691C35.6468 34.2306 35.5212 34.214 35.203 34.1231V33.9906C35.5376 33.8832 35.8888 33.7338 36.0646 33.6342C36.1558 33.5849 36.2233 33.543 36.2479 33.543C36.2991 33.543 36.3158 33.593 36.3158 33.6595V39.3807C36.3158 39.6547 36.4994 39.6547 36.7339 39.6547H36.875V39.8699C36.5919 39.8699 36.2991 39.8533 35.9977 39.8533C35.697 39.8533 35.3959 39.8615 35.0859 39.8699V39.6547H35.086Z" fill="white"/>
<path d="M40.4569 39.4144C40.4569 39.5641 40.5484 39.5722 40.6904 39.5722C40.7911 39.5722 40.9161 39.5641 41.0252 39.5641V39.7384C40.6652 39.7712 39.9794 39.9452 39.8203 39.9946L39.7784 39.9695V39.2995C39.2773 39.7049 38.8919 39.9946 38.2977 39.9946C37.8461 39.9946 37.3778 39.7049 37.3778 39.0099V36.8893C37.3778 36.6741 37.3446 36.467 36.877 36.4258V36.2683C37.1784 36.2602 37.8461 36.2105 37.9553 36.2105C38.0481 36.2105 38.0481 36.2683 38.0481 36.4504V38.5862C38.0481 38.8352 38.0481 39.5472 38.7752 39.5472C39.0595 39.5472 39.4357 39.3319 39.7866 39.043V36.8143C39.7866 36.6494 39.3855 36.5585 39.0851 36.4754V36.3263C39.8368 36.2764 40.306 36.2104 40.3891 36.2104C40.4569 36.2104 40.4569 36.2682 40.4569 36.3598V39.4144H40.4569Z" fill="white"/>
<path d="M42.1206 36.6816C42.4548 36.4001 42.9064 36.0853 43.3668 36.0853C44.3372 36.0853 44.922 36.9225 44.922 37.8243C44.922 38.909 44.1195 39.9939 42.9228 39.9939C42.3042 39.9939 41.9782 39.7949 41.7605 39.7043L41.5099 39.8942L41.3348 39.8036C41.409 39.3151 41.4516 38.8346 41.4516 38.3298V34.7691C41.4516 34.2306 41.3253 34.214 41.0078 34.1231V33.9906C41.3433 33.8832 41.6936 33.7338 41.8694 33.6342C41.9615 33.5848 42.0281 33.543 42.054 33.543C42.1039 33.543 42.1206 33.593 42.1206 33.6595V36.6816H42.1206V36.6816ZM42.1206 38.9337C42.1206 39.2486 42.4214 39.779 42.9818 39.779C43.8768 39.779 44.253 38.909 44.253 38.1718C44.253 37.2777 43.5679 36.5326 42.9152 36.5326C42.605 36.5326 42.3462 36.7316 42.1206 36.9225V38.9337H42.1206Z" fill="white"/>
<path d="M10.5525 43.9324L10.5616 43.9236V42.2342C10.5616 41.8643 10.3019 41.8106 10.1656 41.8106H10.0652V41.6753C10.2795 41.6753 10.4887 41.6931 10.7024 41.6931C10.8888 41.6931 11.0763 41.6753 11.2625 41.6753V41.8106H11.1944C11.0028 41.8106 10.7888 41.8465 10.7888 42.3826V44.4331C10.7888 44.5906 10.7935 44.748 10.816 44.8877H10.6427L8.29954 42.3014V44.1579C8.29954 44.55 8.37622 44.6846 8.72715 44.6846H8.80412V44.8205C8.60881 44.8205 8.41343 44.8027 8.21745 44.8027C8.01327 44.8027 7.80376 44.8205 7.59863 44.8205V44.6846H7.66238C7.97638 44.6846 8.07172 44.4734 8.07172 44.1133V42.2155C8.07172 41.9634 7.86186 41.8106 7.65799 41.8106H7.59866V41.6754C7.77157 41.6754 7.94896 41.6931 8.12158 41.6931C8.2582 41.6931 8.39046 41.6754 8.52676 41.6754L10.5525 43.9324Z" fill="white"/>
<path d="M10.8157 44.9071L10.628 44.9002L8.31854 42.3521V44.1577C8.32391 44.5495 8.38418 44.6607 8.7269 44.665H8.82442V44.6844V44.8394H8.80422C8.6073 44.8394 8.41132 44.8212 8.21721 44.8212C8.01334 44.8212 7.80443 44.8394 7.59804 44.8394H7.57816V44.82V44.665H7.59804H7.6621C7.96285 44.6635 8.04869 44.4723 8.05216 44.113V42.2156C8.0515 41.9757 7.85271 41.8301 7.65768 41.8295H7.57812V41.8095V41.6558H7.598C7.77192 41.6558 7.95019 41.6729 8.12092 41.6729C8.25631 41.6729 8.38825 41.6558 8.54159 41.6623L10.5417 43.8913V42.2343C10.5392 41.8757 10.2978 41.8326 10.1653 41.8295H10.0447V41.8095V41.6558H10.0649C10.2798 41.6558 10.4894 41.6729 10.7021 41.6729C10.8873 41.6729 11.0738 41.6558 11.2619 41.6558H11.2818V41.6751V41.8294H11.2619H11.194C11.0063 41.8348 10.8135 41.851 10.8081 42.3824V44.4326C10.8081 44.59 10.8128 44.7475 10.835 44.884L10.8394 44.9071H10.8157V44.9071ZM10.6428 44.8674H10.7934C10.7729 44.7322 10.7694 44.5822 10.7694 44.4326V42.3824C10.7694 41.8416 10.9982 41.7904 11.1941 41.7904H11.2421V41.6948C11.0629 41.696 10.883 41.7123 10.7022 41.7123C10.4939 41.7123 10.2913 41.696 10.0852 41.6948L10.0849 41.7904H10.1654C10.3052 41.7904 10.5813 41.8522 10.5813 42.2343L10.575 43.9368L10.5659 43.9462L10.5504 43.9603L8.52657 41.6948C8.39153 41.6948 8.25959 41.7123 8.12105 41.7123C7.95411 41.7123 7.78338 41.696 7.61833 41.6948L7.61738 41.7904H7.65778C7.87143 41.7904 8.09075 41.9519 8.09075 42.2155V44.113C8.09075 44.4732 7.98945 44.7037 7.6622 44.705L7.61833 44.7037V44.8009C7.81557 44.799 8.01817 44.7828 8.21727 44.7828C8.40728 44.7828 8.59631 44.799 8.78437 44.8009V44.705H8.72697C8.36875 44.7037 8.27979 44.5494 8.27944 44.1577V42.2505L10.6428 44.8674ZM10.5522 43.9318L10.5667 43.9187L10.5522 43.9318ZM10.5418 43.9231V43.9215L10.538 43.9184L10.5418 43.9231Z" fill="white"/>
<path d="M11.9443 41.8995C11.6025 41.8995 11.5896 41.9808 11.5214 42.3094H11.3848C11.4028 42.1835 11.4255 42.0576 11.4394 41.9264C11.4576 41.8002 11.4665 41.6746 11.4665 41.544H11.576C11.6126 41.6793 11.7262 41.6746 11.8496 41.6746H14.1972C14.3203 41.6746 14.4339 41.6702 14.4434 41.5347L14.5519 41.5528C14.5342 41.6746 14.5159 41.7961 14.502 41.9179C14.4938 42.0395 14.4938 42.1613 14.4938 42.2825L14.3569 42.3328C14.3474 42.1663 14.3247 41.8995 14.0202 41.8995H13.2738V44.2968C13.2738 44.6442 13.4332 44.6839 13.6509 44.6839H13.7377V44.8198C13.5604 44.8198 13.2413 44.802 12.9961 44.802C12.7231 44.802 12.4041 44.8198 12.2264 44.8198V44.6839H12.3132C12.5641 44.6839 12.6909 44.6617 12.6909 44.3062V41.8995H11.9443Z" fill="white"/>
<path d="M13.7387 44.8412C13.5594 44.8412 13.241 44.8231 12.9964 44.8231C12.7237 44.8231 12.4053 44.8412 12.2267 44.8412H12.2077V44.8222V44.6669H12.2267H12.3135C12.5644 44.661 12.6653 44.6578 12.671 44.3085V41.9216H11.9446V41.9019V41.8819H12.7105V44.3085C12.7105 44.67 12.5634 44.7065 12.3135 44.7069H12.2466V44.8018C12.4262 44.8009 12.7323 44.7846 12.9964 44.7846C13.2338 44.7846 13.5379 44.8009 13.7178 44.8018V44.7069H13.6512C13.4313 44.7065 13.2542 44.6531 13.2542 44.2992V41.8819H14.0205C14.326 41.8831 14.3657 42.1402 14.3758 42.3074L14.474 42.2714C14.474 42.154 14.4746 42.0362 14.4828 41.9175C14.4961 41.8016 14.5128 41.6866 14.5298 41.5717L14.4604 41.5601C14.4392 41.6913 14.3114 41.6979 14.1968 41.6966H11.8499H11.8262C11.7192 41.6966 11.6021 41.6916 11.5614 41.5658H11.4863C11.4857 41.6904 11.4768 41.8113 11.4595 41.9312C11.4462 42.055 11.4254 42.174 11.4083 42.293H11.5059C11.5658 41.979 11.605 41.8772 11.9445 41.8819V41.9019V41.9216C11.6081 41.9275 11.6151 41.9837 11.5409 42.3168L11.5375 42.3321H11.5217H11.3623L11.3648 42.3086C11.3831 42.1824 11.4062 42.0568 11.4197 41.9256C11.4387 41.8007 11.4475 41.6757 11.4475 41.5464V41.5267H11.4668H11.5917L11.5949 41.5407C11.6261 41.6545 11.7104 41.6551 11.8262 41.657H11.8499H14.1968C14.3237 41.6551 14.4159 41.6532 14.4238 41.5354L14.4256 41.5142L14.4462 41.5185L14.5746 41.5386L14.5717 41.5582C14.5534 41.6788 14.5355 41.8007 14.5222 41.9216C14.5131 42.0415 14.5131 42.1633 14.5131 42.2849V42.2989L14.5004 42.3039L14.3392 42.362L14.3379 42.3358C14.3259 42.1664 14.3079 41.9215 14.0204 41.9215H13.294V44.2991C13.2981 44.639 13.4344 44.6625 13.6512 44.6668H13.7578V44.6862V44.8411L13.7387 44.8412Z" fill="white"/>
<path d="M14.6963 44.6846H14.7604C14.9239 44.6846 15.0971 44.6627 15.0971 44.4281V42.0677C15.0971 41.8327 14.9239 41.8106 14.7604 41.8106H14.6963V41.6753C14.9734 41.6753 15.4474 41.6931 15.8289 41.6931C16.212 41.6931 16.6845 41.6753 16.9937 41.6753C16.9862 41.8687 16.9903 42.1667 17.0038 42.3645L16.8665 42.4007C16.8448 42.108 16.7902 41.874 16.3121 41.874H15.68V43.0539H16.2209C16.4938 43.0539 16.5535 42.9012 16.5803 42.6572H16.7167C16.7079 42.8337 16.7031 43.0093 16.7031 43.1848C16.7031 43.3563 16.7078 43.5272 16.7167 43.6984L16.5803 43.7252C16.5535 43.4551 16.5397 43.2795 16.2253 43.2795H15.68V44.3288C15.68 44.6221 15.9429 44.6221 16.2345 44.6221C16.7807 44.6221 17.0215 44.5856 17.1582 44.0726L17.2857 44.1036C17.2261 44.3428 17.1718 44.5812 17.1314 44.8205C16.8398 44.8205 16.3162 44.8027 15.9072 44.8027C15.4969 44.8027 14.9558 44.8205 14.6963 44.8205V44.6846Z" fill="white"/>
<path d="M17.1317 44.8394C16.8394 44.8394 16.3162 44.8209 15.9076 44.8209C15.4976 44.8209 14.9567 44.8394 14.697 44.8394H14.6777V44.8203V44.6844V44.665H14.697H14.7607C14.9257 44.6625 15.0753 44.6482 15.0776 44.4279V42.0675C15.0754 41.8475 14.9257 41.8329 14.7607 41.8294H14.6777V41.8104V41.6558H14.697C14.9747 41.6558 15.448 41.6729 15.8296 41.6729C16.2123 41.6729 16.6845 41.6558 16.9944 41.6558H17.0149L17.0139 41.6758C17.0108 41.7435 17.0095 41.8235 17.0095 41.9085C17.0095 42.0643 17.0139 42.2346 17.0231 42.363L17.0237 42.3793L17.0086 42.3837L16.8486 42.4249L16.8477 42.4018C16.8208 42.1094 16.7814 41.8973 16.3128 41.8929H15.6996L15.699 43.0334H16.2216C16.4836 43.0309 16.5305 42.8982 16.5615 42.6555L16.5631 42.6376H16.5807H16.7376L16.7373 42.6579C16.7285 42.8335 16.7227 43.0091 16.7227 43.1846C16.7227 43.3552 16.7285 43.5261 16.7373 43.6976L16.7376 43.7135L16.7212 43.7172L16.5631 43.7485L16.5615 43.7272C16.5302 43.4523 16.528 43.3018 16.2257 43.2984L15.6996 43.298V44.3286C15.7 44.6023 15.9385 44.6007 16.2352 44.6023C16.783 44.5991 17.0027 44.5729 17.1399 44.0668L17.1444 44.0487L17.1636 44.0521L17.3094 44.0893L17.305 44.1081C17.2463 44.3467 17.1917 44.5848 17.1509 44.8234L17.1472 44.8394H17.1317ZM17.115 44.8C17.1544 44.5729 17.2064 44.3448 17.2623 44.118L17.1724 44.0955C17.0361 44.5998 16.7722 44.6447 16.2351 44.6413C15.9485 44.6413 15.6614 44.6413 15.6601 44.3286V43.2596H16.2257C16.5434 43.2561 16.576 43.4461 16.5983 43.7025L16.6968 43.6823C16.688 43.5163 16.6839 43.3498 16.6839 43.1846C16.6839 43.015 16.688 42.8463 16.6968 42.6766H16.5983C16.5731 42.9112 16.4989 43.0762 16.2216 43.0731H15.6601V41.8535H16.3128C16.7862 41.8503 16.8647 42.0921 16.8849 42.3755L16.9831 42.3492C16.9752 42.2221 16.9698 42.059 16.9698 41.9085C16.9698 41.8313 16.9717 41.7585 16.9742 41.6948C16.665 41.696 16.2042 41.7123 15.8296 41.7123C15.4556 41.7123 14.9952 41.696 14.7166 41.6948V41.7904H14.7607C14.9229 41.7904 15.1167 41.8185 15.1173 42.0675V44.4279C15.1167 44.6763 14.9229 44.7038 14.7607 44.705H14.7166V44.8C14.982 44.7997 15.5077 44.7828 15.9075 44.7828C16.3089 44.7828 16.8214 44.7997 17.115 44.8Z" fill="white"/>
<path d="M17.9003 42.152C17.9003 41.8233 17.7185 41.8099 17.5769 41.8099H17.4951V41.6743C17.6409 41.6743 17.9227 41.6924 18.2004 41.6924C18.4734 41.6924 18.6921 41.6743 18.9329 41.6743C19.506 41.6743 20.0163 41.8277 20.0163 42.4681C20.0163 42.8727 19.7433 43.1207 19.3839 43.261L20.1618 44.4137C20.2892 44.6043 20.3798 44.6577 20.6033 44.6839V44.8198C20.4531 44.8198 20.3072 44.802 20.1573 44.802C20.0163 44.802 19.8701 44.8198 19.7297 44.8198C19.3794 44.3646 19.0784 43.8779 18.7826 43.3594H18.4832V44.324C18.4832 44.6714 18.6464 44.6839 18.8556 44.6839H18.9376V44.8198C18.6776 44.8198 18.4147 44.802 18.155 44.802C17.9363 44.802 17.7223 44.8198 17.4951 44.8198V44.6839H17.5769C17.746 44.6839 17.9003 44.6083 17.9003 44.4412V42.152ZM18.4831 43.1972H18.7053C19.1607 43.1972 19.4059 43.0261 19.4059 42.4943C19.4059 42.0939 19.1468 41.8368 18.7413 41.8368C18.6047 41.8368 18.5466 41.8508 18.4831 41.8549V43.1972H18.4831Z" fill="white"/>
<path d="M20.6037 44.8399C20.4513 44.8399 20.3064 44.8218 20.1568 44.8218C20.018 44.8218 19.8728 44.8399 19.7141 44.8324C19.365 44.3791 19.0659 43.8952 18.7717 43.3804H18.5029V44.3245C18.5076 44.6634 18.6452 44.6606 18.8557 44.6656H18.9576V44.685V44.84H18.9374C18.6773 44.84 18.4132 44.8218 18.1548 44.8218C17.9373 44.8218 17.724 44.84 17.4955 44.84H17.4756V44.8206V44.6656H17.4955H17.5772C17.7413 44.6647 17.8796 44.5941 17.8802 44.4423V42.1531C17.8768 41.8332 17.7186 41.835 17.5772 41.8304H17.4756V41.811V41.6558H17.4955C17.6429 41.6558 17.9237 41.6735 18.2008 41.6735C18.4725 41.6735 18.6913 41.6558 18.9336 41.6558C19.507 41.657 20.0353 41.8138 20.0369 42.468C20.0369 42.875 19.7652 43.129 19.4139 43.2708L20.1786 44.4042C20.3058 44.591 20.385 44.6376 20.6065 44.6656L20.6232 44.6681V44.685V44.84H20.6037V44.8399ZM18.483 43.341H18.7941L18.7995 43.351C19.0962 43.8687 19.395 44.3547 19.7302 44.8015C19.869 44.8015 20.0151 44.783 20.1568 44.783C20.3023 44.783 20.4424 44.7987 20.5841 44.8008V44.7021C20.3704 44.6759 20.2704 44.6128 20.1461 44.4257L19.3543 43.2526L19.3767 43.2435C19.7327 43.1049 19.9962 42.864 19.9965 42.4679C19.9962 41.8428 19.5057 41.6978 18.9336 41.6953C18.6934 41.6953 18.4751 41.7131 18.2008 41.7131C17.9336 41.7131 17.6637 41.6966 17.5147 41.6953V41.7909H17.5772C17.7186 41.7913 17.9199 41.8144 17.9199 42.153V44.4422C17.9199 44.6231 17.7486 44.7056 17.5772 44.7059H17.5147V44.8008C17.7338 44.8002 17.9411 44.783 18.1548 44.783C18.4094 44.783 18.666 44.8002 18.9179 44.8008V44.7059H18.8557C18.648 44.7055 18.4631 44.6799 18.4631 44.3244V43.341H18.483H18.483ZM18.483 43.2173H18.4631V41.8378L18.4804 41.8362C18.5426 41.8316 18.6042 41.8187 18.7418 41.8187C19.1565 41.8187 19.4259 42.0855 19.4265 42.4963C19.4253 43.0342 19.1646 43.217 18.7058 43.2173H18.483V43.2173ZM18.7058 43.1786C19.1564 43.1748 19.383 43.0199 19.3878 42.4963C19.3852 42.1027 19.1381 41.8584 18.7417 41.8568C18.6186 41.8568 18.5609 41.8681 18.5028 41.8731V43.1786H18.7058Z" fill="white"/>
<path d="M23.6927 43.9324L23.701 43.9236V42.2342C23.701 41.8643 23.4419 41.8106 23.3056 41.8106H23.2058V41.6753C23.4195 41.6753 23.6284 41.6931 23.8427 41.6931C24.0295 41.6931 24.2154 41.6753 24.4031 41.6753V41.8106H24.3347C24.1435 41.8106 23.9295 41.8465 23.9295 42.3826V44.4331C23.9295 44.5906 23.9339 44.748 23.9563 44.8877H23.7837L21.4402 42.3014V44.1579C21.4402 44.55 21.5175 44.6846 21.8678 44.6846H21.9451V44.8205C21.7497 44.8205 21.5538 44.8027 21.3585 44.8027C21.153 44.8027 20.9438 44.8205 20.7393 44.8205V44.6846H20.8024C21.1167 44.6846 21.2123 44.4734 21.2123 44.1133V42.2155C21.2123 41.9634 21.0031 41.8106 20.7986 41.8106H20.7393V41.6754C20.9116 41.6754 21.0899 41.6931 21.2625 41.6931C21.3982 41.6931 21.5307 41.6754 21.6674 41.6754L23.6927 43.9324Z" fill="white"/>
<path d="M23.9566 44.9074L23.7692 44.9012L21.4594 42.3527V44.158C21.4648 44.5501 21.5248 44.6613 21.8681 44.6657H21.9644V44.685V44.84H21.9445C21.7476 44.84 21.5525 44.8215 21.3575 44.8215C21.1543 44.8215 20.9441 44.84 20.7393 44.84H20.7188V44.8209V44.6657H20.7393H20.8024C21.1028 44.6644 21.189 44.4729 21.1918 44.1124V42.2159C21.1915 41.9759 20.993 41.8304 20.7986 41.83H20.7188V41.811V41.6558H20.7393C20.9128 41.6558 21.0909 41.6735 21.2625 41.6735C21.3963 41.6735 21.5282 41.6558 21.681 41.662L23.6815 43.8919V42.2343C23.6802 41.8763 23.4378 41.8319 23.3056 41.8301H23.1853V41.811V41.6558H23.2052C23.4205 41.6558 23.63 41.6735 23.8427 41.6735C24.0283 41.6735 24.2148 41.6558 24.4022 41.6558H24.4221V41.6761V41.8301H24.4022H24.3346C24.1469 41.8351 23.9534 41.8516 23.9487 42.383V44.4332C23.9487 44.5907 23.9528 44.7469 23.9759 44.8856L23.9784 44.9074H23.9566ZM23.7837 44.8681H23.9333C23.9133 44.7328 23.9089 44.5829 23.9089 44.4332V42.383C23.9092 41.8422 24.1397 41.7922 24.3346 41.7907H24.3823V41.6954C24.2037 41.6967 24.0235 41.7129 23.8427 41.7129C23.6338 41.7129 23.4308 41.6967 23.2247 41.6954V41.7907H23.3056C23.4457 41.7922 23.7215 41.8529 23.7215 42.2343L23.7152 43.9374L23.7064 43.9468L23.6925 43.9612L21.6671 41.6954C21.532 41.6954 21.4001 41.7129 21.2625 41.7129C21.094 41.7129 20.9239 41.6967 20.7582 41.6954V41.7907H20.7986C21.0123 41.7923 21.2316 41.9519 21.2316 42.2159V44.1124C21.2316 44.4741 21.1287 44.7044 20.8024 44.7056L20.7582 44.7053V44.8006C20.9548 44.7997 21.1578 44.7834 21.3575 44.7834C21.5485 44.7834 21.7375 44.7997 21.9256 44.8006V44.7056H21.8681C21.5097 44.7053 21.42 44.5501 21.4194 44.158V42.2518L23.7837 44.8681ZM23.6928 43.9324L23.7066 43.9196L23.6928 43.9324ZM23.6814 43.924V43.9224L23.6779 43.919L23.6814 43.924Z" fill="white"/>
<path d="M25.1351 44.1748C25.0891 44.3276 25.0342 44.4457 25.0342 44.526C25.0342 44.6615 25.2257 44.6834 25.3753 44.6834H25.4261V44.8193C25.2437 44.8096 25.0578 44.8015 24.8745 44.8015C24.7107 44.8015 24.5479 44.8096 24.3838 44.8193V44.6834H24.4112C24.5885 44.6834 24.7391 44.58 24.8063 44.3904L25.5353 42.3229C25.594 42.1561 25.6767 41.9309 25.7042 41.7638C25.8491 41.7147 26.0314 41.6248 26.1176 41.5704C26.1318 41.5658 26.1397 41.561 26.1539 41.561C26.1675 41.561 26.1763 41.561 26.1864 41.5751C26.1996 41.6107 26.2129 41.6516 26.2274 41.6876L27.0647 44.0442C27.1192 44.2017 27.1732 44.3682 27.2323 44.5038C27.2872 44.63 27.3831 44.6834 27.5336 44.6834H27.5604V44.8193C27.3557 44.8096 27.1506 44.8015 26.9328 44.8015C26.7097 44.8015 26.4815 44.8096 26.2495 44.8193V44.6834H26.3C26.4042 44.6834 26.5822 44.6659 26.5822 44.5531C26.5822 44.4947 26.5411 44.3732 26.4904 44.2286L26.3133 43.7059H25.2804L25.1351 44.1748ZM25.7991 42.1786H25.79L25.3668 43.4538H26.2173L25.7991 42.1786Z" fill="white"/>
<path d="M27.5585 44.8395C27.3537 44.8304 27.1489 44.821 26.9321 44.821C26.709 44.821 26.4824 44.8304 26.2494 44.8395L26.2289 44.8407V44.8204V44.6645H26.2488H26.299C26.4044 44.6645 26.5609 44.6408 26.5609 44.5543C26.5622 44.503 26.5212 44.3793 26.471 44.236L26.2977 43.7264H25.2939L25.1525 44.1816C25.1064 44.3353 25.0519 44.4543 25.0522 44.5277C25.0537 44.6377 25.2238 44.6645 25.3747 44.6645H25.4447V44.6848V44.8407L25.4242 44.8395C25.2421 44.8304 25.0563 44.821 24.8748 44.821C24.7117 44.821 24.5476 44.8304 24.3844 44.8395L24.3633 44.8407V44.8204V44.6645H24.3831H24.4103C24.5797 44.6639 24.7212 44.5687 24.7868 44.3853L25.5155 42.3175C25.5751 42.1504 25.6572 41.9258 25.6966 41.7462C25.8393 41.6984 26.0219 41.6078 26.1097 41.5528C26.1223 41.5488 26.135 41.5425 26.1536 41.5425C26.1646 41.5422 26.1892 41.545 26.2038 41.5688C26.2167 41.6059 26.2309 41.6459 26.2448 41.6825L27.083 44.0389C27.1367 44.197 27.1909 44.3635 27.2503 44.4965C27.303 44.6168 27.3866 44.664 27.533 44.6646H27.5794V44.6849V44.8408L27.5585 44.8395ZM26.2687 44.7992C26.4941 44.7914 26.7146 44.7826 26.9321 44.7826C27.1435 44.7826 27.3414 44.7914 27.5392 44.7992V44.7051H27.5329C27.377 44.706 27.2694 44.6455 27.2135 44.5127C27.1542 44.3759 27.0987 44.2087 27.0454 44.051L26.2075 41.6949C26.1936 41.659 26.1804 41.6181 26.1683 41.5862C26.1646 41.5818 26.1655 41.5818 26.1617 41.5818H26.1535C26.144 41.5818 26.1387 41.5846 26.127 41.5878C26.0393 41.6443 25.8566 41.7327 25.7218 41.768C25.6937 41.9386 25.612 42.1635 25.5526 42.3303L24.8243 44.3984C24.7549 44.5939 24.5955 44.7054 24.4103 44.7051H24.403V44.7992C24.5589 44.7914 24.7167 44.7826 24.8748 44.7826C25.0506 44.7826 25.2304 44.7914 25.404 44.7992V44.7051H25.3747C25.2267 44.7032 25.0196 44.6867 25.0139 44.5277C25.0143 44.4377 25.0702 44.3225 25.1146 44.1703L25.1345 44.1762L25.1146 44.1697L25.2645 43.688H26.3255L26.5082 44.2234C26.5593 44.3681 26.6007 44.488 26.6007 44.5543C26.5944 44.6926 26.4022 44.7023 26.299 44.7051H26.2687V44.7992H26.2687ZM25.3384 43.4743L25.7742 42.16H25.7893H25.7988V42.1797L25.7938 42.1807L25.7988 42.1797V42.16H25.8124L26.2444 43.4743H25.3384ZM25.393 43.4352H26.1895L25.7934 42.2278L25.393 43.4352ZM25.7789 42.1854L25.7893 42.1819L25.7789 42.1854Z" fill="white"/>
<path d="M27.7604 41.8995C27.419 41.8995 27.4054 41.9808 27.3368 42.3094H27.2002C27.2182 42.1835 27.2413 42.0576 27.2555 41.9264C27.2737 41.8002 27.282 41.6746 27.282 41.544H27.3918C27.4281 41.6793 27.5423 41.6746 27.6645 41.6746H30.0133C30.1355 41.6746 30.2491 41.6702 30.2586 41.5347L30.3674 41.5528C30.35 41.6746 30.3321 41.7961 30.3182 41.9179C30.3084 42.0395 30.3084 42.1613 30.3084 42.2825L30.1721 42.3328C30.1635 42.1663 30.1408 41.8995 29.8357 41.8995H29.0893V44.2968C29.0893 44.6442 29.249 44.6839 29.4668 44.6839H29.5532V44.8198C29.3759 44.8198 29.0578 44.802 28.8116 44.802C28.539 44.802 28.2199 44.8198 28.0425 44.8198V44.6839H28.1287C28.3796 44.6839 28.5071 44.6617 28.5071 44.3062V41.8995H27.7604Z" fill="white"/>
<path d="M29.5538 44.8412C29.3752 44.8412 29.0565 44.8231 28.8122 44.8231C28.5402 44.8231 28.2214 44.8412 28.0431 44.8412H28.023V44.8221V44.6669H28.0431H28.1293C28.3801 44.6609 28.4809 44.6578 28.4871 44.3085L28.4865 41.9216H27.761V41.9018V41.8818H28.5266V44.3085C28.5266 44.67 28.3792 44.7056 28.1293 44.7065H28.0624V44.8027C28.2426 44.8008 28.548 44.7846 28.8122 44.7846C29.0498 44.7846 29.3541 44.8009 29.5339 44.8027V44.7065H29.4667C29.248 44.7056 29.0706 44.6534 29.07 44.2991V41.8818H29.8362C30.1417 41.8831 30.1818 42.1402 30.1904 42.3073L30.2898 42.2714C30.2898 42.1539 30.2901 42.0362 30.2989 41.9181C30.3115 41.8022 30.3285 41.6866 30.3453 41.5716L30.2765 41.5601C30.2557 41.6913 30.1272 41.6985 30.0139 41.6966H27.665H27.642C27.5347 41.6978 27.4186 41.6916 27.3772 41.565H27.3028C27.3015 41.69 27.293 41.8112 27.275 41.9312C27.263 42.0552 27.2406 42.1746 27.2236 42.293H27.3211C27.3813 41.979 27.4208 41.8771 27.761 41.8818V41.9018V41.9215C27.4236 41.9272 27.4312 41.9837 27.3567 42.3167L27.3532 42.332H27.3374H27.1777L27.1806 42.3095C27.1995 42.1824 27.2222 42.0568 27.2355 41.9265C27.2541 41.8006 27.263 41.6756 27.263 41.5463V41.5266H27.2825H27.4068L27.4106 41.5407C27.4425 41.6544 27.5255 41.655 27.642 41.6569L27.665 41.6575H30.0139C30.1395 41.6551 30.2313 41.6531 30.2392 41.5357L30.2405 41.5142L30.2619 41.5186L30.391 41.5386L30.3876 41.5582C30.3689 41.6788 30.3516 41.8007 30.3377 41.9216C30.3285 42.0415 30.3285 42.1637 30.3285 42.2849V42.2989L30.3156 42.3039L30.1543 42.362L30.1534 42.3358C30.1417 42.1665 30.1237 41.9215 29.8362 41.9215H29.1095V44.2991C29.1142 44.639 29.2502 44.6625 29.4667 44.6668H29.5734V44.6862V44.8411L29.5538 44.8412Z" fill="white"/>
<path d="M30.5352 44.6846H30.5989C30.7633 44.6846 30.9353 44.6627 30.9353 44.4281V42.0677C30.9353 41.8327 30.7633 41.8106 30.5989 41.8106H30.5352V41.6753C30.7129 41.6753 30.9855 41.6931 31.208 41.6931C31.4365 41.6931 31.7095 41.6753 31.9234 41.6753V41.8106H31.8597C31.6959 41.8106 31.5223 41.8327 31.5223 42.0677V44.4281C31.5223 44.6627 31.6959 44.6846 31.8597 44.6846H31.9234V44.8205C31.7047 44.8205 31.4314 44.8027 31.2045 44.8027C30.9811 44.8027 30.7129 44.8205 30.5352 44.8205V44.6846Z" fill="white"/>
<path d="M31.9247 44.8394C31.7048 44.8394 31.4324 44.8209 31.2055 44.8209C30.983 44.8209 30.7142 44.8394 30.5365 44.8394H30.5166V44.8203V44.6844V44.665H30.5365H30.6002C30.7646 44.6625 30.9155 44.6485 30.9161 44.4279V42.0675C30.9155 41.8475 30.7646 41.8325 30.6002 41.8294H30.5166V41.8104V41.6558H30.5365C30.7142 41.6558 30.9874 41.6729 31.2093 41.6729C31.4362 41.6729 31.7092 41.6558 31.9247 41.6558H31.944V41.6751V41.8294H31.9247H31.8609C31.6946 41.8325 31.5454 41.8475 31.5432 42.0675V44.4279C31.5454 44.6485 31.6947 44.6625 31.8609 44.665H31.944V44.6844V44.8394H31.9247ZM31.9042 44.8V44.7047H31.8609C31.6978 44.7047 31.5047 44.6763 31.5047 44.4279V42.0675C31.5047 41.8185 31.6978 41.7904 31.8609 41.7904H31.9042V41.6948C31.694 41.696 31.4312 41.7123 31.2093 41.7123C30.9937 41.7123 30.7327 41.696 30.5564 41.6948V41.7904H30.6003C30.7621 41.7904 30.9559 41.8185 30.9565 42.0675V44.4279C30.9559 44.6763 30.7621 44.7047 30.6003 44.7047H30.5564V44.8C30.7319 44.7981 30.9894 44.7828 31.2055 44.7828C31.4261 44.7828 31.6896 44.7991 31.9042 44.8H31.9042Z" fill="white"/>
<path d="M33.7391 41.6074C34.7092 41.6074 35.4824 42.2028 35.4824 43.1622C35.4824 44.1988 34.7316 44.8876 33.7628 44.8876C32.7971 44.8876 32.0605 44.2387 32.0605 43.27C32.0605 42.3331 32.7927 41.6074 33.7391 41.6074ZM33.8079 44.6892C34.6909 44.6892 34.8446 43.9182 34.8446 43.2612C34.8446 42.6027 34.4861 41.8055 33.7303 41.8055C32.9338 41.8055 32.6974 42.5084 32.6974 43.1116C32.6974 43.9182 33.0704 44.6892 33.8079 44.6892Z" fill="white"/>
<path d="M32.04 43.2711C32.042 42.3233 32.7829 41.5901 33.7388 41.5889V41.6085V41.6276C32.8035 41.6276 32.0795 42.3439 32.0786 43.2711C32.0808 44.2289 32.8069 44.868 33.7625 44.8683C34.7218 44.868 35.4619 44.1889 35.4635 43.1624C35.4625 42.2152 34.701 41.6288 33.7389 41.6276V41.6085V41.5889C34.7165 41.5895 35.5001 42.1908 35.502 43.1624C35.5011 44.2098 34.7405 44.9059 33.7625 44.9077C32.7892 44.9058 32.042 44.2504 32.0401 43.2711H32.04V43.2711ZM32.6776 43.1127C32.6788 42.5067 32.918 41.7863 33.7303 41.7863C34.5029 41.7882 34.8636 42.6004 34.8648 43.2624C34.8636 43.9193 34.7074 44.7091 33.808 44.7091V44.6903V44.6709C34.6733 44.6697 34.8232 43.9193 34.8253 43.2624C34.8253 42.6092 34.47 41.8273 33.7303 41.8263C32.9496 41.8272 32.7185 42.5126 32.717 43.1127C32.7177 43.9153 33.0872 44.6691 33.808 44.6709V44.6903V44.7091C33.0525 44.7081 32.6788 43.924 32.6776 43.1127Z" fill="white"/>
<path d="M38.5495 43.9324L38.5587 43.9236V42.2342C38.5587 41.8643 38.2987 41.8106 38.162 41.8106H38.0635V41.6753C38.2769 41.6753 38.4861 41.6931 38.6994 41.6931C38.8866 41.6931 39.0731 41.6753 39.2599 41.6753V41.8106H39.1911C39.0005 41.8106 38.7862 41.8465 38.7862 42.3826V44.4331C38.7862 44.5906 38.7907 44.748 38.8137 44.8877H38.641L36.2969 42.3014V44.1579C36.2969 44.55 36.3739 44.6846 36.7242 44.6846H36.8021V44.8205C36.6062 44.8205 36.4109 44.8027 36.2152 44.8027C36.0103 44.8027 35.8005 44.8205 35.5957 44.8205V44.6846H35.6597C35.9744 44.6846 36.0688 44.4734 36.0688 44.1133V42.2155C36.0688 41.9634 35.8604 41.8106 35.655 41.8106H35.5957V41.6754C35.7686 41.6754 35.9463 41.6931 36.1189 41.6931C36.2556 41.6931 36.3872 41.6754 36.5241 41.6754L38.5495 43.9324Z" fill="white"/>
<path d="M38.8138 44.9068L38.6254 44.9002L36.3163 42.3521V44.1577C36.3213 44.5495 36.3816 44.6604 36.7233 44.6644H36.8218V44.6847V44.8394H36.8019C36.6047 44.8394 36.4094 44.8212 36.2149 44.8212C36.0107 44.8212 35.8018 44.8394 35.5951 44.8394H35.5762V44.82V44.6644H35.5951H35.6595C35.9596 44.6635 36.0458 44.4723 36.0495 44.113V42.2153C36.0489 41.9753 35.8504 41.8298 35.6548 41.8295H35.5762V41.8104V41.6558H35.5951C35.7697 41.6558 35.947 41.673 36.1187 41.673C36.2538 41.673 36.385 41.6558 36.539 41.6624L38.5386 43.8913V42.2343C38.5373 41.8757 38.2949 41.8326 38.1617 41.8295H38.0422V41.8105V41.6558H38.0627C38.2769 41.6558 38.4868 41.673 38.6985 41.673C38.8853 41.673 39.0709 41.6558 39.2596 41.6558H39.2792V41.6752V41.8295H39.2596H39.1908C39.0036 41.8348 38.8099 41.8517 38.8061 42.3824V44.4327C38.8061 44.5901 38.8096 44.7472 38.8317 44.885L38.8355 44.9068H38.8138V44.9068ZM38.6409 44.8674H38.7898C38.77 44.7322 38.7665 44.5822 38.7665 44.4326V42.3824C38.7665 41.8407 38.9959 41.7916 39.191 41.7901H39.2402V41.6948C39.0606 41.696 38.8808 41.7123 38.6987 41.7123C38.4916 41.7123 38.2881 41.696 38.082 41.6948V41.7901H38.1618C38.3029 41.7916 38.5774 41.8532 38.5774 42.2343L38.5725 43.9368L38.5639 43.9462L38.5494 43.9606L36.524 41.6948C36.3899 41.6948 36.257 41.7123 36.1188 41.7123C35.9512 41.7123 35.7805 41.6961 35.6148 41.6948V41.7901H35.6549C35.8686 41.7917 36.0885 41.9513 36.0885 42.2153V44.113C36.0885 44.4732 35.9869 44.7038 35.6596 44.705L35.6148 44.7047V44.8C35.8124 44.7991 36.015 44.7828 36.215 44.7828C36.4047 44.7828 36.5931 44.7991 36.7822 44.8V44.705H36.7234C36.3663 44.7047 36.277 44.5495 36.277 44.1577V42.2505L38.6409 44.8674ZM38.5494 43.9318L38.5638 43.919L38.5494 43.9318ZM38.5386 43.9234V43.9218L38.5348 43.9184L38.5386 43.9234Z" fill="white"/>
<path d="M39.991 44.1748C39.9465 44.3276 39.8913 44.4457 39.8913 44.526C39.8913 44.6615 40.0829 44.6834 40.2322 44.6834H40.2829V44.8193C40.1009 44.8096 39.9141 44.8015 39.732 44.8015C39.5675 44.8015 39.4044 44.8096 39.2412 44.8193V44.6834H39.2671C39.4454 44.6834 39.5962 44.58 39.6635 44.3904L40.3925 42.3229C40.4511 42.1561 40.5335 41.9309 40.5601 41.7638C40.7058 41.7147 40.8876 41.6248 40.975 41.5704C40.9879 41.5658 40.9971 41.561 41.011 41.561C41.0246 41.561 41.0331 41.561 41.0423 41.5751C41.0561 41.6107 41.0704 41.6516 41.0839 41.6876L41.9208 44.0442C41.9754 44.2017 42.0297 44.3682 42.0897 44.5038C42.1443 44.63 42.2402 44.6834 42.3898 44.6834H42.4176V44.8193C42.2125 44.8096 42.0076 44.8015 41.789 44.8015C41.5664 44.8015 41.3386 44.8096 41.1063 44.8193V44.6834H41.1569C41.2607 44.6834 41.4393 44.6659 41.4393 44.5531C41.4393 44.4947 41.3979 44.3732 41.3471 44.2286L41.1704 43.7059H40.1372L39.991 44.1748ZM40.6563 42.1786H40.6472L40.2233 43.4538H41.075L40.6563 42.1786Z" fill="white"/>
<path d="M42.416 44.8398C42.2112 44.8317 42.0067 44.8217 41.7893 44.8217C41.5674 44.8217 41.3396 44.8317 41.1073 44.8398L41.0871 44.841V44.8204V44.6655H41.1067H41.1562C41.2622 44.6655 41.4191 44.6411 41.4194 44.5546C41.4203 44.5033 41.3793 44.3806 41.3286 44.2362L41.1556 43.7267H40.1511L40.0103 44.1819C39.9649 44.3362 39.9106 44.4546 39.9116 44.5274C39.9116 44.638 40.082 44.6655 40.2325 44.6655H40.3019V44.6848V44.841L40.2818 44.8398C40.0997 44.8317 39.9134 44.8217 39.7324 44.8217C39.5692 44.8217 39.4057 44.8317 39.2416 44.8398L39.2217 44.841V44.8204V44.6655H39.2416H39.2675C39.4372 44.6648 39.5792 44.5683 39.6455 44.3856L40.3739 42.3178C40.432 42.1507 40.514 41.9261 40.5544 41.7471C40.6974 41.6981 40.8801 41.6081 40.9684 41.5531C40.9804 41.549 40.9927 41.5437 41.0113 41.5437C41.0234 41.5425 41.0466 41.5453 41.0612 41.5699C41.0748 41.6053 41.088 41.6462 41.1032 41.6827L41.9401 44.0391C41.9944 44.1972 42.049 44.3637 42.108 44.4977C42.1613 44.617 42.2443 44.6642 42.3895 44.6655H42.4368V44.6848V44.841L42.416 44.8398ZM41.1263 44.8001C41.3512 44.7916 41.5728 44.7829 41.7893 44.7829C42.001 44.7829 42.1996 44.7916 42.3977 44.7995L42.3971 44.7054H42.3895C42.2355 44.7057 42.1279 44.6458 42.0714 44.513C42.0114 44.3762 41.9572 44.209 41.9029 44.0519L41.0653 41.6952C41.0517 41.6593 41.0379 41.6184 41.0268 41.5877C41.023 41.5821 41.0234 41.5821 41.0199 41.5821H41.0113C41.0019 41.5821 40.9968 41.5852 40.9857 41.5884C40.8971 41.6437 40.7147 41.7336 40.5799 41.7683C40.5518 41.9389 40.4692 42.1635 40.4105 42.3306L39.6818 44.3987C39.6127 44.5942 39.4537 44.7057 39.2674 44.7054H39.2608V44.7995C39.4173 44.7916 39.5738 44.7829 39.7323 44.7829C39.9087 44.7829 40.0882 44.7916 40.2634 44.7995V44.7054H40.2325C40.0845 44.7035 39.8768 44.6876 39.8715 44.5274C39.8724 44.438 39.9289 44.3234 39.9728 44.1706L39.9914 44.1765L39.9728 44.17L40.1227 43.6882H41.184L41.3664 44.2237C41.4165 44.3687 41.4579 44.4883 41.4579 44.5545C41.4512 44.6929 41.2603 44.7026 41.1562 44.7054H41.1262V44.8001H41.1263ZM40.1965 43.4743L40.633 42.1604H40.6468H40.6567V42.18L40.6519 42.181L40.6567 42.18V42.1604H40.6709L41.101 43.4743H40.1965ZM40.2511 43.4355H41.0471L40.6513 42.2288L40.2511 43.4355ZM40.6377 42.1857L40.6468 42.1823L40.6377 42.1857Z" fill="white"/>
<path d="M43.5642 44.3787C43.5642 44.559 43.6904 44.6127 43.8363 44.6312C44.0228 44.6449 44.2276 44.6449 44.4378 44.6221C44.6284 44.5993 44.7925 44.4912 44.8739 44.3787C44.9465 44.2794 44.9875 44.1532 45.0149 44.0542H45.1469C45.097 44.311 45.0333 44.564 44.9783 44.8205C44.5788 44.8205 44.1774 44.8027 43.7775 44.8027C43.3765 44.8027 42.9766 44.8205 42.5762 44.8205V44.6845H42.6386C42.8034 44.6845 42.9814 44.6627 42.9814 44.3831V42.0677C42.9814 41.8327 42.8034 41.8106 42.6386 41.8106H42.5762V41.6753C42.8166 41.6753 43.0536 41.6931 43.2944 41.6931C43.5273 41.6931 43.7546 41.6753 43.9868 41.6753V41.8106H43.8722C43.6999 41.8106 43.5642 41.8156 43.5642 42.0536V44.3787Z" fill="white"/>
<path d="M44.9781 44.8393C44.577 44.8393 44.1766 44.8212 43.7773 44.8212C43.3765 44.8212 42.976 44.8393 42.5749 44.8393H42.5557V44.82V44.665H42.5749H42.6384C42.8034 44.6613 42.9593 44.65 42.9612 44.3829V42.0666C42.9593 41.8476 42.8043 41.8326 42.6384 41.8294H42.5557V41.8104V41.6558H42.5749C42.817 41.6558 43.054 41.6729 43.2944 41.6729C43.5254 41.6729 43.7527 41.6558 43.9865 41.6558H44.0052V41.6751V41.8294H43.9865H43.8723C43.6959 41.8344 43.5861 41.8263 43.5826 42.0534V44.3786C43.5838 44.5463 43.695 44.5916 43.837 44.6113C43.9174 44.6169 44.0017 44.6204 44.0895 44.6204C44.2008 44.6204 44.3166 44.6151 44.4341 44.6026C44.6196 44.581 44.7793 44.4751 44.8576 44.3676C44.9276 44.2714 44.968 44.1477 44.9951 44.0493L44.9993 44.0344H45.0144H45.1706L45.1665 44.0581C45.1151 44.3158 45.0526 44.5676 44.9974 44.8241L44.9936 44.8394H44.9782H44.9781V44.8393ZM44.9617 44.8C45.0144 44.5557 45.074 44.3167 45.123 44.073H45.0295C45.0011 44.1711 44.9607 44.292 44.8891 44.3904C44.8042 44.5072 44.6357 44.6172 44.4384 44.6412C44.3192 44.6534 44.2011 44.6597 44.0894 44.6597C44.0013 44.6597 43.9159 44.6556 43.8335 44.65C43.6855 44.6337 43.5419 44.5712 43.5425 44.3785V42.0534C43.5425 41.8031 43.7025 41.7903 43.8723 41.7903H43.9663V41.6947C43.742 41.696 43.5211 41.7125 43.2944 41.7125C43.0587 41.7125 42.8283 41.696 42.5948 41.6947V41.7903H42.6383C42.8009 41.7903 42.9997 41.8185 42.9997 42.0665V44.3829C42.9997 44.6744 42.8018 44.7047 42.6383 44.7047H42.5948V44.7999C42.9883 44.7996 43.3819 44.7828 43.7773 44.7828C44.1727 44.7828 44.5679 44.7996 44.9617 44.8Z" fill="white"/>
<path d="M45.0917 41.5469C45.3659 41.5469 45.5707 41.7556 45.5707 42.023C45.5707 42.2891 45.3659 42.4959 45.0917 42.4959C44.8174 42.4959 44.6123 42.2891 44.6123 42.023C44.6123 41.7556 44.8174 41.5469 45.0917 41.5469ZM45.0917 42.4075C45.3059 42.4075 45.4707 42.2263 45.4707 42.023C45.4707 41.8183 45.3084 41.6356 45.0917 41.6356C44.8761 41.6356 44.7114 41.8184 44.7114 42.023C44.7114 42.2263 44.8761 42.4075 45.0917 42.4075ZM44.8531 42.2729V42.2494C44.9121 42.2413 44.9228 42.2432 44.9228 42.207V41.8558C44.9228 41.8065 44.9174 41.7896 44.8553 41.7921V41.768H45.1005C45.185 41.768 45.2623 41.8077 45.2623 41.8939C45.2623 41.9645 45.215 42.0167 45.149 42.037L45.2276 42.1457C45.2645 42.1951 45.3059 42.2413 45.3333 42.2575V42.2728H45.2399C45.1951 42.2728 45.156 42.1794 45.0676 42.0542H45.0146V42.2119C45.0146 42.2432 45.0257 42.2413 45.0847 42.2494V42.2728H44.8531V42.2729ZM45.0146 42.023H45.0711C45.1329 42.023 45.162 41.9764 45.162 41.9018C45.162 41.8262 45.1172 41.7996 45.068 41.7996H45.0146V42.023Z" fill="white"/>
<path d="M6.81635 35.0084C6.81635 34.2636 6.42405 34.3127 6.04788 34.3046V34.0894C6.37388 34.1053 6.70808 34.1053 7.03474 34.1053C7.38598 34.1053 7.86282 34.0894 8.48196 34.0894C10.6475 34.0894 11.8268 35.5214 11.8268 36.9877C11.8268 37.8077 11.3421 39.8692 8.38129 39.8692C7.95494 39.8692 7.56141 39.8529 7.16851 39.8529C6.79234 39.8529 6.42406 39.8611 6.04785 39.8692V39.6543C6.54934 39.6043 6.79234 39.5878 6.81632 39.0245V35.0084H6.81635ZM7.63623 38.8924C7.63623 39.53 8.09667 39.6043 8.50629 39.6043C10.3133 39.6043 10.9066 38.2545 10.9066 37.0205C10.9066 35.4726 9.90274 34.3549 8.28889 34.3549C7.94553 34.3549 7.78774 34.3792 7.63627 34.388L7.63623 38.8924Z" fill="white"/>
<path d="M12.1201 39.6556H12.2785C12.5124 39.6556 12.68 39.6556 12.68 39.3816V37.138C12.68 36.7741 12.5547 36.7234 12.2451 36.5588V36.426C12.638 36.3092 13.107 36.153 13.1398 36.128C13.1988 36.0949 13.2487 36.0862 13.2906 36.0862C13.332 36.0862 13.3493 36.1361 13.3493 36.2027V39.3816C13.3493 39.6556 13.5333 39.6556 13.7675 39.6556H13.9095V39.8708C13.6248 39.8708 13.332 39.8543 13.0315 39.8543C12.7305 39.8543 12.4291 39.8624 12.1201 39.8708V39.6556H12.1201ZM13.0148 34.8112C12.7971 34.8112 12.6052 34.6126 12.6052 34.3973C12.6052 34.1899 12.8059 33.999 13.0148 33.999C13.2316 33.999 13.4247 34.1737 13.4247 34.3973C13.4247 34.621 13.2401 34.8112 13.0148 34.8112Z" fill="white"/>
<path d="M14.7034 37.1866C14.7034 36.8805 14.6109 36.798 14.2187 36.6406V36.4835C14.5781 36.3676 14.9205 36.2598 15.3222 36.0855C15.3472 36.0855 15.3718 36.1023 15.3718 36.1683V36.7068C15.8493 36.3676 16.2592 36.0854 16.8203 36.0854C17.5304 36.0854 17.7812 36.599 17.7812 37.2447V39.3809C17.7812 39.6549 17.9652 39.6549 18.1997 39.6549H18.3502V39.8701C18.0567 39.8701 17.7642 39.8536 17.4638 39.8536C17.1623 39.8536 16.8609 39.8617 16.5602 39.8701V39.6549H16.7104C16.9452 39.6549 17.1116 39.6549 17.1116 39.3809V37.2369C17.1116 36.7642 16.8203 36.5328 16.3428 36.5328C16.0755 36.5328 15.6488 36.748 15.3717 36.9304V39.3808C15.3717 39.6548 15.5566 39.6548 15.7912 39.6548H15.9414V39.8701C15.6488 39.8701 15.3556 39.8535 15.0546 39.8535C14.7538 39.8535 14.4521 39.8617 14.1514 39.8701V39.6548H14.3022C14.5364 39.6548 14.7033 39.6548 14.7033 39.3808V37.1866H14.7034Z" fill="white"/>
<path d="M18.9868 37.5846C18.9694 37.6593 18.9694 37.7833 18.9868 38.0651C19.0361 38.8514 19.5476 39.4971 20.2156 39.4971C20.6761 39.4971 21.0365 39.2488 21.3454 38.9426L21.4622 39.0588C21.0772 39.5637 20.6006 39.9941 19.9152 39.9941C18.585 39.9941 18.3174 38.7186 18.3174 38.1891C18.3174 36.5659 19.4213 36.0854 20.0064 36.0854C20.6842 36.0854 21.4123 36.5075 21.4202 37.3853C21.4202 37.4356 21.4202 37.4847 21.4123 37.535L21.3366 37.5846H18.9868ZM20.4675 37.3194C20.6761 37.3194 20.7007 37.2117 20.7007 37.1126C20.7007 36.6902 20.4416 36.3507 19.973 36.3507C19.4633 36.3507 19.112 36.7227 19.0117 37.3194H20.4675Z" fill="white"/>
<path d="M21.6123 39.6549H21.8383C22.0717 39.6549 22.239 39.6549 22.239 39.3809V37.0545C22.239 36.798 21.9301 36.748 21.8042 36.6818V36.5581C22.4148 36.301 22.7496 36.0854 22.8257 36.0854C22.8752 36.0854 22.8998 36.1104 22.8998 36.1935V36.9386H22.9175C23.1261 36.6159 23.478 36.0854 23.9877 36.0854C24.1969 36.0854 24.4642 36.226 24.4642 36.5244C24.4642 36.748 24.3058 36.9473 24.0717 36.9473C23.8113 36.9473 23.8113 36.748 23.5191 36.748C23.3767 36.748 22.9087 36.9386 22.9087 37.4356V39.3809C22.9087 39.6549 23.0757 39.6549 23.3101 39.6549H23.7781V39.8701C23.318 39.8617 22.968 39.8536 22.6076 39.8536C22.265 39.8536 21.9134 39.8617 21.6123 39.8701V39.6549H21.6123Z" fill="white"/>
<path d="M24.8325 38.7186C24.9414 39.2653 25.2756 39.7292 25.8866 39.7292C26.3789 39.7292 26.5631 39.4312 26.5631 39.1413C26.5631 38.1641 24.7403 38.4787 24.7403 37.1457C24.7403 36.6818 25.1171 36.0854 26.0367 36.0854C26.3041 36.0854 26.6635 36.1604 26.9895 36.3263L27.0488 37.1701H26.856C26.7727 36.649 26.4802 36.3507 25.9443 36.3507C25.6098 36.3507 25.2923 36.5413 25.2923 36.8971C25.2923 37.8667 27.2325 37.5678 27.2325 38.8677C27.2325 39.414 26.7891 39.9941 25.7937 39.9941C25.4592 39.9941 25.0663 39.8782 24.7738 39.713L24.6816 38.7605L24.8325 38.7186Z" fill="white"/>
<path d="M34.784 35.5898H34.5754C34.4164 34.6214 33.7221 34.2318 32.7858 34.2318C31.8232 34.2318 30.4265 34.8691 30.4265 36.8563C30.4265 38.5301 31.6316 39.7303 32.9192 39.7303C33.747 39.7303 34.4334 39.1673 34.6006 38.2976L34.7925 38.347L34.6006 39.5559C34.2494 39.7718 33.3042 39.9952 32.7516 39.9952C30.795 39.9952 29.5576 38.7447 29.5576 36.8816C29.5576 35.184 31.0879 33.9663 32.727 33.9663C33.4043 33.9663 34.0566 34.1825 34.7007 34.4062L34.784 35.5898Z" fill="white"/>
<path d="M35.086 39.6547H35.2444C35.4789 39.6547 35.6468 39.6547 35.6468 39.3807V34.7691C35.6468 34.2306 35.5212 34.214 35.203 34.1231V33.9906C35.5376 33.8832 35.8888 33.7338 36.0646 33.6342C36.1558 33.5849 36.2233 33.543 36.2479 33.543C36.2991 33.543 36.3158 33.593 36.3158 33.6595V39.3807C36.3158 39.6547 36.4994 39.6547 36.7339 39.6547H36.875V39.8699C36.5919 39.8699 36.2991 39.8533 35.9977 39.8533C35.697 39.8533 35.3959 39.8615 35.0859 39.8699V39.6547H35.086Z" fill="white"/>
<path d="M40.4569 39.4144C40.4569 39.5641 40.5484 39.5722 40.6904 39.5722C40.7911 39.5722 40.9161 39.5641 41.0252 39.5641V39.7384C40.6652 39.7712 39.9794 39.9452 39.8203 39.9946L39.7784 39.9695V39.2995C39.2773 39.7049 38.8919 39.9946 38.2977 39.9946C37.8461 39.9946 37.3778 39.7049 37.3778 39.0099V36.8893C37.3778 36.6741 37.3446 36.467 36.877 36.4258V36.2683C37.1784 36.2602 37.8461 36.2105 37.9553 36.2105C38.0481 36.2105 38.0481 36.2683 38.0481 36.4504V38.5862C38.0481 38.8352 38.0481 39.5472 38.7752 39.5472C39.0595 39.5472 39.4357 39.3319 39.7866 39.043V36.8143C39.7866 36.6494 39.3855 36.5585 39.0851 36.4754V36.3263C39.8368 36.2764 40.306 36.2104 40.3891 36.2104C40.4569 36.2104 40.4569 36.2682 40.4569 36.3598V39.4144H40.4569Z" fill="white"/>
<path d="M42.1206 36.6816C42.4548 36.4001 42.9064 36.0853 43.3668 36.0853C44.3372 36.0853 44.922 36.9225 44.922 37.8243C44.922 38.909 44.1195 39.9939 42.9228 39.9939C42.3042 39.9939 41.9782 39.7949 41.7605 39.7043L41.5099 39.8942L41.3348 39.8036C41.409 39.3151 41.4516 38.8346 41.4516 38.3298V34.7691C41.4516 34.2306 41.3253 34.214 41.0078 34.1231V33.9906C41.3433 33.8832 41.6936 33.7338 41.8694 33.6342C41.9615 33.5848 42.0281 33.543 42.054 33.543C42.1039 33.543 42.1206 33.593 42.1206 33.6595V36.6816H42.1206V36.6816ZM42.1206 38.9337C42.1206 39.2486 42.4214 39.779 42.9818 39.779C43.8768 39.779 44.253 38.909 44.253 38.1718C44.253 37.2777 43.5679 36.5326 42.9152 36.5326C42.605 36.5326 42.3462 36.7316 42.1206 36.9225V38.9337H42.1206Z" fill="white"/>
<path d="M10.5525 43.9324L10.5616 43.9236V42.2342C10.5616 41.8643 10.3019 41.8106 10.1656 41.8106H10.0652V41.6753C10.2795 41.6753 10.4887 41.6931 10.7024 41.6931C10.8888 41.6931 11.0763 41.6753 11.2625 41.6753V41.8106H11.1944C11.0028 41.8106 10.7888 41.8465 10.7888 42.3826V44.4331C10.7888 44.5906 10.7935 44.748 10.816 44.8877H10.6427L8.29954 42.3014V44.1579C8.29954 44.55 8.37622 44.6846 8.72715 44.6846H8.80412V44.8205C8.60881 44.8205 8.41343 44.8027 8.21745 44.8027C8.01327 44.8027 7.80376 44.8205 7.59863 44.8205V44.6846H7.66238C7.97638 44.6846 8.07172 44.4734 8.07172 44.1133V42.2155C8.07172 41.9634 7.86186 41.8106 7.65799 41.8106H7.59866V41.6754C7.77157 41.6754 7.94896 41.6931 8.12158 41.6931C8.2582 41.6931 8.39046 41.6754 8.52676 41.6754L10.5525 43.9324Z" fill="white"/>
<path d="M10.8157 44.9071L10.628 44.9002L8.31854 42.3521V44.1577C8.32391 44.5495 8.38418 44.6607 8.7269 44.665H8.82442V44.6844V44.8394H8.80422C8.6073 44.8394 8.41132 44.8212 8.21721 44.8212C8.01334 44.8212 7.80443 44.8394 7.59804 44.8394H7.57816V44.82V44.665H7.59804H7.6621C7.96285 44.6635 8.04869 44.4723 8.05216 44.113V42.2156C8.0515 41.9757 7.85271 41.8301 7.65768 41.8295H7.57812V41.8095V41.6558H7.598C7.77192 41.6558 7.95019 41.6729 8.12092 41.6729C8.25631 41.6729 8.38825 41.6558 8.54159 41.6623L10.5417 43.8913V42.2343C10.5392 41.8757 10.2978 41.8326 10.1653 41.8295H10.0447V41.8095V41.6558H10.0649C10.2798 41.6558 10.4894 41.6729 10.7021 41.6729C10.8873 41.6729 11.0738 41.6558 11.2619 41.6558H11.2818V41.6751V41.8294H11.2619H11.194C11.0063 41.8348 10.8135 41.851 10.8081 42.3824V44.4326C10.8081 44.59 10.8128 44.7475 10.835 44.884L10.8394 44.9071H10.8157V44.9071ZM10.6428 44.8674H10.7934C10.7729 44.7322 10.7694 44.5822 10.7694 44.4326V42.3824C10.7694 41.8416 10.9982 41.7904 11.1941 41.7904H11.2421V41.6948C11.0629 41.696 10.883 41.7123 10.7022 41.7123C10.4939 41.7123 10.2913 41.696 10.0852 41.6948L10.0849 41.7904H10.1654C10.3052 41.7904 10.5813 41.8522 10.5813 42.2343L10.575 43.9368L10.5659 43.9462L10.5504 43.9603L8.52657 41.6948C8.39153 41.6948 8.25959 41.7123 8.12105 41.7123C7.95411 41.7123 7.78338 41.696 7.61833 41.6948L7.61738 41.7904H7.65778C7.87143 41.7904 8.09075 41.9519 8.09075 42.2155V44.113C8.09075 44.4732 7.98945 44.7037 7.6622 44.705L7.61833 44.7037V44.8009C7.81557 44.799 8.01817 44.7828 8.21727 44.7828C8.40728 44.7828 8.59631 44.799 8.78437 44.8009V44.705H8.72697C8.36875 44.7037 8.27979 44.5494 8.27944 44.1577V42.2505L10.6428 44.8674ZM10.5522 43.9318L10.5667 43.9187L10.5522 43.9318ZM10.5418 43.9231V43.9215L10.538 43.9184L10.5418 43.9231Z" fill="white"/>
<path d="M11.9443 41.8995C11.6025 41.8995 11.5896 41.9808 11.5214 42.3094H11.3848C11.4028 42.1835 11.4255 42.0576 11.4394 41.9264C11.4576 41.8002 11.4665 41.6746 11.4665 41.544H11.576C11.6126 41.6793 11.7262 41.6746 11.8496 41.6746H14.1972C14.3203 41.6746 14.4339 41.6702 14.4434 41.5347L14.5519 41.5528C14.5342 41.6746 14.5159 41.7961 14.502 41.9179C14.4938 42.0395 14.4938 42.1613 14.4938 42.2825L14.3569 42.3328C14.3474 42.1663 14.3247 41.8995 14.0202 41.8995H13.2738V44.2968C13.2738 44.6442 13.4332 44.6839 13.6509 44.6839H13.7377V44.8198C13.5604 44.8198 13.2413 44.802 12.9961 44.802C12.7231 44.802 12.4041 44.8198 12.2264 44.8198V44.6839H12.3132C12.5641 44.6839 12.6909 44.6617 12.6909 44.3062V41.8995H11.9443Z" fill="white"/>
<path d="M13.7387 44.8412C13.5594 44.8412 13.241 44.8231 12.9964 44.8231C12.7237 44.8231 12.4053 44.8412 12.2267 44.8412H12.2077V44.8222V44.6669H12.2267H12.3135C12.5644 44.661 12.6653 44.6578 12.671 44.3085V41.9216H11.9446V41.9019V41.8819H12.7105V44.3085C12.7105 44.67 12.5634 44.7065 12.3135 44.7069H12.2466V44.8018C12.4262 44.8009 12.7323 44.7846 12.9964 44.7846C13.2338 44.7846 13.5379 44.8009 13.7178 44.8018V44.7069H13.6512C13.4313 44.7065 13.2542 44.6531 13.2542 44.2992V41.8819H14.0205C14.326 41.8831 14.3657 42.1402 14.3758 42.3074L14.474 42.2714C14.474 42.154 14.4746 42.0362 14.4828 41.9175C14.4961 41.8016 14.5128 41.6866 14.5298 41.5717L14.4604 41.5601C14.4392 41.6913 14.3114 41.6979 14.1968 41.6966H11.8499H11.8262C11.7192 41.6966 11.6021 41.6916 11.5614 41.5658H11.4863C11.4857 41.6904 11.4768 41.8113 11.4595 41.9312C11.4462 42.055 11.4254 42.174 11.4083 42.293H11.5059C11.5658 41.979 11.605 41.8772 11.9445 41.8819V41.9019V41.9216C11.6081 41.9275 11.6151 41.9837 11.5409 42.3168L11.5375 42.3321H11.5217H11.3623L11.3648 42.3086C11.3831 42.1824 11.4062 42.0568 11.4197 41.9256C11.4387 41.8007 11.4475 41.6757 11.4475 41.5464V41.5267H11.4668H11.5917L11.5949 41.5407C11.6261 41.6545 11.7104 41.6551 11.8262 41.657H11.8499H14.1968C14.3237 41.6551 14.4159 41.6532 14.4238 41.5354L14.4256 41.5142L14.4462 41.5185L14.5746 41.5386L14.5717 41.5582C14.5534 41.6788 14.5355 41.8007 14.5222 41.9216C14.5131 42.0415 14.5131 42.1633 14.5131 42.2849V42.2989L14.5004 42.3039L14.3392 42.362L14.3379 42.3358C14.3259 42.1664 14.3079 41.9215 14.0204 41.9215H13.294V44.2991C13.2981 44.639 13.4344 44.6625 13.6512 44.6668H13.7578V44.6862V44.8411L13.7387 44.8412Z" fill="white"/>
<path d="M14.6963 44.6846H14.7604C14.9239 44.6846 15.0971 44.6627 15.0971 44.4281V42.0677C15.0971 41.8327 14.9239 41.8106 14.7604 41.8106H14.6963V41.6753C14.9734 41.6753 15.4474 41.6931 15.8289 41.6931C16.212 41.6931 16.6845 41.6753 16.9937 41.6753C16.9862 41.8687 16.9903 42.1667 17.0038 42.3645L16.8665 42.4007C16.8448 42.108 16.7902 41.874 16.3121 41.874H15.68V43.0539H16.2209C16.4938 43.0539 16.5535 42.9012 16.5803 42.6572H16.7167C16.7079 42.8337 16.7031 43.0093 16.7031 43.1848C16.7031 43.3563 16.7078 43.5272 16.7167 43.6984L16.5803 43.7252C16.5535 43.4551 16.5397 43.2795 16.2253 43.2795H15.68V44.3288C15.68 44.6221 15.9429 44.6221 16.2345 44.6221C16.7807 44.6221 17.0215 44.5856 17.1582 44.0726L17.2857 44.1036C17.2261 44.3428 17.1718 44.5812 17.1314 44.8205C16.8398 44.8205 16.3162 44.8027 15.9072 44.8027C15.4969 44.8027 14.9558 44.8205 14.6963 44.8205V44.6846Z" fill="white"/>
<path d="M17.1317 44.8394C16.8394 44.8394 16.3162 44.8209 15.9076 44.8209C15.4976 44.8209 14.9567 44.8394 14.697 44.8394H14.6777V44.8203V44.6844V44.665H14.697H14.7607C14.9257 44.6625 15.0753 44.6482 15.0776 44.4279V42.0675C15.0754 41.8475 14.9257 41.8329 14.7607 41.8294H14.6777V41.8104V41.6558H14.697C14.9747 41.6558 15.448 41.6729 15.8296 41.6729C16.2123 41.6729 16.6845 41.6558 16.9944 41.6558H17.0149L17.0139 41.6758C17.0108 41.7435 17.0095 41.8235 17.0095 41.9085C17.0095 42.0643 17.0139 42.2346 17.0231 42.363L17.0237 42.3793L17.0086 42.3837L16.8486 42.4249L16.8477 42.4018C16.8208 42.1094 16.7814 41.8973 16.3128 41.8929H15.6996L15.699 43.0334H16.2216C16.4836 43.0309 16.5305 42.8982 16.5615 42.6555L16.5631 42.6376H16.5807H16.7376L16.7373 42.6579C16.7285 42.8335 16.7227 43.0091 16.7227 43.1846C16.7227 43.3552 16.7285 43.5261 16.7373 43.6976L16.7376 43.7135L16.7212 43.7172L16.5631 43.7485L16.5615 43.7272C16.5302 43.4523 16.528 43.3018 16.2257 43.2984L15.6996 43.298V44.3286C15.7 44.6023 15.9385 44.6007 16.2352 44.6023C16.783 44.5991 17.0027 44.5729 17.1399 44.0668L17.1444 44.0487L17.1636 44.0521L17.3094 44.0893L17.305 44.1081C17.2463 44.3467 17.1917 44.5848 17.1509 44.8234L17.1472 44.8394H17.1317ZM17.115 44.8C17.1544 44.5729 17.2064 44.3448 17.2623 44.118L17.1724 44.0955C17.0361 44.5998 16.7722 44.6447 16.2351 44.6413C15.9485 44.6413 15.6614 44.6413 15.6601 44.3286V43.2596H16.2257C16.5434 43.2561 16.576 43.4461 16.5983 43.7025L16.6968 43.6823C16.688 43.5163 16.6839 43.3498 16.6839 43.1846C16.6839 43.015 16.688 42.8463 16.6968 42.6766H16.5983C16.5731 42.9112 16.4989 43.0762 16.2216 43.0731H15.6601V41.8535H16.3128C16.7862 41.8503 16.8647 42.0921 16.8849 42.3755L16.9831 42.3492C16.9752 42.2221 16.9698 42.059 16.9698 41.9085C16.9698 41.8313 16.9717 41.7585 16.9742 41.6948C16.665 41.696 16.2042 41.7123 15.8296 41.7123C15.4556 41.7123 14.9952 41.696 14.7166 41.6948V41.7904H14.7607C14.9229 41.7904 15.1167 41.8185 15.1173 42.0675V44.4279C15.1167 44.6763 14.9229 44.7038 14.7607 44.705H14.7166V44.8C14.982 44.7997 15.5077 44.7828 15.9075 44.7828C16.3089 44.7828 16.8214 44.7997 17.115 44.8Z" fill="white"/>
<path d="M17.9003 42.152C17.9003 41.8233 17.7185 41.8099 17.5769 41.8099H17.4951V41.6743C17.6409 41.6743 17.9227 41.6924 18.2004 41.6924C18.4734 41.6924 18.6921 41.6743 18.9329 41.6743C19.506 41.6743 20.0163 41.8277 20.0163 42.4681C20.0163 42.8727 19.7433 43.1207 19.3839 43.261L20.1618 44.4137C20.2892 44.6043 20.3798 44.6577 20.6033 44.6839V44.8198C20.4531 44.8198 20.3072 44.802 20.1573 44.802C20.0163 44.802 19.8701 44.8198 19.7297 44.8198C19.3794 44.3646 19.0784 43.8779 18.7826 43.3594H18.4832V44.324C18.4832 44.6714 18.6464 44.6839 18.8556 44.6839H18.9376V44.8198C18.6776 44.8198 18.4147 44.802 18.155 44.802C17.9363 44.802 17.7223 44.8198 17.4951 44.8198V44.6839H17.5769C17.746 44.6839 17.9003 44.6083 17.9003 44.4412V42.152ZM18.4831 43.1972H18.7053C19.1607 43.1972 19.4059 43.0261 19.4059 42.4943C19.4059 42.0939 19.1468 41.8368 18.7413 41.8368C18.6047 41.8368 18.5466 41.8508 18.4831 41.8549V43.1972H18.4831Z" fill="white"/>
<path d="M20.6037 44.8399C20.4513 44.8399 20.3064 44.8218 20.1568 44.8218C20.018 44.8218 19.8728 44.8399 19.7141 44.8324C19.365 44.3791 19.0659 43.8952 18.7717 43.3804H18.5029V44.3245C18.5076 44.6634 18.6452 44.6606 18.8557 44.6656H18.9576V44.685V44.84H18.9374C18.6773 44.84 18.4132 44.8218 18.1548 44.8218C17.9373 44.8218 17.724 44.84 17.4955 44.84H17.4756V44.8206V44.6656H17.4955H17.5772C17.7413 44.6647 17.8796 44.5941 17.8802 44.4423V42.1531C17.8768 41.8332 17.7186 41.835 17.5772 41.8304H17.4756V41.811V41.6558H17.4955C17.6429 41.6558 17.9237 41.6735 18.2008 41.6735C18.4725 41.6735 18.6913 41.6558 18.9336 41.6558C19.507 41.657 20.0353 41.8138 20.0369 42.468C20.0369 42.875 19.7652 43.129 19.4139 43.2708L20.1786 44.4042C20.3058 44.591 20.385 44.6376 20.6065 44.6656L20.6232 44.6681V44.685V44.84H20.6037V44.8399ZM18.483 43.341H18.7941L18.7995 43.351C19.0962 43.8687 19.395 44.3547 19.7302 44.8015C19.869 44.8015 20.0151 44.783 20.1568 44.783C20.3023 44.783 20.4424 44.7987 20.5841 44.8008V44.7021C20.3704 44.6759 20.2704 44.6128 20.1461 44.4257L19.3543 43.2526L19.3767 43.2435C19.7327 43.1049 19.9962 42.864 19.9965 42.4679C19.9962 41.8428 19.5057 41.6978 18.9336 41.6953C18.6934 41.6953 18.4751 41.7131 18.2008 41.7131C17.9336 41.7131 17.6637 41.6966 17.5147 41.6953V41.7909H17.5772C17.7186 41.7913 17.9199 41.8144 17.9199 42.153V44.4422C17.9199 44.6231 17.7486 44.7056 17.5772 44.7059H17.5147V44.8008C17.7338 44.8002 17.9411 44.783 18.1548 44.783C18.4094 44.783 18.666 44.8002 18.9179 44.8008V44.7059H18.8557C18.648 44.7055 18.4631 44.6799 18.4631 44.3244V43.341H18.483H18.483ZM18.483 43.2173H18.4631V41.8378L18.4804 41.8362C18.5426 41.8316 18.6042 41.8187 18.7418 41.8187C19.1565 41.8187 19.4259 42.0855 19.4265 42.4963C19.4253 43.0342 19.1646 43.217 18.7058 43.2173H18.483V43.2173ZM18.7058 43.1786C19.1564 43.1748 19.383 43.0199 19.3878 42.4963C19.3852 42.1027 19.1381 41.8584 18.7417 41.8568C18.6186 41.8568 18.5609 41.8681 18.5028 41.8731V43.1786H18.7058Z" fill="white"/>
<path d="M23.6927 43.9324L23.701 43.9236V42.2342C23.701 41.8643 23.4419 41.8106 23.3056 41.8106H23.2058V41.6753C23.4195 41.6753 23.6284 41.6931 23.8427 41.6931C24.0295 41.6931 24.2154 41.6753 24.4031 41.6753V41.8106H24.3347C24.1435 41.8106 23.9295 41.8465 23.9295 42.3826V44.4331C23.9295 44.5906 23.9339 44.748 23.9563 44.8877H23.7837L21.4402 42.3014V44.1579C21.4402 44.55 21.5175 44.6846 21.8678 44.6846H21.9451V44.8205C21.7497 44.8205 21.5538 44.8027 21.3585 44.8027C21.153 44.8027 20.9438 44.8205 20.7393 44.8205V44.6846H20.8024C21.1167 44.6846 21.2123 44.4734 21.2123 44.1133V42.2155C21.2123 41.9634 21.0031 41.8106 20.7986 41.8106H20.7393V41.6754C20.9116 41.6754 21.0899 41.6931 21.2625 41.6931C21.3982 41.6931 21.5307 41.6754 21.6674 41.6754L23.6927 43.9324Z" fill="white"/>
<path d="M23.9566 44.9074L23.7692 44.9012L21.4594 42.3527V44.158C21.4648 44.5501 21.5248 44.6613 21.8681 44.6657H21.9644V44.685V44.84H21.9445C21.7476 44.84 21.5525 44.8215 21.3575 44.8215C21.1543 44.8215 20.9441 44.84 20.7393 44.84H20.7188V44.8209V44.6657H20.7393H20.8024C21.1028 44.6644 21.189 44.4729 21.1918 44.1124V42.2159C21.1915 41.9759 20.993 41.8304 20.7986 41.83H20.7188V41.811V41.6558H20.7393C20.9128 41.6558 21.0909 41.6735 21.2625 41.6735C21.3963 41.6735 21.5282 41.6558 21.681 41.662L23.6815 43.8919V42.2343C23.6802 41.8763 23.4378 41.8319 23.3056 41.8301H23.1853V41.811V41.6558H23.2052C23.4205 41.6558 23.63 41.6735 23.8427 41.6735C24.0283 41.6735 24.2148 41.6558 24.4022 41.6558H24.4221V41.6761V41.8301H24.4022H24.3346C24.1469 41.8351 23.9534 41.8516 23.9487 42.383V44.4332C23.9487 44.5907 23.9528 44.7469 23.9759 44.8856L23.9784 44.9074H23.9566ZM23.7837 44.8681H23.9333C23.9133 44.7328 23.9089 44.5829 23.9089 44.4332V42.383C23.9092 41.8422 24.1397 41.7922 24.3346 41.7907H24.3823V41.6954C24.2037 41.6967 24.0235 41.7129 23.8427 41.7129C23.6338 41.7129 23.4308 41.6967 23.2247 41.6954V41.7907H23.3056C23.4457 41.7922 23.7215 41.8529 23.7215 42.2343L23.7152 43.9374L23.7064 43.9468L23.6925 43.9612L21.6671 41.6954C21.532 41.6954 21.4001 41.7129 21.2625 41.7129C21.094 41.7129 20.9239 41.6967 20.7582 41.6954V41.7907H20.7986C21.0123 41.7923 21.2316 41.9519 21.2316 42.2159V44.1124C21.2316 44.4741 21.1287 44.7044 20.8024 44.7056L20.7582 44.7053V44.8006C20.9548 44.7997 21.1578 44.7834 21.3575 44.7834C21.5485 44.7834 21.7375 44.7997 21.9256 44.8006V44.7056H21.8681C21.5097 44.7053 21.42 44.5501 21.4194 44.158V42.2518L23.7837 44.8681ZM23.6928 43.9324L23.7066 43.9196L23.6928 43.9324ZM23.6814 43.924V43.9224L23.6779 43.919L23.6814 43.924Z" fill="white"/>
<path d="M25.1351 44.1748C25.0891 44.3276 25.0342 44.4457 25.0342 44.526C25.0342 44.6615 25.2257 44.6834 25.3753 44.6834H25.4261V44.8193C25.2437 44.8096 25.0578 44.8015 24.8745 44.8015C24.7107 44.8015 24.5479 44.8096 24.3838 44.8193V44.6834H24.4112C24.5885 44.6834 24.7391 44.58 24.8063 44.3904L25.5353 42.3229C25.594 42.1561 25.6767 41.9309 25.7042 41.7638C25.8491 41.7147 26.0314 41.6248 26.1176 41.5704C26.1318 41.5658 26.1397 41.561 26.1539 41.561C26.1675 41.561 26.1763 41.561 26.1864 41.5751C26.1996 41.6107 26.2129 41.6516 26.2274 41.6876L27.0647 44.0442C27.1192 44.2017 27.1732 44.3682 27.2323 44.5038C27.2872 44.63 27.3831 44.6834 27.5336 44.6834H27.5604V44.8193C27.3557 44.8096 27.1506 44.8015 26.9328 44.8015C26.7097 44.8015 26.4815 44.8096 26.2495 44.8193V44.6834H26.3C26.4042 44.6834 26.5822 44.6659 26.5822 44.5531C26.5822 44.4947 26.5411 44.3732 26.4904 44.2286L26.3133 43.7059H25.2804L25.1351 44.1748ZM25.7991 42.1786H25.79L25.3668 43.4538H26.2173L25.7991 42.1786Z" fill="white"/>
<path d="M27.5585 44.8395C27.3537 44.8304 27.1489 44.821 26.9321 44.821C26.709 44.821 26.4824 44.8304 26.2494 44.8395L26.2289 44.8407V44.8204V44.6645H26.2488H26.299C26.4044 44.6645 26.5609 44.6408 26.5609 44.5543C26.5622 44.503 26.5212 44.3793 26.471 44.236L26.2977 43.7264H25.2939L25.1525 44.1816C25.1064 44.3353 25.0519 44.4543 25.0522 44.5277C25.0537 44.6377 25.2238 44.6645 25.3747 44.6645H25.4447V44.6848V44.8407L25.4242 44.8395C25.2421 44.8304 25.0563 44.821 24.8748 44.821C24.7117 44.821 24.5476 44.8304 24.3844 44.8395L24.3633 44.8407V44.8204V44.6645H24.3831H24.4103C24.5797 44.6639 24.7212 44.5687 24.7868 44.3853L25.5155 42.3175C25.5751 42.1504 25.6572 41.9258 25.6966 41.7462C25.8393 41.6984 26.0219 41.6078 26.1097 41.5528C26.1223 41.5488 26.135 41.5425 26.1536 41.5425C26.1646 41.5422 26.1892 41.545 26.2038 41.5688C26.2167 41.6059 26.2309 41.6459 26.2448 41.6825L27.083 44.0389C27.1367 44.197 27.1909 44.3635 27.2503 44.4965C27.303 44.6168 27.3866 44.664 27.533 44.6646H27.5794V44.6849V44.8408L27.5585 44.8395ZM26.2687 44.7992C26.4941 44.7914 26.7146 44.7826 26.9321 44.7826C27.1435 44.7826 27.3414 44.7914 27.5392 44.7992V44.7051H27.5329C27.377 44.706 27.2694 44.6455 27.2135 44.5127C27.1542 44.3759 27.0987 44.2087 27.0454 44.051L26.2075 41.6949C26.1936 41.659 26.1804 41.6181 26.1683 41.5862C26.1646 41.5818 26.1655 41.5818 26.1617 41.5818H26.1535C26.144 41.5818 26.1387 41.5846 26.127 41.5878C26.0393 41.6443 25.8566 41.7327 25.7218 41.768C25.6937 41.9386 25.612 42.1635 25.5526 42.3303L24.8243 44.3984C24.7549 44.5939 24.5955 44.7054 24.4103 44.7051H24.403V44.7992C24.5589 44.7914 24.7167 44.7826 24.8748 44.7826C25.0506 44.7826 25.2304 44.7914 25.404 44.7992V44.7051H25.3747C25.2267 44.7032 25.0196 44.6867 25.0139 44.5277C25.0143 44.4377 25.0702 44.3225 25.1146 44.1703L25.1345 44.1762L25.1146 44.1697L25.2645 43.688H26.3255L26.5082 44.2234C26.5593 44.3681 26.6007 44.488 26.6007 44.5543C26.5944 44.6926 26.4022 44.7023 26.299 44.7051H26.2687V44.7992H26.2687ZM25.3384 43.4743L25.7742 42.16H25.7893H25.7988V42.1797L25.7938 42.1807L25.7988 42.1797V42.16H25.8124L26.2444 43.4743H25.3384ZM25.393 43.4352H26.1895L25.7934 42.2278L25.393 43.4352ZM25.7789 42.1854L25.7893 42.1819L25.7789 42.1854Z" fill="white"/>
<path d="M27.7604 41.8995C27.419 41.8995 27.4054 41.9808 27.3368 42.3094H27.2002C27.2182 42.1835 27.2413 42.0576 27.2555 41.9264C27.2737 41.8002 27.282 41.6746 27.282 41.544H27.3918C27.4281 41.6793 27.5423 41.6746 27.6645 41.6746H30.0133C30.1355 41.6746 30.2491 41.6702 30.2586 41.5347L30.3674 41.5528C30.35 41.6746 30.3321 41.7961 30.3182 41.9179C30.3084 42.0395 30.3084 42.1613 30.3084 42.2825L30.1721 42.3328C30.1635 42.1663 30.1408 41.8995 29.8357 41.8995H29.0893V44.2968C29.0893 44.6442 29.249 44.6839 29.4668 44.6839H29.5532V44.8198C29.3759 44.8198 29.0578 44.802 28.8116 44.802C28.539 44.802 28.2199 44.8198 28.0425 44.8198V44.6839H28.1287C28.3796 44.6839 28.5071 44.6617 28.5071 44.3062V41.8995H27.7604Z" fill="white"/>
<path d="M29.5538 44.8412C29.3752 44.8412 29.0565 44.8231 28.8122 44.8231C28.5402 44.8231 28.2214 44.8412 28.0431 44.8412H28.023V44.8221V44.6669H28.0431H28.1293C28.3801 44.6609 28.4809 44.6578 28.4871 44.3085L28.4865 41.9216H27.761V41.9018V41.8818H28.5266V44.3085C28.5266 44.67 28.3792 44.7056 28.1293 44.7065H28.0624V44.8027C28.2426 44.8008 28.548 44.7846 28.8122 44.7846C29.0498 44.7846 29.3541 44.8009 29.5339 44.8027V44.7065H29.4667C29.248 44.7056 29.0706 44.6534 29.07 44.2991V41.8818H29.8362C30.1417 41.8831 30.1818 42.1402 30.1904 42.3073L30.2898 42.2714C30.2898 42.1539 30.2901 42.0362 30.2989 41.9181C30.3115 41.8022 30.3285 41.6866 30.3453 41.5716L30.2765 41.5601C30.2557 41.6913 30.1272 41.6985 30.0139 41.6966H27.665H27.642C27.5347 41.6978 27.4186 41.6916 27.3772 41.565H27.3028C27.3015 41.69 27.293 41.8112 27.275 41.9312C27.263 42.0552 27.2406 42.1746 27.2236 42.293H27.3211C27.3813 41.979 27.4208 41.8771 27.761 41.8818V41.9018V41.9215C27.4236 41.9272 27.4312 41.9837 27.3567 42.3167L27.3532 42.332H27.3374H27.1777L27.1806 42.3095C27.1995 42.1824 27.2222 42.0568 27.2355 41.9265C27.2541 41.8006 27.263 41.6756 27.263 41.5463V41.5266H27.2825H27.4068L27.4106 41.5407C27.4425 41.6544 27.5255 41.655 27.642 41.6569L27.665 41.6575H30.0139C30.1395 41.6551 30.2313 41.6531 30.2392 41.5357L30.2405 41.5142L30.2619 41.5186L30.391 41.5386L30.3876 41.5582C30.3689 41.6788 30.3516 41.8007 30.3377 41.9216C30.3285 42.0415 30.3285 42.1637 30.3285 42.2849V42.2989L30.3156 42.3039L30.1543 42.362L30.1534 42.3358C30.1417 42.1665 30.1237 41.9215 29.8362 41.9215H29.1095V44.2991C29.1142 44.639 29.2502 44.6625 29.4667 44.6668H29.5734V44.6862V44.8411L29.5538 44.8412Z" fill="white"/>
<path d="M30.5352 44.6846H30.5989C30.7633 44.6846 30.9353 44.6627 30.9353 44.4281V42.0677C30.9353 41.8327 30.7633 41.8106 30.5989 41.8106H30.5352V41.6753C30.7129 41.6753 30.9855 41.6931 31.208 41.6931C31.4365 41.6931 31.7095 41.6753 31.9234 41.6753V41.8106H31.8597C31.6959 41.8106 31.5223 41.8327 31.5223 42.0677V44.4281C31.5223 44.6627 31.6959 44.6846 31.8597 44.6846H31.9234V44.8205C31.7047 44.8205 31.4314 44.8027 31.2045 44.8027C30.9811 44.8027 30.7129 44.8205 30.5352 44.8205V44.6846Z" fill="white"/>
<path d="M31.9247 44.8394C31.7048 44.8394 31.4324 44.8209 31.2055 44.8209C30.983 44.8209 30.7142 44.8394 30.5365 44.8394H30.5166V44.8203V44.6844V44.665H30.5365H30.6002C30.7646 44.6625 30.9155 44.6485 30.9161 44.4279V42.0675C30.9155 41.8475 30.7646 41.8325 30.6002 41.8294H30.5166V41.8104V41.6558H30.5365C30.7142 41.6558 30.9874 41.6729 31.2093 41.6729C31.4362 41.6729 31.7092 41.6558 31.9247 41.6558H31.944V41.6751V41.8294H31.9247H31.8609C31.6946 41.8325 31.5454 41.8475 31.5432 42.0675V44.4279C31.5454 44.6485 31.6947 44.6625 31.8609 44.665H31.944V44.6844V44.8394H31.9247ZM31.9042 44.8V44.7047H31.8609C31.6978 44.7047 31.5047 44.6763 31.5047 44.4279V42.0675C31.5047 41.8185 31.6978 41.7904 31.8609 41.7904H31.9042V41.6948C31.694 41.696 31.4312 41.7123 31.2093 41.7123C30.9937 41.7123 30.7327 41.696 30.5564 41.6948V41.7904H30.6003C30.7621 41.7904 30.9559 41.8185 30.9565 42.0675V44.4279C30.9559 44.6763 30.7621 44.7047 30.6003 44.7047H30.5564V44.8C30.7319 44.7981 30.9894 44.7828 31.2055 44.7828C31.4261 44.7828 31.6896 44.7991 31.9042 44.8H31.9042Z" fill="white"/>
<path d="M33.7391 41.6074C34.7092 41.6074 35.4824 42.2028 35.4824 43.1622C35.4824 44.1988 34.7316 44.8876 33.7628 44.8876C32.7971 44.8876 32.0605 44.2387 32.0605 43.27C32.0605 42.3331 32.7927 41.6074 33.7391 41.6074ZM33.8079 44.6892C34.6909 44.6892 34.8446 43.9182 34.8446 43.2612C34.8446 42.6027 34.4861 41.8055 33.7303 41.8055C32.9338 41.8055 32.6974 42.5084 32.6974 43.1116C32.6974 43.9182 33.0704 44.6892 33.8079 44.6892Z" fill="white"/>
<path d="M32.04 43.2711C32.042 42.3233 32.7829 41.5901 33.7388 41.5889V41.6085V41.6276C32.8035 41.6276 32.0795 42.3439 32.0786 43.2711C32.0808 44.2289 32.8069 44.868 33.7625 44.8683C34.7218 44.868 35.4619 44.1889 35.4635 43.1624C35.4625 42.2152 34.701 41.6288 33.7389 41.6276V41.6085V41.5889C34.7165 41.5895 35.5001 42.1908 35.502 43.1624C35.5011 44.2098 34.7405 44.9059 33.7625 44.9077C32.7892 44.9058 32.042 44.2504 32.0401 43.2711H32.04V43.2711ZM32.6776 43.1127C32.6788 42.5067 32.918 41.7863 33.7303 41.7863C34.5029 41.7882 34.8636 42.6004 34.8648 43.2624C34.8636 43.9193 34.7074 44.7091 33.808 44.7091V44.6903V44.6709C34.6733 44.6697 34.8232 43.9193 34.8253 43.2624C34.8253 42.6092 34.47 41.8273 33.7303 41.8263C32.9496 41.8272 32.7185 42.5126 32.717 43.1127C32.7177 43.9153 33.0872 44.6691 33.808 44.6709V44.6903V44.7091C33.0525 44.7081 32.6788 43.924 32.6776 43.1127Z" fill="white"/>
<path d="M38.5495 43.9324L38.5587 43.9236V42.2342C38.5587 41.8643 38.2987 41.8106 38.162 41.8106H38.0635V41.6753C38.2769 41.6753 38.4861 41.6931 38.6994 41.6931C38.8866 41.6931 39.0731 41.6753 39.2599 41.6753V41.8106H39.1911C39.0005 41.8106 38.7862 41.8465 38.7862 42.3826V44.4331C38.7862 44.5906 38.7907 44.748 38.8137 44.8877H38.641L36.2969 42.3014V44.1579C36.2969 44.55 36.3739 44.6846 36.7242 44.6846H36.8021V44.8205C36.6062 44.8205 36.4109 44.8027 36.2152 44.8027C36.0103 44.8027 35.8005 44.8205 35.5957 44.8205V44.6846H35.6597C35.9744 44.6846 36.0688 44.4734 36.0688 44.1133V42.2155C36.0688 41.9634 35.8604 41.8106 35.655 41.8106H35.5957V41.6754C35.7686 41.6754 35.9463 41.6931 36.1189 41.6931C36.2556 41.6931 36.3872 41.6754 36.5241 41.6754L38.5495 43.9324Z" fill="white"/>
<path d="M38.8138 44.9068L38.6254 44.9002L36.3163 42.3521V44.1577C36.3213 44.5495 36.3816 44.6604 36.7233 44.6644H36.8218V44.6847V44.8394H36.8019C36.6047 44.8394 36.4094 44.8212 36.2149 44.8212C36.0107 44.8212 35.8018 44.8394 35.5951 44.8394H35.5762V44.82V44.6644H35.5951H35.6595C35.9596 44.6635 36.0458 44.4723 36.0495 44.113V42.2153C36.0489 41.9753 35.8504 41.8298 35.6548 41.8295H35.5762V41.8104V41.6558H35.5951C35.7697 41.6558 35.947 41.673 36.1187 41.673C36.2538 41.673 36.385 41.6558 36.539 41.6624L38.5386 43.8913V42.2343C38.5373 41.8757 38.2949 41.8326 38.1617 41.8295H38.0422V41.8105V41.6558H38.0627C38.2769 41.6558 38.4868 41.673 38.6985 41.673C38.8853 41.673 39.0709 41.6558 39.2596 41.6558H39.2792V41.6752V41.8295H39.2596H39.1908C39.0036 41.8348 38.8099 41.8517 38.8061 42.3824V44.4327C38.8061 44.5901 38.8096 44.7472 38.8317 44.885L38.8355 44.9068H38.8138V44.9068ZM38.6409 44.8674H38.7898C38.77 44.7322 38.7665 44.5822 38.7665 44.4326V42.3824C38.7665 41.8407 38.9959 41.7916 39.191 41.7901H39.2402V41.6948C39.0606 41.696 38.8808 41.7123 38.6987 41.7123C38.4916 41.7123 38.2881 41.696 38.082 41.6948V41.7901H38.1618C38.3029 41.7916 38.5774 41.8532 38.5774 42.2343L38.5725 43.9368L38.5639 43.9462L38.5494 43.9606L36.524 41.6948C36.3899 41.6948 36.257 41.7123 36.1188 41.7123C35.9512 41.7123 35.7805 41.6961 35.6148 41.6948V41.7901H35.6549C35.8686 41.7917 36.0885 41.9513 36.0885 42.2153V44.113C36.0885 44.4732 35.9869 44.7038 35.6596 44.705L35.6148 44.7047V44.8C35.8124 44.7991 36.015 44.7828 36.215 44.7828C36.4047 44.7828 36.5931 44.7991 36.7822 44.8V44.705H36.7234C36.3663 44.7047 36.277 44.5495 36.277 44.1577V42.2505L38.6409 44.8674ZM38.5494 43.9318L38.5638 43.919L38.5494 43.9318ZM38.5386 43.9234V43.9218L38.5348 43.9184L38.5386 43.9234Z" fill="white"/>
<path d="M39.991 44.1748C39.9465 44.3276 39.8913 44.4457 39.8913 44.526C39.8913 44.6615 40.0829 44.6834 40.2322 44.6834H40.2829V44.8193C40.1009 44.8096 39.9141 44.8015 39.732 44.8015C39.5675 44.8015 39.4044 44.8096 39.2412 44.8193V44.6834H39.2671C39.4454 44.6834 39.5962 44.58 39.6635 44.3904L40.3925 42.3229C40.4511 42.1561 40.5335 41.9309 40.5601 41.7638C40.7058 41.7147 40.8876 41.6248 40.975 41.5704C40.9879 41.5658 40.9971 41.561 41.011 41.561C41.0246 41.561 41.0331 41.561 41.0423 41.5751C41.0561 41.6107 41.0704 41.6516 41.0839 41.6876L41.9208 44.0442C41.9754 44.2017 42.0297 44.3682 42.0897 44.5038C42.1443 44.63 42.2402 44.6834 42.3898 44.6834H42.4176V44.8193C42.2125 44.8096 42.0076 44.8015 41.789 44.8015C41.5664 44.8015 41.3386 44.8096 41.1063 44.8193V44.6834H41.1569C41.2607 44.6834 41.4393 44.6659 41.4393 44.5531C41.4393 44.4947 41.3979 44.3732 41.3471 44.2286L41.1704 43.7059H40.1372L39.991 44.1748ZM40.6563 42.1786H40.6472L40.2233 43.4538H41.075L40.6563 42.1786Z" fill="white"/>
<path d="M42.416 44.8398C42.2112 44.8317 42.0067 44.8217 41.7893 44.8217C41.5674 44.8217 41.3396 44.8317 41.1073 44.8398L41.0871 44.841V44.8204V44.6655H41.1067H41.1562C41.2622 44.6655 41.4191 44.6411 41.4194 44.5546C41.4203 44.5033 41.3793 44.3806 41.3286 44.2362L41.1556 43.7267H40.1511L40.0103 44.1819C39.9649 44.3362 39.9106 44.4546 39.9116 44.5274C39.9116 44.638 40.082 44.6655 40.2325 44.6655H40.3019V44.6848V44.841L40.2818 44.8398C40.0997 44.8317 39.9134 44.8217 39.7324 44.8217C39.5692 44.8217 39.4057 44.8317 39.2416 44.8398L39.2217 44.841V44.8204V44.6655H39.2416H39.2675C39.4372 44.6648 39.5792 44.5683 39.6455 44.3856L40.3739 42.3178C40.432 42.1507 40.514 41.9261 40.5544 41.7471C40.6974 41.6981 40.8801 41.6081 40.9684 41.5531C40.9804 41.549 40.9927 41.5437 41.0113 41.5437C41.0234 41.5425 41.0466 41.5453 41.0612 41.5699C41.0748 41.6053 41.088 41.6462 41.1032 41.6827L41.9401 44.0391C41.9944 44.1972 42.049 44.3637 42.108 44.4977C42.1613 44.617 42.2443 44.6642 42.3895 44.6655H42.4368V44.6848V44.841L42.416 44.8398ZM41.1263 44.8001C41.3512 44.7916 41.5728 44.7829 41.7893 44.7829C42.001 44.7829 42.1996 44.7916 42.3977 44.7995L42.3971 44.7054H42.3895C42.2355 44.7057 42.1279 44.6458 42.0714 44.513C42.0114 44.3762 41.9572 44.209 41.9029 44.0519L41.0653 41.6952C41.0517 41.6593 41.0379 41.6184 41.0268 41.5877C41.023 41.5821 41.0234 41.5821 41.0199 41.5821H41.0113C41.0019 41.5821 40.9968 41.5852 40.9857 41.5884C40.8971 41.6437 40.7147 41.7336 40.5799 41.7683C40.5518 41.9389 40.4692 42.1635 40.4105 42.3306L39.6818 44.3987C39.6127 44.5942 39.4537 44.7057 39.2674 44.7054H39.2608V44.7995C39.4173 44.7916 39.5738 44.7829 39.7323 44.7829C39.9087 44.7829 40.0882 44.7916 40.2634 44.7995V44.7054H40.2325C40.0845 44.7035 39.8768 44.6876 39.8715 44.5274C39.8724 44.438 39.9289 44.3234 39.9728 44.1706L39.9914 44.1765L39.9728 44.17L40.1227 43.6882H41.184L41.3664 44.2237C41.4165 44.3687 41.4579 44.4883 41.4579 44.5545C41.4512 44.6929 41.2603 44.7026 41.1562 44.7054H41.1262V44.8001H41.1263ZM40.1965 43.4743L40.633 42.1604H40.6468H40.6567V42.18L40.6519 42.181L40.6567 42.18V42.1604H40.6709L41.101 43.4743H40.1965ZM40.2511 43.4355H41.0471L40.6513 42.2288L40.2511 43.4355ZM40.6377 42.1857L40.6468 42.1823L40.6377 42.1857Z" fill="white"/>
<path d="M43.5642 44.3787C43.5642 44.559 43.6904 44.6127 43.8363 44.6312C44.0228 44.6449 44.2276 44.6449 44.4378 44.6221C44.6284 44.5993 44.7925 44.4912 44.8739 44.3787C44.9465 44.2794 44.9875 44.1532 45.0149 44.0542H45.1469C45.097 44.311 45.0333 44.564 44.9783 44.8205C44.5788 44.8205 44.1774 44.8027 43.7775 44.8027C43.3765 44.8027 42.9766 44.8205 42.5762 44.8205V44.6845H42.6386C42.8034 44.6845 42.9814 44.6627 42.9814 44.3831V42.0677C42.9814 41.8327 42.8034 41.8106 42.6386 41.8106H42.5762V41.6753C42.8166 41.6753 43.0536 41.6931 43.2944 41.6931C43.5273 41.6931 43.7546 41.6753 43.9868 41.6753V41.8106H43.8722C43.6999 41.8106 43.5642 41.8156 43.5642 42.0536V44.3787Z" fill="white"/>
<path d="M44.9781 44.8393C44.577 44.8393 44.1766 44.8212 43.7773 44.8212C43.3765 44.8212 42.976 44.8393 42.5749 44.8393H42.5557V44.82V44.665H42.5749H42.6384C42.8034 44.6613 42.9593 44.65 42.9612 44.3829V42.0666C42.9593 41.8476 42.8043 41.8326 42.6384 41.8294H42.5557V41.8104V41.6558H42.5749C42.817 41.6558 43.054 41.6729 43.2944 41.6729C43.5254 41.6729 43.7527 41.6558 43.9865 41.6558H44.0052V41.6751V41.8294H43.9865H43.8723C43.6959 41.8344 43.5861 41.8263 43.5826 42.0534V44.3786C43.5838 44.5463 43.695 44.5916 43.837 44.6113C43.9174 44.6169 44.0017 44.6204 44.0895 44.6204C44.2008 44.6204 44.3166 44.6151 44.4341 44.6026C44.6196 44.581 44.7793 44.4751 44.8576 44.3676C44.9276 44.2714 44.968 44.1477 44.9951 44.0493L44.9993 44.0344H45.0144H45.1706L45.1665 44.0581C45.1151 44.3158 45.0526 44.5676 44.9974 44.8241L44.9936 44.8394H44.9782H44.9781V44.8393ZM44.9617 44.8C45.0144 44.5557 45.074 44.3167 45.123 44.073H45.0295C45.0011 44.1711 44.9607 44.292 44.8891 44.3904C44.8042 44.5072 44.6357 44.6172 44.4384 44.6412C44.3192 44.6534 44.2011 44.6597 44.0894 44.6597C44.0013 44.6597 43.9159 44.6556 43.8335 44.65C43.6855 44.6337 43.5419 44.5712 43.5425 44.3785V42.0534C43.5425 41.8031 43.7025 41.7903 43.8723 41.7903H43.9663V41.6947C43.742 41.696 43.5211 41.7125 43.2944 41.7125C43.0587 41.7125 42.8283 41.696 42.5948 41.6947V41.7903H42.6383C42.8009 41.7903 42.9997 41.8185 42.9997 42.0665V44.3829C42.9997 44.6744 42.8018 44.7047 42.6383 44.7047H42.5948V44.7999C42.9883 44.7996 43.3819 44.7828 43.7773 44.7828C44.1727 44.7828 44.5679 44.7996 44.9617 44.8Z" fill="white"/>
<path d="M45.0917 41.5469C45.3659 41.5469 45.5707 41.7556 45.5707 42.023C45.5707 42.2891 45.3659 42.4959 45.0917 42.4959C44.8174 42.4959 44.6123 42.2891 44.6123 42.023C44.6123 41.7556 44.8174 41.5469 45.0917 41.5469ZM45.0917 42.4075C45.3059 42.4075 45.4707 42.2263 45.4707 42.023C45.4707 41.8183 45.3084 41.6356 45.0917 41.6356C44.8761 41.6356 44.7114 41.8184 44.7114 42.023C44.7114 42.2263 44.8761 42.4075 45.0917 42.4075ZM44.8531 42.2729V42.2494C44.9121 42.2413 44.9228 42.2432 44.9228 42.207V41.8558C44.9228 41.8065 44.9174 41.7896 44.8553 41.7921V41.768H45.1005C45.185 41.768 45.2623 41.8077 45.2623 41.8939C45.2623 41.9645 45.215 42.0167 45.149 42.037L45.2276 42.1457C45.2645 42.1951 45.3059 42.2413 45.3333 42.2575V42.2728H45.2399C45.1951 42.2728 45.156 42.1794 45.0676 42.0542H45.0146V42.2119C45.0146 42.2432 45.0257 42.2413 45.0847 42.2494V42.2728H44.8531V42.2729ZM45.0146 42.023H45.0711C45.1329 42.023 45.162 41.9764 45.162 41.9018C45.162 41.8262 45.1172 41.7996 45.068 41.7996H45.0146V42.023Z" fill="white"/>
<path fill-rule="evenodd" clip-rule="evenodd" d="M41.314 17.8938C41.314 24.5001 35.2101 29.9305 28.5227 29.8989H22.7675C16 29.9306 10.4297 24.5016 10.4297 17.8938C10.4297 10.6709 16 5.67582 22.7675 5.67822H28.5227C35.2101 5.67582 41.314 10.6694 41.314 17.8938ZM11.5985 17.765C11.5999 11.641 16.611 6.67917 22.7949 6.67725C28.9803 6.67917 33.9923 11.641 33.9932 17.765C33.9924 23.8878 28.9803 28.8492 22.7949 28.8511C16.6109 28.8492 11.5999 23.8878 11.5985 17.765ZM20.2539 11.2066C17.5916 12.2206 15.7036 14.7725 15.6978 17.765C15.7036 20.7579 17.5916 23.3083 20.2539 24.3218V11.2066ZM25.3349 11.2062V24.3247C27.9982 23.3111 29.8891 20.7598 29.894 17.765C29.8891 14.771 27.9982 12.2178 25.3349 11.2062Z" fill="white"/>
<defs>
<linearGradient id="paint0_linear_1876_15848" x1="25.7949" y1="0.292969" x2="25.7949" y2="50.293" gradientUnits="userSpaceOnUse">
<stop stop-color="#024977"/>
<stop offset="1" stop-color="#002554"/>
</linearGradient>
</defs>
</svg>
