<svg width="51" height="51" viewBox="0 0 51 51" fill="none" xmlns="http://www.w3.org/2000/svg">
<rect x="0.794922" y="0.591797" width="50" height="50" rx="10" fill="white"/>
<path d="M31.1983 15.9141H20.3936V35.2697H31.1983V15.9141Z" fill="#FF5F00"/>
<path d="M21.0793 25.5918C21.0793 21.6591 22.9315 18.171 25.7785 15.914C23.6861 14.2725 21.045 13.2808 18.1637 13.2808C11.3378 13.2808 5.81543 18.7865 5.81543 25.5918C5.81543 32.3971 11.3378 37.9028 18.1637 37.9028C21.045 37.9028 23.6861 36.9111 25.7785 35.2696C22.9315 33.0468 21.0793 29.5245 21.0793 25.5918Z" fill="#EB001B"/>
<path d="M45.7755 25.5918C45.7755 32.3971 40.2531 37.9028 33.4273 37.9028C30.546 37.9028 27.9048 36.9111 25.8125 35.2696C28.6938 33.0126 30.5117 29.5245 30.5117 25.5918C30.5117 21.6591 28.6595 18.171 25.8125 15.914C27.9048 14.2725 30.546 13.2808 33.4273 13.2808C40.2531 13.2808 45.7755 18.8207 45.7755 25.5918Z" fill="#F79E1B"/>
</svg>
