<svg width="51" height="51" viewBox="0 0 51 51" fill="none" xmlns="http://www.w3.org/2000/svg">
<rect x="0.794922" y="0.890625" width="50" height="50" rx="10" fill="white"/>
<path d="M26.8669 26.28C26.8669 25.8033 26.8514 25.4207 26.8359 25.0695H27.4612L27.4921 25.7061H27.5076C27.7924 25.2545 28.2412 24.9849 28.8664 24.9849C29.7919 24.9849 30.4852 25.7437 30.4852 26.8727C30.4852 28.2085 29.6464 28.8671 28.7457 28.8671C28.2412 28.8671 27.7985 28.6538 27.5695 28.2838H27.554V30.3001H26.8669V26.28ZM27.554 27.2709C27.554 27.3713 27.5695 27.4622 27.585 27.5469C27.7119 28.0141 28.1297 28.3371 28.6281 28.3371C29.3616 28.3371 29.7888 27.7538 29.7888 26.904C29.7888 26.1608 29.3864 25.5242 28.6497 25.5242C28.1762 25.5242 27.7335 25.8535 27.5974 26.3615C27.5726 26.4462 27.5509 26.5465 27.5509 26.6375V27.2709H27.554Z" fill="#202020"/>
<path d="M31.3613 23.335H32.0578V28.782H31.3613V23.335Z" fill="#202020"/>
<path d="M35.3423 28.7793L35.2866 28.312H35.2619C35.0483 28.6036 34.6366 28.8639 34.0919 28.8639C33.3181 28.8639 32.9219 28.334 32.9219 27.7977C32.9219 26.9009 33.7421 26.4085 35.2216 26.418V26.3427C35.2216 26.0354 35.135 25.4835 34.3519 25.4835C33.9959 25.4835 33.6245 25.5901 33.3552 25.7594L33.1973 25.3141C33.5131 25.1134 33.9712 24.9849 34.454 24.9849C35.624 24.9849 35.9088 25.7594 35.9088 26.5026V27.8918C35.9088 28.2148 35.9242 28.5284 35.9707 28.7824H35.3423V28.7793ZM35.2402 26.8852C34.4819 26.8695 33.6214 27.0012 33.6214 27.7225C33.6214 28.1584 33.9216 28.3653 34.2776 28.3653C34.7759 28.3653 35.0916 28.058 35.203 27.7444C35.2278 27.6754 35.2433 27.6002 35.2433 27.5312V26.8852H35.2402Z" fill="#202020"/>
<path d="M37.8395 24.0029V25.0691H38.8362V25.5834H37.8395V27.5841C37.8395 28.0451 37.9726 28.3053 38.3595 28.3053C38.5421 28.3053 38.6752 28.2834 38.7619 28.2583L38.7928 28.7632C38.6597 28.8165 38.4462 28.8541 38.1769 28.8541C37.8519 28.8541 37.5919 28.7538 37.4279 28.5719C37.2298 28.3712 37.1586 28.0419 37.1586 27.606V25.5803H36.5674V25.066H37.1586V24.1754L37.8395 24.0029Z" fill="#202020"/>
<path d="M41.7359 28.7793L41.6802 28.312H41.6554C41.4418 28.6036 41.0302 28.8639 40.4854 28.8639C39.7116 28.8639 39.3154 28.334 39.3154 27.7977C39.3154 26.9009 40.1357 26.4085 41.6152 26.418V26.3427C41.6152 26.0354 41.5285 25.4835 40.7454 25.4835C40.3895 25.4835 40.018 25.5901 39.7488 25.7594L39.5909 25.3141C39.9066 25.1134 40.3647 24.9849 40.8476 24.9849C42.0176 24.9849 42.3023 25.7594 42.3023 26.5026V27.8918C42.3023 28.2148 42.3178 28.5284 42.3642 28.7824H41.7359V28.7793ZM41.6307 26.8852C40.8723 26.8695 40.0119 27.0012 40.0119 27.7225C40.0119 28.1584 40.3121 28.3653 40.668 28.3653C41.1664 28.3653 41.4821 28.058 41.5935 27.7444C41.6183 27.6754 41.6337 27.6002 41.6337 27.5312V26.8852H41.6307Z" fill="#202020"/>
<path d="M14.4065 23.6734C13.0229 23.6358 11.237 27.126 10.7634 28.2831C10.4972 28.9291 11.3206 29.3932 11.5867 28.7472C12.0263 27.6716 13.5274 24.6737 14.4096 24.6769C15.2886 24.6832 16.7403 27.6967 17.1705 28.7786C17.4274 29.4277 18.2569 28.973 17.9969 28.3239C17.5357 27.1605 15.787 23.6515 14.4065 23.6734ZM10.7015 26.2009C10.6984 26.1601 10.6891 26.1225 10.6829 26.0817C10.6365 25.8277 10.5529 25.5957 10.4415 25.3887C10.4384 25.3856 10.4353 25.3793 10.4322 25.3762C10.4013 25.3229 10.3703 25.2727 10.3363 25.2225C10.3146 25.188 10.2898 25.1567 10.2682 25.1253C10.2527 25.1034 10.2372 25.0845 10.2218 25.0626C10.1877 25.0218 10.1568 24.9811 10.1227 24.9434C10.0856 24.9027 10.0515 24.865 10.0144 24.8274C10.0051 24.818 9.9989 24.8117 9.98961 24.8023C8.53486 23.4069 5.36226 23.548 4.45536 23.9211C3.84251 24.172 4.05298 24.9089 4.72465 24.6204C5.81726 24.3508 6.86963 24.357 7.94677 24.6204C8.82581 24.8337 9.74818 25.5831 9.74818 26.3859C9.68628 28.3835 6.96249 28.465 5.8575 28.2047V25.718C5.8575 25.1253 5.07131 25.119 5.07131 25.7117V28.211C5.07131 28.7127 5.3375 28.8946 5.69035 28.973C6.52297 29.158 10.0113 29.3556 10.6334 26.9472C10.6458 26.9002 10.6551 26.8563 10.6644 26.8124C10.6737 26.7716 10.6829 26.7309 10.6891 26.687C10.7139 26.5239 10.717 26.3702 10.7046 26.2229C10.7015 26.2166 10.7015 26.2072 10.7015 26.2009ZM25.3419 24.2128C25.3419 23.5197 24.4443 23.5229 24.4443 24.2002V28.5716C24.4443 29.227 25.3419 29.2521 25.3419 28.5967V24.2128ZM23.0948 23.9619C22.7017 25.0438 21.3614 28.0636 20.5474 28.073C19.7334 28.0793 18.3436 25.0877 17.9319 24.0121C17.6843 23.3661 16.926 23.8365 17.1736 24.4793C17.6162 25.6365 19.2876 29.1204 20.566 29.0765C21.8443 29.0953 23.4414 25.58 23.8624 24.4135C24.0976 23.7643 23.3331 23.3128 23.0948 23.9619Z" fill="#FF1A25"/>
<path d="M46.0989 21.623C45.3993 21.0491 44.2139 20.1899 43.861 19.9359C43.9074 19.4122 44.0034 18.8446 44.1272 18.3617C44.2696 17.8098 44.3965 17.3331 44.1272 17.0007C43.9477 16.7749 43.632 16.6714 43.1336 16.6714H41.2796C40.8586 16.6714 40.5522 16.7906 40.3696 17.0226C40.2334 17.1983 40.1777 17.4303 40.2056 17.6937C38.2153 16.6401 36.4913 16.016 35.5349 16.0098H35.5318C34.5073 16.016 32.5944 16.7341 30.4154 17.932C30.1059 18.1014 28.224 19.1801 27.314 19.8606C27.2985 19.87 25.8004 20.9237 24.974 21.5979C24.5747 21.924 24.2838 22.225 24.0702 22.5041H24.0733C24.0423 22.5418 24.0176 22.5888 24.0176 22.6421C24.0176 22.7644 24.1197 22.8648 24.2466 22.8648C24.3178 22.8648 24.3766 22.8303 24.42 22.7832L24.4231 22.7864C24.4231 22.7864 24.488 22.6986 24.5314 22.6421C24.7233 22.4132 24.9647 22.1749 25.2619 21.9334C26.079 21.2686 27.5616 20.2275 27.5833 20.2118C28.4809 19.5407 30.3349 18.4777 30.6382 18.3115C32.7523 17.1481 34.5816 16.4519 35.5349 16.4457C36.4882 16.4519 38.3175 17.1481 40.4315 18.3115C40.5089 18.3554 40.6048 18.3491 40.676 18.2958C40.7472 18.2456 40.7813 18.1578 40.7596 18.0732C40.7472 18.023 40.7317 17.9697 40.7163 17.9164C40.707 17.8881 40.6977 17.8599 40.6915 17.8286C40.6513 17.6937 40.6048 17.4429 40.7286 17.2829C40.8463 17.1355 41.0939 17.1042 41.2827 17.1042H43.1367C43.471 17.1042 43.6908 17.1606 43.7743 17.2672C43.9074 17.4334 43.8022 17.8317 43.6939 18.255C43.5546 18.7975 43.4493 19.4435 43.406 20.0237C43.3998 20.0989 43.4339 20.1711 43.4958 20.215C43.5112 20.2244 45 21.2906 45.811 21.9554C46.7953 22.7613 47.2131 23.5139 46.9872 24.0721C46.7365 24.693 45.6872 25.063 44.3841 25.0003C44.2293 24.994 44.0777 24.9846 43.926 24.9783L43.6443 24.9658C43.5824 24.9627 43.5205 24.9846 43.4772 25.0285C43.4339 25.0693 43.4091 25.1289 43.4091 25.1884C43.4277 25.8783 43.6382 27.2738 44.8484 28.8574C45.9348 30.118 46.0927 31.573 45.2879 32.8556C44.3253 34.3891 41.9141 35.6183 38.6951 34.9159C38.6549 34.9065 38.6146 34.9096 38.5744 34.9222C37.6953 35.2075 36.2715 35.3329 35.538 35.3329C34.8044 35.3329 33.3806 35.2044 32.5047 34.9222C32.483 34.9159 32.4582 34.9096 32.4335 34.9096C32.418 34.9096 32.3994 34.9127 32.3839 34.9159C29.1649 35.6183 26.7507 34.3859 25.788 32.8556C25.2649 32.0215 25.1535 31.1152 25.4383 30.234C25.4383 30.234 25.4507 30.187 25.4476 30.1494C25.4476 30.1462 25.4476 30.14 25.4476 30.1368C25.4383 30.0459 25.3671 29.9738 25.2711 29.9549C25.1752 29.9361 25.0854 29.9769 25.0359 30.0553L25.0328 30.0616C25.008 30.1023 24.9864 30.1995 24.9864 30.1995C24.7047 31.1717 24.8378 32.1783 25.4073 33.0845C26.2492 34.4235 28.094 35.5556 30.5732 35.5556C31.1582 35.5556 31.7773 35.4929 32.4242 35.3549C33.3992 35.6559 34.8446 35.772 35.5411 35.772C36.2375 35.772 37.683 35.6591 38.6579 35.3549C42.0627 36.0761 44.6317 34.7403 45.6717 33.0845C46.5693 31.6546 46.3898 29.9706 45.2012 28.5908C44.1953 27.2769 43.9291 26.1072 43.8703 25.4142L43.9043 25.4174C44.056 25.4236 44.2077 25.433 44.3624 25.4393C45.8822 25.5114 47.0769 25.041 47.405 24.2351C47.6186 23.7052 47.566 22.824 46.0989 21.623Z" fill="#FF1A25"/>
</svg>
