<svg width="51" height="51" viewBox="0 0 51 51" fill="none" xmlns="http://www.w3.org/2000/svg">
<rect x="0.794922" y="0.189453" width="50" height="50" rx="10" fill="#FF1A25"/>
<path d="M26.8669 25.5783C26.8669 25.1017 26.8514 24.7191 26.8359 24.3679H27.4612L27.4921 25.0045H27.5076C27.7924 24.5529 28.2412 24.2832 28.8664 24.2832C29.7919 24.2832 30.4852 25.0421 30.4852 26.171C30.4852 27.5069 29.6464 28.1654 28.7457 28.1654C28.2412 28.1654 27.7985 27.9522 27.5695 27.5821H27.554V29.5985H26.8669V25.5783ZM27.554 26.5693C27.554 26.6696 27.5695 26.7605 27.585 26.8452C27.7119 27.3125 28.1297 27.6354 28.6281 27.6354C29.3616 27.6354 29.7888 27.0522 29.7888 26.2024C29.7888 25.4592 29.3864 24.8226 28.6497 24.8226C28.1762 24.8226 27.7336 25.1518 27.5974 25.6599C27.5726 25.7445 27.5509 25.8449 27.5509 25.9358V26.5693H27.554Z" fill="white"/>
<path d="M31.3613 22.6338H32.0578V28.0808H31.3613V22.6338Z" fill="white"/>
<path d="M35.3414 28.0776L35.2856 27.6104H35.2609C35.0473 27.902 34.6357 28.1623 34.0909 28.1623C33.3171 28.1623 32.9209 27.6323 32.9209 27.0961C32.9209 26.1992 33.7411 25.7069 35.2207 25.7163V25.641C35.2207 25.3337 35.134 24.7818 34.3509 24.7818C33.9949 24.7818 33.6235 24.8884 33.3542 25.0578L33.1964 24.6125C33.5121 24.4118 33.9702 24.2832 34.453 24.2832C35.623 24.2832 35.9078 25.0578 35.9078 25.801V27.1902C35.9078 27.5131 35.9233 27.8267 35.9697 28.0807H35.3414V28.0776ZM35.2392 26.1835C34.4809 26.1679 33.6204 26.2996 33.6204 27.0208C33.6204 27.4567 33.9207 27.6637 34.2766 27.6637C34.7749 27.6637 35.0907 27.3564 35.2021 27.0428C35.2268 26.9738 35.2423 26.8985 35.2423 26.8295V26.1835H35.2392Z" fill="white"/>
<path d="M37.8395 23.3015V24.3677H38.8362V24.882H37.8395V26.8827C37.8395 27.3437 37.9726 27.6039 38.3595 27.6039C38.5421 27.6039 38.6752 27.582 38.7619 27.5569L38.7928 28.0618C38.6598 28.1151 38.4462 28.1527 38.1769 28.1527C37.8519 28.1527 37.5919 28.0524 37.4279 27.8705C37.2298 27.6698 37.1586 27.3405 37.1586 26.9046V24.8789H36.5674V24.3646H37.1586V23.474L37.8395 23.3015Z" fill="white"/>
<path d="M41.7359 28.0776L41.6802 27.6104H41.6554C41.4418 27.902 41.0302 28.1623 40.4854 28.1623C39.7116 28.1623 39.3154 27.6323 39.3154 27.0961C39.3154 26.1992 40.1357 25.7069 41.6152 25.7163V25.641C41.6152 25.3337 41.5285 24.7818 40.7454 24.7818C40.3895 24.7818 40.018 24.8884 39.7488 25.0578L39.5909 24.6125C39.9066 24.4118 40.3647 24.2832 40.8476 24.2832C42.0176 24.2832 42.3023 25.0578 42.3023 25.801V27.1902C42.3023 27.5131 42.3178 27.8267 42.3642 28.0807H41.7359V28.0776ZM41.6307 26.1835C40.8723 26.1679 40.0119 26.2996 40.0119 27.0208C40.0119 27.4567 40.3121 27.6637 40.668 27.6637C41.1664 27.6637 41.4821 27.3564 41.5935 27.0428C41.6183 26.9738 41.6338 26.8985 41.6338 26.8295V26.1835H41.6307Z" fill="white"/>
<path d="M14.4065 22.9725C13.023 22.9348 11.237 26.4251 10.7634 27.5822C10.4972 28.2282 11.3206 28.6923 11.5868 28.0463C12.0263 26.9707 13.5275 23.9728 14.4096 23.976C15.2887 23.9822 16.7403 26.9958 17.1706 28.0777C17.4275 28.7268 18.257 28.2721 17.997 27.623C17.5358 26.4596 15.787 22.9505 14.4065 22.9725ZM10.7015 25.5C10.6984 25.4592 10.6892 25.4216 10.683 25.3808C10.6365 25.1268 10.553 24.8948 10.4415 24.6878C10.4384 24.6847 10.4353 24.6784 10.4322 24.6753C10.4013 24.6219 10.3703 24.5718 10.3363 24.5216C10.3146 24.4871 10.2899 24.4557 10.2682 24.4244C10.2527 24.4024 10.2372 24.3836 10.2218 24.3617C10.1877 24.3209 10.1568 24.2801 10.1227 24.2425C10.0856 24.2017 10.0515 24.1641 10.0144 24.1265C10.0051 24.1171 9.99891 24.1108 9.98963 24.1014C8.53487 22.7059 5.36227 22.847 4.45536 23.2202C3.84251 23.4711 4.05298 24.208 4.72465 23.9195C5.81726 23.6498 6.86964 23.6561 7.94678 23.9195C8.82582 24.1328 9.7482 24.8822 9.7482 25.685C9.6863 27.6826 6.9625 27.7641 5.8575 27.5038V25.0171C5.8575 24.4244 5.07131 24.4181 5.07131 25.0108V27.5101C5.07131 28.0118 5.3375 28.1937 5.69036 28.2721C6.52298 28.4571 10.0113 28.6547 10.6334 26.2463C10.6458 26.1993 10.6551 26.1554 10.6644 26.1115C10.6737 26.0707 10.683 26.03 10.6891 25.9861C10.7139 25.823 10.717 25.6693 10.7046 25.5219C10.7015 25.5157 10.7015 25.5063 10.7015 25.5ZM25.342 23.5118C25.342 22.8188 24.4443 22.822 24.4443 23.4993V27.8707C24.4443 28.5261 25.342 28.5512 25.342 27.8958V23.5118ZM23.0948 23.261C22.7017 24.3429 21.3615 27.3627 20.5474 27.3721C19.7334 27.3784 18.3436 24.3868 17.932 23.3112C17.6844 22.6652 16.926 23.1355 17.1736 23.7784C17.6163 24.9355 19.2877 28.4195 20.566 28.3756C21.8443 28.3944 23.4415 24.8791 23.8624 23.7125C24.0977 23.0634 23.3331 22.6119 23.0948 23.261Z" fill="white"/>
<path d="M46.0989 20.9216C45.3994 20.3477 44.2139 19.4885 43.8611 19.2345C43.9075 18.7108 44.0034 18.1432 44.1273 17.6603C44.2696 17.1083 44.3965 16.6317 44.1273 16.2993C43.9477 16.0735 43.632 15.97 43.1337 15.97H41.2797C40.8587 15.97 40.5523 16.0892 40.3697 16.3212C40.2335 16.4968 40.1777 16.7289 40.2056 16.9923C38.2154 15.9387 36.4913 15.3146 35.5349 15.3083H35.5318C34.5073 15.3146 32.5944 16.0327 30.4154 17.2306C30.1059 17.4 28.224 18.4787 27.314 19.1592C27.2985 19.1686 25.8004 20.2223 24.974 20.8965C24.5747 21.2226 24.2838 21.5236 24.0702 21.8027H24.0733C24.0423 21.8404 24.0176 21.8874 24.0176 21.9407C24.0176 22.063 24.1197 22.1634 24.2466 22.1634C24.3178 22.1634 24.3766 22.1289 24.42 22.0818L24.4231 22.085C24.4231 22.085 24.4881 21.9972 24.5314 21.9407C24.7233 21.7118 24.9647 21.4735 25.2619 21.232C26.079 20.5672 27.5616 19.5261 27.5833 19.5104C28.4809 18.8393 30.3349 17.7763 30.6383 17.6101C32.7523 16.4467 34.5816 15.7505 35.5349 15.7442C36.4882 15.7505 38.3175 16.4467 40.4316 17.6101C40.5089 17.654 40.6049 17.6477 40.6761 17.5944C40.7473 17.5442 40.7813 17.4564 40.7597 17.3718C40.7473 17.3216 40.7318 17.2683 40.7163 17.215C40.707 17.1867 40.6977 17.1585 40.6916 17.1272C40.6513 16.9923 40.6049 16.7414 40.7287 16.5815C40.8463 16.4341 41.0939 16.4028 41.2827 16.4028H43.1368C43.4711 16.4028 43.6908 16.4592 43.7744 16.5658C43.9075 16.732 43.8023 17.1303 43.6939 17.5536C43.5546 18.0961 43.4494 18.7421 43.4061 19.3223C43.3999 19.3975 43.4339 19.4697 43.4958 19.5136C43.5113 19.523 45.0001 20.5892 45.8111 21.254C46.7953 22.0599 47.2132 22.8125 46.9872 23.3707C46.7365 23.9916 45.6873 24.3616 44.3842 24.2989C44.2294 24.2926 44.0777 24.2832 43.9261 24.2769L43.6444 24.2644C43.5825 24.2613 43.5206 24.2832 43.4773 24.3271C43.4339 24.3679 43.4092 24.4275 43.4092 24.487C43.4277 25.1769 43.6382 26.5724 44.8484 28.156C45.9349 29.4166 46.0927 30.8717 45.288 32.1543C44.3254 33.6877 41.9142 34.917 38.6951 34.2145C38.6549 34.2051 38.6147 34.2082 38.5744 34.2208C37.6954 34.5062 36.2716 34.6316 35.538 34.6316C34.8044 34.6316 33.3806 34.503 32.5047 34.2208C32.483 34.2145 32.4583 34.2082 32.4335 34.2082C32.418 34.2082 32.3994 34.2114 32.384 34.2145C29.1649 34.917 26.7507 33.6846 25.788 32.1543C25.265 31.3201 25.1535 30.4138 25.4383 29.5327C25.4383 29.5327 25.4507 29.4856 25.4476 29.448C25.4476 29.4449 25.4476 29.4386 25.4476 29.4355C25.4383 29.3445 25.3671 29.2724 25.2711 29.2536C25.1752 29.2348 25.0854 29.2755 25.0359 29.3539L25.0328 29.3602C25.008 29.401 24.9864 29.4982 24.9864 29.4982C24.7047 30.4703 24.8378 31.4769 25.4073 32.3832C26.2492 33.7222 28.094 34.8542 30.5733 34.8542C31.1583 34.8542 31.7773 34.7915 32.4242 34.6535C33.3992 34.9546 34.8447 35.0706 35.5411 35.0706C36.2375 35.0706 37.683 34.9577 38.658 34.6535C42.0627 35.3748 44.6318 34.0389 45.6718 32.3832C46.5694 30.9532 46.3899 29.2692 45.2013 27.8895C44.1954 26.5755 43.9292 25.4059 43.8704 24.7128L43.9044 24.716C44.0561 24.7222 44.2077 24.7316 44.3625 24.7379C45.8823 24.81 47.077 24.3397 47.4051 23.5337C47.6187 23.0038 47.5661 22.1226 46.0989 20.9216Z" fill="white"/>
</svg>
