<svg width="51" height="51" viewBox="0 0 51 51" fill="none" xmlns="http://www.w3.org/2000/svg">
<rect x="0.794922" y="0.787109" width="50" height="50" rx="10" fill="#FFDA01"/>
<path d="M8.94531 40.3724C8.94531 41.5724 9.74531 42.3724 11.0453 42.3724C11.6453 42.3724 12.2453 42.1724 12.8453 41.8724L13.3453 42.8724C12.6453 43.2724 11.8453 43.5724 10.9453 43.4724C8.54531 43.4724 7.44531 41.7724 7.44531 39.7724C7.44531 37.6724 8.64531 36.1724 10.5453 36.1724C12.4453 36.1724 13.5453 37.5724 13.5453 39.8724V40.2724L8.94531 40.3724ZM11.8453 39.2724C11.8453 38.3724 11.3453 37.4724 10.4453 37.4724C9.54531 37.4724 8.94531 38.2724 8.94531 39.2724H11.8453Z" fill="black"/>
<path d="M14.8449 37.6723H14.0449L13.5449 36.4723H14.7449V35.4723C14.7449 33.7723 15.7449 33.0723 16.9449 33.0723C17.4449 33.0723 17.8449 33.1723 18.2449 33.3723L17.9449 34.5723C17.6449 34.4723 17.3449 34.3723 17.1449 34.3723C16.5449 34.3723 16.2449 34.7723 16.2449 35.4723V36.5723H18.1449L17.6449 37.7723H16.2449V43.5723H14.7449L14.8449 37.6723Z" fill="black"/>
<path d="M19.8457 40.3724C19.8457 41.5724 20.6457 42.3724 21.9457 42.3724C22.5457 42.3724 23.1457 42.1724 23.7457 41.8724L24.2457 42.8724C23.5457 43.2724 22.7457 43.5724 21.8457 43.4724C19.4457 43.4724 18.3457 41.7724 18.3457 39.7724C18.3457 37.6724 19.5457 36.1724 21.4457 36.1724C23.3457 36.1724 24.4457 37.5724 24.4457 39.8724V40.2724L19.8457 40.3724ZM22.8457 39.2724C22.8457 38.3724 22.3457 37.4724 21.4457 37.4724C20.5457 37.4724 19.9457 38.2724 19.9457 39.2724H22.8457Z" fill="black"/>
<path d="M25.1455 39.9722C25.1455 37.8722 26.6455 36.2722 28.7455 36.2722C29.3455 36.2722 30.0455 36.3722 30.5455 36.7722V38.0722C30.0455 37.7722 29.4455 37.5722 28.8455 37.5722C27.4455 37.5722 26.6455 38.5722 26.6455 39.9722C26.6455 41.4722 27.4455 42.3722 28.7455 42.3722C29.3455 42.3722 29.9455 42.1722 30.4455 41.8722L30.8455 42.9722C30.1455 43.3722 29.3455 43.6722 28.5455 43.6722C26.4455 43.5722 25.1455 41.9722 25.1455 39.9722Z" fill="black"/>
<path d="M42.2449 36.4722L40.5449 41.6722C40.5449 41.6722 39.2449 38.5722 38.8449 37.5722C38.7449 37.2722 38.3449 36.5722 37.2449 36.5722H34.2449V34.4722L32.7449 34.9722V36.5722H31.5449V37.7722H32.7449V41.8722C32.7449 42.9722 33.4449 43.6722 34.6449 43.6722C35.3449 43.6722 36.0449 43.4722 36.5449 43.1722L36.0449 42.0722C35.7449 42.2722 35.3449 42.3722 34.9449 42.4722C34.4449 42.4722 34.2449 42.1722 34.2449 41.5722V37.7722H37.3449L39.9449 43.5722C39.4449 45.2722 38.7449 45.7722 37.9449 45.7722C37.5449 45.7722 37.2449 45.6722 36.9449 45.4722L36.5449 46.6722C37.0449 46.8722 37.5449 46.9722 38.0449 46.9722C39.2449 46.9722 40.3449 46.5722 41.4449 43.7722L44.1449 36.4722H42.2449Z" fill="black"/>
<path d="M38.9927 17.7286C37.5659 25.0053 30.5745 30.8552 23.2979 30.8552C16.0212 30.8552 11.17 25.0053 12.5968 17.7286C14.0236 10.4519 21.015 4.60205 28.2917 4.60205C35.5684 4.60205 40.4195 10.4519 38.9927 17.7286ZM32.0014 6.45689C35.8537 8.02638 37.9939 12.1641 37.1378 16.8726C36.9952 17.8713 36.5671 18.8701 36.1391 19.7262C35.711 20.7249 35.1403 21.581 34.4269 22.4371C34.4269 22.4371 34.4269 22.4371 34.2842 22.5798C34.2842 22.5798 34.2842 22.7224 34.1416 22.7224C32.5721 24.72 30.4319 26.1468 28.0063 27.1455H27.8636H27.7209C27.7209 27.1455 27.7209 27.1455 27.5783 27.1455V26.0041C28.7197 25.7187 29.8611 25.2907 30.7172 24.4346C31.716 23.4359 32.2867 22.009 32.144 20.5822C32.144 19.4408 31.5733 18.2994 30.7172 17.586C29.7185 16.7299 28.7197 16.1592 27.5783 15.5884L27.4356 15.4458C26.5795 15.0177 25.7234 14.5897 25.01 14.1616C24.582 13.8763 24.2966 13.4482 24.1539 12.8775C24.1539 12.5921 24.2966 12.3068 24.4393 12.1641C24.8673 11.7361 25.4381 11.5934 26.0088 11.7361C27.0075 11.8787 28.149 12.0214 29.0051 12.5921C29.1477 12.5921 29.1477 12.5921 29.2904 12.5921C29.8611 12.4495 30.2892 12.1641 30.5745 11.5934C30.7172 11.1653 30.8599 10.88 31.0026 10.4519C31.0026 10.3093 31.0026 10.1666 30.8599 10.0239C29.8611 9.3105 28.8624 9.02514 27.7209 8.88246H27.5783C27.5783 8.88246 27.7209 7.45566 27.7209 7.02762C27.7209 6.88494 27.7209 6.59957 27.7209 6.45689C27.7209 6.31421 27.4356 6.17153 27.2929 6.17153C25.5807 6.31421 24.0113 6.74226 22.5845 7.45566C18.4467 9.45318 15.0224 13.4482 14.1663 18.014C13.1676 23.1505 15.5931 27.5736 20.0162 29.2857C16.1638 27.7163 14.0236 23.5785 14.8797 18.8701C15.0224 17.8713 15.4504 16.8726 15.8785 15.8738C16.0212 15.4458 16.3065 15.0177 16.5919 14.5897C18.1614 12.0214 20.4443 10.0239 23.1552 8.88246C23.5832 8.73978 24.1539 8.45442 24.582 8.31174L24.4393 9.02514C23.4405 9.16782 22.4418 9.73854 21.7284 10.3093C19.8735 12.0214 19.7308 15.0177 21.443 17.0152C22.2991 18.014 23.2979 18.7274 24.4393 19.1554H24.582C25.5807 19.5835 26.4368 20.0115 27.2929 20.5822C28.0063 21.0103 28.149 21.4383 28.149 21.8664C28.149 22.1517 28.0063 22.5798 27.8636 22.7224C27.4356 23.0078 26.8649 23.2932 26.2941 23.2932C24.8673 23.2932 23.5832 22.8651 22.4418 22.1517C22.2991 22.009 22.0137 22.009 21.7284 22.009C21.443 22.009 21.3003 22.1517 21.1576 22.2944C21.015 22.4371 20.8723 22.5798 20.7296 22.8651C20.4442 23.2932 20.4442 23.8639 20.4442 24.4346C20.4442 24.5773 20.4442 24.5773 20.4442 24.72C20.4442 24.8627 20.5869 25.0053 20.5869 25.0053C21.7284 25.8614 23.0125 26.2895 24.4393 26.4321C24.4393 26.4321 24.4393 26.4321 24.582 26.4321C24.582 27.1455 24.582 27.8589 24.582 28.5723C24.582 28.8577 24.582 29.0004 24.582 29.2857C24.582 29.2857 24.582 29.4284 24.7247 29.4284C24.8673 29.5711 24.8673 29.5711 25.01 29.5711C25.01 29.5711 25.01 29.5711 25.1527 29.5711C25.4381 29.5711 25.5807 29.5711 25.8661 29.4284C26.7222 29.2857 27.5783 29.0004 28.4343 28.715C28.577 28.715 28.7197 28.5723 28.8624 28.5723C29.0051 28.5723 29.1477 28.4297 29.2904 28.4297C33.5708 26.4321 36.9952 22.4371 37.8512 17.7286C38.85 12.4495 36.2818 8.02638 32.0014 6.45689Z" fill="black"/>
</svg>
