<svg width="51" height="51" viewBox="0 0 51 51" fill="none" xmlns="http://www.w3.org/2000/svg">
<rect x="0.794922" y="0.0859375" width="50" height="50" rx="10" fill="#008237"/>
<path d="M13.6081 23.8109C13.6081 22.3737 13.1444 21.7092 12.1399 20.7046C11.1354 19.7001 9.45092 19.4065 8.70913 19.4065C7.96733 19.4065 6.731 19.4992 5.60285 20.3956C4.47471 21.2919 3.42383 22.76 3.42383 24.5682C3.42383 26.3763 4.25835 27.4426 4.96924 28.1381C5.68013 28.8489 6.91645 29.5753 8.53913 29.5753C10.1618 29.5753 11.4136 29.0808 12.0936 28.5244C12.4027 28.2771 12.6963 27.7362 12.3408 27.3035C11.9854 26.8708 11.429 26.9945 10.8882 27.2263C10.3473 27.4581 9.60546 27.829 8.7864 27.829C7.96733 27.829 5.55649 27.2108 5.55649 25.2172H12.4645C12.4645 25.2172 13.6081 25.2481 13.6081 23.8109ZM11.3518 23.3936H5.83467C5.24741 23.3936 6.1592 21.1837 8.70913 21.1837C10.3473 21.1837 11.3209 22.2964 11.4909 22.93C11.6299 23.3936 11.3518 23.3936 11.3518 23.3936Z" fill="white"/>
<path d="M20.4235 19.4683C17.5181 19.4683 15.1691 21.4 15.0918 24.2745V33.5469C15.0918 34.1651 15.54 34.6751 16.1736 34.6751C16.8072 34.6751 17.3017 34.1651 17.3017 33.5469V28.6171C18.1826 29.2507 19.2644 29.6371 20.4389 29.6371C23.3906 29.6371 25.6469 27.3653 25.6469 24.429C25.6315 21.4773 23.3597 19.4683 20.4235 19.4683ZM20.3616 28.0453C18.4917 28.0453 16.9772 26.5308 16.9772 24.6608C16.9772 22.7909 18.4917 21.2764 20.3616 21.2764C22.2316 21.2764 23.7461 22.7909 23.7461 24.6608C23.7615 26.5308 22.2316 28.0453 20.3616 28.0453Z" fill="white"/>
<path d="M39.0923 19.4838C36.156 19.4838 35.5069 21.091 35.3369 21.091C35.1669 21.091 34.0852 19.4529 31.7825 19.4529C28.0271 19.4529 27.0381 22.3892 27.0381 23.6409V26.469C27.0381 27.0872 27.5326 27.5972 28.1508 27.5972C28.7689 27.5972 29.2635 27.0872 29.2635 26.469V25.2482C29.2635 25.2327 29.2635 25.2327 29.2635 25.2173C29.2635 24.9082 29.2635 24.5527 29.2635 24.1509C29.2635 22.7291 30.3453 21.7092 31.7825 21.7092C34.1315 21.7092 34.2706 24.29 34.2551 25.1245C34.2551 25.1709 34.2397 25.2327 34.2397 25.2791V26.4999C34.2397 27.1181 34.7497 27.6281 35.3678 27.6281C35.986 27.6281 36.496 27.1181 36.496 26.4999V25.3718C36.496 23.4246 36.8823 21.6783 38.9377 21.6783C38.9377 21.6783 42.1367 21.3228 41.9204 25.4027C41.7504 28.6944 39.2005 30.1007 38.2268 30.5335C38.2114 30.5335 38.1805 30.5489 38.165 30.5644L37.9796 30.6416C37.9023 30.6726 37.8559 30.688 37.8559 30.688V30.7035L37.0523 31.0434C36.4805 31.2907 36.2024 31.9398 36.4496 32.4961C36.6814 33.0525 37.346 33.3152 37.9178 33.0834C37.9178 33.0834 38.1341 33.0061 38.505 32.8361L39.0459 32.6043C39.2005 32.5425 39.3395 32.4343 39.4477 32.3261C39.9268 32.048 40.4831 31.6616 41.1013 31.1671C42.9558 29.6835 44.0839 27.8754 44.0839 24.5836C44.0376 22.2037 42.0286 19.4838 39.0923 19.4838Z" fill="white"/>
<path d="M47.593 16.0684C47.9639 16.4393 48.1648 16.9338 48.1648 17.4593C48.1648 18.0001 47.9639 18.4792 47.593 18.8347C47.2066 19.2056 46.7121 19.4219 46.2021 19.4219C45.6767 19.4219 45.1976 19.221 44.8267 18.8347C44.4558 18.4638 44.2549 17.9692 44.2549 17.4593C44.2549 16.9493 44.4558 16.4393 44.8421 16.0684C45.1976 15.6975 45.6767 15.4966 46.2175 15.4966C46.7275 15.4966 47.2221 15.6975 47.593 16.0684ZM47.4539 16.2229C47.1139 15.8829 46.6812 15.7129 46.2021 15.7129C45.723 15.7129 45.3058 15.8984 44.9812 16.2229C44.6412 16.5629 44.4558 17.0111 44.4558 17.4747C44.4558 17.9383 44.6412 18.371 44.9658 18.6956C45.3058 19.0356 45.7385 19.2056 46.1866 19.2056C46.6503 19.2056 47.0984 19.0201 47.4384 18.6801C47.763 18.3556 47.933 17.9383 47.933 17.4593C47.9484 16.9956 47.763 16.5475 47.4539 16.2229ZM47.1912 16.9184C47.1912 17.2274 46.9903 17.4593 46.6657 17.5056L47.1757 18.541H46.7739L46.2948 17.552H45.7694V18.541H45.4294V16.3002H46.2639C46.8821 16.3002 47.1912 16.4856 47.1912 16.9184ZM45.7694 16.532V17.3511H46.1866C46.6348 17.3511 46.8357 17.2583 46.8357 16.9493C46.8357 16.6402 46.6348 16.532 46.1866 16.532H45.7694Z" fill="white"/>
</svg>
