<svg width="51" height="51" viewBox="0 0 51 51" fill="none" xmlns="http://www.w3.org/2000/svg">
<rect x="0.794922" y="0.384766" width="50" height="50" rx="10" fill="white"/>
<g clip-path="url(#clip0_1888_17006)">
<path d="M13.9504 17.125H12.8907C12.7037 17.125 12.579 17.1873 12.4544 17.312C12.3297 17.4367 12.2674 17.6237 12.2674 17.7484V17.9977C11.3323 17.4367 10.3349 17.125 9.27519 17.125C7.84144 17.125 6.53237 17.686 5.53498 18.6834C4.53759 19.6808 3.97656 21.0522 3.97656 22.4236C3.97656 23.8574 4.53759 25.1664 5.53498 26.1638C6.53237 27.1612 7.84144 27.7223 9.27519 27.7223C10.3349 27.7223 11.3323 27.4106 12.205 26.7872V28.2209V28.2833C12.205 29.0937 11.8933 29.8417 11.3323 30.4027C10.7713 30.9638 10.0232 31.2754 9.27519 31.2754C8.71416 31.2754 8.15313 31.0884 7.65443 30.7768C7.15574 30.4651 6.78172 30.0287 6.59471 29.53L6.53237 29.343C6.53237 29.2183 6.4077 29.0313 6.34536 28.969C6.22069 28.8443 6.09601 28.8443 5.909 28.8443H4.7246C4.53759 28.8443 4.41292 28.9067 4.28825 29.0313C4.16357 29.156 4.10124 29.2807 4.10124 29.4677C4.10124 29.53 4.10124 29.5924 4.16357 29.6547C4.47526 30.7768 5.09862 31.8365 6.03368 32.5222C6.96873 33.2702 8.09079 33.6442 9.27519 33.6442C10.6466 33.6442 12.018 33.0832 13.0154 32.0858C14.0128 31.0884 14.5738 29.717 14.5738 28.3456V28.2833V17.7484C14.5738 17.5614 14.5115 17.4367 14.3868 17.312C14.2621 17.1873 14.0751 17.125 13.9504 17.125ZM9.27519 25.4158C8.46481 25.4158 7.71677 25.1041 7.21807 24.5431C6.65704 23.982 6.34536 23.234 6.34536 22.4236C6.34536 21.6132 6.65704 20.8652 7.21807 20.3042C7.71677 19.8055 8.46481 19.4938 9.27519 19.4938C10.0856 19.4938 10.8336 19.8055 11.3323 20.3665C11.8933 20.9275 12.205 21.6756 12.205 22.486C12.205 23.2963 11.8933 24.0444 11.3323 24.6054C10.7713 25.1041 10.0232 25.4158 9.27519 25.4158Z" fill="#87B843"/>
<path d="M20.3089 24.6677C19.8102 24.6677 19.3115 24.4807 18.9375 24.169C18.5635 23.8574 18.2518 23.421 18.1271 22.9846C18.0648 22.7976 18.0648 22.5483 18.2518 22.4859C18.4388 22.4236 18.5635 22.5483 18.6258 22.7353C18.8128 23.3587 19.6855 23.8574 20.3712 23.8574C21.057 23.8574 21.9297 23.421 22.1167 22.7353C22.179 22.5483 22.3037 22.4236 22.4907 22.4859C22.6777 22.5483 22.6777 22.7976 22.6154 22.9846C22.4907 23.4833 22.179 23.9197 21.805 24.169C21.244 24.4807 20.8076 24.6677 20.3089 24.6677Z" fill="#87B843"/>
<path d="M24.9223 17.125H23.8626C23.8002 17.125 23.6756 17.125 23.6132 17.1873C23.5509 17.2497 23.4885 17.2497 23.4262 17.312C23.3639 17.3743 23.3015 17.4367 23.3015 17.499C23.3015 17.5614 23.2392 17.686 23.2392 17.7484V17.9977C22.3665 17.4367 21.3068 17.125 20.3094 17.125C18.8756 17.125 17.5665 17.686 16.5692 18.6834C15.5718 19.6808 15.0107 21.0522 15.0107 22.4236C15.0107 23.8574 15.5718 25.1664 16.5692 26.1638C17.5665 27.1612 18.8756 27.7223 20.3094 27.7223C21.3691 27.7223 22.3665 27.4106 23.2392 26.7872V27.0989C23.2392 27.2859 23.3015 27.4106 23.4262 27.5352C23.5509 27.6599 23.7379 27.7223 23.8626 27.7223H24.9223C25.1093 27.7223 25.234 27.6599 25.3586 27.5352C25.4833 27.4106 25.5457 27.2236 25.5457 27.0989V17.7484C25.5457 17.5614 25.4833 17.4367 25.3586 17.312C25.234 17.1873 25.1093 17.125 24.9223 17.125ZM20.3094 25.4158C19.499 25.4158 18.7509 25.1041 18.2523 24.5431C17.6912 23.982 17.3795 23.234 17.3795 22.4236C17.3795 21.6132 17.6912 20.8652 18.2523 20.3042C18.8133 19.7431 19.5613 19.4315 20.3094 19.4315C21.1197 19.4315 21.8678 19.7431 22.3665 20.3042C22.9275 20.8652 23.2392 21.6132 23.2392 22.4236C23.2392 23.234 22.9275 23.982 22.3665 24.5431C21.8054 25.1041 21.0574 25.4158 20.3094 25.4158Z" fill="#255C3C"/>
<path d="M46.9887 17.1248H45.929C45.742 17.1248 45.6173 17.1872 45.4926 17.3118C45.3679 17.4365 45.3056 17.6235 45.3056 17.7482V17.9976C44.4329 17.4365 43.4355 17.0625 42.3758 17.0625C41.0044 17.0625 39.633 17.6235 38.6356 18.6209C37.6382 19.6183 37.0771 20.9897 37.0771 22.3611C37.0771 23.7949 37.6382 25.1039 38.6356 26.1013C39.633 27.0987 40.942 27.6598 42.3758 27.6598C43.4355 27.6598 44.4329 27.3481 45.3056 26.7247V27.0987C45.3056 27.2857 45.3679 27.4104 45.4926 27.5351C45.6173 27.6598 45.742 27.7221 45.929 27.7221H46.9887C47.1757 27.7221 47.3004 27.6598 47.4251 27.5351C47.5497 27.4104 47.6121 27.2234 47.6121 27.0987V17.7482C47.6121 17.5612 47.5497 17.4365 47.4251 17.3118C47.3004 17.1872 47.1134 17.1248 46.9887 17.1248ZM42.3134 25.4156C41.5031 25.4156 40.755 25.1039 40.2563 24.5429C39.6953 23.9819 39.3836 23.2338 39.3836 22.4235C39.3836 21.6131 39.6953 20.865 40.2563 20.304C40.8174 19.743 41.5654 19.4313 42.3134 19.4313C43.1238 19.4313 43.8719 19.743 44.3706 20.304C44.9316 20.865 45.2433 21.6131 45.2433 22.4235C45.2433 23.2338 44.9316 23.9819 44.3706 24.5429C43.8719 25.1039 43.1238 25.4156 42.3134 25.4156Z" fill="#87B843"/>
<path d="M31.2802 17.125C30.2205 17.125 29.2231 17.4367 28.3504 17.9977V17.7484C28.3504 17.5614 28.2881 17.4367 28.1634 17.312C28.0387 17.1873 27.914 17.125 27.727 17.125H26.6673C26.4803 17.125 26.3556 17.1873 26.231 17.312C26.1063 17.4367 26.0439 17.6237 26.0439 17.7484V27.0989C26.0439 27.2859 26.1063 27.4106 26.231 27.5352C26.3556 27.6599 26.5426 27.7223 26.6673 27.7223H27.727C27.914 27.7223 28.0387 27.6599 28.1634 27.5352C28.2881 27.4106 28.3504 27.2236 28.3504 27.0989V22.4236C28.3504 21.6132 28.6621 20.8652 29.2231 20.3042C29.7842 19.7431 30.5322 19.4315 31.2802 19.4315C32.0906 19.4315 32.8387 19.7431 33.3373 20.3042C33.8984 20.8652 34.2101 21.6132 34.2101 22.4236V27.0989C34.2101 27.2859 34.2724 27.4106 34.3971 27.5352C34.5217 27.6599 34.7088 27.7223 34.8334 27.7223H35.8932C36.0802 27.7223 36.2048 27.6599 36.3295 27.5352C36.4542 27.4106 36.5165 27.2236 36.5165 27.0989V22.4236C36.5165 20.9899 35.9555 19.6808 34.9581 18.6834C34.0231 17.686 32.714 17.125 31.2802 17.125Z" fill="#87B843"/>
</g>
<defs>
<clipPath id="clip0_1888_17006">
<rect width="43.6357" height="16.5192" fill="white" transform="translate(3.97656 17.125)"/>
</clipPath>
</defs>
</svg>
