<svg width="51" height="51" viewBox="0 0 51 51" fill="none" xmlns="http://www.w3.org/2000/svg">
<rect x="0.794922" y="0.781494" width="50" height="50" rx="10" fill="#002F87"/>
<g clip-path="url(#clip0_1900_17266)">
<path d="M36.0319 18.3771C36.403 16.0327 36.0319 14.4472 34.7669 12.9967C33.367 11.3944 30.8539 10.7197 27.6155 10.7197H18.2546C17.5968 10.7197 17.0402 11.192 16.939 11.8498L13.0428 36.5761C12.9585 37.0652 13.3464 37.5038 13.8356 37.5038H19.6039L19.1991 40.0337C19.1316 40.4554 19.469 40.8433 19.8906 40.8433H24.7651C25.3385 40.8433 25.8277 40.4217 25.9289 39.8482L25.9795 39.5952L26.8902 33.7763L26.9577 33.4558C27.042 32.8823 27.5312 32.4607 28.1215 32.4607H28.8468C33.5694 32.4607 37.2632 30.5379 38.3426 25.0057C38.798 22.695 38.5619 20.7553 37.3644 19.3891C37.0102 18.9843 36.5548 18.647 36.0319 18.3771Z" fill="#738DBD"/>
<path d="M36.0319 18.3771C36.403 16.0327 36.0319 14.4472 34.7669 12.9967C33.367 11.3944 30.8539 10.7197 27.6155 10.7197H18.2546C17.5968 10.7197 17.0402 11.192 16.939 11.8498L13.0428 36.5761C12.9585 37.0652 13.3464 37.5038 13.8356 37.5038H19.6039L21.0544 28.2946L21.0038 28.5814C21.105 27.9236 21.6616 27.4513 22.3194 27.4513H25.0687C30.4659 27.4513 34.6826 25.2587 35.9307 18.9169C35.9813 18.7313 35.9982 18.5458 36.0319 18.3771Z" fill="#B2C1DB"/>
<path d="M22.623 18.4109C22.6905 18.0229 22.9435 17.7025 23.2808 17.5338C23.4326 17.4663 23.6013 17.4157 23.7868 17.4157H31.1237C32.0008 17.4157 32.8104 17.4663 33.5525 17.5844C33.7718 17.6181 33.9742 17.6519 34.1766 17.7025C34.379 17.7531 34.5645 17.8037 34.7669 17.8543C34.8681 17.888 34.9524 17.9049 35.0368 17.9386C35.4078 18.0567 35.7452 18.2085 36.0488 18.3603C36.4198 16.0158 36.0488 14.4304 34.7838 12.9798C33.367 11.3944 30.8539 10.7197 27.6155 10.7197H18.2546C17.5968 10.7197 17.0402 11.192 16.939 11.8498L13.0428 36.5761C12.9585 37.0652 13.3464 37.5038 13.8356 37.5038H19.6039L21.0544 28.2946L22.623 18.4109Z" fill="white"/>
</g>
<defs>
<clipPath id="clip0_1900_17266">
<rect width="25.5359" height="30.1236" fill="white" transform="translate(13.0264 10.7197)"/>
</clipPath>
</defs>
</svg>
