<svg width="51" height="51" viewBox="0 0 51 51" fill="none" xmlns="http://www.w3.org/2000/svg">
<rect x="0.794922" y="0.0805664" width="50" height="50" rx="10" fill="white"/>
<g clip-path="url(#clip0_1900_17332)">
<path d="M7.58426 25.8308C7.58426 27.2276 7.27385 27.4863 6.54956 27.4863C6.13569 27.4863 5.72181 27.4345 5.30793 27.2793H5.25619C5.20446 27.2793 5.15272 27.1759 5.15272 27.1241V24.8478C5.15272 24.7961 5.15272 24.7443 5.20446 24.7443C5.72181 24.3822 6.13568 24.1235 6.65303 24.1235C7.27385 24.1235 7.58426 24.3822 7.58426 25.8308ZM7.17038 22.9854C6.49783 22.9854 5.82528 23.244 5.25619 23.6579C5.20446 23.6579 5.15272 23.7096 5.10099 23.6579C5.04925 23.6579 4.99752 23.6062 4.99752 23.5544L4.94578 23.2958C4.94578 23.1923 4.84231 23.0888 4.73884 23.0888H4.01456C3.91109 23.0888 3.80762 23.1923 3.80762 23.3475V30.3834C3.80762 30.4869 3.91109 30.5904 4.01456 30.5904H4.94578C5.04925 30.5904 5.15272 30.4869 5.15272 30.3834V29.1935C5.15272 28.9349 5.15272 28.7279 5.15272 28.4175C5.15272 28.3658 5.15272 28.314 5.20446 28.2623C5.25619 28.2106 5.30793 28.2106 5.35966 28.2623C5.82528 28.521 6.39436 28.6244 6.91171 28.6244C8.36028 28.6244 8.9811 27.7967 8.9811 25.8825C9.03284 23.9166 8.41202 22.9854 7.17038 22.9854Z" fill="black"/>
<path d="M14.7235 23.0886H13.7923C13.6888 23.0886 13.5854 23.1921 13.5854 23.2956V26.7618C13.5854 26.8135 13.5336 26.8653 13.4819 26.917C12.9128 27.2274 12.4989 27.4343 12.0333 27.4343C11.8781 27.4343 11.6712 27.3826 11.5677 27.2791C11.4642 27.1239 11.4125 26.917 11.4125 26.7101V23.3473C11.4125 23.2438 11.309 23.1404 11.2055 23.1404H10.2743C10.1709 23.1404 10.0674 23.2438 10.0674 23.3473V27.1239C10.0674 28.1069 10.5847 28.6243 11.5677 28.6243C12.292 28.6243 12.9645 28.3656 13.5336 27.9517C13.5854 27.9 13.6888 27.9 13.7406 28.0034V28.0552L13.7923 28.3138C13.7923 28.4173 13.8958 28.5208 13.9992 28.5208H14.6718C14.7753 28.5208 14.8787 28.4173 14.8787 28.3138V23.3473C14.9305 23.1921 14.827 23.0886 14.7235 23.0886Z" fill="black"/>
<path d="M19.7416 22.9336C19.069 22.9336 18.3965 23.1923 17.6722 23.7096C17.6205 23.7614 17.517 23.7614 17.4653 23.6579C17.4653 23.6579 17.4653 23.6061 17.4135 23.6061L17.3618 23.2957C17.3618 23.1923 17.2583 23.0888 17.1549 23.0888H16.4306C16.3271 23.0888 16.2236 23.1923 16.2236 23.3475V28.2623C16.2236 28.3658 16.3271 28.4692 16.4306 28.4692H17.3618C17.4653 28.4692 17.5687 28.3658 17.5687 28.2623V24.8995C17.5687 24.8478 17.6205 24.796 17.6722 24.7443C18.293 24.3822 18.8104 24.1235 19.3277 24.1235C19.7416 24.1235 19.8451 24.2787 19.8451 24.8478V28.2105C19.8451 28.314 19.9485 28.4175 20.052 28.4175H20.9832C21.0867 28.4175 21.1902 28.314 21.1902 28.2105V24.4339C21.2419 23.5027 20.7246 22.9336 19.7416 22.9336Z" fill="black"/>
<path d="M25.64 23.0887H24.5018C24.3984 23.0887 24.3466 23.037 24.3466 22.9335V21.7953C24.3466 21.6918 24.2432 21.5884 24.1397 21.5884H23.2085C23.105 21.5884 23.0015 21.6918 23.0015 21.7953V22.9335C23.0015 23.037 22.9498 23.0887 22.8463 23.0887L22.2255 23.1404C22.122 23.1404 22.0186 23.2439 22.0186 23.3474V23.8647C22.0186 23.9682 22.122 24.0717 22.2255 24.0717H22.7946C22.898 24.0717 22.9498 24.1234 22.9498 24.2269V26.9688C22.9498 27.9518 23.4671 28.5208 24.3984 28.5208C24.8122 28.5208 25.2261 28.4691 25.5883 28.3656C25.6917 28.3139 25.7952 28.2104 25.7435 28.107L25.64 27.4861C25.64 27.3827 25.5365 27.2792 25.4331 27.2792H24.864C24.3984 27.2792 24.2432 27.124 24.2432 26.7101V24.2786C24.2432 24.1751 24.2949 24.1234 24.3984 24.1234H25.5883C25.6917 24.1234 25.7952 24.0199 25.7952 23.9164V23.3474C25.8987 23.1922 25.7952 23.0887 25.64 23.0887Z" fill="black"/>
<path d="M36.2446 22.9336C35.4686 22.9853 34.796 23.244 34.2269 23.6579C34.1752 23.7096 34.0717 23.7096 34.02 23.6061C34.02 23.6061 34.02 23.5544 33.9682 23.5544L33.9165 23.244C33.9165 23.1405 33.813 23.0371 33.7096 23.0371H33.037C32.9335 23.0371 32.8301 23.1405 32.8301 23.244V28.1588C32.8301 28.2623 32.9335 28.3658 33.037 28.3658H33.9682C34.0717 28.3658 34.1752 28.2623 34.1752 28.1588V24.7443C34.1752 24.6926 34.2269 24.6408 34.2787 24.5891C34.9512 24.4339 35.4168 24.227 35.9342 24.227H36.1411C36.2446 24.227 36.348 24.1235 36.348 24.02L36.4515 23.1923C36.4515 23.0888 36.3998 22.9853 36.2446 22.9336Z" fill="black"/>
<path d="M40.0738 25.3651H38.47C38.4183 25.3651 38.3665 25.3651 38.3665 25.3134C38.3148 25.2617 38.3148 25.2617 38.3148 25.2099C38.3665 24.3304 38.677 24.0718 39.5047 24.0718C40.2807 24.0718 40.5394 24.2787 40.5394 24.796C40.5394 25.0547 40.4877 25.3651 40.0738 25.3651ZM38.5217 26.3481H40.4877C41.4706 26.3481 41.9362 25.8307 41.9362 24.796C41.9362 23.5027 41.1602 22.9336 39.5047 22.9336C38.5735 22.9336 37.9527 23.1405 37.5388 23.5544C37.1249 23.9683 36.918 24.6926 36.918 25.779C36.918 27.7967 37.694 28.5727 39.6082 28.5727C40.2807 28.5727 41.005 28.4692 41.6776 28.2623C41.781 28.2105 41.8328 28.1071 41.8328 28.0036L41.781 27.4863C41.781 27.3828 41.6776 27.2793 41.5224 27.2793C40.9016 27.3311 40.229 27.3828 39.8151 27.3828C39.0391 27.3828 38.6252 27.2276 38.47 26.4516C38.3148 26.4516 38.3665 26.3998 38.5217 26.3481C38.47 26.3481 38.47 26.3481 38.5217 26.3481Z" fill="black"/>
<path d="M46.4368 24.4337V26.8135C46.4368 26.8652 46.3851 26.917 46.3851 26.9687C45.8677 27.3308 45.6091 27.4343 45.0917 27.4343C44.4192 27.4343 44.1088 27.1756 44.1088 25.7788C44.1088 24.382 44.3674 24.1233 45.1435 24.1233C45.5056 24.1233 45.8677 24.175 46.2299 24.2785H46.2816C46.3851 24.2785 46.4368 24.3302 46.4368 24.4337ZM47.575 20.8123H46.6438C46.5403 20.8123 46.4368 20.9157 46.4368 21.0192V22.3643C46.4368 22.6747 46.4368 22.8816 46.4368 23.0886C46.4368 23.1403 46.4368 23.1921 46.3851 23.2438C46.3334 23.2955 46.2816 23.2955 46.2299 23.2438C45.7643 23.0369 45.2469 22.9334 44.7813 22.9334C43.3327 22.9334 42.7119 23.7611 42.7119 25.7271C42.7119 27.6413 43.3327 28.5725 44.6261 28.5725C45.2987 28.5725 45.9195 28.3138 46.4368 27.8999C46.4886 27.8482 46.5403 27.8482 46.592 27.8999C46.6438 27.8999 46.6955 27.9517 46.6955 28.0034L46.7472 28.2103C46.7472 28.3138 46.8507 28.4173 46.9542 28.4173H47.6267C47.7302 28.4173 47.8337 28.3138 47.8337 28.2103V21.0709C47.7819 20.9157 47.7302 20.8123 47.575 20.8123Z" fill="black"/>
<path d="M30.3993 20.8124C30.3993 21.5367 29.8302 22.0541 29.1577 22.0541C28.4334 22.0541 27.916 21.485 27.916 20.8124C27.916 20.1399 28.4334 19.5708 29.1059 19.5708C29.8302 19.5708 30.3993 20.1399 30.3993 20.8124Z" fill="#E72A81"/>
<path d="M29.1063 27.1758C28.3302 27.1758 27.7094 26.555 27.7094 25.779C27.7094 25.003 28.3302 24.3822 29.1063 24.3822C29.8823 24.3822 30.5031 25.003 30.5031 25.779C30.5548 26.5033 29.8823 27.1758 29.1063 27.1758ZM29.1063 22.9336C27.1921 22.9336 26.4678 23.7096 26.4678 25.779C26.4678 27.8484 27.1921 28.5727 29.1063 28.5727C31.0204 28.5727 31.7447 27.7967 31.7447 25.779C31.7447 23.7096 31.0722 22.9336 29.1063 22.9336Z" fill="black"/>
</g>
<defs>
<clipPath id="clip0_1900_17332">
<rect width="43.9746" height="11.0195" fill="white" transform="translate(3.80762 19.5708)"/>
</clipPath>
</defs>
</svg>
