<svg width="51" height="51" viewBox="0 0 51 51" fill="none" xmlns="http://www.w3.org/2000/svg">
<g clip-path="url(#clip0_1900_17369)">
<path d="M25.8083 50.1767C39.6229 50.1767 50.8218 38.9778 50.8218 25.1633C50.8218 11.3488 39.6229 0.149902 25.8083 0.149902C11.9938 0.149902 0.794922 11.3488 0.794922 25.1633C0.794922 38.9778 11.9938 50.1767 25.8083 50.1767Z" fill="url(#paint0_radial_1900_17369)"/>
<path d="M32.5453 18.9907H26.614C26.5872 18.9907 26.5603 18.9907 26.5335 18.9907C25.5941 19.2054 23.8228 20.1448 23.8228 22.265C23.7691 23.0702 24.118 24.3584 25.8088 24.8952H30.0225C30.2103 24.8952 31.3644 25.1636 31.2839 27.1764C31.2034 29.1893 29.4857 29.4577 29.2173 29.7261H22.7224C22.5077 29.7261 22.3467 29.914 22.3467 30.1287C22.3467 30.3434 22.5077 30.5312 22.7224 30.5312H29.2978C29.3247 30.5312 29.3515 30.4239 29.3515 30.4239C30.2372 30.2629 31.9548 29.3504 32.0622 27.1496C32.1695 24.3047 30.103 24.1169 30.0761 24.1169H25.9162C24.4938 23.8485 24.5743 22.3455 24.5743 22.2919C24.5474 20.3863 26.3724 19.7959 26.6677 19.7959H32.5453C32.76 19.7959 32.921 19.608 32.921 19.3933C32.921 19.2054 32.7332 18.9907 32.5453 18.9907Z" fill="white"/>
<path d="M41.5619 18.9639C41.5351 18.9639 41.4814 19.0175 41.4546 19.0175H37.0262C35.0133 19.0175 34.1277 21.3257 34.074 21.433C34.074 21.4598 34.074 21.433 34.0472 21.4598C33.9935 21.6745 32.9199 26.5323 32.9468 28.1426C32.9736 29.6456 34.5302 30.2092 35.3354 30.2897C35.3622 30.2897 35.3622 30.2897 35.3891 30.2897H41.5351C41.7498 30.2897 41.9108 30.1018 41.9108 29.8871C41.9108 29.6724 41.7498 29.4845 41.5351 29.4845H35.4159C35.228 29.4845 33.7519 29.2698 33.7251 28.0889C33.6983 27.4717 33.8861 26.2639 34.1008 25.0294L42.6623 24.9757C42.8502 24.9757 43.0112 24.8415 43.038 24.6536C43.0649 24.5731 43.4406 22.3723 43.4406 21.0573C43.4406 19.5006 41.6156 18.9907 41.5619 18.9639ZM42.3402 24.2242L34.235 24.3047C34.4766 22.9896 34.745 21.9161 34.7718 21.7014C34.8523 21.4867 35.6038 19.8227 36.9994 19.8227H41.3741C41.6156 19.8227 42.6623 20.2521 42.6623 21.1378C42.6891 22.0771 42.4476 23.5532 42.3402 24.2242Z" fill="white"/>
<path d="M22.7223 21.272C22.937 19.7691 21.0315 19.0176 20.6826 19.0176C19.1528 19.0176 16.8179 19.0713 16.5763 19.0713C16.5495 19.0713 16.5226 19.0981 16.469 19.0981C15.5028 19.2591 14.2145 20.4669 13.812 21.6209C13.7583 21.7551 13.7314 21.943 13.6778 22.2382C13.5973 22.5871 13.5167 23.097 13.4094 23.7143C13.1947 24.922 12.8995 26.5592 12.6042 28.1695C12.0138 31.4169 11.4233 34.6644 11.4233 34.6644C11.3965 34.8523 11.5307 35.067 11.7186 35.0938C11.7454 35.0938 11.7722 35.0938 11.7722 35.0938C11.9601 35.0938 12.0943 34.9596 12.1211 34.7986C12.3627 33.4298 12.7653 31.1754 13.1947 28.9478C14.1609 30.1555 15.3418 30.2897 15.4223 30.2897C15.4491 30.2897 15.4491 30.2897 15.4759 30.2897L19.2602 30.1824C19.287 30.1824 19.3138 30.1824 19.3675 30.1555C21.1657 29.6188 21.7025 27.7669 21.7293 27.6864C21.7293 27.6864 21.7293 27.6596 21.7293 27.6327L22.7492 21.3525C22.6955 21.3257 22.6955 21.272 22.7223 21.272ZM21.9708 21.2452L20.951 27.4717C20.8973 27.6327 20.4411 29.0015 19.1528 29.404L15.4491 29.5114C15.2881 29.4846 14.134 29.2699 13.3825 27.8474C13.9193 24.8415 14.4292 22.1308 14.4829 21.8356C14.8318 20.9231 15.9322 19.9301 16.5495 19.8227C16.6837 19.8227 16.8715 19.8227 17.1399 19.8227C17.5425 19.8227 18.0524 19.8227 18.5624 19.8227C19.4212 19.8227 20.28 19.8227 20.5484 19.8227C21.0315 19.8227 22.0782 20.5474 21.9708 21.2452Z" fill="white"/>
<path d="M5.67951 18.8028C6.25759 18.8028 6.72621 18.2981 6.72621 17.6756C6.72621 17.053 6.25759 16.5483 5.67951 16.5483C5.10144 16.5483 4.63281 17.053 4.63281 17.6756C4.63281 18.2981 5.10144 18.8028 5.67951 18.8028Z" fill="#FDB718"/>
<path d="M4.60586 14.106C4.60586 13.6229 4.31064 13.1935 3.88122 13.0593C3.53232 13.7034 3.21026 14.3476 2.91504 15.0185C3.10291 15.1527 3.31762 15.2601 3.55916 15.2601C4.14961 15.2332 4.60586 14.7501 4.60586 14.106Z" fill="#FDB718"/>
<path d="M2.48625 17.6755C2.48625 17.3803 2.3789 17.0851 2.19103 16.8972C1.97632 17.5145 1.78845 18.1318 1.60059 18.7759C2.11052 18.6686 2.48625 18.2123 2.48625 17.6755Z" fill="#FDB718"/>
<path d="M5.8133 32.4634C6.39138 32.4634 6.86 31.9587 6.86 31.3362C6.86 30.7137 6.39138 30.209 5.8133 30.209C5.23522 30.209 4.7666 30.7137 4.7666 31.3362C4.7666 31.9587 5.23522 32.4634 5.8133 32.4634Z" fill="#FDB718"/>
<path d="M2.10987 31.3361C2.10987 30.8798 1.78781 30.4773 1.3584 30.4236C1.46575 30.9872 1.62678 31.524 1.76097 32.0607C1.97568 31.8997 2.10987 31.6313 2.10987 31.3361Z" fill="#FDB718"/>
<path d="M4.60616 35.0132C4.60616 34.3959 4.12307 33.886 3.55946 33.886C3.15689 33.886 2.78115 34.1544 2.62012 34.5301C2.83482 35.0669 3.07637 35.6036 3.31792 36.1136C3.39843 36.1404 3.47895 36.1404 3.55946 36.1404C4.12307 36.1404 4.60616 35.6305 4.60616 35.0132Z" fill="#FDB718"/>
<path d="M6.40415 27.8474H4.28392C4.14973 27.579 3.74715 27.1227 3.2909 27.1227C2.70045 27.1227 2.2442 27.6595 2.2442 28.2768C2.2442 28.8941 2.72729 29.4308 3.2909 29.4308C3.74715 29.4308 4.14973 29.2161 4.28392 28.6794H6.00158H6.59202H6.6457L8.87329 24.6536H12.2818V24.1168H6.69938L4.39127 20.0911H4.23024H3.6398H1.30485C1.25118 20.3594 1.1975 20.6278 1.14382 20.8962H4.04237L5.92106 24.1168H0.82176C0.82176 24.3047 0.82176 24.4657 0.794922 24.6536H8.22917L6.40415 27.8474Z" fill="#FDB718"/>
<path d="M15.0196 15.6357H16.1469C16.1469 15.6357 16.4689 15.7431 16.4152 16.1188L16.2005 17.6218H15.0196C15.0196 17.6218 14.4829 17.4339 14.7781 16.8703C14.7781 16.8703 15.0196 16.5751 15.2344 16.5751L16.3347 16.6019" stroke="white" stroke-width="0.268384" stroke-miterlimit="10"/>
<path d="M18.4544 15.6357H17.3272C17.3272 15.6357 16.9246 15.8236 16.8441 16.3335C16.8441 16.3335 16.5757 17.085 16.8978 17.6218L17.032 17.6486H18.1055" stroke="white" stroke-width="0.268384" stroke-miterlimit="10"/>
<path d="M19.0988 14.7234L18.9378 15.6359L18.5889 17.6756" stroke="white" stroke-width="0.268384" stroke-miterlimit="10"/>
<path d="M18.8848 16.0116C18.8848 16.0116 19.019 15.7432 19.2605 15.6359C19.2605 15.6359 20.1193 15.5554 20.2535 15.7701C20.2535 15.7701 20.4146 15.8506 20.4146 16.0921L20.1462 17.6219" stroke="white" stroke-width="0.268384" stroke-miterlimit="10"/>
</g>
<defs>
<radialGradient id="paint0_radial_1900_17369" cx="0" cy="0" r="1" gradientUnits="userSpaceOnUse" gradientTransform="translate(26.2439 25.0611) scale(25.0014)">
<stop offset="0.3155" stop-color="#2D5CA8"/>
<stop offset="0.5312" stop-color="#285496"/>
<stop offset="0.7289" stop-color="#1F4272"/>
<stop offset="1" stop-color="#0D2D4D"/>
</radialGradient>
<clipPath id="clip0_1900_17369">
<rect width="50" height="50" fill="white" transform="translate(0.794922 0.149902)"/>
</clipPath>
</defs>
</svg>
