<svg width="51" height="51" viewBox="0 0 51 51" fill="none" xmlns="http://www.w3.org/2000/svg">
<rect x="0.794922" y="0.676758" width="50" height="50" rx="10" fill="#009E3D"/>
<path d="M14.5831 20.2912C14.5327 21.1493 14.3308 21.9064 13.9976 22.6433C13.3213 22.5222 12.6853 22.3707 12.0393 22.3102C11.4437 22.2597 10.8279 22.189 10.2424 22.3909C9.78813 22.5524 9.51557 22.8755 9.44491 23.3398C9.36415 23.8648 9.43482 24.3695 9.91936 24.6925C10.4847 25.0761 11.0904 25.4093 11.6658 25.7828C12.221 26.126 12.7661 26.4793 13.1396 27.0446C13.4929 27.5796 13.6645 28.1449 13.6847 28.791C13.7049 29.639 13.5333 30.4163 13.0689 31.133C12.6349 31.8093 12.009 32.2535 11.2822 32.5563C10.6361 32.8289 9.95974 33.0207 9.23292 33.0005C9.02093 32.9904 8.79885 33.1015 8.58686 33.0813C7.42596 32.9601 6.24487 32.94 5.11426 32.4251C5.31615 31.6377 5.54833 30.8503 5.88146 30.1235C6.55781 30.3052 7.18368 30.497 7.81965 30.6182C8.47581 30.7494 9.12188 30.8402 9.80832 30.6888C10.7875 30.4566 11.2216 29.1746 10.4443 28.4276C10.1616 28.155 9.80832 27.943 9.4651 27.721C9.11178 27.4888 8.74837 27.2869 8.38496 27.085C7.9206 26.8326 7.5471 26.4591 7.20387 26.0755C7.04236 25.8938 6.91113 25.6616 6.81018 25.4395C6.55781 24.8339 6.39629 24.208 6.578 23.5316C6.66885 23.1985 6.67895 22.825 6.81018 22.5121C7.30482 21.331 8.23354 20.6445 9.43482 20.2811C10.4342 19.9783 11.4538 19.9278 12.4733 19.9985C13.1598 20.0187 13.8361 20.1701 14.5831 20.2912Z" fill="white"/>
<path d="M17.9045 28.1246C17.9045 28.4577 17.9045 28.7101 17.9045 28.9624C17.9045 29.4975 18.1568 29.8609 18.6616 30.0224C19.2269 30.2041 19.8225 30.2243 20.3979 30.1132C21.0641 29.982 21.7304 29.8003 22.4269 29.6287C22.5481 30.3454 22.6591 31.1025 22.6389 31.9202C22.4471 31.9909 22.2553 32.0918 22.0534 32.1423C20.8824 32.4552 19.6711 32.5461 18.4698 32.4552C17.5814 32.3846 16.7739 32.0716 16.1581 31.3751C15.7442 30.9107 15.512 30.3757 15.3909 29.77C15.3 29.3057 15.2899 28.8413 15.3 28.3668C15.3101 27.6097 15.4918 26.8829 15.6735 26.146C15.9057 25.1971 16.3196 24.3592 16.9859 23.6425C17.6622 22.9157 18.4799 22.4816 19.4793 22.3806C19.6408 22.3605 19.8023 22.2999 19.9739 22.2898C20.7815 22.2696 21.5689 22.3706 22.3058 22.7441C23.0528 23.1277 23.4566 23.7535 23.6585 24.5308C23.8705 25.3889 23.7998 26.257 23.6282 27.1151C23.5676 27.428 23.497 27.7309 23.4162 28.0842C23.2244 28.0943 23.0528 28.1145 22.8711 28.1145C21.4074 28.1145 19.9436 28.1145 18.4799 28.1145C18.3083 28.1246 18.1367 28.1246 17.9045 28.1246ZM21.1449 26.4589C21.3266 26.0249 21.4175 25.5201 21.3367 25.1466C21.2862 24.9245 21.1954 24.7226 21.0439 24.5207C20.6805 24.0766 19.5499 24.1069 19.1966 24.4602C18.8029 24.8539 18.5505 25.298 18.4193 25.8331C18.3688 26.045 18.1972 26.2671 18.3991 26.4892C19.1461 26.5599 20.7815 26.5397 21.1449 26.4589Z" fill="white"/>
<path d="M26.3134 22.6331C27.1512 22.4009 27.9487 22.5019 28.8169 22.4716C28.7664 22.9057 28.7159 23.2691 28.6553 23.7233C28.8068 23.6022 28.8976 23.5315 28.9885 23.4508C29.3014 23.1782 29.5942 22.8653 29.9374 22.6331C30.5431 22.2192 31.1588 22.1788 31.8352 22.4615C31.704 23.3095 31.492 24.1473 31.1891 24.9448C30.6945 24.9347 30.2099 24.8641 29.7355 24.9246C29.261 24.9852 28.7866 25.1265 28.3323 25.3991C27.9386 27.6603 27.5449 29.9215 27.1512 32.1928C26.8181 32.2837 25.6168 32.314 24.7184 32.2433C24.7083 32.1222 24.678 31.991 24.6982 31.8698C24.89 30.6988 25.0919 29.5379 25.3039 28.3669C25.5563 26.9739 25.8288 25.5808 26.0812 24.1877C26.1619 23.683 26.2326 23.1681 26.3134 22.6331Z" fill="white"/>
<path d="M44.1304 32.2535C43.2825 32.2535 42.4951 32.2535 41.6976 32.2535C41.5765 31.9506 41.738 31.6882 41.7783 31.4156C41.9197 30.497 42.0812 29.5784 42.2528 28.6598C42.4042 27.8421 42.5556 27.0244 42.7071 26.1966C42.8686 25.3083 43.0099 24.42 43.1613 23.5316C43.2219 23.1884 43.3027 22.8553 43.3834 22.502C44.2213 22.502 45.0188 22.502 45.8465 22.502C45.2711 25.7626 44.7058 28.9929 44.1304 32.2535Z" fill="white"/>
<path d="M46.4726 19.6955C46.513 20.9473 45.2713 21.6034 44.3123 21.2602C43.7773 21.0684 43.5048 20.4627 43.6057 19.9782C43.6562 19.7056 43.6966 19.4331 43.8581 19.1807C44.1609 18.6961 44.9281 18.3428 45.5641 18.4539C46.1799 18.575 46.513 19.0596 46.4726 19.6955Z" fill="white"/>
<path d="M32.7227 22.6028C32.7227 22.6028 34.9536 22.2192 35.3877 22.512L36.1246 29.4875L39.3448 22.411L41.9594 22.5221C41.9594 22.5221 38.9915 29.013 36.9826 32.4149H34.1662C34.1662 32.4048 32.9145 26.1966 32.7227 22.6028Z" fill="#FFDD00"/>
<path d="M19.1659 19.1504C19.2668 18.4034 18.3482 18.353 18.3482 18.353L16.511 18.3025L15.875 21.4319H16.8643L17.1167 20.2407H17.4599C17.904 20.7454 17.9343 21.4319 17.9343 21.4319H19.0246C18.9236 20.8363 18.4593 20.0287 18.4593 20.0287C18.4593 20.0287 19.075 19.8975 19.1659 19.1504ZM18.1261 19.2514C18.0353 19.6754 17.6517 19.635 17.6517 19.635H17.2075L17.3387 18.9687C17.3387 18.9586 18.217 18.8274 18.1261 19.2514Z" fill="#FFDD00"/>
<path d="M24.2635 18.3025H21.7398L21.124 21.4218H23.7184L23.8496 20.7555L22.2849 20.7353L22.3758 20.2003L23.678 20.2104L23.8294 19.4533H22.507L22.5676 19.0293H24.0919L24.2635 18.3025Z" fill="#FFDD00"/>
<path d="M29.1903 18.7669C29.0187 18.5246 28.7461 18.3126 28.3524 18.2925C27.3329 18.242 26.5354 18.2925 26.5354 18.2925L25.9297 21.4218H27.4439C27.4439 21.4218 28.625 21.4016 29.2206 20.4124C29.5335 19.9076 29.5436 19.2515 29.1903 18.7669ZM28.3423 20.0994C28.0799 20.796 27.5751 20.806 27.5751 20.806H27.0603L27.4136 18.9385C27.4136 18.9385 27.5045 18.9284 27.9587 18.9385C28.1606 18.9385 28.2818 19.1 28.3524 19.2817C28.4635 19.5341 28.4433 19.8269 28.3423 20.0994Z" fill="#FFDD00"/>
</svg>
