<svg width="51" height="51" viewBox="0 0 51 51" fill="none" xmlns="http://www.w3.org/2000/svg">
<rect x="0.794922" y="0.975586" width="50" height="50" rx="10" fill="white"/>
<path d="M26.0317 15.9641V18.0896C26.0317 18.1758 26.0604 18.1949 26.137 18.1949H27.3242C27.4104 18.1949 27.4391 18.2141 27.4391 18.3003C27.4295 18.53 27.4295 18.7598 27.4391 18.9896C27.4391 19.0854 27.4104 19.0949 27.3242 19.0949H26.137C26.0604 19.0949 26.0317 19.1141 26.0317 19.2002V22.0726C26.0317 22.1875 26.0412 22.2928 26.07 22.4077C26.1561 22.9247 26.6061 23.2981 27.1231 23.2981C27.238 23.3077 27.3529 23.3077 27.4582 23.2981C27.5157 23.2981 27.5253 23.2981 27.5253 23.3555V24.2076C27.5253 24.2459 27.5253 24.2747 27.4678 24.2842C26.7976 24.3417 26.1561 24.2651 25.5912 23.8438C25.1604 23.5087 24.9785 23.0396 24.921 22.513C24.9019 22.3311 24.8923 22.1492 24.9019 21.9672V19.2385C24.9019 19.1332 24.8732 19.1141 24.7774 19.1141C24.5955 19.1237 24.4136 19.1141 24.2317 19.1141C24.1647 19.1141 24.1455 19.0949 24.1455 19.0279V18.2907C24.1455 18.2237 24.1742 18.2045 24.2317 18.2141C24.4136 18.2141 24.5955 18.2045 24.7774 18.2141C24.9019 18.2237 24.9402 18.1949 24.9402 18.0609C24.9306 17.4194 24.9402 16.7684 24.9402 16.1269C24.9402 16.079 24.9498 16.0407 24.9498 15.9928L26.0317 15.9641Z" fill="#284F9B"/>
<path d="M17.8166 15.9642C17.9123 15.9834 17.9315 16.0504 17.9315 16.1366C17.9219 16.3663 17.9219 16.6057 17.9315 16.8355C17.9315 16.9217 17.9219 16.9504 17.8262 16.9408C17.5868 16.9121 17.3475 16.9408 17.1272 17.0078C16.6677 17.1802 16.3804 17.6302 16.4283 18.1184C16.4379 18.195 16.4858 18.1759 16.5241 18.1759H17.6826C17.7783 18.1759 17.807 18.2046 17.807 18.3004C17.7974 18.5206 17.7974 18.7408 17.807 18.961C17.807 19.0567 17.7879 19.0855 17.6921 19.0759C17.3187 19.0663 16.9358 19.0759 16.5528 19.0759C16.4475 19.0759 16.4187 19.095 16.4187 19.2004C16.4187 20.8376 16.4187 22.4748 16.4187 24.1024C16.4187 24.2939 16.4475 24.2652 16.256 24.2652C15.9879 24.2652 15.7198 24.2556 15.4613 24.2652C15.3368 24.2652 15.3273 24.2269 15.3273 24.1216V19.2291C15.3273 19.095 15.2985 19.0567 15.1645 19.0663C15.0017 19.0759 14.839 19.0663 14.6762 19.0663C14.6188 19.0663 14.5996 19.0567 14.5996 18.9897V18.2429C14.5996 18.1855 14.6188 18.1663 14.6762 18.1663H15.2124C15.2985 18.1663 15.3273 18.1472 15.3273 18.061C15.3177 17.7068 15.3847 17.3621 15.5283 17.0365C15.806 16.4238 16.3038 16.1174 16.9453 15.9929C17.0219 15.9929 17.0889 15.9738 17.156 15.9451L17.8166 15.9642Z" fill="#284F9B"/>
<path d="M22.9489 22.6377C23.0925 22.8866 23.217 23.126 23.3606 23.3557C23.3989 23.394 23.3989 23.4611 23.3606 23.4994C23.351 23.5089 23.3415 23.5185 23.3223 23.5281C22.9106 23.8536 22.4319 24.0834 21.9244 24.1887C20.9574 24.3994 20.0479 24.2653 19.2436 23.6717C18.5255 23.1451 18.1617 22.4079 18.0851 21.5366C17.999 20.8281 18.1617 20.1005 18.5255 19.4877C18.9947 18.7313 19.6936 18.3101 20.5745 18.2047C21.1202 18.1186 21.6755 18.2047 22.1638 18.4441C22.8915 18.8175 23.2649 19.4398 23.4276 20.2154C23.4946 20.56 23.5042 20.9047 23.4755 21.259C23.4659 21.3547 23.4372 21.3834 23.3319 21.3834H19.3681C19.2532 21.3834 19.2245 21.4122 19.234 21.527C19.2915 22.5132 20.0957 23.2887 21.0819 23.3079C21.7042 23.327 22.317 23.126 22.8149 22.743C22.8532 22.7143 22.901 22.676 22.9489 22.6377Z" fill="#284F9B"/>
<path d="M12.6275 23.145C12.5604 23.2503 12.4934 23.3652 12.4168 23.4609C11.9381 24.0832 11.2966 24.3322 10.5211 24.2652C10.1094 24.2364 9.71686 24.0832 9.40091 23.8343C8.67325 23.2407 8.56794 22.1588 9.16155 21.4311C9.24772 21.3258 9.34346 21.2301 9.44878 21.1535C9.87962 20.8375 10.3679 20.7035 10.8849 20.6077C11.3924 20.5216 11.9094 20.4929 12.4264 20.5024C12.5221 20.5024 12.5413 20.4737 12.5413 20.3875C12.5413 20.2631 12.5221 20.129 12.503 20.0046C12.3881 19.4684 12.0243 19.1716 11.4498 19.1333C10.8466 19.1046 10.253 19.2673 9.75516 19.612C9.64984 19.679 9.62112 19.6599 9.57324 19.5641C9.46793 19.3535 9.35303 19.1524 9.22857 18.9514C9.19027 18.8844 9.19984 18.8461 9.25729 18.8078C9.74558 18.4822 10.3105 18.2716 10.8945 18.2046C11.3924 18.128 11.8998 18.1759 12.369 18.3386C13.0966 18.6067 13.4796 19.1524 13.6041 19.8992C13.6424 20.1099 13.6519 20.3109 13.6519 20.5216V24.1503C13.6519 24.2652 13.6232 24.2939 13.5179 24.2843C13.2594 24.2747 12.9913 24.2747 12.7328 24.2843C12.6275 24.2843 12.6083 24.246 12.6083 24.1598C12.6275 23.8247 12.6179 23.4896 12.6275 23.145Z" fill="#284F9B"/>
<path d="M27.6016 18.1854H28.7888C28.8654 18.1854 28.8654 18.2428 28.8845 18.2907C29.2867 19.3247 29.6792 20.3587 30.0717 21.3928C30.2632 21.8428 30.426 22.3119 30.56 22.7811C30.5696 22.8002 30.5792 22.8193 30.5888 22.8385C30.7707 22.0917 31.0675 21.4119 31.3164 20.7034C31.6132 19.8992 31.91 19.0949 32.2068 18.2811C32.2356 18.2045 32.2643 18.1758 32.3504 18.1758C32.7143 18.1854 33.0781 18.1758 33.4515 18.1758C33.3845 18.3481 33.3175 18.5013 33.26 18.6641C32.4079 20.8279 31.5462 22.9917 30.6845 25.1651C30.5026 25.6342 30.2249 26.0363 29.7845 26.2948C29.1047 26.6874 28.425 26.6491 27.7452 26.2661C27.6686 26.2278 27.6686 26.1895 27.7069 26.1225C27.8122 25.9023 27.9175 25.6917 28.0037 25.4619C28.042 25.3757 28.0707 25.3661 28.1473 25.414C28.6643 25.73 29.1622 25.6342 29.526 25.1842C29.6122 25.0789 29.6792 24.964 29.7366 24.8491C29.842 24.6193 29.9377 24.38 30.043 24.1502C30.0622 24.1023 30.0622 24.0449 30.0335 23.997C29.4207 22.5608 28.8175 21.1247 28.2047 19.6885C28.0133 19.2385 27.8218 18.779 27.6303 18.329C27.6111 18.2715 27.6016 18.2332 27.6016 18.1854Z" fill="#284F9B"/>
<path d="M7.63929 19.6694C7.19887 19.3056 6.63398 19.1237 6.05952 19.1716C5.88718 19.1811 5.71484 19.229 5.56165 19.3247C5.27442 19.4779 5.15953 19.8418 5.32229 20.129C5.36059 20.196 5.40846 20.263 5.47548 20.3109C5.6574 20.4545 5.86803 20.5694 6.07867 20.646C6.43292 20.7992 6.78717 20.9237 7.13185 21.096C7.39036 21.2205 7.62972 21.3832 7.83078 21.5843C8.39566 22.2066 8.35737 23.1736 7.73503 23.7385C7.69674 23.7672 7.65844 23.8055 7.62014 23.8343C7.26589 24.1024 6.83504 24.2651 6.38505 24.2843C5.52335 24.3609 4.67124 24.0928 4.0106 23.5279C3.92444 23.4609 3.92444 23.4034 3.99146 23.3173C4.13507 23.1162 4.26911 22.9247 4.40315 22.7236C4.45103 22.6566 4.47017 22.6566 4.5372 22.7045C5.00634 23.1162 5.60952 23.3364 6.23186 23.3077C6.43292 23.2981 6.61483 23.2407 6.78717 23.1353C7.17972 22.8768 7.20844 22.4173 6.83504 22.1205C6.6627 21.9864 6.47122 21.8907 6.27016 21.8045C5.92548 21.6513 5.57123 21.5268 5.23612 21.3641C5.02549 21.2588 4.82443 21.1343 4.64251 20.9811C4.0106 20.4545 3.91486 19.5067 4.45103 18.8747C4.52762 18.7886 4.61379 18.7024 4.70953 18.6354C5.05421 18.3769 5.47548 18.2333 5.89676 18.2045C6.55739 18.1471 7.18929 18.2428 7.77333 18.5875C8.10843 18.7886 8.10843 18.7982 7.92652 19.1333L7.63929 19.6694Z" fill="#284F9B"/>
<path d="M20.8137 20.5599H19.3967C19.2818 20.5599 19.2531 20.5407 19.2818 20.4163C19.5499 19.2482 20.6127 18.9131 21.3786 19.1333C21.9627 19.2961 22.2403 19.7269 22.3265 20.2918C22.3648 20.5503 22.3648 20.5503 22.0967 20.5503L20.8137 20.5599Z" fill="white"/>
<path d="M12.072 21.3547H12.4741C12.5316 21.3547 12.5603 21.3643 12.5603 21.4409C12.5603 22.1111 12.3496 22.6856 11.8039 23.1164C11.4401 23.4132 10.9326 23.4898 10.4922 23.2983C10.1667 23.1834 9.94647 22.8962 9.91775 22.5515C9.86988 22.1973 10.0518 21.8526 10.3677 21.6898C10.6933 21.4984 11.0475 21.4409 11.4113 21.393C11.6411 21.3643 11.8518 21.3547 12.072 21.3547Z" fill="white"/>
<path d="M47.6298 25.6846C47.5934 25.63 47.5934 25.5572 47.6298 25.5027V25.6846Z" fill="#6A83B9"/>
<path d="M47.5924 26.4121C47.5924 26.3575 47.5743 26.303 47.6106 26.2666V26.4121C47.6106 26.4303 47.6106 26.4303 47.5924 26.4121Z" fill="#4CB4DC"/>
<path d="M47.5928 26.4121H47.611V26.5576C47.5746 26.5212 47.611 26.4667 47.5928 26.4121Z" fill="#77C5E5"/>
<path d="M44.8457 25.9757C44.8457 25.3209 44.7547 24.6844 44.591 24.066C43.7544 21.3014 41.9174 19.5735 39.1164 18.8642C38.6981 18.7551 38.2798 18.7005 37.8614 18.6823C37.7705 18.6823 37.7705 18.6277 37.7705 18.5732V15.9177H37.8433C37.8978 15.9359 37.9706 15.9359 38.0251 15.9177H38.1706C38.3343 15.9541 38.5162 15.9359 38.6981 15.9541C39.5711 16.0632 40.4441 16.2633 41.2626 16.5907C42.3175 17.009 43.3179 17.6092 44.1727 18.3549C45.264 19.3007 46.1552 20.4647 46.7554 21.7925C47.2101 22.7746 47.5011 23.8113 47.6102 24.8662C47.6284 25.0299 47.6102 25.1936 47.6466 25.3573V25.5028C47.6284 25.5574 47.6284 25.6301 47.6466 25.6847V25.9939C47.592 26.0303 47.5375 26.0485 47.4829 26.0303H45.0457C44.9548 26.0303 44.882 26.0303 44.8457 25.9757Z" fill="#284F9B"/>
<path d="M44.8457 25.9756H47.6284V26.2484C47.6102 26.303 47.6284 26.3575 47.6102 26.3939C47.592 26.4303 47.592 26.503 47.6284 26.5394V26.6122C47.592 26.794 47.6102 26.9759 47.592 27.1578C47.5193 27.7398 47.392 28.3218 47.2283 28.9039C46.9555 29.8314 46.5371 30.7045 45.9915 31.5047C45.7005 31.9594 45.3549 32.3778 44.9912 32.7779C44.3364 33.4872 43.5907 34.1056 42.7722 34.5967C41.5172 35.3606 40.1168 35.8335 38.6435 35.9972C38.498 36.0154 38.3343 35.9972 38.1888 36.0336H38.1343C38.0797 36.0154 38.0251 36.0336 37.9888 36.0154C37.9342 36.0154 37.8796 35.9972 37.8433 36.0336H37.7705V33.3781C37.7705 33.2872 37.7887 33.269 37.8796 33.269C41.1535 33.1235 44.0272 30.6863 44.7002 27.4852C44.7911 27.0123 44.8457 26.503 44.8457 25.9756Z" fill="#009BD0"/>
<path d="M38.0071 15.9177C37.9525 15.9541 37.8798 15.9541 37.8252 15.9177H38.0071Z" fill="#5673AF"/>
<path d="M35.4238 25.9938V25.2117V22.0106V21.8469L36.024 22.3198C37.5518 23.5202 39.0978 24.7206 40.6256 25.921C40.662 25.9392 40.6984 25.9574 40.6984 25.9938C40.6438 26.0302 40.571 26.0484 40.4983 26.0302H35.6057C35.5511 26.0484 35.4784 26.0302 35.4238 25.9938Z" fill="#284F9B"/>
<path d="M35.4245 25.9939H40.699C40.5353 26.1394 40.3716 26.2849 40.1897 26.4122C38.6619 27.6126 37.116 28.813 35.57 30.0135C35.5336 30.0498 35.479 30.068 35.4427 30.1044C35.4063 30.068 35.4245 30.0498 35.4245 30.0316V26.0485C35.4245 26.0121 35.4245 25.9939 35.4245 25.9939Z" fill="#009BD0"/>
<path d="M14.623 36.0339C14.6901 35.6414 14.7571 35.2584 14.8337 34.8659C15.1018 33.4297 15.3698 32.0031 15.6475 30.567C15.8198 29.6287 16.0018 28.7 16.1741 27.7617C16.1932 27.6851 16.2124 27.6564 16.2986 27.6564C16.5666 27.6659 16.8443 27.6659 17.1124 27.6564C17.2177 27.6564 17.2273 27.6947 17.2081 27.7808C17.1603 28.0872 17.0837 28.3936 16.9975 28.6904C17.0645 28.6808 17.0837 28.6329 17.1124 28.5946C17.773 27.733 18.9315 27.417 19.9464 27.8191C20.5879 28.0776 20.9517 28.5851 21.1049 29.2361C21.4113 30.5287 20.99 32.2521 19.707 33.1808C19.0081 33.6786 18.2422 33.8797 17.39 33.6499C16.94 33.535 16.5571 33.2286 16.356 32.8074C16.3464 32.7882 16.3273 32.7691 16.3177 32.7403H16.3081C16.1262 33.8318 15.906 34.9233 15.6954 36.0148L14.623 36.0339Z" fill="#009BD0"/>
<path d="M27.0409 36.0339C26.9643 35.9956 26.8782 35.9668 26.792 35.9668C26.5909 35.9094 26.3899 35.8232 26.208 35.7083C26.1505 35.67 26.1409 35.6413 26.1792 35.5839C26.3133 35.3732 26.4569 35.1626 26.5909 34.9424C26.6292 34.8849 26.6484 34.8754 26.7154 34.9137C27.1367 35.1626 27.6728 35.1147 28.0367 34.7796C28.2186 34.6264 28.3718 34.4349 28.4962 34.2243C28.6111 34.0328 28.7356 33.8318 28.8601 33.6403C28.8983 33.5828 28.9175 33.5062 28.8888 33.4296C28.4579 31.5531 28.0175 29.6669 27.5771 27.7808C27.5579 27.6754 27.5579 27.6467 27.6824 27.6467C27.9888 27.6563 28.2952 27.6467 28.592 27.6467C28.6686 27.6467 28.7069 27.6563 28.726 27.752C28.9941 29.102 29.2622 30.4616 29.5303 31.8211C29.5686 32.0126 29.5877 32.2041 29.6164 32.4339C29.7792 32.0892 29.942 31.7828 30.1143 31.4765C30.7941 30.2414 31.4739 29.0063 32.1536 27.7712C32.1919 27.685 32.2685 27.6371 32.3643 27.6467C32.7281 27.6563 33.0919 27.6467 33.4462 27.6467C33.4653 27.6946 33.427 27.7233 33.4079 27.752C32.0387 30.069 30.66 32.3956 29.2909 34.7126C28.9941 35.22 28.6015 35.6317 28.0462 35.8807C27.893 35.9477 27.7207 35.9668 27.5675 36.0339H27.0409Z" fill="#009BD0"/>
<path d="M25.1846 32.6254C25.1175 32.7116 25.0601 32.7882 25.0026 32.8552C24.5526 33.3722 23.9973 33.7169 23.2888 33.7552C22.8388 33.7935 22.3888 33.6595 22.0154 33.3914C21.508 33.018 21.3357 32.3765 21.5559 31.6871C21.7186 31.1701 22.0633 30.8159 22.5229 30.5669C23.0112 30.3084 23.5473 30.1361 24.0931 30.0691C24.5526 30.002 25.0218 29.9733 25.4909 29.9829C25.5867 29.9829 25.625 29.9542 25.6346 29.8584C25.6633 29.6669 25.6633 29.4755 25.6441 29.284C25.5867 28.901 25.309 28.6616 24.8878 28.6138C24.2175 28.5372 23.6239 28.7478 23.0495 29.0638C22.8963 29.1499 22.8963 29.1499 22.8388 28.9776C22.7718 28.767 22.6952 28.5467 22.6282 28.3361C22.6091 28.2787 22.6091 28.2499 22.6665 28.2212C23.5378 27.7616 24.4569 27.5319 25.4431 27.7138C26.1803 27.8478 26.6303 28.2978 26.7643 28.9967C26.8122 29.3606 26.8026 29.734 26.7165 30.0882C26.4867 31.2754 26.2569 32.4531 26.0271 33.6403C26.008 33.7265 25.9792 33.7552 25.8931 33.7552C25.625 33.7456 25.3473 33.7552 25.0792 33.7552C24.9835 33.7552 24.9739 33.7361 24.9931 33.6403C25.0505 33.3148 25.1175 32.9797 25.1846 32.6254Z" fill="#009BD0"/>
<path d="M16.6338 31.2274C16.6625 30.4136 16.9402 29.686 17.5625 29.1211C17.9072 28.786 18.3763 28.6136 18.855 28.6328C19.4295 28.6615 19.8412 28.987 19.9848 29.5328C20.2146 30.3849 19.9561 31.7062 18.9987 32.3859C18.6636 32.6444 18.2519 32.7689 17.8306 32.7498C17.2178 32.7115 16.787 32.3189 16.6721 31.687C16.6529 31.5338 16.6338 31.3806 16.6338 31.2274Z" fill="white"/>
<path d="M25.0015 30.8064H25.3844C25.4419 30.8064 25.461 30.8255 25.4419 30.883C25.3079 31.5628 24.9153 32.1564 24.3504 32.5585C24.0632 32.7596 23.7089 32.8553 23.3547 32.817C22.5792 32.7404 22.4451 32.0702 22.7132 31.5819C22.8377 31.3809 23.01 31.2277 23.2206 31.1319C23.5845 30.9692 23.977 30.8638 24.3696 30.8351C24.5898 30.816 24.8004 30.8064 25.0015 30.8064Z" fill="white"/>
</svg>
