<svg width="51" height="51" viewBox="0 0 51 51" fill="none" xmlns="http://www.w3.org/2000/svg">
<circle cx="25.7949" cy="25.5732" r="25" fill="white"/>
<g clip-path="url(#clip0_1903_17789)">
<path d="M23.3684 18.7389C27.4542 16.9387 29.5632 12.7486 28.0791 9.38018C26.5949 6.01172 22.0795 4.74042 17.9937 6.54067C13.9079 8.34091 11.7989 12.531 13.283 15.8994C14.7672 19.2679 19.2826 20.5392 23.3684 18.7389Z" fill="#76B42A"/>
<path d="M41.6552 36.5779C46.6973 33.4265 48.1236 26.614 44.8409 21.3616C41.5582 16.1093 34.8095 14.406 29.7673 17.5574C24.7252 20.7088 23.2989 27.5213 26.5816 32.7737C29.8643 38.026 36.613 39.7293 41.6552 36.5779Z" fill="#E02213"/>
<path d="M9.68505 31.0492C12.2785 31.0492 14.3808 28.2435 14.3808 24.7825C14.3808 21.3216 12.2785 18.5159 9.68505 18.5159C7.09163 18.5159 4.98926 21.3216 4.98926 24.7825C4.98926 28.2435 7.09163 31.0492 9.68505 31.0492Z" fill="#005CA5"/>
<path d="M26.3767 43.4783C28.3361 40.854 27.0183 36.5565 23.4331 33.8796C19.8479 31.2027 15.3531 31.1601 13.3937 33.7844C11.4342 36.4087 12.752 40.7062 16.3372 43.3831C19.9224 46.06 24.4172 46.1026 26.3767 43.4783Z" fill="#FFD900"/>
<path d="M13.4941 16.3221C15.1604 19.3684 19.4579 20.4568 23.3682 18.7345C24.9671 18.0276 26.2687 16.956 27.1607 15.7105C25.3486 14.2182 23.0989 13.3374 20.6697 13.3374C17.9206 13.343 15.4129 14.4651 13.4941 16.3221Z" fill="#A6CE74"/>
<path d="M31.5811 25.4328C31.5811 22.594 30.7003 19.9908 29.2248 17.9263C24.6244 21.2139 23.4182 27.7218 26.5768 32.7766C26.9695 33.3994 27.4071 33.9772 27.8896 34.499C30.1505 32.2829 31.5811 29.0402 31.5811 25.4328Z" fill="#EB6F65"/>
<path d="M10.9079 30.8359C12.9052 30.1178 14.3807 27.683 14.3807 24.7881C14.3807 22.1569 13.1689 19.9071 11.4465 18.9814C10.3749 20.8441 9.75781 23.0601 9.75781 25.4332C9.75781 27.3744 10.173 29.209 10.9079 30.8359Z" fill="#5995C4"/>
<path d="M20.6703 37.5234C22.4824 37.5234 24.1936 37.0353 25.6971 36.1657C25.0968 35.3354 24.3394 34.5556 23.4306 33.8824C19.8456 31.2063 15.3518 31.1614 13.3938 33.787C13.2984 33.9104 13.2143 34.0395 13.1357 34.1741C15.0937 36.2499 17.7474 37.5234 20.6703 37.5234Z" fill="#FFE659"/>
</g>
<defs>
<clipPath id="clip0_1903_17789">
<rect width="41.6113" height="39.6982" fill="white" transform="translate(4.98926 5.72412)"/>
</clipPath>
</defs>
</svg>
