<svg width="51" height="51" viewBox="0 0 51 51" fill="none" xmlns="http://www.w3.org/2000/svg">
<rect x="0.794922" y="0.27417" width="50" height="50" rx="10" fill="black"/>
<path fill-rule="evenodd" clip-rule="evenodd" d="M11.7094 15.1822L9.56373 13.0366C6.99313 16.4409 5.46875 20.6794 5.46875 25.274C5.46875 36.5001 14.5693 45.6006 25.7954 45.6006C37.0215 45.6006 46.1221 36.5001 46.1221 25.274C46.1221 20.7053 44.6148 16.4887 42.0704 13.0942L39.9235 15.2411C41.9376 18.0723 43.1221 21.5348 43.1221 25.274C43.1221 34.8432 35.3647 42.6006 25.7954 42.6006C16.2262 42.6006 8.46875 34.8432 8.46875 25.274C8.46875 21.5088 9.66968 18.0242 11.7094 15.1822Z" fill="#FF6720"/>
<g clip-path="url(#clip0_1909_6074)">
<path d="M23.0132 22.7243C23.059 23.62 23.6082 24.5289 24.6413 25.1173C24.9944 25.32 25.3997 25.4508 25.792 25.575C26.9624 25.9543 28.1524 26.2746 29.3032 26.7062C30.7024 27.2227 31.814 28.1381 32.422 29.5243C33.2459 31.4139 33.1674 34.3889 31.2974 36.2262C30.2578 37.2396 29.0024 37.8281 27.5836 38.0831C26.884 38.2073 27.0213 38.1877 27.0147 38.7762C27.0017 39.5739 26.4394 40.1231 25.6874 40.0512C25.0467 39.9923 24.6086 39.5019 24.5759 38.8089C24.5432 38.155 24.5497 38.1485 23.9024 38.0308C21.8559 37.6516 20.2605 36.625 19.2601 34.7681C19.0313 34.3431 18.8613 33.8723 18.7436 33.4016C18.554 32.6039 18.809 31.9304 19.4759 31.4466C20.1428 30.9693 20.8751 30.9431 21.5682 31.342C21.8494 31.5054 22.0717 31.8193 22.2417 32.107C22.4836 32.532 22.6536 32.9962 22.8563 33.4408C23.7978 35.507 26.9951 36.0889 28.6559 34.075C29.4078 33.1596 29.5386 31.3027 28.1917 30.3873C27.4528 29.8904 26.6224 29.642 25.792 29.3935C24.2751 28.9358 22.7844 28.4193 21.4897 27.4646C20.1428 26.4643 19.3844 25.137 19.2863 23.4566C19.2209 22.3908 19.2994 21.3446 19.7374 20.3508C20.2997 19.0823 21.2282 18.1473 22.4182 17.5C22.9936 17.1862 23.6409 16.99 24.2686 16.7939C24.504 16.7154 24.589 16.6304 24.5824 16.395C24.5628 15.9504 24.589 15.5189 24.942 15.1854C25.3017 14.8323 25.7201 14.7146 26.1974 14.8781C26.6878 15.0481 26.9559 15.4143 27.0082 15.9243C27.0344 16.1793 26.9559 16.5127 27.0932 16.6762C27.2305 16.8396 27.564 16.8396 27.8124 16.9116C29.6563 17.4739 31.0947 18.5462 31.984 20.2854C32.252 20.8085 32.4547 21.3643 32.4417 21.9723C32.422 22.8289 31.7355 23.6396 30.9051 23.7639C29.8851 23.9143 29.1267 23.4893 28.8128 22.5739C28.7082 22.2666 28.6297 21.9462 28.5382 21.6323C28.1328 20.2331 26.897 19.4027 25.5174 19.6054C24.0855 19.8016 23.0132 21.0112 23.0132 22.7243Z" fill="#FF6720"/>
<path d="M19.1355 19.4356C19.0374 19.3441 18.9459 19.2722 18.8609 19.1937C18.0828 18.4156 17.2982 17.6441 16.5267 16.8595C16.3436 16.6699 16.2193 16.6503 16.0232 16.8529C15.5524 17.3499 15.062 17.8337 14.5782 18.3176C14.4147 18.481 14.2578 18.651 13.9897 18.5856C13.7217 18.5203 13.6628 18.2914 13.604 18.0691C13.0286 15.8787 12.4532 13.6883 11.8778 11.498C11.7797 11.1318 11.6751 10.7656 11.5901 10.393C11.479 9.88949 11.7209 9.65411 12.2178 9.78487C14.8005 10.4845 17.3832 11.1906 19.9659 11.8968C20.4432 12.0276 20.5347 12.3218 20.2013 12.6814C19.7959 13.1195 19.3774 13.5445 18.9459 13.9564C18.5601 14.3226 18.5405 14.3487 18.9067 14.7149C19.5997 15.4079 20.2863 16.1076 20.9924 16.7876C21.2082 16.9968 21.267 17.1276 20.9859 17.3368C20.2863 17.8533 19.7436 18.5203 19.2859 19.2591C19.2467 19.3114 19.1943 19.3572 19.1355 19.4356Z" fill="#FF6720"/>
<path d="M30.3369 17.0752C30.4611 16.9444 30.5461 16.8463 30.6311 16.7548C31.3569 16.029 32.0761 15.3033 32.8019 14.584C32.985 14.4075 32.985 14.2833 32.8019 14.1067C32.3246 13.649 31.8538 13.1717 31.3896 12.7009C31.0496 12.3544 31.115 12.0406 31.5923 11.9098C33.1615 11.4652 34.7373 11.0402 36.3131 10.6086C37.3004 10.3406 38.2877 10.0725 39.275 9.80441C39.8896 9.63441 40.1315 9.86325 39.9746 10.4844C39.3273 12.9559 38.6735 15.434 38.0196 17.9056C38.0196 17.9186 38.0131 17.9252 38.0131 17.9383C37.8627 18.6836 37.4246 18.8275 36.9081 18.2325C36.5027 17.7683 36.0254 17.3629 35.6004 16.9052C35.3781 16.6698 35.2408 16.6502 35.0054 16.8986C34.2927 17.644 33.5408 18.3633 32.8215 19.1021C32.6188 19.3113 32.4946 19.3244 32.3246 19.0694C31.8015 18.2913 31.1346 17.6571 30.3369 17.0752Z" fill="#FF6720"/>
<path d="M27.2693 14.4206C26.112 13.6229 25.092 13.7079 24.1047 14.6887C24.1047 14.4991 24.1047 14.3749 24.1047 14.2572C24.1047 13.7537 24.0981 13.2568 24.1178 12.7533C24.1243 12.4852 24.0197 12.3806 23.7516 12.3872C23.1174 12.4002 22.4897 12.3937 21.8555 12.3872C21.2539 12.3872 21.0839 12.1126 21.3847 11.5764C22.1758 10.1772 22.9866 8.77794 23.7843 7.37871C24.2681 6.54179 24.7455 5.70486 25.2293 4.8614C25.2751 4.7764 25.3208 4.6914 25.3797 4.6064C25.6216 4.25333 25.9289 4.24025 26.1512 4.6064C26.5631 5.27333 26.962 5.94679 27.3543 6.62679C28.2631 8.18948 29.1785 9.75217 30.0743 11.3149C30.2181 11.5699 30.4797 11.8118 30.3031 12.1518C30.1135 12.5049 29.7735 12.3806 29.4793 12.3872C28.8581 12.4002 28.237 12.4002 27.6158 12.3872C27.3674 12.3872 27.2628 12.4852 27.2628 12.7337C27.2758 13.2699 27.2693 13.7995 27.2693 14.4206Z" fill="#FF6720"/>
</g>
<defs>
<clipPath id="clip0_1909_6074">
<rect width="28.4619" height="41.8723" fill="white" transform="translate(11.5645 4.33813)"/>
</clipPath>
</defs>
</svg>
