<svg width="51" height="51" viewBox="0 0 51 51" fill="none" xmlns="http://www.w3.org/2000/svg">
<rect x="0.794922" y="0.890625" width="50" height="50" rx="10" fill="#1A1F71"/>
<path d="M11.3041 21.1274C11.0285 20.1511 10.1496 19.4926 8.95601 19.4785H3.35553L3.29785 19.7154C7.66662 20.6968 11.3335 23.7167 12.5232 26.5572L11.3041 21.1274Z" fill="white"/>
<path d="M21.6893 19.4749L19.4311 32.2796H23.0405L25.2973 19.4749H21.6893ZM32.5766 24.6908C31.3152 24.1232 30.542 23.7402 30.542 23.1597C30.5574 22.6319 31.1959 22.0911 32.6216 22.0911C33.7943 22.0643 34.6562 22.3154 35.31 22.5652L35.6376 22.6985L36.1283 20.0194C35.4154 19.7683 34.285 19.4916 32.8887 19.4916C29.3243 19.4916 26.8145 21.1802 26.7989 23.5954C26.7694 25.3777 28.5958 26.3667 29.9626 26.96C31.3589 27.5686 31.8342 27.9632 31.8342 28.5039C31.8188 29.3341 30.7052 29.7172 29.6661 29.7172C28.2263 29.7172 27.4529 29.5199 26.2789 29.0573L25.8036 28.86L25.2988 31.6442C26.1467 31.9876 27.706 32.2899 29.3245 32.3053C33.1125 32.3053 35.5773 30.6422 35.6083 28.0683C35.6206 26.6563 34.6575 25.5748 32.5766 24.6908ZM45.3817 19.5145H42.5891C41.7286 19.5145 41.0747 19.74 40.7022 20.5447L35.3407 32.2796H39.1287L40.172 29.739H44.41L44.9513 32.2899H48.2922L45.3817 19.5145ZM41.2225 27.175C41.2956 27.1814 42.6764 23.0276 42.6764 23.0276L43.776 27.175C43.776 27.175 41.9354 27.175 41.2225 27.175ZM16.4151 19.4749L12.8788 28.1745L12.4936 26.4589C11.8397 24.4793 9.78974 22.3282 7.50195 21.2596L10.7402 32.2668H14.5591L20.2341 19.4763H16.4151V19.4749Z" fill="white"/>
</svg>
