<svg width="100" height="100" viewBox="0 0 100 100" fill="none" xmlns="http://www.w3.org/2000/svg">
<g clip-path="url(#clip0_2889_48857)">
<path d="M50 99.8051C22.5387 99.8051 0.19485 77.4628 0.19485 50C0.19485 22.5372 22.5387 0.19485 50 0.19485C77.4612 0.19485 99.8051 22.5372 99.8051 50C99.8051 77.4628 77.4612 99.8051 50 99.8051ZM50 9.1136C27.5675 9.1136 9.32189 27.4557 9.32189 50C9.32189 72.5443 27.5703 90.8864 50 90.8864C72.4297 90.8864 90.6781 72.5443 90.6781 50C90.6781 27.4557 72.4325 9.1136 50 9.1136Z" fill="#67C940" stroke="#67C940" stroke-width="0.389701"/>
<path d="M36.2034 70.2489L25.6063 59.6768C23.7673 57.8404 23.7948 54.8935 25.6723 53.0947C27.5498 51.2959 30.5598 51.3228 32.4016 53.1592L39.6038 60.3436L66.906 33.1469C68.7477 31.3131 71.7606 31.2863 73.6353 33.0877C75.5101 34.8892 75.5376 37.836 73.6958 39.6698L42.9959 70.2516C41.1294 72.1096 38.0671 72.1096 36.2034 70.2516V70.2489Z" fill="#67C940"/>
</g>
<defs>
<clipPath id="clip0_2889_48857">
<rect width="100" height="100" fill="white"/>
</clipPath>
</defs>
</svg>
