<svg width="100" height="100" viewBox="0 0 100 100" fill="none" xmlns="http://www.w3.org/2000/svg">
<g clip-path="url(#clip0_2896_49976)">
<path d="M49.9986 100C22.4304 100 0 77.5696 0 49.9986C0 22.4277 22.4304 0 49.9986 0C77.5668 0 99.9972 22.4304 99.9972 49.9986C99.9972 77.5668 77.5668 99.9972 49.9986 99.9972V100ZM49.9986 9.51177C27.6726 9.51177 9.50903 27.6754 9.50903 50.0014C9.50903 72.3274 27.6726 90.491 49.9986 90.491C72.3246 90.491 90.4882 72.3274 90.4882 50.0014C90.4882 27.6754 72.3246 9.51177 49.9986 9.51177Z" fill="#E1251B"/>
<path d="M38.0878 31.4916C36.2305 29.6343 33.2192 29.6343 31.3619 31.4916C29.5047 33.3489 29.5047 36.3601 31.3619 38.2174L62.0401 68.8956C63.8974 70.7528 66.9086 70.7528 68.7659 68.8956C70.6232 67.0383 70.6232 64.027 68.7659 62.1697L38.0878 31.4916Z" fill="#E1251B"/>
<path d="M62.0401 31.4936L31.3619 62.1717C29.5047 64.029 29.5047 67.0403 31.3619 68.8976C33.2192 70.7549 36.2305 70.7549 38.0878 68.8976L68.7659 38.2194C70.6232 36.3622 70.6232 33.3509 68.7659 31.4936C66.9086 29.6363 63.8974 29.6363 62.0401 31.4936Z" fill="#E1251B"/>
</g>
<defs>
<clipPath id="clip0_2896_49976">
<rect width="100" height="100" fill="white"/>
</clipPath>
</defs>
</svg>
