<svg width="100" height="100" viewBox="0 0 100 100" fill="none" xmlns="http://www.w3.org/2000/svg">
<path d="M70.8333 66.6665L87.5 49.9998M87.5 49.9998L70.8333 33.3332M87.5 49.9998H29.1667M54.1667 66.6665V70.8332C54.1667 74.1484 52.8497 77.3278 50.5055 79.672C48.1613 82.0162 44.9819 83.3332 41.6667 83.3332H25C21.6848 83.3332 18.5054 82.0162 16.1612 79.672C13.817 77.3278 12.5 74.1484 12.5 70.8332V29.1665C12.5 25.8513 13.817 22.6719 16.1612 20.3277C18.5054 17.9835 21.6848 16.6665 25 16.6665H41.6667C44.9819 16.6665 48.1613 17.9835 50.5055 20.3277C52.8497 22.6719 54.1667 25.8513 54.1667 29.1665V33.3332" stroke="#747474" stroke-width="7" stroke-linecap="round" stroke-linejoin="round"/>
</svg>
