<svg width="104" height="104" viewBox="0 0 104 104" fill="none" xmlns="http://www.w3.org/2000/svg">
<path d="M97 52C97 76.8528 76.8528 97 52 97C27.1472 97 7 76.8528 7 52C7 27.1472 27.1472 7 52 7C76.8528 7 97 27.1472 97 52ZM52 103C80.1665 103 103 80.1665 103 52C103 23.8335 80.1665 1 52 1C23.8335 1 1 23.8335 1 52C1 80.1665 23.8335 103 52 103Z" fill="#FFD100" stroke="#FFD100" stroke-width="2"/>
<path fill-rule="evenodd" clip-rule="evenodd" d="M54 32.6665C54 31.5619 53.1046 30.6665 52 30.6665C50.8954 30.6665 50 31.5619 50 32.6665V58.8203C50 59.9249 50.8954 60.8203 52 60.8203C53.1046 60.8203 54 59.9249 54 58.8203V32.6665Z" fill="#FFD100" stroke="#FFD100" stroke-width="3"/>
<path fill-rule="evenodd" clip-rule="evenodd" d="M54 71.0253C54 69.9207 53.1046 69.0253 52 69.0253C50.8954 69.0253 50 69.9207 50 71.0253V71.333C50 72.4376 50.8954 73.333 52 73.333C53.1046 73.333 54 72.4376 54 71.333V71.0253Z" fill="#FFD100" stroke="#FFD100" stroke-width="3"/>
</svg>
