<?xml version="1.0" standalone="no"?>
<!DOCTYPE svg PUBLIC "-//W3C//DTD SVG 20010904//EN"
 "http://www.w3.org/TR/2001/REC-SVG-20010904/DTD/svg10.dtd">
<svg version="1.0" xmlns="http://www.w3.org/2000/svg"
 width="190.000000pt" height="190.000000pt" viewBox="0 0 190.000000 190.000000"
 preserveAspectRatio="xMidYMid meet">
<metadata>
Created by potrace 1.11, written by Peter Selinger 2001-2013
</metadata>
<g transform="translate(0.000000,190.000000) scale(0.100000,-0.100000)"
fill="#000000" stroke="none">
<path d="M87 1885 c-24 -6 -48 -21 -60 -37 -19 -26 -20 -46 -19 -897 0 -948
-3 -902 54 -932 31 -16 1746 -16 1777 0 11 7 29 23 38 37 15 23 16 99 16 894
-1 626 -4 874 -12 889 -30 56 12 53 -907 55 -535 1 -861 -3 -887 -9z"/>
</g>
</svg>
